<?xml version="1.0" standalone="no"?>
<!DOCTYPE svg PUBLIC "-//W3C//DTD SVG 1.1//EN" "http://www.w3.org/Graphics/SVG/1.1/DTD/svg11.dtd" >
<svg>
<metadata>
Created by FontForge 20110222 at Wed Mar 14 11:48:57 2012
 By Stefan Warting
(c)2009 Christian Schwartz, under exclusive license to Schwartzco Inc./Commercial Type. All rights reserved.
</metadata>
<defs>
<font id="StagSansRound-Light" horiz-adv-x="412" >
  <font-face 
    font-family="Stag Sans Round Light"
    font-weight="300"
    font-stretch="normal"
    units-per-em="1000"
    panose-1="2 11 3 3 4 0 0 2 0 4"
    ascent="838"
    descent="-162"
    x-height="521"
    cap-height="703"
    bbox="-162.295 -174 1027 906"
    underline-thickness="50"
    underline-position="-50"
    stemh="42"
    stemv="50"
    unicode-range="U+0020-FB02"
  />
<missing-glyph horiz-adv-x="500" 
 />
    <glyph glyph-name="f_f" unicode="ff" horiz-adv-x="524" 
d="M336 483h-206v-462c0 -17 -11 -24 -24 -24h-2c-13 0 -24 7 -24 24v462h-52c-14 0 -20 8 -20 18v2c0 10 6 18 20 18h52v46c0 91 52 130 122 130c19 0 32 -1 45 -4c16 -4 21 -11 21 -20v-1c0 -12 -8 -19 -23 -18c-8 0 -22 2 -31 2c-54 0 -84 -20 -84 -92v-43h206v52
c0 91 52 130 122 130c19 0 32 -1 45 -4c16 -4 21 -11 21 -20v-1c0 -12 -8 -19 -23 -18c-8 0 -22 2 -31 2c-54 0 -84 -20 -84 -92v-49h109c14 0 20 -8 20 -18v-2c0 -10 -6 -18 -20 -18h-109v-462c0 -17 -11 -24 -24 -24h-2c-13 0 -24 7 -24 24v462z" />
    <glyph glyph-name=".notdef" horiz-adv-x="500" 
 />
    <glyph glyph-name="Eth" unicode="&#xd0;" horiz-adv-x="665" 
d="M111 700h161c231 0 352 -100 352 -349c0 -248 -121 -351 -353 -351h-160c-14 0 -26 8 -26 26v303h-55c-15 0 -21 10 -21 21v2c0 11 6 21 21 21h55v301c0 18 12 26 26 26zM138 656v-283h194c15 0 21 -10 21 -21v-2c0 -11 -6 -21 -21 -21h-194v-285h133
c202 0 298 85 298 306s-96 306 -298 306h-133z" />
    <glyph glyph-name="eth" unicode="&#xf0;" horiz-adv-x="548" 
d="M397 671l-53 -36c104 -70 173 -190 173 -363c0 -184 -102 -276 -243 -276c-145 0 -242 102 -242 264s96 266 235 266c88 0 136 -33 178 -86c-35 75 -80 131 -138 169l-84 -57c-3 -2 -8 -4 -11 -4h-1c-15 0 -23 20 -8 30l73 50c-27 14 -57 24 -89 32c-17 4 -23 11 -23 21
v1c0 14 9 18 20 18c5 0 11 -1 16 -2c40 -10 79 -25 114 -44l68 46c3 2 8 4 11 4h1c15 0 24 -22 3 -33zM83 260c0 -138 71 -225 193 -225c119 0 190 84 190 225c0 137 -70 227 -190 227c-121 0 -193 -87 -193 -227z" />
    <glyph glyph-name="Lslash" unicode="&#x141;" horiz-adv-x="538" 
d="M364 384l-225 -97v-243h347c11 0 21 -7 21 -21v-2c0 -14 -10 -21 -21 -21h-374c-14 0 -26 12 -26 26v239l-56 -24c-13 -5 -26 -4 -31 9s1 24 13 29l74 31v367c0 18 12 26 26 26h1c14 0 26 -8 26 -26v-344l207 89c13 5 25 4 31 -9s-1 -23 -13 -29z" />
    <glyph glyph-name="lslash" unicode="&#x142;" horiz-adv-x="195" 
d="M123 657v-210l55 37c8 6 20 4 26 -5s3 -19 -6 -25l-75 -51v-382c0 -17 -11 -24 -24 -24h-2c-13 0 -24 7 -24 24v348l-51 -34c-9 -6 -20 -4 -25 4c-6 9 -4 20 5 26l71 48v266c0 17 9 24 22 24h1c18 0 27 -9 27 -46z" />
    <glyph glyph-name="Scaron" unicode="&#x160;" horiz-adv-x="508" 
d="M238 -4c-88 0 -157 23 -195 53c-14 11 -21 22 -21 34v1c0 13 9 23 22 23c29 0 45 -68 193 -68c107 0 181 44 181 150c0 103 -81 123 -182 150c-125 33 -197 73 -197 187c0 101 74 178 211 178c79 0 132 -19 166 -42c15 -10 22 -20 22 -34v-1c0 -14 -10 -22 -22 -22
c-29 0 -42 56 -165 56c-114 0 -161 -57 -161 -131c0 -96 66 -118 161 -143c141 -37 219 -72 219 -194c0 -136 -96 -197 -232 -197zM346 812l-63 -67c-8 -9 -17 -16 -31 -16h-4c-14 0 -23 7 -31 16l-62 67c-15 15 -5 31 8 31h1c6 0 12 -4 18 -9l68 -63l69 63c6 5 12 9 18 9h1
c13 0 23 -16 8 -31z" />
    <glyph glyph-name="scaron" unicode="&#x161;" horiz-adv-x="425" 
d="M391 151c0 -96 -59 -155 -189 -155c-62 0 -108 13 -144 34c-18 11 -25 19 -25 32v1c0 12 8 21 21 21c22 0 43 -49 146 -49c96 0 142 40 142 112c0 61 -34 86 -140 103c-100 16 -163 51 -163 139c0 90 71 138 175 138c49 0 94 -9 125 -25c18 -9 26 -18 26 -30v-2
c0 -13 -8 -21 -19 -21c-21 0 -33 39 -131 39c-85 0 -129 -32 -129 -95c0 -60 35 -83 136 -100c109 -17 169 -50 169 -142zM315 675l-71 -88c-9 -11 -16 -18 -31 -18h-2c-15 0 -22 8 -31 18l-74 88c-14 16 -3 31 10 31h1c7 0 13 -5 18 -11l75 -80l76 80c5 6 12 11 18 11h1
c13 0 23 -15 10 -31z" />
    <glyph glyph-name="Yacute" unicode="&#xdd;" horiz-adv-x="548" 
d="M518 667l-216 -372v-272c0 -18 -12 -26 -26 -26h-2c-14 0 -26 8 -26 26v270l-215 370c-12 21 1 40 20 40h1c11 0 19 -8 25 -19l196 -341h2l197 343c6 10 12 17 23 17h1c18 0 31 -16 20 -36zM277 728h-1c-14 0 -22 14 -9 34l44 70c7 11 14 16 23 16h1c21 0 32 -22 16 -42
l-54 -65c-6 -7 -12 -13 -20 -13z" />
    <glyph glyph-name="yacute" unicode="&#xfd;" horiz-adv-x="500" 
d="M470 487l-265 -630c-5 -12 -14 -19 -23 -19h-1c-18 0 -29 14 -20 34l71 164l-199 450c-9 20 5 35 22 35h1c11 0 18 -7 24 -21l176 -404h1l169 406c5 12 12 19 23 19h1c18 0 28 -15 20 -34zM349 664l-74 -85c-6 -7 -12 -10 -17 -10h-1c-15 0 -23 15 -13 29l60 88
c10 15 18 22 30 22h1c20 0 32 -23 14 -44z" />
    <glyph glyph-name="Thorn" unicode="&#xde;" horiz-adv-x="550" 
d="M112 -3h-1c-14 0 -26 8 -26 26v655c0 17 12 25 26 25h1c14 0 26 -8 26 -25v-121h129c150 0 248 -50 248 -195c0 -147 -94 -201 -249 -201h-128v-138c0 -18 -12 -26 -26 -26zM266 512h-128v-308h128c126 0 195 38 195 157c0 118 -75 151 -195 151z" />
    <glyph glyph-name="thorn" unicode="&#xfe;" horiz-adv-x="551" 
d="M71 -141v820c0 17 9 24 22 24h1c18 0 27 -9 27 -46v-229c41 48 106 99 198 99c99 0 200 -59 200 -258c0 -206 -116 -270 -224 -270c-83 0 -134 25 -174 61v-201c0 -17 -11 -24 -24 -24h-2c-13 0 -24 7 -24 24zM311 486c-84 0 -145 -53 -190 -107v-271
c41 -45 90 -69 165 -69c86 0 182 45 182 225c0 178 -84 222 -157 222z" />
    <glyph glyph-name="Zcaron" unicode="&#x17d;" horiz-adv-x="530" 
d="M497 635l-422 -591v-2h407c15 0 20 -9 20 -20v-2c0 -11 -5 -20 -20 -20h-443c-16 0 -22 11 -22 23v5c0 17 5 25 13 36l423 592v1h-392c-15 0 -20 9 -20 21v2c0 11 5 20 21 20h426c16 0 22 -11 22 -23v-5c0 -19 -5 -26 -13 -37zM377 812l-63 -67c-8 -9 -17 -16 -31 -16h-4
c-14 0 -23 7 -31 16l-62 67c-15 15 -5 31 8 31h1c6 0 12 -4 18 -9l68 -63l69 63c6 5 12 9 18 9h1c13 0 23 -16 8 -31z" />
    <glyph glyph-name="zcaron" unicode="&#x17e;" horiz-adv-x="456" 
d="M70 521h346c14 0 19 -8 19 -19v-4c0 -13 -3 -21 -12 -32l-333 -427h324c13 0 18 -8 18 -18v-2c0 -11 -5 -19 -18 -19h-362c-14 0 -19 8 -19 19v5c0 16 6 22 15 34l330 424h-308c-14 0 -19 8 -19 19v2c0 10 5 18 19 18zM351 675l-71 -88c-9 -11 -16 -18 -31 -18h-2
c-15 0 -22 8 -31 18l-74 88c-14 16 -3 31 10 31h1c7 0 13 -5 18 -11l75 -80l76 80c5 6 12 11 18 11h1c13 0 23 -15 10 -31z" />
    <glyph glyph-name="onehalf" unicode="&#xbd;" horiz-adv-x="686" 
d="M55 -3l470 719c7 11 13 17 22 17h1c16 0 26 -16 14 -35l-470 -719c-7 -11 -13 -17 -22 -17h-1c-16 0 -26 16 -14 35zM476 38h176c13 0 18 -8 18 -18v-2c0 -10 -5 -18 -18 -18h-216c-12 0 -18 8 -18 19v1c0 16 5 21 26 40l90 82c59 55 84 86 84 128c0 43 -26 70 -76 70
c-63 0 -69 -38 -94 -38c-10 0 -18 8 -18 18v1c0 6 3 14 13 22c23 18 60 33 104 33c72 0 119 -40 119 -102c0 -55 -37 -96 -102 -155zM152 678v-332c0 -16 -11 -23 -23 -23h-1c-12 0 -23 7 -23 23v304l-68 -38c-7 -4 -11 -5 -15 -5c-10 0 -16 9 -16 18v1c0 7 3 12 15 19
l84 47c9 5 16 8 24 8h1c14 0 22 -8 22 -22z" />
    <glyph glyph-name="onequarter" unicode="&#xbc;" horiz-adv-x="653" 
d="M536 313l-150 -185v-2h151v187h-1zM557 373h3c11 0 21 -8 21 -21v-226h41c11 0 16 -7 16 -16v-2c0 -9 -5 -16 -16 -16h-41v-75c0 -13 -10 -21 -21 -21h-2c-11 0 -21 8 -21 21v75h-174c-13 0 -19 8 -19 20v1c0 15 4 20 17 36l164 208c8 10 15 16 32 16zM55 -3l470 719
c7 11 13 17 22 17h1c16 0 26 -16 14 -35l-470 -719c-7 -11 -13 -17 -22 -17h-1c-16 0 -26 16 -14 35zM152 678v-332c0 -16 -11 -23 -23 -23h-1c-12 0 -23 7 -23 23v304l-68 -38c-7 -4 -11 -5 -15 -5c-10 0 -16 9 -16 18v1c0 7 3 12 15 19l84 47c9 5 16 8 24 8h1
c14 0 22 -8 22 -22z" />
    <glyph glyph-name="threequarters" unicode="&#xbe;" horiz-adv-x="688" 
d="M257 433c0 -70 -52 -109 -134 -109c-41 0 -80 12 -102 29c-7 5 -13 12 -13 21v1c0 10 7 17 17 17c19 0 28 -32 96 -32c58 0 91 28 91 76c0 51 -44 68 -88 68h-25c-11 0 -16 7 -16 16v2c0 8 5 15 16 15h22c49 0 83 23 83 67c0 41 -27 63 -78 63c-58 0 -71 -30 -89 -30
c-10 0 -17 8 -17 17v1c0 9 5 15 12 20c24 16 59 28 99 28c70 0 117 -32 117 -95c0 -47 -27 -71 -65 -84v-2c45 -11 74 -37 74 -89zM107 -3l470 719c7 11 13 17 22 17h1c16 0 26 -16 14 -35l-470 -719c-7 -11 -13 -17 -22 -17h-1c-16 0 -26 16 -14 35zM570 313l-150 -185v-2
h151v187h-1zM591 373h3c11 0 21 -8 21 -21v-226h41c11 0 16 -7 16 -16v-2c0 -9 -5 -16 -16 -16h-41v-75c0 -13 -10 -21 -21 -21h-2c-11 0 -21 8 -21 21v75h-174c-13 0 -19 8 -19 20v1c0 15 4 20 17 36l164 208c8 10 15 16 32 16z" />
    <glyph glyph-name="brokenbar" unicode="&#xa6;" horiz-adv-x="135" 
d="M90 723v-321c0 -15 -10 -21 -21 -21h-3c-11 0 -21 6 -21 21v321c0 15 10 21 21 21h3c11 0 21 -6 21 -21zM90 293v-321c0 -15 -10 -21 -21 -21h-3c-11 0 -21 6 -21 21v321c0 15 10 21 21 21h3c11 0 21 -6 21 -21z" />
    <glyph glyph-name="minus" unicode="&#x2212;" horiz-adv-x="472" 
d="M439 347v-2c0 -12 -6 -22 -21 -22h-363c-16 0 -22 10 -22 22v2c0 11 6 21 22 21h363c15 0 21 -10 21 -21z" />
    <glyph glyph-name="multiply" unicode="&#xd7;" horiz-adv-x="467" 
d="M65 199l138 139l-138 140c-16 16 -7 40 13 40h1c7 0 13 -4 18 -9l136 -137l136 137c5 5 11 9 18 9h1c21 0 30 -24 14 -40l-139 -140l139 -139c16 -16 7 -40 -14 -40h-1c-7 0 -13 4 -18 9l-136 137l-136 -137c-5 -5 -11 -9 -18 -9h-1c-20 0 -29 24 -13 40z" />
    <glyph glyph-name="space" unicode=" " horiz-adv-x="196" 
 />
    <glyph glyph-name="exclam" unicode="!" horiz-adv-x="225" 
d="M134 162c-1 -15 -10 -21 -20 -21h-2c-10 0 -19 6 -20 21c0 0 -6 348 -6 514c0 17 11 27 26 27h2c15 0 26 -10 26 -27c0 -166 -6 -514 -6 -514zM151 34c0 -22 -17 -38 -39 -38s-38 16 -38 38c0 21 16 39 38 39s39 -18 39 -39z" />
    <glyph glyph-name="quotedbl" unicode="&#x22;" horiz-adv-x="211" 
d="M54 522h-2c-9 0 -16 6 -17 18c0 0 -8 104 -8 136c0 17 10 27 25 27h2c15 0 25 -10 25 -27c0 -32 -8 -136 -8 -136c-1 -12 -8 -18 -17 -18zM159 522h-2c-9 0 -16 6 -17 18c0 0 -8 104 -8 136c0 17 10 27 25 27h2c15 0 25 -10 25 -27c0 -32 -8 -136 -8 -136
c-1 -12 -8 -18 -17 -18z" />
    <glyph glyph-name="numbersign" unicode="#" horiz-adv-x="455" 
d="M303 428h-132l-18 -128h131zM319 254l-34 -235c-2 -16 -11 -22 -20 -22h-3c-9 0 -21 6 -18 28l33 229h-131l-34 -235c-2 -16 -11 -22 -20 -22h-3c-9 0 -21 6 -18 28l34 229h-64c-16 0 -22 9 -22 22v2c0 13 6 22 22 22h70l19 128h-63c-15 0 -22 8 -22 21v2
c0 12 7 20 22 20h69l30 210c2 16 11 22 20 22h3c9 0 21 -6 18 -28l-30 -204h131l31 210c2 16 11 22 20 22h3c9 0 21 -6 18 -28l-30 -204h64c14 0 21 -8 21 -20v-2c0 -13 -7 -21 -21 -21h-70l-19 -128h64c16 0 22 -9 22 -22v-2c0 -13 -6 -22 -22 -22h-70z" />
    <glyph glyph-name="dollar" unicode="$" horiz-adv-x="496" 
d="M266 748v-44c70 -3 118 -21 150 -42c15 -10 22 -20 22 -34v-1c0 -14 -10 -22 -22 -22c-28 0 -41 52 -150 56v-278c132 -36 202 -73 202 -190c0 -127 -82 -189 -203 -196v-81c0 -14 -9 -20 -20 -20h-2c-11 0 -20 6 -20 20v80c-81 3 -144 24 -180 53c-14 11 -21 22 -21 34
v1c0 13 9 23 22 23c28 0 44 -65 179 -69v305c-120 34 -187 74 -187 183c0 95 63 168 188 177v45c0 14 9 20 20 20h2c11 0 20 -6 20 -20zM417 189c0 94 -56 117 -152 143v-293c91 8 152 53 152 150zM86 530c0 -86 53 -113 138 -136v267c-96 -9 -138 -63 -138 -131z" />
    <glyph glyph-name="percent" unicode="%" horiz-adv-x="717" 
d="M80 529c0 -87 41 -136 104 -136c62 0 104 49 104 136c0 89 -42 139 -104 139c-63 0 -104 -50 -104 -139zM335 531c0 -116 -70 -174 -151 -174c-82 0 -152 58 -152 174c0 115 70 173 152 173c81 0 151 -58 151 -173zM609 698l-466 -721c-6 -9 -12 -14 -20 -14h-1
c-15 0 -26 16 -14 34l466 721c6 9 12 14 20 14h1c15 0 26 -16 14 -34zM429 169c0 -87 41 -137 104 -137c62 0 104 50 104 137c0 88 -42 138 -104 138c-63 0 -104 -50 -104 -138zM684 170c0 -116 -70 -174 -151 -174c-82 0 -152 58 -152 174s70 174 152 174
c81 0 151 -58 151 -174z" />
    <glyph glyph-name="ampersand" unicode="&#x26;" horiz-adv-x="640" 
d="M576 -4h-1c-10 0 -18 7 -27 17l-69 77c-46 -55 -118 -94 -210 -94c-154 0 -234 89 -234 203c0 112 76 175 163 208c-27 33 -54 74 -54 137c0 95 72 160 179 160c53 0 94 -12 125 -30c17 -10 23 -18 23 -30v-1c0 -13 -10 -22 -22 -22c-31 0 -44 41 -125 41
c-78 0 -128 -48 -128 -119c0 -50 28 -93 81 -153l199 -223c29 55 56 127 67 200c2 13 9 25 24 25h2c16 0 23 -12 21 -29c-14 -80 -44 -165 -84 -231l85 -95c16 -18 5 -41 -15 -41zM90 200c0 -81 54 -161 185 -161c80 0 134 32 175 83l-225 254c-77 -32 -135 -76 -135 -176z
" />
    <glyph glyph-name="quotesingle" unicode="'" horiz-adv-x="106" 
d="M54 522h-2c-9 0 -16 6 -17 18c0 0 -8 104 -8 136c0 17 10 27 25 27h2c15 0 25 -10 25 -27c0 -32 -8 -136 -8 -136c-1 -12 -8 -18 -17 -18z" />
    <glyph glyph-name="parenleft" unicode="(" horiz-adv-x="272" 
d="M27 346c0 231 107 340 187 388c10 6 18 8 24 8c13 0 21 -9 21 -21c0 -20 -26 -30 -55 -55c-53 -46 -124 -128 -124 -320s71 -274 124 -320c29 -25 55 -35 55 -55c0 -12 -8 -21 -21 -21c-6 0 -14 2 -24 8c-80 48 -187 157 -187 388z" />
    <glyph glyph-name="parenright" unicode=")" horiz-adv-x="272" 
d="M245 346c0 -231 -107 -340 -187 -388c-10 -6 -18 -8 -24 -8c-13 0 -21 9 -21 21c0 20 26 30 55 55c53 46 124 128 124 320s-71 274 -124 320c-29 25 -55 35 -55 55c0 12 8 21 21 21c6 0 14 -2 24 -8c80 -48 187 -157 187 -388z" />
    <glyph glyph-name="asterisk" unicode="*" horiz-adv-x="356" 
d="M237 423c-17 22 -41 65 -59 96c-18 -31 -43 -74 -59 -96c-12 -16 -25 -19 -36 -10l-3 2c-10 9 -11 21 0 36c17 23 55 62 75 83c-28 6 -81 17 -106 25c-18 6 -25 18 -20 32l1 3c5 12 16 16 34 10c26 -9 74 -32 99 -44c-3 29 -9 86 -9 114c0 19 9 29 23 29h2
c14 0 23 -10 23 -29c0 -28 -6 -85 -9 -114c26 12 73 35 99 44c18 6 29 2 34 -11l1 -3c5 -14 -2 -25 -20 -31c-26 -8 -79 -19 -106 -25c19 -21 58 -60 75 -83c11 -15 10 -27 0 -36l-3 -2c-11 -9 -24 -6 -36 10z" />
    <glyph glyph-name="plus" unicode="+" horiz-adv-x="471" 
d="M437 347v-2c0 -12 -6 -22 -21 -22h-154v-167c0 -17 -11 -24 -23 -24h-2c-13 0 -24 7 -24 24v167h-157c-16 0 -22 10 -22 22v2c0 11 6 21 22 21h157v168c0 16 11 23 24 23h2c12 0 23 -7 23 -23v-168h154c15 0 21 -10 21 -21z" />
    <glyph glyph-name="comma" unicode="," horiz-adv-x="142" 
d="M19 -65v1c0 9 6 13 18 18c22 9 27 20 27 33c0 12 -9 16 -16 21c-11 8 -16 15 -16 30c0 20 16 35 38 35c20 0 40 -15 40 -53c0 -52 -21 -87 -68 -97c-14 -3 -23 1 -23 12z" />
    <glyph glyph-name="hyphen" unicode="-" horiz-adv-x="226" 
d="M184 276h-142c-14 0 -21 10 -21 21v2c0 11 7 21 21 21h142c14 0 21 -10 21 -21v-2c0 -11 -7 -21 -21 -21z" />
    <glyph glyph-name="period" unicode="." horiz-adv-x="142" 
d="M110 34c0 -22 -18 -38 -39 -38c-22 0 -38 16 -38 38c0 21 16 39 38 39c21 0 39 -18 39 -39z" />
    <glyph glyph-name="slash" unicode="/" horiz-adv-x="304" 
d="M286 708l-227 -737c-5 -16 -14 -23 -24 -23h-1c-18 0 -27 15 -20 36l227 737c5 16 14 23 24 23h1c18 0 27 -15 20 -36z" />
    <glyph glyph-name="zero" unicode="0" horiz-adv-x="638" 
d="M601 350c0 -240 -129 -354 -282 -354s-282 114 -282 354c0 237 129 354 282 354s282 -117 282 -354zM91 349c0 -210 95 -310 228 -310c132 0 227 100 227 310c0 211 -95 312 -227 312c-133 0 -228 -101 -228 -312z" />
    <glyph glyph-name="one" unicode="1" horiz-adv-x="292" 
d="M197 682v-659c0 -18 -12 -26 -26 -26h-2c-14 0 -26 8 -26 26v619l-97 -57c-8 -5 -15 -8 -21 -8c-11 0 -20 9 -20 21v1c0 8 5 14 17 21l124 72c12 7 19 10 29 10h2c11 0 20 -6 20 -20z" />
    <glyph glyph-name="two" unicode="2" horiz-adv-x="499" 
d="M254 704c132 0 202 -70 202 -185c0 -102 -84 -193 -184 -292l-186 -182h355c15 0 21 -10 21 -22v-1c0 -12 -6 -22 -21 -22h-396c-16 0 -22 11 -22 23v5c0 17 10 27 20 37l191 189c102 100 169 178 169 265c0 88 -52 141 -152 141c-122 0 -143 -71 -177 -71
c-12 0 -22 8 -22 21v1c0 8 3 17 16 28c34 29 99 65 186 65z" />
    <glyph glyph-name="three" unicode="3" horiz-adv-x="488" 
d="M216 39c122 0 184 62 184 162c0 103 -79 140 -173 140h-44c-16 0 -22 10 -22 22v1c0 12 6 22 22 22h36c99 0 166 45 166 138c0 88 -51 137 -154 137c-121 0 -135 -56 -167 -56c-12 0 -21 8 -21 21v1c0 8 5 18 20 29c35 26 95 48 170 48c131 0 203 -61 203 -177
c0 -89 -52 -139 -121 -160v-2c81 -19 139 -69 139 -165c0 -129 -83 -204 -235 -204c-82 0 -149 27 -185 57c-12 10 -16 18 -16 27v1c0 13 10 23 22 23c30 0 58 -65 176 -65z" />
    <glyph glyph-name="four" unicode="4" horiz-adv-x="538" 
d="M429 181v-158c0 -18 -12 -26 -26 -26h-2c-14 0 -26 8 -26 26v158h-336c-16 0 -23 10 -23 23v4c0 19 6 28 19 45l329 426c11 14 19 21 37 21h2c14 0 26 -8 26 -26v-451h73c15 0 20 -9 20 -20v-2c0 -11 -5 -20 -20 -20h-73zM373 622l-306 -397v-2h308v399h-2z" />
    <glyph glyph-name="five" unicode="5" horiz-adv-x="503" 
d="M212 -4c-78 0 -135 22 -173 51c-13 10 -17 20 -17 29v1c0 12 9 22 22 22c29 0 45 -61 168 -61c125 0 202 75 202 196c0 123 -72 174 -167 174c-108 0 -132 -71 -170 -71c-16 0 -28 11 -28 27v310c0 14 8 26 26 26h339c16 0 22 -10 22 -22v-2c0 -12 -6 -22 -22 -22h-322
v-263h3c24 24 80 60 163 60c112 0 210 -65 210 -214c0 -148 -105 -241 -256 -241z" />
    <glyph glyph-name="six" unicode="6" horiz-adv-x="566" 
d="M355 704c49 0 92 -9 118 -21c15 -7 24 -15 24 -29v-1c0 -13 -9 -22 -21 -22c-25 0 -41 31 -123 31c-155 0 -262 -113 -263 -327v-4c50 57 137 95 224 95c116 0 219 -61 219 -203c0 -141 -99 -227 -236 -227c-143 0 -260 102 -260 339c0 243 136 369 318 369zM303 384
c-84 0 -165 -42 -211 -101c13 -175 96 -245 205 -245c110 0 183 67 183 184c0 116 -76 162 -177 162z" />
    <glyph glyph-name="seven" unicode="7" horiz-adv-x="494" 
d="M150 -3h-1c-21 0 -33 20 -20 46l302 609v2h-384c-16 0 -22 10 -22 22v2c0 12 6 22 22 22h400c14 0 26 -8 26 -26v-4c0 -16 -3 -28 -11 -44l-285 -609c-6 -13 -16 -20 -27 -20z" />
    <glyph glyph-name="eight" unicode="8" horiz-adv-x="552" 
d="M276 -4c-158 0 -244 80 -244 196c0 92 66 161 150 181v2c-65 19 -118 77 -118 155c0 103 83 174 212 174c128 0 211 -71 211 -174c0 -78 -53 -136 -117 -155v-2c87 -21 150 -89 150 -181c0 -116 -87 -196 -244 -196zM276 37c128 0 192 66 192 157s-66 159 -192 159
c-127 0 -192 -68 -192 -159s63 -157 192 -157zM276 395c101 0 159 53 159 133c0 81 -58 135 -159 135c-102 0 -159 -54 -159 -135c0 -80 57 -133 159 -133z" />
    <glyph glyph-name="nine" unicode="9" horiz-adv-x="563" 
d="M249 274c-116 0 -219 61 -219 202c0 142 98 228 236 228c143 0 260 -102 260 -339c0 -243 -124 -369 -319 -369c-53 0 -97 9 -124 22c-14 7 -22 15 -22 28v1c0 12 8 23 21 23c23 0 44 -32 127 -32c168 0 263 113 263 327v4c-50 -58 -137 -95 -223 -95zM260 316
c82 0 163 41 210 99c-13 176 -96 247 -204 247c-110 0 -182 -67 -182 -184c0 -116 75 -162 176 -162z" />
    <glyph glyph-name="colon" unicode=":" horiz-adv-x="148" 
d="M112 345c0 -21 -17 -38 -38 -38c-22 0 -38 17 -38 38c0 22 16 39 38 39c21 0 38 -17 38 -39zM112 34c0 -22 -17 -38 -38 -38c-22 0 -38 16 -38 38c0 21 16 39 38 39c21 0 38 -18 38 -39z" />
    <glyph glyph-name="semicolon" unicode=";" horiz-adv-x="148" 
d="M112 345c0 -21 -17 -38 -38 -38c-22 0 -38 17 -38 38c0 22 16 39 38 39c21 0 38 -17 38 -39zM22 -65v1c0 9 6 13 18 18c22 9 27 20 27 33c0 12 -9 16 -16 21c-11 8 -16 15 -16 30c0 20 16 35 38 35c20 0 40 -15 40 -53c0 -53 -21 -87 -68 -97c-14 -3 -23 1 -23 12z" />
    <glyph glyph-name="less" unicode="&#x3c;" horiz-adv-x="459" 
d="M409 502l-326 -171v-2l326 -172c11 -6 18 -13 18 -23v-1c0 -17 -17 -27 -34 -18l-346 186c-10 5 -19 13 -19 27v3c0 14 9 22 19 27l346 186c17 9 34 -1 34 -18v-1c0 -10 -7 -17 -18 -23z" />
    <glyph glyph-name="equal" unicode="=" horiz-adv-x="483" 
d="M453 399v-2c0 -11 -7 -21 -21 -21h-381c-14 0 -21 10 -21 21v2c0 11 7 21 21 21h381c14 0 21 -10 21 -21zM453 232v-2c0 -11 -7 -21 -21 -21h-381c-14 0 -21 10 -21 21v2c0 11 7 21 21 21h381c14 0 21 -10 21 -21z" />
    <glyph glyph-name="greater" unicode="&#x3e;" horiz-adv-x="459" 
d="M376 331l-326 171c-11 6 -18 13 -18 23v1c0 17 17 27 34 18l346 -186c10 -5 19 -13 19 -27v-3c0 -14 -9 -22 -19 -27l-346 -186c-17 -9 -34 1 -34 18v1c0 10 7 17 18 23l326 172v2z" />
    <glyph glyph-name="question" unicode="?" horiz-adv-x="428" 
d="M208 34c0 -22 -18 -38 -39 -38c-22 0 -38 16 -38 38c0 21 16 39 38 39c21 0 39 -18 39 -39zM213 662c-116 0 -125 -58 -158 -58c-12 0 -20 10 -20 23v1c0 15 12 26 27 36c35 22 81 40 152 40c112 0 182 -53 182 -159c0 -93 -65 -141 -131 -206c-31 -30 -57 -55 -70 -90
c-9 -23 -10 -53 -10 -87c0 -15 -11 -21 -20 -21h-2c-11 0 -20 6 -21 21c-7 96 20 135 89 206c48 48 111 97 111 179c0 73 -45 115 -129 115z" />
    <glyph glyph-name="at" unicode="@" horiz-adv-x="857" 
d="M680 -53c-58 -42 -157 -66 -256 -66c-204 0 -391 104 -391 364c0 268 224 412 421 412c204 0 370 -113 370 -322c0 -185 -115 -263 -219 -263c-75 0 -99 42 -97 87c-38 -43 -93 -89 -164 -89c-66 0 -114 43 -114 128c0 125 100 269 239 269c53 0 82 -17 103 -35
c7 22 12 36 28 36h1c12 0 19 -8 15 -24l-58 -245c-13 -55 -2 -90 55 -90c79 0 167 62 167 226c0 183 -135 284 -326 284c-180 0 -376 -127 -376 -374c0 -234 155 -327 346 -327c186 0 225 74 255 74c11 0 18 -8 18 -17v-1c0 -11 -6 -19 -17 -27zM276 198
c0 -63 34 -90 75 -90c69 0 116 51 162 100l45 192c-21 16 -44 28 -88 28c-107 0 -194 -116 -194 -230z" />
    <glyph glyph-name="A" unicode="A" horiz-adv-x="610" 
d="M348 672l228 -636c10 -27 -6 -39 -22 -39h-1c-10 0 -20 5 -27 25l-71 197h-303l-69 -194c-7 -21 -17 -28 -28 -28h-1c-18 0 -30 13 -20 39l231 636c8 21 20 28 39 28h5c19 0 31 -7 39 -28zM303 641l-135 -378h272l-135 378h-2z" />
    <glyph glyph-name="B" unicode="B" horiz-adv-x="578" 
d="M138 345v-301h160c107 0 186 44 186 151s-76 150 -198 150h-148zM138 656v-267h142c94 0 171 34 171 135c0 103 -77 132 -169 132h-144zM299 0h-188c-14 0 -26 8 -26 26v648c0 18 12 26 26 26h172c124 0 222 -41 222 -174c0 -95 -55 -133 -124 -156v-1
c87 -19 158 -60 158 -176c0 -135 -99 -193 -240 -193z" />
    <glyph glyph-name="C" unicode="C" horiz-adv-x="614" 
d="M351 -4c-178 0 -302 126 -302 356s141 352 308 352c81 0 139 -17 186 -50c20 -14 27 -27 27 -37v-1c0 -14 -10 -23 -23 -23c-35 0 -54 68 -187 68c-145 0 -256 -105 -256 -307c0 -206 97 -315 248 -315c153 0 179 82 207 82c13 0 23 -9 23 -22v-1c0 -11 -9 -24 -27 -38
c-46 -36 -110 -64 -204 -64z" />
    <glyph glyph-name="D" unicode="D" horiz-adv-x="665" 
d="M138 656v-612h133c202 0 298 85 298 306s-96 306 -298 306h-133zM111 700h161c231 0 352 -100 352 -349c0 -248 -121 -351 -353 -351h-160c-14 0 -26 8 -26 26v648c0 18 12 26 26 26z" />
    <glyph glyph-name="E" unicode="E" horiz-adv-x="549" 
d="M498 0h-387c-14 0 -26 8 -26 26v648c0 18 12 26 26 26h373c11 0 21 -7 21 -21v-2c0 -15 -10 -22 -21 -22h-346v-272h257c11 0 21 -7 21 -21v-2c0 -14 -10 -21 -21 -21h-257v-295h360c11 0 21 -7 21 -21v-2c0 -14 -10 -21 -21 -21z" />
    <glyph glyph-name="F" unicode="F" horiz-adv-x="535" 
d="M138 321v-298c0 -18 -12 -26 -25 -26h-2c-14 0 -26 8 -26 26v651c0 18 12 26 26 26h373c14 0 21 -10 21 -21v-2c0 -12 -7 -22 -21 -22h-346v-290h252c14 0 21 -10 21 -21v-2c0 -11 -7 -21 -21 -21h-252z" />
    <glyph glyph-name="G" unicode="G" horiz-adv-x="668" 
d="M594 317v-237c0 -21 -8 -31 -28 -41c-45 -23 -108 -43 -203 -43c-197 0 -322 119 -322 356c0 236 145 352 327 352c88 0 150 -21 185 -44c15 -10 20 -19 20 -32v-1c0 -14 -8 -23 -21 -23c-28 0 -46 57 -184 57c-155 0 -270 -96 -270 -307s98 -315 265 -315
c91 0 140 19 178 39v221h-137c-15 0 -21 10 -21 21v2c0 11 6 21 21 21h164c18 0 26 -12 26 -26z" />
    <glyph glyph-name="H" unicode="H" horiz-adv-x="681" 
d="M138 339v-316c0 -18 -12 -26 -26 -26h-1c-14 0 -26 8 -26 26v654c0 18 12 26 26 26h1c14 0 26 -8 26 -26v-294h405v294c0 18 12 26 26 26h2c13 0 25 -8 25 -26v-654c0 -18 -12 -26 -25 -26h-2c-14 0 -26 8 -26 26v316h-405z" />
    <glyph glyph-name="I" unicode="I" horiz-adv-x="228" 
d="M87 23v654c0 18 12 26 26 26h2c14 0 26 -8 26 -26v-654c0 -18 -12 -26 -26 -26h-2c-14 0 -26 8 -26 26z" />
    <glyph glyph-name="J" unicode="J" horiz-adv-x="409" 
d="M328 677v-517c0 -103 -56 -165 -175 -165c-40 0 -80 7 -110 22c-18 9 -28 20 -28 36v1c0 13 9 23 23 23c24 0 34 -39 112 -39c86 0 124 44 124 123v516c0 18 12 26 26 26h2c14 0 26 -8 26 -26z" />
    <glyph glyph-name="K" unicode="K" horiz-adv-x="616" 
d="M112 -3h-1c-14 0 -26 8 -26 26v655c0 17 12 25 26 25h1c14 0 26 -8 26 -25v-380l366 389c10 11 18 16 26 16h1c17 0 32 -20 10 -43l-235 -246l264 -374c16 -23 2 -43 -17 -43h-1c-10 0 -19 7 -27 19l-254 361l-133 -141v-213c0 -18 -12 -26 -26 -26z" />
    <glyph glyph-name="L" unicode="L" horiz-adv-x="537" 
d="M85 26v651c0 18 12 26 26 26h1c14 0 26 -8 26 -26v-633h347c11 0 21 -7 21 -21v-2c0 -14 -10 -21 -21 -21h-374c-14 0 -26 12 -26 26z" />
    <glyph glyph-name="M" unicode="M" horiz-adv-x="810" 
d="M408 81l225 593c7 19 17 26 40 26h27c14 0 26 -9 26 -27v-650c0 -18 -12 -26 -26 -26h-2c-14 0 -26 8 -26 26v613h-5l-237 -620c-5 -14 -13 -18 -23 -18h-6c-10 0 -19 4 -24 18l-238 620h-4v-615c0 -17 -11 -24 -24 -24h-2c-13 0 -24 7 -24 24v652c0 18 12 27 26 27h27
c23 0 33 -7 40 -26l228 -593h2z" />
    <glyph glyph-name="N" unicode="N" horiz-adv-x="676" 
d="M526 23l-389 606h-2v-607c0 -17 -11 -25 -25 -25h-1c-13 0 -24 8 -24 25v651c0 18 12 27 26 27h16c20 0 29 -8 40 -25l373 -579h1v582c0 17 11 25 25 25h1c14 0 25 -8 25 -25v-653c0 -19 -10 -27 -26 -27h-3c-19 0 -26 8 -37 25z" />
    <glyph glyph-name="O" unicode="O" horiz-adv-x="710" 
d="M669 350c0 -230 -143 -354 -313 -354c-172 0 -315 124 -315 354c0 229 143 354 315 354c170 0 313 -125 313 -354zM96 349c0 -205 113 -311 260 -311c145 0 258 106 258 311s-113 313 -258 313c-147 0 -260 -108 -260 -313z" />
    <glyph glyph-name="P" unicode="P" horiz-adv-x="550" 
d="M266 656h-128v-320h128c126 0 195 42 195 162s-75 158 -195 158zM85 23v651c0 18 12 26 26 26h156c150 0 248 -52 248 -200c0 -151 -94 -207 -249 -207h-128v-270c0 -18 -12 -26 -26 -26h-2c-14 0 -25 8 -25 26z" />
    <glyph glyph-name="Q" unicode="Q" horiz-adv-x="714" 
d="M660 -91c-8 0 -17 2 -25 4l-326 82c-162 41 -268 148 -268 355c0 230 143 354 315 354c170 0 313 -124 313 -354c0 -199 -109 -320 -251 -343v-2l243 -47c16 -3 23 -12 23 -24v-1c0 -14 -8 -24 -24 -24zM96 349c0 -206 114 -312 261 -312c146 0 257 106 257 312
c0 207 -113 313 -258 313c-147 0 -260 -106 -260 -313z" />
    <glyph glyph-name="R" unicode="R" horiz-adv-x="598" 
d="M526 -3h-1c-9 0 -18 5 -26 20l-164 303c-19 -2 -40 -3 -61 -3h-133v-294c0 -18 -12 -26 -26 -26h-2c-14 0 -26 8 -26 26v651c0 18 12 26 26 26h161c142 0 240 -50 240 -190c0 -101 -48 -156 -127 -179l159 -295c12 -23 -3 -39 -20 -39zM272 656h-131v-296h131
c117 0 188 32 188 148c0 113 -77 148 -188 148z" />
    <glyph glyph-name="S" unicode="S" horiz-adv-x="508" 
d="M238 -4c-88 0 -157 23 -195 53c-14 11 -21 22 -21 34v1c0 13 9 23 22 23c29 0 45 -68 193 -68c107 0 181 44 181 150c0 103 -81 123 -182 150c-125 33 -197 73 -197 187c0 101 74 178 211 178c79 0 132 -19 166 -42c15 -10 22 -20 22 -34v-1c0 -14 -10 -22 -22 -22
c-29 0 -42 56 -165 56c-114 0 -161 -57 -161 -131c0 -96 66 -118 161 -143c141 -37 219 -72 219 -194c0 -136 -96 -197 -232 -197z" />
    <glyph glyph-name="T" unicode="T" horiz-adv-x="553" 
d="M250 656h-211c-11 0 -21 7 -21 21v2c0 14 10 21 21 21h475c11 0 21 -7 21 -21v-2c0 -14 -10 -21 -21 -21h-210v-633c0 -18 -12 -26 -26 -26h-2c-14 0 -26 8 -26 26v633z" />
    <glyph glyph-name="U" unicode="U" horiz-adv-x="672" 
d="M593 678v-441c0 -176 -109 -241 -254 -241c-143 0 -259 64 -259 241v440c0 18 12 26 26 26h1c14 0 26 -8 26 -26v-442c0 -150 95 -195 209 -195c110 0 199 42 199 195v443c0 17 11 25 25 25h2c14 0 25 -8 25 -25z" />
    <glyph glyph-name="V" unicode="V" horiz-adv-x="606" 
d="M264 27l-231 636c-10 27 7 40 22 40h1c9 0 20 -4 27 -24l221 -613h2l218 611c7 19 16 26 27 26h1c17 0 31 -14 21 -40l-231 -636c-8 -21 -15 -29 -37 -29h-4c-22 0 -29 8 -37 29z" />
    <glyph glyph-name="W" unicode="W" horiz-adv-x="867" 
d="M597 25l-160 583h-2l-164 -586c-5 -18 -14 -25 -34 -25h-4c-20 0 -30 7 -34 26l-164 645c-5 20 5 35 25 35h1c12 0 21 -7 25 -23l150 -595h3l167 594c5 17 14 24 29 24h3c15 0 24 -7 29 -24l168 -594h3l150 595c4 16 14 23 25 23h1c19 0 30 -14 25 -33l-167 -645
c-5 -18 -13 -28 -35 -28h-4c-22 0 -31 9 -36 28z" />
    <glyph glyph-name="X" unicode="X" horiz-adv-x="597" 
d="M296 327l-210 -311c-8 -12 -15 -19 -24 -19h-1c-17 0 -32 18 -18 39l223 328l-205 297c-15 21 -3 42 18 42h1c10 0 18 -8 25 -19l196 -282l191 283c8 12 15 18 24 18h1c17 0 32 -18 18 -39l-204 -301l220 -324c14 -21 3 -42 -18 -42h-1c-10 0 -18 8 -25 19z" />
    <glyph glyph-name="Y" unicode="Y" horiz-adv-x="548" 
d="M518 667l-216 -372v-272c0 -18 -12 -26 -26 -26h-2c-14 0 -26 8 -26 26v270l-215 370c-12 21 1 40 20 40h1c11 0 19 -8 25 -19l196 -341h2l197 343c6 10 12 17 23 17h1c18 0 31 -16 20 -36z" />
    <glyph glyph-name="Z" unicode="Z" horiz-adv-x="530" 
d="M497 635l-422 -591v-2h407c15 0 20 -9 20 -20v-2c0 -11 -5 -20 -20 -20h-443c-16 0 -22 11 -22 23v5c0 17 5 25 13 36l423 592v1h-392c-15 0 -20 9 -20 21v2c0 11 5 20 21 20h426c16 0 22 -11 22 -23v-5c0 -19 -5 -26 -13 -37z" />
    <glyph glyph-name="bracketleft" unicode="[" horiz-adv-x="271" 
d="M233 -49h-132c-14 0 -26 8 -26 26v738c0 18 12 26 26 26h132c13 0 19 -9 19 -19v-2c0 -10 -6 -19 -19 -19h-108v-710h108c13 0 19 -9 19 -19v-2c0 -10 -6 -19 -19 -19z" />
    <glyph glyph-name="backslash" unicode="\" horiz-adv-x="304" 
d="M245 -29l-227 737c-7 21 2 36 20 36h1c10 0 19 -7 24 -23l227 -737c7 -21 -2 -36 -20 -36h-1c-10 0 -19 7 -24 23z" />
    <glyph glyph-name="bracketright" unicode="]" horiz-adv-x="271" 
d="M170 -49h-132c-13 0 -19 9 -19 19v2c0 10 6 19 19 19h108v710h-108c-13 0 -19 9 -19 19v2c0 10 6 19 19 19h132c14 0 26 -8 26 -26v-738c0 -18 -12 -26 -26 -26z" />
    <glyph glyph-name="asciicircum" unicode="^" horiz-adv-x="398" 
d="M200 652h-1l-80 -100c-9 -11 -16 -14 -22 -14h-1c-16 0 -26 18 -14 33l85 113c9 11 16 16 31 16h4c14 0 22 -5 30 -16l85 -113c12 -15 2 -33 -14 -33h-1c-6 0 -13 3 -22 14z" />
    <glyph glyph-name="underscore" unicode="_" horiz-adv-x="326" 
d="M332 -142v-2c0 -10 -5 -18 -18 -18h-301c-14 0 -19 8 -19 18v2c0 11 5 19 19 19h301c13 0 18 -8 18 -19z" />
    <glyph glyph-name="grave" unicode="`" 
d="M192 579l-74 85c-18 21 -6 44 14 44h1c12 0 20 -7 30 -22l60 -88c10 -14 2 -29 -13 -29h-1c-5 0 -11 3 -17 10z" />
    <glyph glyph-name="a" unicode="a" horiz-adv-x="491" 
d="M374 46v25c-44 -46 -92 -76 -178 -76c-97 0 -168 53 -168 151c0 105 87 153 209 153c50 0 94 -5 137 -16v94c0 81 -52 110 -128 110c-122 0 -132 -47 -163 -47c-11 0 -21 7 -21 21v1c0 9 6 22 34 35c38 18 89 30 152 30c106 0 176 -39 176 -147v-359
c0 -17 -9 -24 -22 -24h-1c-18 0 -27 11 -27 49zM203 34c84 0 130 36 171 85v128c-40 9 -84 16 -134 16c-92 0 -161 -33 -161 -113c0 -83 54 -116 124 -116z" />
    <glyph glyph-name="b" unicode="b" horiz-adv-x="552" 
d="M121 57v-9c0 -38 -10 -51 -27 -51h-1c-13 0 -22 7 -22 24v658c0 17 9 24 22 24h1c18 0 27 -9 27 -46v-229c41 48 106 99 198 99c99 0 200 -60 200 -260c0 -206 -116 -271 -223 -271c-84 0 -135 25 -175 61zM286 35c86 0 182 48 182 228c0 178 -84 223 -157 223
c-84 0 -145 -53 -190 -107v-275c41 -45 90 -69 165 -69z" />
    <glyph glyph-name="c" unicode="c" horiz-adv-x="478" 
d="M434 45c-36 -30 -91 -49 -158 -49c-153 0 -244 102 -244 266c0 165 102 265 247 265c58 0 106 -12 140 -35c14 -10 23 -20 23 -33v-1c0 -12 -9 -21 -21 -21c-27 0 -39 50 -143 50c-116 0 -195 -83 -195 -225c0 -143 73 -226 195 -226c113 0 126 59 153 59
c13 0 20 -9 20 -20v-1c0 -9 -5 -19 -17 -29z" />
    <glyph glyph-name="d" unicode="d" horiz-adv-x="554" 
d="M430 46v44c-42 -53 -109 -94 -191 -94c-105 0 -206 66 -206 260c0 202 116 271 223 271c82 0 135 -25 174 -65v216c0 17 9 25 23 25h1c18 0 27 -9 27 -46v-636c0 -17 -9 -24 -22 -24h-1c-19 0 -28 11 -28 49zM244 35c85 0 141 45 186 106v276c-41 44 -89 71 -166 71
c-88 0 -180 -48 -180 -230c0 -173 82 -223 160 -223z" />
    <glyph glyph-name="e" unicode="e" horiz-adv-x="507" 
d="M281 37c121 0 141 53 164 53c13 0 21 -8 21 -19v-1c0 -11 -9 -20 -19 -27c-36 -25 -87 -47 -171 -47c-157 0 -244 101 -244 263c0 164 98 268 231 268c128 0 214 -74 214 -244c0 -17 -11 -24 -24 -24h-370c0 -146 68 -222 198 -222zM84 297h343c-3 139 -67 192 -164 192
c-96 0 -167 -64 -179 -192z" />
    <glyph glyph-name="f" unicode="f" horiz-adv-x="268" 
d="M80 483h-52c-14 0 -20 8 -20 18v2c0 10 6 18 20 18h52v52c0 91 52 130 122 130c19 0 32 -1 45 -4c16 -4 21 -11 21 -20v-1c0 -12 -8 -19 -23 -18c-8 0 -22 2 -31 2c-54 0 -84 -20 -84 -92v-49h109c14 0 20 -8 20 -18v-2c0 -10 -6 -18 -20 -18h-109v-462
c0 -17 -11 -24 -24 -24h-2c-13 0 -24 7 -24 24v462z" />
    <glyph glyph-name="g" unicode="g" horiz-adv-x="552" 
d="M430 9v87c-44 -52 -109 -92 -193 -92c-101 0 -204 66 -204 256c0 197 116 267 224 267c79 0 135 -26 173 -64c0 48 10 61 28 61h1c13 0 22 -7 22 -24v-494c0 -115 -100 -172 -221 -172c-71 0 -138 14 -180 37c-13 7 -20 16 -20 26v1c0 11 7 21 20 21c27 0 50 -46 174 -46
c97 0 176 37 176 136zM244 43c84 0 142 46 186 105v268c-42 45 -90 72 -164 72c-86 0 -182 -45 -182 -226c0 -171 82 -219 160 -219z" />
    <glyph glyph-name="h" unicode="h" horiz-adv-x="551" 
d="M485 388v-367c0 -17 -11 -24 -24 -24h-2c-13 0 -24 7 -24 24v361c0 83 -45 103 -104 103c-77 0 -151 -43 -210 -88v-376c0 -17 -11 -24 -24 -24h-2c-13 0 -24 7 -24 24v658c0 17 9 24 22 24h1c18 0 27 -9 27 -46v-219c59 47 137 89 229 89c73 0 135 -30 135 -139z" />
    <glyph glyph-name="i" unicode="i" horiz-adv-x="197" 
d="M133 635c0 -19 -15 -34 -34 -34s-34 15 -34 34c0 18 15 34 34 34s34 -16 34 -34zM123 478v-457c0 -17 -11 -24 -24 -24h-2c-13 0 -24 7 -24 24v479c0 17 9 24 22 24h1c18 0 27 -9 27 -46z" />
    <glyph glyph-name="j" unicode="j" horiz-adv-x="197" 
d="M73 -52v552c0 17 9 24 22 24h1c18 0 27 -9 27 -46v-532c0 -75 -38 -110 -105 -110c-5 0 -15 0 -23 1c-15 2 -22 8 -22 19v2c0 12 9 17 21 18c63 3 79 21 79 72zM133 635c0 -19 -15 -34 -34 -34s-34 15 -34 34c0 18 15 34 34 34s34 -16 34 -34z" />
    <glyph glyph-name="k" unicode="k" horiz-adv-x="474" 
d="M94 703c18 0 27 -9 27 -46v-431l264 284c8 9 15 14 23 14h1c15 0 30 -19 12 -38l-173 -182l191 -269c13 -19 0 -38 -18 -38h-1c-10 0 -17 7 -24 17l-181 256l-94 -101v-148c0 -17 -11 -24 -24 -24h-2c-13 0 -24 7 -24 24v658c0 17 9 24 22 24h1z" />
    <glyph glyph-name="l" unicode="l" horiz-adv-x="194" 
d="M122 657v-636c0 -17 -11 -24 -24 -24h-2c-13 0 -24 7 -24 24v658c0 17 9 24 22 24h1c18 0 27 -9 27 -46z" />
    <glyph glyph-name="m" unicode="m" horiz-adv-x="858" 
d="M407 21v365c0 77 -40 99 -96 99c-76 0 -136 -40 -190 -85v-379c0 -17 -11 -24 -24 -24h-2c-13 0 -24 7 -24 24v479c0 17 9 24 22 24h1c18 0 27 -9 27 -46v-36c50 40 121 85 208 85c56 0 109 -24 124 -86c53 45 126 86 210 86c71 0 129 -35 129 -128v-378
c0 -17 -11 -24 -24 -24h-2c-13 0 -24 7 -24 24v365c0 77 -37 99 -97 99c-74 0 -134 -41 -188 -84v-380c0 -17 -11 -24 -24 -24h-2c-13 0 -24 7 -24 24z" />
    <glyph glyph-name="n" unicode="n" horiz-adv-x="551" 
d="M485 388v-367c0 -17 -11 -24 -24 -24h-2c-13 0 -24 7 -24 24v361c0 83 -45 103 -104 103c-77 0 -151 -43 -210 -88v-376c0 -17 -11 -24 -24 -24h-2c-13 0 -24 7 -24 24v479c0 17 9 24 22 24h1c18 0 27 -9 27 -46v-40c59 47 137 89 229 89c73 0 135 -30 135 -139z" />
    <glyph glyph-name="o" unicode="o" horiz-adv-x="549" 
d="M517 261c0 -165 -97 -265 -243 -265c-144 0 -242 100 -242 265c0 164 98 266 242 266c146 0 243 -102 243 -266zM83 261c0 -143 73 -226 191 -226c119 0 192 83 192 226c0 142 -73 227 -192 227c-118 0 -191 -85 -191 -227z" />
    <glyph glyph-name="p" unicode="p" horiz-adv-x="552" 
d="M71 -141v641c0 17 9 24 22 24h1c18 0 27 -9 27 -46v-50c41 48 106 99 198 99c99 0 200 -59 200 -258c0 -206 -116 -270 -224 -270c-83 0 -134 25 -174 61v-201c0 -17 -11 -24 -24 -24h-2c-13 0 -24 7 -24 24zM311 486c-84 0 -145 -53 -190 -107v-271
c41 -45 90 -69 165 -69c86 0 182 45 182 225c0 178 -84 222 -157 222z" />
    <glyph glyph-name="q" unicode="q" horiz-adv-x="552" 
d="M430 -141v234c-42 -53 -109 -94 -191 -94c-104 0 -206 64 -206 258c0 202 116 270 223 270c82 0 136 -25 174 -65v16c0 37 10 46 28 46h1c13 0 22 -7 22 -24v-641c0 -17 -11 -24 -24 -24h-3c-13 0 -24 7 -24 24zM244 39c85 0 141 45 186 105v272c-42 45 -89 72 -166 72
c-88 0 -180 -47 -180 -228c0 -174 82 -221 160 -221z" />
    <glyph glyph-name="r" unicode="r" horiz-adv-x="341" 
d="M121 478v-47c41 50 97 94 171 94c19 0 27 -9 27 -21v-1c0 -13 -8 -20 -27 -22c-72 -8 -114 -31 -171 -97v-363c0 -17 -11 -24 -24 -24h-2c-13 0 -24 7 -24 24v479c0 17 9 24 22 24h1c18 0 27 -9 27 -46z" />
    <glyph glyph-name="s" unicode="s" horiz-adv-x="425" 
d="M391 151c0 -96 -59 -155 -189 -155c-62 0 -108 13 -144 34c-18 11 -25 19 -25 32v1c0 12 8 21 21 21c22 0 43 -49 146 -49c96 0 142 40 142 112c0 61 -34 86 -140 103c-100 16 -163 51 -163 139c0 90 71 138 175 138c49 0 94 -9 125 -25c18 -9 26 -18 26 -30v-2
c0 -13 -8 -21 -19 -21c-21 0 -33 39 -131 39c-85 0 -129 -32 -129 -95c0 -60 35 -83 136 -100c109 -17 169 -50 169 -142z" />
    <glyph glyph-name="t" unicode="t" horiz-adv-x="295" 
d="M203 -4c-80 0 -123 34 -123 117v370h-52c-14 0 -20 8 -20 18v2c0 10 6 18 20 18h52v124c0 17 11 24 24 24h2c13 0 24 -7 24 -24v-124h122c14 0 20 -8 20 -18v-2c0 -10 -6 -18 -20 -18h-122v-364c0 -63 29 -82 90 -82c9 0 30 3 38 3c15 0 22 -7 22 -19v-1
c0 -9 -6 -17 -21 -20s-35 -4 -56 -4z" />
    <glyph glyph-name="u" unicode="u" horiz-adv-x="547" 
d="M207 -6c-80 0 -141 33 -141 136v370c0 17 11 24 24 24h3c13 0 24 -7 24 -24v-365c0 -80 42 -100 97 -100c79 0 151 40 210 83v382c0 17 11 24 24 24h2c13 0 24 -7 24 -24v-479c0 -17 -9 -24 -22 -24h-1c-18 0 -27 11 -27 49v30c-58 -44 -136 -82 -217 -82z" />
    <glyph glyph-name="v" unicode="v" horiz-adv-x="495" 
d="M464 488l-184 -468c-7 -17 -14 -22 -31 -22h-1c-17 0 -24 5 -31 22l-185 465c-10 24 2 39 21 39h1c10 0 18 -8 24 -23l171 -433h2l170 433c6 15 13 23 24 23h1c16 0 27 -14 18 -36z" />
    <glyph glyph-name="w" unicode="w" horiz-adv-x="726" 
d="M497 19l-132 424h-2l-133 -424c-7 -17 -13 -22 -29 -22h-1c-16 0 -23 6 -30 23l-140 469c-6 21 5 35 22 35h1c9 0 19 -6 24 -24l124 -420h2l136 424c4 14 12 20 26 20h4c13 0 21 -6 25 -20l130 -424h2l127 422c5 15 12 22 23 22h1c16 0 26 -12 20 -33l-142 -471
c-5 -18 -12 -23 -28 -23h-1c-16 0 -24 5 -29 22z" />
    <glyph glyph-name="x" unicode="x" horiz-adv-x="479" 
d="M38 36l164 235l-160 215c-14 20 3 38 17 38h1c7 0 15 -4 24 -16l152 -205l139 206c7 10 14 15 22 15h1c16 0 29 -19 15 -39l-145 -213l174 -237c14 -20 -2 -38 -17 -38h-1c-7 0 -15 4 -24 16l-166 228l-158 -229c-7 -10 -14 -15 -22 -15h-1c-16 0 -29 19 -15 39z" />
    <glyph glyph-name="y" unicode="y" horiz-adv-x="500" 
d="M470 487l-265 -630c-5 -12 -14 -19 -23 -19h-1c-18 0 -29 14 -20 34l71 164l-199 450c-9 20 5 35 22 35h1c11 0 18 -7 24 -21l176 -404h1l169 406c5 12 12 19 23 19h1c18 0 28 -15 20 -34z" />
    <glyph glyph-name="z" unicode="z" horiz-adv-x="456" 
d="M70 521h346c14 0 19 -8 19 -19v-4c0 -13 -3 -21 -12 -32l-333 -427h324c13 0 18 -8 18 -18v-2c0 -11 -5 -19 -18 -19h-362c-14 0 -19 8 -19 19v5c0 16 6 22 15 34l330 424h-308c-14 0 -19 8 -19 19v2c0 10 5 18 19 18z" />
    <glyph glyph-name="braceleft" unicode="{" horiz-adv-x="304" 
d="M50 334h-11c-13 0 -19 9 -19 19v2c0 10 6 19 19 19h11c43 0 63 22 63 59v194c0 77 40 114 116 114h37c13 0 19 -9 19 -19v-2c0 -10 -6 -19 -19 -19h-32c-49 0 -70 -25 -70 -74v-192c0 -49 -25 -71 -61 -80c36 -10 61 -34 61 -82v-207c0 -48 21 -75 70 -75h32
c13 0 19 -9 19 -19v-2c0 -10 -6 -19 -19 -19h-37c-76 0 -116 38 -116 116v208c0 37 -20 59 -63 59z" />
    <glyph glyph-name="bar" unicode="|" horiz-adv-x="203" 
d="M80 -32v753c0 14 9 20 21 20h2c11 0 20 -6 20 -20v-753c0 -14 -9 -20 -20 -20h-2c-12 0 -21 6 -21 20z" />
    <glyph glyph-name="braceright" unicode="}" horiz-adv-x="304" 
d="M265 334h-11c-43 0 -63 -22 -63 -59v-208c0 -78 -40 -116 -116 -116h-37c-13 0 -19 9 -19 19v2c0 10 6 19 19 19h32c49 0 70 27 70 75v207c0 48 25 72 61 82c-36 9 -61 31 -61 80v192c0 49 -21 74 -70 74h-32c-13 0 -19 9 -19 19v2c0 10 6 19 19 19h37
c76 0 116 -37 116 -114v-194c0 -37 20 -59 63 -59h11c13 0 19 -9 19 -19v-2c0 -10 -6 -19 -19 -19z" />
    <glyph glyph-name="asciitilde" unicode="~" horiz-adv-x="326" 
d="M101 329c47 0 93 -40 125 -40c41 0 31 48 56 48h1c16 0 22 -13 18 -31c-9 -40 -37 -63 -74 -63c-44 0 -91 40 -123 40c-41 0 -31 -48 -57 -48h-1c-14 0 -21 11 -18 31c6 34 34 63 73 63z" />
    <glyph glyph-name="Adieresis" unicode="&#xc4;" horiz-adv-x="610" 
d="M348 672l228 -636c10 -27 -6 -39 -22 -39h-1c-10 0 -20 5 -27 25l-71 197h-303l-69 -194c-7 -21 -17 -28 -28 -28h-1c-18 0 -30 13 -20 39l231 636c8 21 20 28 39 28h5c19 0 31 -7 39 -28zM303 641l-135 -378h272l-135 378h-2zM268 773c0 -19 -15 -34 -34 -34
s-34 15 -34 34c0 18 15 34 34 34s34 -16 34 -34zM411 773c0 -19 -15 -34 -34 -34c-18 0 -33 15 -33 34c0 18 15 34 33 34c19 0 34 -16 34 -34z" />
    <glyph glyph-name="Aring" unicode="&#xc5;" horiz-adv-x="610" 
d="M348 672l228 -636c10 -27 -6 -39 -22 -39h-1c-10 0 -20 5 -27 25l-71 197h-303l-69 -194c-7 -21 -17 -28 -28 -28h-1c-18 0 -30 13 -20 39l231 636c8 21 20 28 39 28h5c19 0 31 -7 39 -28zM303 641l-135 -378h272l-135 378h-2zM393 820c0 -53 -42 -85 -87 -85
c-46 0 -88 32 -88 85c0 52 42 86 88 86c45 0 87 -34 87 -86zM255 820c0 -32 22 -52 51 -52c28 0 51 20 51 52c0 31 -23 53 -51 53c-29 0 -51 -22 -51 -53z" />
    <glyph glyph-name="Ccedilla" unicode="&#xc7;" horiz-adv-x="614" 
d="M351 -4h-9v-36c50 -2 79 -26 79 -68s-37 -66 -83 -66c-24 0 -44 5 -59 14c-8 5 -12 11 -12 19v1c0 9 6 17 15 17c15 0 20 -15 53 -15c25 0 43 10 43 31c0 20 -14 34 -50 34h-8c-10 0 -15 5 -15 14v58c-153 20 -256 143 -256 353c0 230 141 352 308 352
c81 0 139 -17 186 -50c20 -14 27 -27 27 -37v-1c0 -14 -10 -23 -23 -23c-35 0 -54 68 -187 68c-145 0 -256 -105 -256 -307c0 -206 97 -315 248 -315c153 0 179 82 207 82c13 0 23 -9 23 -22v-1c0 -11 -9 -24 -27 -38c-46 -36 -110 -64 -204 -64z" />
    <glyph glyph-name="Eacute" unicode="&#xc9;" horiz-adv-x="549" 
d="M498 0h-387c-14 0 -26 8 -26 26v648c0 18 12 26 26 26h373c11 0 21 -7 21 -21v-2c0 -15 -10 -22 -21 -22h-346v-272h257c11 0 21 -7 21 -21v-2c0 -14 -10 -21 -21 -21h-257v-295h360c11 0 21 -7 21 -21v-2c0 -14 -10 -21 -21 -21zM301 728h-1c-14 0 -22 14 -9 34l44 70
c7 11 14 16 23 16h1c21 0 32 -22 16 -42l-54 -65c-6 -7 -12 -13 -20 -13z" />
    <glyph glyph-name="Ntilde" unicode="&#xd1;" horiz-adv-x="676" 
d="M526 23l-389 606h-2v-607c0 -17 -11 -25 -25 -25h-1c-13 0 -24 8 -24 25v651c0 18 12 27 26 27h16c20 0 29 -8 40 -25l373 -579h1v582c0 17 11 25 25 25h1c14 0 25 -8 25 -25v-653c0 -19 -10 -27 -26 -27h-3c-19 0 -26 8 -37 25zM402 741c-45 0 -78 40 -106 40
c-18 0 -31 -10 -38 -27c-4 -9 -8 -19 -20 -19h-1c-15 0 -19 15 -15 31c8 32 35 56 71 56c44 0 77 -39 106 -39c18 0 30 10 37 27c4 9 8 19 20 19h1c15 0 19 -15 15 -31c-8 -32 -34 -57 -70 -57z" />
    <glyph glyph-name="Odieresis" unicode="&#xd6;" horiz-adv-x="710" 
d="M669 350c0 -230 -143 -354 -313 -354c-172 0 -315 124 -315 354c0 229 143 354 315 354c170 0 313 -125 313 -354zM96 349c0 -205 113 -311 260 -311c145 0 258 106 258 311s-113 313 -258 313c-147 0 -260 -108 -260 -313zM317 773c0 -19 -15 -34 -34 -34s-34 15 -34 34
c0 18 15 34 34 34s34 -16 34 -34zM460 773c0 -19 -15 -34 -34 -34c-18 0 -33 15 -33 34c0 18 15 34 33 34c19 0 34 -16 34 -34z" />
    <glyph glyph-name="Udieresis" unicode="&#xdc;" horiz-adv-x="672" 
d="M593 678v-441c0 -176 -109 -241 -254 -241c-143 0 -259 64 -259 241v440c0 18 12 26 26 26h1c14 0 26 -8 26 -26v-442c0 -150 95 -195 209 -195c110 0 199 42 199 195v443c0 17 11 25 25 25h2c14 0 25 -8 25 -25zM299 773c0 -19 -15 -34 -34 -34s-34 15 -34 34
c0 18 15 34 34 34s34 -16 34 -34zM442 773c0 -19 -15 -34 -34 -34c-18 0 -33 15 -33 34c0 18 15 34 33 34c19 0 34 -16 34 -34z" />
    <glyph glyph-name="aacute" unicode="&#xe1;" horiz-adv-x="491" 
d="M374 46v25c-44 -46 -92 -76 -178 -76c-97 0 -168 53 -168 151c0 105 87 153 209 153c50 0 94 -5 137 -16v94c0 81 -52 110 -128 110c-122 0 -132 -47 -163 -47c-11 0 -21 7 -21 21v1c0 9 6 22 34 35c38 18 89 30 152 30c106 0 176 -39 176 -147v-359
c0 -17 -9 -24 -22 -24h-1c-18 0 -27 11 -27 49zM203 34c84 0 130 36 171 85v128c-40 9 -84 16 -134 16c-92 0 -161 -33 -161 -113c0 -83 54 -116 124 -116zM343 665l-74 -85c-6 -7 -12 -10 -17 -10h-1c-15 0 -23 15 -13 29l60 88c10 15 18 22 30 22h1c20 0 32 -23 14 -44z
" />
    <glyph glyph-name="agrave" unicode="&#xe0;" horiz-adv-x="491" 
d="M374 46v25c-44 -46 -92 -76 -178 -76c-97 0 -168 53 -168 151c0 105 87 153 209 153c50 0 94 -5 137 -16v94c0 81 -52 110 -128 110c-122 0 -132 -47 -163 -47c-11 0 -21 7 -21 21v1c0 9 6 22 34 35c38 18 89 30 152 30c106 0 176 -39 176 -147v-359
c0 -17 -9 -24 -22 -24h-1c-18 0 -27 11 -27 49zM203 34c84 0 130 36 171 85v128c-40 9 -84 16 -134 16c-92 0 -161 -33 -161 -113c0 -83 54 -116 124 -116zM231 579l-74 85c-18 21 -6 44 14 44h1c12 0 20 -7 30 -22l60 -88c10 -14 2 -29 -13 -29h-1c-5 0 -11 3 -17 10z" />
    <glyph glyph-name="acircumflex" unicode="&#xe2;" horiz-adv-x="491" 
d="M374 46v25c-44 -46 -92 -76 -178 -76c-97 0 -168 53 -168 151c0 105 87 153 209 153c50 0 94 -5 137 -16v94c0 81 -52 110 -128 110c-122 0 -132 -47 -163 -47c-11 0 -21 7 -21 21v1c0 9 6 22 34 35c38 18 89 30 152 30c106 0 176 -39 176 -147v-359
c0 -17 -9 -24 -22 -24h-1c-18 0 -27 11 -27 49zM203 34c84 0 130 36 171 85v128c-40 9 -84 16 -134 16c-92 0 -161 -33 -161 -113c0 -83 54 -116 124 -116zM279 688l71 -88c13 -16 3 -31 -10 -31h-1c-6 0 -13 5 -18 11l-76 80l-75 -80c-5 -6 -11 -11 -18 -11h-1
c-13 0 -24 15 -10 31l74 88c9 10 16 18 31 18h2c15 0 22 -7 31 -18z" />
    <glyph glyph-name="adieresis" unicode="&#xe4;" horiz-adv-x="491" 
d="M374 46v25c-44 -46 -92 -76 -178 -76c-97 0 -168 53 -168 151c0 105 87 153 209 153c50 0 94 -5 137 -16v94c0 81 -52 110 -128 110c-122 0 -132 -47 -163 -47c-11 0 -21 7 -21 21v1c0 9 6 22 34 35c38 18 89 30 152 30c106 0 176 -39 176 -147v-359
c0 -17 -9 -24 -22 -24h-1c-18 0 -27 11 -27 49zM203 34c84 0 130 36 171 85v128c-40 9 -84 16 -134 16c-92 0 -161 -33 -161 -113c0 -83 54 -116 124 -116zM211 634c0 -18 -15 -33 -34 -33s-34 15 -34 33c0 19 15 34 34 34s34 -15 34 -34zM354 634c0 -18 -15 -33 -34 -33
c-18 0 -33 15 -33 33c0 19 15 34 33 34c19 0 34 -15 34 -34z" />
    <glyph glyph-name="atilde" unicode="&#xe3;" horiz-adv-x="491" 
d="M374 46v25c-44 -46 -92 -76 -178 -76c-97 0 -168 53 -168 151c0 105 87 153 209 153c50 0 94 -5 137 -16v94c0 81 -52 110 -128 110c-122 0 -132 -47 -163 -47c-11 0 -21 7 -21 21v1c0 9 6 22 34 35c38 18 89 30 152 30c106 0 176 -39 176 -147v-359
c0 -17 -9 -24 -22 -24h-1c-18 0 -27 11 -27 49zM203 34c84 0 130 36 171 85v128c-40 9 -84 16 -134 16c-92 0 -161 -33 -161 -113c0 -83 54 -116 124 -116zM303 589c-45 0 -78 40 -106 40c-18 0 -31 -10 -38 -27c-4 -9 -8 -19 -20 -19h-1c-15 0 -19 15 -15 31
c8 32 35 56 71 56c44 0 77 -39 106 -39c18 0 30 10 37 27c4 9 8 19 20 19h1c15 0 19 -15 15 -31c-8 -32 -34 -57 -70 -57z" />
    <glyph glyph-name="aring" unicode="&#xe5;" horiz-adv-x="491" 
d="M374 46v25c-44 -46 -92 -76 -178 -76c-97 0 -168 53 -168 151c0 105 87 153 209 153c50 0 94 -5 137 -16v94c0 81 -52 110 -128 110c-122 0 -132 -47 -163 -47c-11 0 -21 7 -21 21v1c0 9 6 22 34 35c38 18 89 30 152 30c106 0 176 -39 176 -147v-359
c0 -17 -9 -24 -22 -24h-1c-18 0 -27 11 -27 49zM203 34c84 0 130 36 171 85v128c-40 9 -84 16 -134 16c-92 0 -161 -33 -161 -113c0 -83 54 -116 124 -116zM336 659c0 -52 -42 -85 -87 -85c-46 0 -88 33 -88 85s42 86 88 86c45 0 87 -34 87 -86zM198 659
c0 -31 22 -52 51 -52c28 0 51 21 51 52c0 32 -23 54 -51 54c-29 0 -51 -22 -51 -54z" />
    <glyph glyph-name="ccedilla" unicode="&#xe7;" horiz-adv-x="478" 
d="M434 45c-36 -30 -91 -49 -158 -49h-16v-36c50 -2 79 -26 79 -68s-37 -66 -83 -66c-24 0 -44 5 -59 14c-8 5 -12 11 -12 19v1c0 9 6 17 15 17c15 0 20 -15 53 -15c25 0 43 10 43 31c0 20 -14 34 -50 34h-8c-10 0 -15 5 -15 14v59c-121 22 -191 118 -191 262
c0 165 102 265 247 265c58 0 106 -12 140 -35c14 -10 23 -20 23 -33v-1c0 -12 -9 -21 -21 -21c-27 0 -39 50 -143 50c-116 0 -195 -83 -195 -225c0 -143 73 -226 195 -226c113 0 126 59 153 59c13 0 20 -9 20 -20v-1c0 -9 -5 -19 -17 -29z" />
    <glyph glyph-name="eacute" unicode="&#xe9;" horiz-adv-x="507" 
d="M281 37c121 0 141 53 164 53c13 0 21 -8 21 -19v-1c0 -11 -9 -20 -19 -27c-36 -25 -87 -47 -171 -47c-157 0 -244 101 -244 263c0 164 98 268 231 268c128 0 214 -74 214 -244c0 -17 -11 -24 -24 -24h-370c0 -146 68 -222 198 -222zM84 297h343c-3 139 -67 192 -164 192
c-96 0 -167 -64 -179 -192zM356 664l-74 -85c-6 -7 -12 -10 -17 -10h-1c-15 0 -23 15 -13 29l60 88c10 15 18 22 30 22h1c20 0 32 -23 14 -44z" />
    <glyph glyph-name="egrave" unicode="&#xe8;" horiz-adv-x="507" 
d="M281 37c121 0 141 53 164 53c13 0 21 -8 21 -19v-1c0 -11 -9 -20 -19 -27c-36 -25 -87 -47 -171 -47c-157 0 -244 101 -244 263c0 164 98 268 231 268c128 0 214 -74 214 -244c0 -17 -11 -24 -24 -24h-370c0 -146 68 -222 198 -222zM84 297h343c-3 139 -67 192 -164 192
c-96 0 -167 -64 -179 -192zM244 579l-74 85c-18 21 -6 44 14 44h1c12 0 20 -7 30 -22l60 -88c10 -14 2 -29 -13 -29h-1c-5 0 -11 3 -17 10z" />
    <glyph glyph-name="ecircumflex" unicode="&#xea;" horiz-adv-x="507" 
d="M281 37c121 0 141 53 164 53c13 0 21 -8 21 -19v-1c0 -11 -9 -20 -19 -27c-36 -25 -87 -47 -171 -47c-157 0 -244 101 -244 263c0 164 98 268 231 268c128 0 214 -74 214 -244c0 -17 -11 -24 -24 -24h-370c0 -146 68 -222 198 -222zM84 297h343c-3 139 -67 192 -164 192
c-96 0 -167 -64 -179 -192zM295 688l71 -88c13 -16 3 -31 -10 -31h-1c-6 0 -13 5 -18 11l-76 80l-75 -80c-5 -6 -11 -11 -18 -11h-1c-13 0 -24 15 -10 31l74 88c9 10 16 18 31 18h2c15 0 22 -7 31 -18z" />
    <glyph glyph-name="edieresis" unicode="&#xeb;" horiz-adv-x="507" 
d="M281 37c121 0 141 53 164 53c13 0 21 -8 21 -19v-1c0 -11 -9 -20 -19 -27c-36 -25 -87 -47 -171 -47c-157 0 -244 101 -244 263c0 164 98 268 231 268c128 0 214 -74 214 -244c0 -17 -11 -24 -24 -24h-370c0 -146 68 -222 198 -222zM84 297h343c-3 139 -67 192 -164 192
c-96 0 -167 -64 -179 -192zM225 634c0 -18 -15 -33 -34 -33s-34 15 -34 33c0 19 15 34 34 34s34 -15 34 -34zM368 634c0 -18 -15 -33 -34 -33c-18 0 -33 15 -33 33c0 19 15 34 33 34c19 0 34 -15 34 -34z" />
    <glyph glyph-name="iacute" unicode="&#xed;" horiz-adv-x="197" 
d="M123 478v-457c0 -17 -11 -24 -24 -24h-2c-13 0 -24 7 -24 24v479c0 17 9 24 22 24h1c18 0 27 -9 27 -46zM191 664l-74 -85c-6 -7 -12 -10 -17 -10h-1c-15 0 -23 15 -13 29l60 88c10 15 18 22 30 22h1c20 0 32 -23 14 -44z" />
    <glyph glyph-name="igrave" unicode="&#xec;" horiz-adv-x="197" 
d="M123 478v-457c0 -17 -11 -24 -24 -24h-2c-13 0 -24 7 -24 24v479c0 17 9 24 22 24h1c18 0 27 -9 27 -46zM81 579l-74 85c-18 21 -6 44 14 44h1c12 0 20 -7 30 -22l60 -88c10 -14 2 -29 -13 -29h-1c-5 0 -11 3 -17 10z" />
    <glyph glyph-name="icircumflex" unicode="&#xee;" horiz-adv-x="197" 
d="M123 478v-457c0 -17 -11 -24 -24 -24h-2c-13 0 -24 7 -24 24v479c0 17 9 24 22 24h1c18 0 27 -9 27 -46zM131 688l71 -88c13 -16 3 -31 -10 -31h-1c-6 0 -13 5 -18 11l-76 80l-75 -80c-5 -6 -11 -11 -18 -11h-1c-13 0 -24 15 -10 31l74 88c9 10 16 18 31 18h2
c15 0 22 -7 31 -18z" />
    <glyph glyph-name="idieresis" unicode="&#xef;" horiz-adv-x="197" 
d="M61 634c0 -18 -15 -33 -34 -33s-34 15 -34 33c0 19 15 34 34 34s34 -15 34 -34zM204 634c0 -18 -15 -33 -34 -33c-18 0 -33 15 -33 33c0 19 15 34 33 34c19 0 34 -15 34 -34zM123 478v-457c0 -17 -11 -24 -24 -24h-2c-13 0 -24 7 -24 24v479c0 17 9 24 22 24h1
c18 0 27 -9 27 -46z" />
    <glyph glyph-name="ntilde" unicode="&#xf1;" horiz-adv-x="551" 
d="M485 388v-367c0 -17 -11 -24 -24 -24h-2c-13 0 -24 7 -24 24v361c0 83 -45 103 -104 103c-77 0 -151 -43 -210 -88v-376c0 -17 -11 -24 -24 -24h-2c-13 0 -24 7 -24 24v479c0 17 9 24 22 24h1c18 0 27 -9 27 -46v-40c59 47 137 89 229 89c73 0 135 -30 135 -139zM336 589
c-45 0 -78 40 -106 40c-18 0 -31 -10 -38 -27c-4 -9 -8 -19 -20 -19h-1c-15 0 -19 15 -15 31c8 32 35 56 71 56c44 0 77 -39 106 -39c18 0 30 10 37 27c4 9 8 19 20 19h1c15 0 19 -15 15 -31c-8 -32 -34 -57 -70 -57z" />
    <glyph glyph-name="oacute" unicode="&#xf3;" horiz-adv-x="549" 
d="M517 261c0 -165 -97 -265 -243 -265c-144 0 -242 100 -242 265c0 164 98 266 242 266c146 0 243 -102 243 -266zM83 261c0 -143 73 -226 191 -226c119 0 192 83 192 226c0 142 -73 227 -192 227c-118 0 -191 -85 -191 -227zM367 664l-74 -85c-6 -7 -12 -10 -17 -10h-1
c-15 0 -23 15 -13 29l60 88c10 15 18 22 30 22h1c20 0 32 -23 14 -44z" />
    <glyph glyph-name="ograve" unicode="&#xf2;" horiz-adv-x="549" 
d="M517 261c0 -165 -97 -265 -243 -265c-144 0 -242 100 -242 265c0 164 98 266 242 266c146 0 243 -102 243 -266zM83 261c0 -143 73 -226 191 -226c119 0 192 83 192 226c0 142 -73 227 -192 227c-118 0 -191 -85 -191 -227zM255 579l-74 85c-18 21 -6 44 14 44h1
c12 0 20 -7 30 -22l60 -88c10 -14 2 -29 -13 -29h-1c-5 0 -11 3 -17 10z" />
    <glyph glyph-name="ocircumflex" unicode="&#xf4;" horiz-adv-x="549" 
d="M517 261c0 -165 -97 -265 -243 -265c-144 0 -242 100 -242 265c0 164 98 266 242 266c146 0 243 -102 243 -266zM83 261c0 -143 73 -226 191 -226c119 0 192 83 192 226c0 142 -73 227 -192 227c-118 0 -191 -85 -191 -227zM306 688l71 -88c13 -16 3 -31 -10 -31h-1
c-6 0 -13 5 -18 11l-76 80l-75 -80c-5 -6 -11 -11 -18 -11h-1c-13 0 -24 15 -10 31l74 88c9 10 16 18 31 18h2c15 0 22 -7 31 -18z" />
    <glyph glyph-name="odieresis" unicode="&#xf6;" horiz-adv-x="549" 
d="M517 261c0 -165 -97 -265 -243 -265c-144 0 -242 100 -242 265c0 164 98 266 242 266c146 0 243 -102 243 -266zM83 261c0 -143 73 -226 191 -226c119 0 192 83 192 226c0 142 -73 227 -192 227c-118 0 -191 -85 -191 -227zM236 634c0 -18 -15 -33 -34 -33s-34 15 -34 33
c0 19 15 34 34 34s34 -15 34 -34zM379 634c0 -18 -15 -33 -34 -33c-18 0 -33 15 -33 33c0 19 15 34 33 34c19 0 34 -15 34 -34z" />
    <glyph glyph-name="otilde" unicode="&#xf5;" horiz-adv-x="549" 
d="M517 261c0 -165 -97 -265 -243 -265c-144 0 -242 100 -242 265c0 164 98 266 242 266c146 0 243 -102 243 -266zM83 261c0 -143 73 -226 191 -226c119 0 192 83 192 226c0 142 -73 227 -192 227c-118 0 -191 -85 -191 -227zM329 589c-45 0 -78 40 -106 40
c-18 0 -31 -10 -38 -27c-4 -9 -8 -19 -20 -19h-1c-15 0 -19 15 -15 31c8 32 35 56 71 56c44 0 77 -39 106 -39c18 0 30 10 37 27c4 9 8 19 20 19h1c15 0 19 -15 15 -31c-8 -32 -34 -57 -70 -57z" />
    <glyph glyph-name="uacute" unicode="&#xfa;" horiz-adv-x="547" 
d="M207 -6c-80 0 -141 33 -141 136v370c0 17 11 24 24 24h3c13 0 24 -7 24 -24v-365c0 -80 42 -100 97 -100c79 0 151 40 210 83v382c0 17 11 24 24 24h2c13 0 24 -7 24 -24v-479c0 -17 -9 -24 -22 -24h-1c-18 0 -27 11 -27 49v30c-58 -44 -136 -82 -217 -82zM365 664
l-74 -85c-6 -7 -12 -10 -17 -10h-1c-15 0 -23 15 -13 29l60 88c10 15 18 22 30 22h1c20 0 32 -23 14 -44z" />
    <glyph glyph-name="ugrave" unicode="&#xf9;" horiz-adv-x="547" 
d="M207 -6c-80 0 -141 33 -141 136v370c0 17 11 24 24 24h3c13 0 24 -7 24 -24v-365c0 -80 42 -100 97 -100c79 0 151 40 210 83v382c0 17 11 24 24 24h2c13 0 24 -7 24 -24v-479c0 -17 -9 -24 -22 -24h-1c-18 0 -27 11 -27 49v30c-58 -44 -136 -82 -217 -82zM253 579
l-74 85c-18 21 -6 44 14 44h1c12 0 20 -7 30 -22l60 -88c10 -14 2 -29 -13 -29h-1c-5 0 -11 3 -17 10z" />
    <glyph glyph-name="ucircumflex" unicode="&#xfb;" horiz-adv-x="547" 
d="M207 -6c-80 0 -141 33 -141 136v370c0 17 11 24 24 24h3c13 0 24 -7 24 -24v-365c0 -80 42 -100 97 -100c79 0 151 40 210 83v382c0 17 11 24 24 24h2c13 0 24 -7 24 -24v-479c0 -17 -9 -24 -22 -24h-1c-18 0 -27 11 -27 49v30c-58 -44 -136 -82 -217 -82zM304 688
l71 -88c13 -16 3 -31 -10 -31h-1c-6 0 -13 5 -18 11l-76 80l-75 -80c-5 -6 -11 -11 -18 -11h-1c-13 0 -24 15 -10 31l74 88c9 10 16 18 31 18h2c15 0 22 -7 31 -18z" />
    <glyph glyph-name="udieresis" unicode="&#xfc;" horiz-adv-x="547" 
d="M207 -6c-80 0 -141 33 -141 136v370c0 17 11 24 24 24h3c13 0 24 -7 24 -24v-365c0 -80 42 -100 97 -100c79 0 151 40 210 83v382c0 17 11 24 24 24h2c13 0 24 -7 24 -24v-479c0 -17 -9 -24 -22 -24h-1c-18 0 -27 11 -27 49v30c-58 -44 -136 -82 -217 -82zM234 634
c0 -18 -15 -33 -34 -33s-34 15 -34 33c0 19 15 34 34 34s34 -15 34 -34zM377 634c0 -18 -15 -33 -34 -33c-18 0 -33 15 -33 33c0 19 15 34 33 34c19 0 34 -15 34 -34z" />
    <glyph glyph-name="dagger" unicode="&#x2020;" horiz-adv-x="417" 
d="M193 464c0 0 -82 -11 -139 -11c-21 0 -29 10 -29 24v1c0 14 8 24 29 24c57 0 139 -10 139 -10s-10 106 -10 183c0 20 11 29 25 29h2c14 0 25 -9 25 -29c0 -77 -9 -183 -9 -183s81 10 138 10c21 0 29 -10 29 -24v-1c0 -14 -8 -24 -29 -24c-57 0 -138 10 -138 10
s10 -73 10 -128c0 -109 -7 -367 -7 -367c0 -14 -9 -21 -19 -21h-2c-10 0 -19 7 -19 21c0 0 -7 259 -7 366c0 56 11 130 11 130z" />
    <glyph glyph-name="degree" unicode="&#xb0;" horiz-adv-x="316" 
d="M284 579c0 -76 -57 -126 -126 -126c-68 0 -126 50 -126 126c0 78 58 127 126 127c69 0 126 -49 126 -127zM73 579c0 -53 38 -89 85 -89c48 0 85 36 85 89c0 55 -37 90 -85 90c-47 0 -85 -35 -85 -90z" />
    <glyph glyph-name="cent" unicode="&#xa2;" horiz-adv-x="480" 
d="M438 46c-27 -23 -76 -46 -141 -49v-83c0 -14 -9 -20 -20 -20h-2c-11 0 -20 6 -20 20v83c-140 9 -223 109 -223 265s91 254 223 264v43c0 14 9 20 20 20h2c11 0 20 -6 20 -20v-43c61 -2 101 -19 129 -38c12 -9 17 -17 17 -27v-1c0 -12 -9 -22 -21 -22
c-28 0 -37 42 -125 48v-450c98 6 108 59 134 59c13 0 21 -9 21 -21v-1c0 -10 -5 -19 -14 -27zM83 262c0 -134 63 -215 172 -225v449c-104 -10 -172 -92 -172 -224z" />
    <glyph glyph-name="sterling" unicode="&#xa3;" horiz-adv-x="504" 
d="M452 0h-405c-15 0 -21 11 -21 23v1c0 41 87 48 87 165c0 47 -7 92 -15 135h-53c-13 0 -19 9 -19 19v2c0 10 6 19 19 19h45c-11 54 -22 104 -22 152c0 112 75 188 211 188c67 0 125 -19 164 -51c11 -9 16 -18 16 -28v-1c0 -13 -10 -22 -22 -22c-33 0 -41 58 -157 58
c-110 0 -159 -55 -159 -144c0 -48 10 -98 21 -152h185c13 0 19 -9 19 -19v-2c0 -10 -6 -19 -19 -19h-178c8 -43 14 -87 14 -135c0 -70 -31 -111 -71 -144h360c14 0 21 -10 21 -21v-2c0 -12 -7 -22 -21 -22z" />
    <glyph glyph-name="section" unicode="&#xa7;" horiz-adv-x="505" 
d="M209 135c-114 32 -180 72 -180 159c0 75 49 119 136 137c-53 27 -78 66 -78 129c0 85 67 144 177 144c63 0 114 -15 138 -31c12 -8 18 -16 18 -28v-1c0 -11 -9 -20 -20 -20c-30 0 -35 41 -135 41c-84 0 -131 -43 -131 -103c0 -63 41 -95 143 -120
c110 -27 199 -67 199 -163c0 -74 -46 -124 -129 -145c46 -23 73 -54 73 -115c0 -95 -62 -150 -186 -150c-70 0 -121 17 -153 38c-12 8 -19 18 -19 29v1c0 12 8 21 20 21c27 0 40 -50 151 -50c90 0 138 35 138 107c0 69 -47 87 -162 120zM427 273c0 68 -58 102 -162 125
l-36 9c-106 -8 -151 -46 -151 -105c0 -63 41 -95 145 -125l67 -20c85 9 137 48 137 116z" />
    <glyph glyph-name="bullet" unicode="&#x2022;" horiz-adv-x="284" 
d="M259 301c0 -73 -51 -116 -117 -116c-65 0 -117 43 -117 116c0 71 52 116 117 116c66 0 117 -45 117 -116z" />
    <glyph glyph-name="paragraph" unicode="&#xb6;" horiz-adv-x="546" 
d="M307 -95h-2c-12 0 -22 7 -22 22v411h-16c-132 0 -234 39 -234 181c0 147 104 181 240 181h163c14 0 26 -9 26 -26v-747c0 -15 -10 -22 -22 -22h-2c-12 0 -22 7 -22 22v729h-87v-729c0 -15 -10 -22 -22 -22z" />
    <glyph glyph-name="germandbls" unicode="&#xdf;" horiz-adv-x="564" 
d="M97 -4h-2c-13 0 -24 8 -24 24v475c0 140 92 210 224 210c98 0 176 -34 176 -122c0 -60 -55 -105 -111 -146c-45 -32 -65 -52 -65 -79c0 -29 25 -45 96 -71c80 -30 141 -59 141 -147c0 -93 -69 -144 -174 -144c-49 0 -95 12 -120 30c-10 7 -15 14 -15 24v1
c0 11 8 20 20 20c26 0 32 -36 115 -36c80 0 126 34 126 101c0 62 -43 83 -117 110c-75 28 -118 51 -118 106c0 46 30 74 76 111c51 39 96 70 96 119c0 58 -54 84 -126 84c-109 0 -174 -63 -174 -173v-473c0 -16 -11 -24 -24 -24z" />
    <glyph glyph-name="registered" unicode="&#xae;" horiz-adv-x="426" 
d="M31 529c0 106 77 179 182 179s182 -73 182 -179s-77 -179 -182 -179c-106 0 -182 73 -182 179zM63 529c0 -89 61 -150 150 -150s150 61 150 150s-61 150 -150 150s-150 -61 -150 -150zM166 433h-2c-11 0 -19 5 -19 19v151c0 18 12 26 26 26h49c49 0 71 -21 71 -58
c0 -25 -13 -44 -36 -53l35 -56c9 -15 -2 -29 -15 -29h-1c-9 0 -14 6 -19 14l-38 65h-33v-60c0 -14 -8 -19 -18 -19zM184 539h33c26 0 36 12 36 32c0 18 -9 30 -36 30h-33v-62z" />
    <glyph glyph-name="copyright" unicode="&#xa9;" horiz-adv-x="792" 
d="M751 350c0 -230 -165 -356 -355 -356s-355 126 -355 356s165 356 355 356s355 -126 355 -356zM84 350c0 -205 140 -319 312 -319s313 114 313 319s-141 320 -313 320s-312 -115 -312 -320zM519 190c-24 -18 -62 -34 -115 -34c-119 0 -188 75 -188 195s79 194 190 194
c52 0 89 -12 109 -26c10 -7 17 -16 17 -26v-1c0 -14 -10 -22 -20 -22c-24 0 -29 35 -106 35c-81 0 -138 -55 -138 -154c0 -102 51 -154 138 -154c81 0 82 42 109 42c11 0 20 -8 20 -20v-1c0 -12 -7 -21 -16 -28z" />
    <glyph glyph-name="trademark" unicode="&#x2122;" horiz-adv-x="617" 
d="M151 664v-220c0 -15 -10 -22 -22 -22h-2c-12 0 -22 7 -22 22v220h-71c-12 0 -18 8 -18 17v2c0 9 6 17 18 17h189c12 0 18 -8 18 -17v-2c0 -9 -6 -17 -18 -17h-72zM306 422h-2c-11 0 -19 5 -19 19v233c0 18 12 26 26 26h17c19 0 28 -9 33 -23l64 -183h1l65 183
c5 14 14 23 33 23h18c14 0 26 -8 26 -26v-231c0 -14 -10 -21 -21 -21h-2c-11 0 -21 7 -21 21v216h-1l-79 -222c-3 -9 -8 -15 -19 -15h-2c-12 0 -17 6 -20 15l-78 222h-1v-219c0 -13 -8 -18 -18 -18z" />
    <glyph glyph-name="acute" unicode="&#xb4;" 
d="M294 664l-74 -85c-6 -7 -12 -10 -17 -10h-1c-15 0 -23 15 -13 29l60 88c10 15 18 22 30 22h1c20 0 32 -23 14 -44z" />
    <glyph glyph-name="dieresis" unicode="&#xa8;" 
d="M168 634c0 -18 -15 -33 -34 -33s-34 15 -34 33c0 19 15 34 34 34s34 -15 34 -34zM311 634c0 -18 -15 -33 -34 -33c-18 0 -33 15 -33 33c0 19 15 34 33 34c19 0 34 -15 34 -34z" />
    <glyph glyph-name="AE" unicode="&#xc6;" horiz-adv-x="920" 
d="M481 0c-14 0 -26 8 -26 26v194h-279l-108 -206c-6 -11 -13 -18 -24 -18h-1c-20 0 -30 19 -18 42l339 639c7 14 19 23 38 23h453c11 0 21 -7 21 -21v-2c0 -15 -10 -22 -21 -22h-346v-272h257c11 0 21 -7 21 -21v-2c0 -14 -10 -21 -21 -21h-257v-295h360c11 0 21 -7 21 -21
v-2c0 -14 -10 -21 -21 -21h-388zM455 655h-51l-205 -391h256v391z" />
    <glyph glyph-name="Oslash" unicode="&#xd8;" horiz-adv-x="710" 
d="M669 350c0 -230 -143 -354 -313 -354c-73 0 -140 22 -194 65l-58 -76c-9 -12 -15 -16 -22 -16h-1c-16 0 -28 16 -13 36l64 84c-56 59 -91 147 -91 261c0 229 143 354 315 354c73 0 141 -23 195 -68l55 71c9 12 15 16 22 16h1c16 0 28 -16 13 -36l-61 -80
c54 -60 88 -146 88 -257zM96 349c0 -96 25 -170 66 -222l361 472c-44 42 -103 63 -167 63c-147 0 -260 -108 -260 -313zM614 349c0 93 -24 167 -63 219l-361 -471c45 -39 102 -59 166 -59c145 0 258 106 258 311z" />
    <glyph glyph-name="yen" unicode="&#xa5;" horiz-adv-x="513" 
d="M259 -4h-2c-14 0 -26 9 -26 26v174h-156c-12 0 -18 8 -18 19v1c0 11 6 19 18 19h156v68h-156c-12 0 -18 8 -18 19v1c0 11 6 19 18 19h143l-187 319c-14 24 -1 43 20 43h1c10 0 18 -8 24 -19l184 -315h1l180 317c6 10 12 17 22 17h1c21 0 30 -19 19 -38l-187 -324h145
c12 0 18 -8 18 -19v-1c0 -11 -6 -19 -18 -19h-156v-68h156c12 0 18 -8 18 -19v-1c0 -11 -6 -19 -18 -19h-156v-174c0 -17 -12 -26 -26 -26z" />
    <glyph glyph-name="ordfeminine" unicode="&#xaa;" horiz-adv-x="420" 
d="M342 254c-16 0 -24 9 -24 34v30c-37 -41 -83 -64 -149 -64c-83 0 -143 40 -143 127c0 89 73 132 177 132c42 0 79 -5 115 -14v73c0 73 -38 93 -108 93c-102 0 -110 -38 -137 -38c-11 0 -19 8 -19 20v1c0 9 5 16 17 23c32 19 83 33 146 33c86 0 148 -29 148 -128v-298
c0 -15 -8 -24 -22 -24h-1zM175 290c70 0 109 30 143 71v105c-34 6 -69 12 -108 12c-82 0 -137 -26 -137 -94c0 -69 43 -94 102 -94z" />
    <glyph glyph-name="ordmasculine" unicode="&#xba;" horiz-adv-x="484" 
d="M452 479c0 -144 -90 -225 -210 -225c-119 0 -210 81 -210 225c0 142 91 225 210 225c120 0 210 -83 210 -225zM81 479c0 -123 64 -186 161 -186s161 63 161 186c0 120 -64 187 -161 187s-161 -67 -161 -187z" />
    <glyph glyph-name="ae" unicode="&#xe6;" horiz-adv-x="849" 
d="M197 -5c-98 0 -169 53 -169 152c0 102 86 151 209 151h137v79c0 81 -52 110 -128 110c-122 0 -132 -47 -163 -47c-11 0 -21 7 -21 21v1c0 9 6 22 34 35c38 18 89 30 152 30c89 0 152 -29 168 -105c41 66 108 105 189 105c128 0 214 -73 214 -243c0 -17 -11 -24 -24 -24
h-370v-1c0 -146 68 -222 198 -222c121 0 141 53 164 53c13 0 21 -8 21 -19v-1c0 -11 -9 -20 -19 -27c-36 -25 -87 -47 -171 -47c-100 0 -172 41 -211 113c-45 -67 -108 -114 -210 -114zM79 150c0 -83 54 -116 124 -116c89 0 145 44 188 111c-11 33 -17 72 -17 114v1h-134
c-94 0 -161 -32 -161 -110zM426 298h343c-3 139 -67 191 -164 191c-96 0 -167 -63 -179 -191z" />
    <glyph glyph-name="oslash" unicode="&#xf8;" horiz-adv-x="549" 
d="M498 512l-47 -58c42 -46 66 -112 66 -193c0 -165 -97 -265 -243 -265c-59 0 -110 17 -150 48l-46 -58c-7 -9 -14 -14 -20 -14h-1c-16 0 -26 16 -13 33l52 65c-41 45 -64 110 -64 191c0 164 98 266 242 266c58 0 109 -17 149 -47l41 51c7 9 14 14 20 14h1
c16 0 26 -16 13 -33zM466 261c0 65 -16 118 -44 156l-272 -340c32 -28 74 -42 124 -42c119 0 192 83 192 226zM83 261c0 -65 15 -117 42 -155l271 340c-32 27 -73 42 -122 42c-118 0 -191 -85 -191 -227z" />
    <glyph glyph-name="questiondown" unicode="&#xbf;" horiz-adv-x="428" 
d="M221 590c0 22 18 38 39 38c22 0 38 -16 38 -38c0 -21 -16 -39 -38 -39c-21 0 -39 18 -39 39zM216 -38c116 0 125 58 158 58c12 0 20 -10 20 -23v-1c0 -15 -12 -26 -27 -36c-35 -22 -81 -40 -152 -40c-112 0 -182 53 -182 159c0 93 65 141 131 206c31 30 57 55 70 90
c9 23 10 53 10 87c0 15 11 21 20 21h2c11 0 20 -6 21 -21c7 -96 -20 -135 -89 -206c-48 -48 -111 -97 -111 -179c0 -73 45 -115 129 -115z" />
    <glyph glyph-name="exclamdown" unicode="&#xa1;" horiz-adv-x="225" 
d="M91 462c1 15 10 21 20 21h2c10 0 19 -6 20 -21c0 0 6 -348 6 -514c0 -17 -11 -27 -26 -27h-2c-15 0 -26 10 -26 27c0 166 6 514 6 514zM74 590c0 22 17 38 39 38s38 -16 38 -38c0 -21 -16 -39 -38 -39s-39 18 -39 39z" />
    <glyph glyph-name="florin" unicode="&#x192;" horiz-adv-x="328" 
d="M257 387h-99l-54 -447c-2 -14 -11 -25 -25 -25h-2c-18 0 -26 14 -24 33l53 439h-50c-15 0 -21 8 -21 19v2c0 11 6 19 21 19h55l18 146c11 93 62 130 138 130c14 0 28 -1 39 -4s17 -9 17 -18v-1c0 -11 -8 -18 -20 -18h-25c-52 0 -89 -23 -97 -93l-18 -142h94
c15 0 21 -8 21 -19v-2c0 -11 -6 -19 -21 -19z" />
    <glyph glyph-name="guillemotleft" unicode="&#xab;" horiz-adv-x="426" 
d="M180 59l-143 176c-8 10 -11 17 -11 24v2c0 7 3 14 11 24l143 176c7 10 15 16 23 16h1c18 0 30 -20 16 -38l-140 -178v-2l140 -178c14 -18 2 -38 -16 -38h-1c-8 0 -16 6 -23 16zM347 59l-143 176c-8 10 -11 17 -11 24v2c0 7 3 14 11 24l143 176c7 10 15 16 23 16h1
c18 0 30 -20 16 -38l-140 -178v-2l140 -178c14 -18 2 -38 -16 -38h-1c-8 0 -16 6 -23 16z" />
    <glyph glyph-name="guillemotright" unicode="&#xbb;" horiz-adv-x="426" 
d="M389 235l-143 -176c-7 -10 -15 -16 -23 -16h-1c-18 0 -30 20 -16 38l140 178v2l-140 178c-14 18 -2 38 16 38h1c8 0 16 -6 23 -16l143 -176c8 -10 11 -17 11 -24v-2c0 -7 -3 -14 -11 -24zM222 235l-143 -176c-7 -10 -15 -16 -23 -16h-1c-18 0 -30 20 -16 38l140 178v2
l-140 178c-14 18 -2 38 16 38h1c8 0 16 -6 23 -16l143 -176c8 -10 11 -17 11 -24v-2c0 -7 -3 -14 -11 -24z" />
    <glyph glyph-name="ellipsis" unicode="&#x2026;" horiz-adv-x="465" 
d="M110 34c0 -22 -18 -38 -39 -38c-22 0 -38 16 -38 38c0 21 16 39 38 39c21 0 39 -18 39 -39zM271 34c0 -22 -17 -38 -39 -38c-21 0 -38 16 -38 38c0 21 17 39 38 39c22 0 39 -18 39 -39zM433 34c0 -22 -18 -38 -39 -38c-22 0 -38 16 -38 38c0 21 16 39 38 39
c21 0 39 -18 39 -39z" />
    <glyph glyph-name="Agrave" unicode="&#xc0;" horiz-adv-x="610" 
d="M348 672l228 -636c10 -27 -6 -39 -22 -39h-1c-10 0 -20 5 -27 25l-71 197h-303l-69 -194c-7 -21 -17 -28 -28 -28h-1c-18 0 -30 13 -20 39l231 636c8 21 20 28 39 28h5c19 0 31 -7 39 -28zM303 641l-135 -378h272l-135 378h-2zM308 728h-1c-8 0 -14 6 -20 13l-54 65
c-16 20 -5 42 16 42h1c9 0 16 -5 23 -16l44 -70c13 -20 5 -34 -9 -34z" />
    <glyph glyph-name="Atilde" unicode="&#xc3;" horiz-adv-x="610" 
d="M348 672l228 -636c10 -27 -6 -39 -22 -39h-1c-10 0 -20 5 -27 25l-71 197h-303l-69 -194c-7 -21 -17 -28 -28 -28h-1c-18 0 -30 13 -20 39l231 636c8 21 20 28 39 28h5c19 0 31 -7 39 -28zM303 641l-135 -378h272l-135 378h-2zM359 741c-45 0 -78 40 -106 40
c-18 0 -31 -10 -38 -27c-4 -9 -8 -19 -20 -19h-1c-15 0 -19 15 -15 31c8 32 35 56 71 56c44 0 77 -39 106 -39c18 0 30 10 37 27c4 9 8 19 20 19h1c15 0 19 -15 15 -31c-8 -32 -34 -57 -70 -57z" />
    <glyph glyph-name="Otilde" unicode="&#xd5;" horiz-adv-x="710" 
d="M669 350c0 -230 -143 -354 -313 -354c-172 0 -315 124 -315 354c0 229 143 354 315 354c170 0 313 -125 313 -354zM96 349c0 -205 113 -311 260 -311c145 0 258 106 258 311s-113 313 -258 313c-147 0 -260 -108 -260 -313zM408 741c-45 0 -78 40 -106 40
c-18 0 -31 -10 -38 -27c-4 -9 -8 -19 -20 -19h-1c-15 0 -19 15 -15 31c8 32 35 56 71 56c44 0 77 -39 106 -39c18 0 30 10 37 27c4 9 8 19 20 19h1c15 0 19 -15 15 -31c-8 -32 -34 -57 -70 -57z" />
    <glyph glyph-name="OE" unicode="&#x152;" horiz-adv-x="955" 
d="M500 44v611h-106c-202 0 -298 -84 -298 -305s96 -306 298 -306h106zM904 0h-511c-231 0 -352 100 -352 349c0 248 121 351 353 351h496c11 0 21 -7 21 -21v-2c0 -15 -10 -22 -21 -22h-336v-272h247c11 0 21 -7 21 -21v-2c0 -14 -10 -21 -21 -21h-247v-295h350
c11 0 21 -7 21 -21v-2c0 -14 -10 -21 -21 -21z" />
    <glyph glyph-name="oe" unicode="&#x153;" horiz-adv-x="941" 
d="M274 -4c-144 0 -242 100 -242 265c0 164 98 266 242 266c106 0 183 -54 217 -147c35 92 110 147 206 147c128 0 214 -74 214 -244c0 -17 -11 -24 -24 -24h-370c0 -146 68 -222 198 -222c121 0 141 53 164 53c13 0 21 -8 21 -19v-1c0 -11 -9 -20 -19 -27
c-36 -25 -87 -47 -171 -47c-113 0 -188 52 -220 142c-35 -90 -111 -142 -216 -142zM83 261c0 -143 73 -226 191 -226c119 0 192 83 192 226c0 142 -73 227 -192 227c-118 0 -191 -85 -191 -227zM518 297h343c-3 139 -67 192 -164 192c-96 0 -167 -64 -179 -192z" />
    <glyph glyph-name="endash" unicode="&#x2013;" horiz-adv-x="393" 
d="M348 265h-302c-15 0 -22 10 -22 22v2c0 11 7 21 22 21h302c14 0 21 -10 21 -21v-2c0 -12 -7 -22 -21 -22z" />
    <glyph glyph-name="emdash" unicode="&#x2014;" horiz-adv-x="658" 
d="M613 265h-567c-15 0 -22 10 -22 22v2c0 11 7 21 22 21h567c14 0 21 -10 21 -21v-2c0 -12 -7 -22 -21 -22z" />
    <glyph glyph-name="quotedblleft" unicode="&#x201c;" horiz-adv-x="261" 
d="M116 687v-1c0 -7 -4 -12 -15 -17c-18 -8 -25 -19 -25 -32c0 -12 8 -17 16 -22c12 -8 16 -15 16 -30c0 -19 -15 -34 -37 -34s-41 15 -41 54c0 55 25 87 63 94c17 3 23 -4 23 -12zM233 687v-1c0 -7 -4 -12 -15 -17c-18 -8 -25 -19 -25 -32c0 -12 8 -17 16 -22
c12 -8 16 -15 16 -30c0 -19 -15 -34 -37 -34s-41 15 -41 54c0 55 25 87 63 94c17 3 23 -4 23 -12z" />
    <glyph glyph-name="quotedblright" unicode="&#x201d;" horiz-adv-x="261" 
d="M28 566v1c0 7 4 12 15 17c18 8 25 19 25 32c0 12 -8 17 -16 22c-12 8 -16 15 -16 30c0 19 15 34 37 34s41 -15 41 -54c0 -55 -25 -87 -63 -94c-17 -3 -23 4 -23 12zM145 566v1c0 7 4 12 15 17c18 8 25 19 25 32c0 12 -8 17 -16 22c-12 8 -16 15 -16 30c0 19 15 34 37 34
s41 -15 41 -54c0 -55 -25 -87 -63 -94c-17 -3 -23 4 -23 12z" />
    <glyph glyph-name="quoteleft" unicode="&#x2018;" horiz-adv-x="144" 
d="M116 687v-1c0 -7 -4 -12 -15 -17c-18 -8 -25 -19 -25 -32c0 -12 8 -17 16 -22c12 -8 16 -15 16 -30c0 -19 -15 -34 -37 -34s-41 15 -41 54c0 55 25 87 63 94c17 3 23 -4 23 -12z" />
    <glyph glyph-name="quoteright" unicode="&#x2019;" horiz-adv-x="144" 
d="M28 566v1c0 7 4 12 15 17c18 8 25 19 25 32c0 12 -8 17 -16 22c-12 8 -16 15 -16 30c0 19 15 34 37 34s41 -15 41 -54c0 -55 -25 -87 -63 -94c-17 -3 -23 4 -23 12z" />
    <glyph glyph-name="divide" unicode="&#xf7;" horiz-adv-x="472" 
d="M440 347v-2c0 -12 -7 -22 -21 -22h-365c-15 0 -22 10 -22 22v2c0 11 7 21 22 21h365c14 0 21 -10 21 -21zM198 197c0 22 17 39 38 39c22 0 39 -17 39 -39s-17 -38 -39 -38c-21 0 -38 16 -38 38zM198 493c0 22 17 39 38 39c22 0 39 -17 39 -39c0 -21 -17 -38 -39 -38
c-21 0 -38 17 -38 38z" />
    <glyph glyph-name="ydieresis" unicode="&#xff;" horiz-adv-x="500" 
d="M470 487l-265 -630c-5 -12 -14 -19 -23 -19h-1c-18 0 -29 14 -20 34l71 164l-199 450c-9 20 5 35 22 35h1c11 0 18 -7 24 -21l176 -404h1l169 406c5 12 12 19 23 19h1c18 0 28 -15 20 -34zM218 634c0 -18 -15 -33 -34 -33s-34 15 -34 33c0 19 15 34 34 34s34 -15 34 -34z
M361 634c0 -18 -15 -33 -34 -33c-18 0 -33 15 -33 33c0 19 15 34 33 34c19 0 34 -15 34 -34z" />
    <glyph glyph-name="Ydieresis" unicode="&#x178;" horiz-adv-x="548" 
d="M518 667l-216 -372v-272c0 -18 -12 -26 -26 -26h-2c-14 0 -26 8 -26 26v270l-215 370c-12 21 1 40 20 40h1c11 0 19 -8 25 -19l196 -341h2l197 343c6 10 12 17 23 17h1c18 0 31 -16 20 -36zM239 773c0 -19 -15 -34 -34 -34s-34 15 -34 34c0 18 15 34 34 34s34 -16 34 -34
zM382 773c0 -19 -15 -34 -34 -34c-18 0 -33 15 -33 34c0 18 15 34 33 34c19 0 34 -16 34 -34z" />
    <glyph glyph-name="fraction" unicode="&#x2044;" horiz-adv-x="193" 
d="M-157 -3l470 719c7 11 13 17 22 17h1c16 0 26 -16 14 -35l-470 -719c-7 -11 -13 -17 -22 -17h-1c-16 0 -26 16 -14 35z" />
    <glyph glyph-name="Euro" unicode="&#x20ac;" horiz-adv-x="591" 
d="M368 278h-225c19 -157 96 -239 219 -239c135 0 154 67 185 67c12 0 21 -9 21 -20v-1c0 -10 -7 -19 -14 -25c-40 -35 -99 -64 -193 -64c-147 0 -251 97 -272 282h-54c-12 0 -19 9 -19 19v1c0 10 7 19 19 19h51c-1 11 -1 23 -1 35s0 24 1 36h-51c-12 0 -19 9 -19 19v2
c0 10 7 19 19 19h55c25 179 138 276 277 276c85 0 135 -21 168 -46c12 -9 19 -19 19 -29v-1c0 -13 -9 -21 -19 -21c-35 0 -45 54 -165 54c-118 0 -205 -80 -226 -233h243c12 0 19 -9 19 -19v-2c0 -10 -7 -19 -19 -19h-247c-1 -11 -1 -23 -1 -34c0 -13 0 -25 1 -37h228
c12 0 19 -9 19 -19v-1c0 -10 -7 -19 -19 -19z" />
    <glyph glyph-name="guilsinglleft" unicode="&#x2039;" horiz-adv-x="259" 
d="M180 59l-143 176c-8 10 -11 17 -11 24v2c0 7 3 14 11 24l143 176c7 10 15 16 23 16h1c18 0 30 -20 16 -38l-140 -178v-2l140 -178c14 -18 2 -38 -16 -38h-1c-8 0 -16 6 -23 16z" />
    <glyph glyph-name="guilsinglright" unicode="&#x203a;" horiz-adv-x="259" 
d="M222 235l-143 -176c-7 -10 -15 -16 -23 -16h-1c-18 0 -30 20 -16 38l140 178v2l-140 178c-14 18 -2 38 16 38h1c8 0 16 -6 23 -16l143 -176c8 -10 11 -17 11 -24v-2c0 -7 -3 -14 -11 -24z" />
    <glyph glyph-name="fi" unicode="&#xfb01;" horiz-adv-x="457" 
d="M80 483h-52c-14 0 -20 8 -20 18v2c0 10 6 18 20 18h52v52c0 91 52 130 122 130c19 0 32 -1 45 -4c16 -4 21 -11 21 -20v-1c0 -12 -8 -19 -23 -18c-8 0 -22 2 -31 2c-54 0 -84 -20 -84 -92v-49h109c14 0 20 -8 20 -18v-2c0 -10 -6 -18 -20 -18h-109v-462
c0 -17 -11 -24 -24 -24h-2c-13 0 -24 7 -24 24v462zM393 635c0 -19 -15 -34 -34 -34s-34 15 -34 34c0 18 15 34 34 34s34 -16 34 -34zM383 478v-457c0 -17 -11 -24 -24 -24h-2c-13 0 -24 7 -24 24v479c0 17 9 24 22 24h1c18 0 27 -9 27 -46z" />
    <glyph glyph-name="fl" unicode="&#xfb02;" horiz-adv-x="454" 
d="M80 483h-52c-14 0 -20 8 -20 18v2c0 10 6 18 20 18h52v52c0 91 52 130 122 130c19 0 32 -1 45 -4c16 -4 21 -11 21 -20v-1c0 -12 -8 -19 -23 -18c-8 0 -22 2 -31 2c-54 0 -84 -20 -84 -92v-49h109c14 0 20 -8 20 -18v-2c0 -10 -6 -18 -20 -18h-109v-462
c0 -17 -11 -24 -24 -24h-2c-13 0 -24 7 -24 24v462zM383 657v-636c0 -17 -11 -24 -24 -24h-2c-13 0 -25 7 -25 24v658c0 17 10 24 23 24h1c18 0 27 -9 27 -46z" />
    <glyph glyph-name="daggerdbl" unicode="&#x2021;" horiz-adv-x="417" 
d="M236 326c0 -56 -10 -145 -10 -145s81 10 138 10c21 0 29 -10 29 -24v-1c0 -14 -8 -24 -29 -24c-57 0 -138 10 -138 10s9 -105 9 -176c0 -20 -11 -29 -25 -29h-2c-14 0 -25 9 -25 29c0 71 10 176 10 176s-82 -10 -139 -10c-21 0 -29 10 -29 24v1c0 14 8 24 29 24
c57 0 139 -11 139 -11s-11 90 -11 146s11 145 11 145s-82 -11 -139 -11c-21 0 -29 10 -29 24v1c0 14 8 24 29 24c57 0 139 -10 139 -10s-10 105 -10 176c0 20 11 29 25 29h2c14 0 25 -9 25 -29c0 -71 -9 -176 -9 -176s81 10 138 10c21 0 29 -10 29 -24v-1
c0 -14 -8 -24 -29 -24c-57 0 -138 10 -138 10s10 -89 10 -144z" />
    <glyph glyph-name="periodcentered" unicode="&#xb7;" horiz-adv-x="142" 
d="M110 312c0 -22 -18 -38 -39 -38c-22 0 -38 16 -38 38c0 21 16 39 38 39c21 0 39 -18 39 -39z" />
    <glyph glyph-name="quotesinglbase" unicode="&#x201a;" horiz-adv-x="144" 
d="M28 -55v1c0 7 4 12 15 17c18 8 25 19 25 32c0 12 -8 17 -16 22c-12 8 -16 15 -16 30c0 19 15 34 37 34s41 -15 41 -54c0 -55 -25 -87 -63 -94c-17 -3 -23 4 -23 12z" />
    <glyph glyph-name="quotedblbase" unicode="&#x201e;" horiz-adv-x="261" 
d="M28 -55v1c0 7 4 12 15 17c18 8 25 19 25 32c0 12 -8 17 -16 22c-12 8 -16 15 -16 30c0 19 15 34 37 34s41 -15 41 -54c0 -55 -25 -87 -63 -94c-17 -3 -23 4 -23 12zM145 -55v1c0 7 4 12 15 17c18 8 25 19 25 32c0 12 -8 17 -16 22c-12 8 -16 15 -16 30c0 19 15 34 37 34
s41 -15 41 -54c0 -55 -25 -87 -63 -94c-17 -3 -23 4 -23 12z" />
    <glyph glyph-name="perthousand" unicode="&#x2030;" horiz-adv-x="1060" 
d="M80 529c0 -87 41 -136 104 -136c62 0 104 49 104 136c0 89 -42 139 -104 139c-63 0 -104 -50 -104 -139zM335 531c0 -116 -70 -174 -151 -174c-82 0 -152 58 -152 174c0 115 70 173 152 173c81 0 151 -58 151 -173zM609 698l-466 -721c-6 -9 -12 -14 -20 -14h-1
c-15 0 -26 16 -14 34l466 721c6 9 12 14 20 14h1c15 0 26 -16 14 -34zM429 169c0 -87 41 -137 104 -137c62 0 104 50 104 137c0 88 -42 138 -104 138c-63 0 -104 -50 -104 -138zM684 170c0 -116 -70 -174 -151 -174c-82 0 -152 58 -152 174s70 174 152 174
c81 0 151 -58 151 -174zM772 169c0 -87 41 -137 104 -137c62 0 104 50 104 137c0 88 -42 138 -104 138c-63 0 -104 -50 -104 -138zM1027 170c0 -116 -70 -174 -151 -174c-82 0 -152 58 -152 174s70 174 152 174c81 0 151 -58 151 -174z" />
    <glyph glyph-name="Acircumflex" unicode="&#xc2;" horiz-adv-x="610" 
d="M348 672l228 -636c10 -27 -6 -39 -22 -39h-1c-10 0 -20 5 -27 25l-71 197h-303l-69 -194c-7 -21 -17 -28 -28 -28h-1c-18 0 -30 13 -20 39l231 636c8 21 20 28 39 28h5c19 0 31 -7 39 -28zM303 641l-135 -378h272l-135 378h-2zM337 827l63 -67c15 -15 5 -31 -8 -31h-1
c-6 0 -12 4 -18 9l-69 63l-68 -63c-6 -5 -12 -9 -18 -9h-1c-13 0 -23 16 -8 31l62 67c8 9 17 16 31 16h4c14 0 23 -7 31 -16z" />
    <glyph glyph-name="Ecircumflex" unicode="&#xca;" horiz-adv-x="549" 
d="M498 0h-387c-14 0 -26 8 -26 26v648c0 18 12 26 26 26h373c11 0 21 -7 21 -21v-2c0 -15 -10 -22 -21 -22h-346v-272h257c11 0 21 -7 21 -21v-2c0 -14 -10 -21 -21 -21h-257v-295h360c11 0 21 -7 21 -21v-2c0 -14 -10 -21 -21 -21zM332 827l63 -67c15 -15 5 -31 -8 -31h-1
c-6 0 -12 4 -18 9l-69 63l-68 -63c-6 -5 -12 -9 -18 -9h-1c-13 0 -23 16 -8 31l62 67c8 9 17 16 31 16h4c14 0 23 -7 31 -16z" />
    <glyph glyph-name="Aacute" unicode="&#xc1;" horiz-adv-x="610" 
d="M348 672l228 -636c10 -27 -6 -39 -22 -39h-1c-10 0 -20 5 -27 25l-71 197h-303l-69 -194c-7 -21 -17 -28 -28 -28h-1c-18 0 -30 13 -20 39l231 636c8 21 20 28 39 28h5c19 0 31 -7 39 -28zM303 641l-135 -378h272l-135 378h-2zM306 728h-1c-14 0 -22 14 -9 34l44 70
c7 11 14 16 23 16h1c21 0 32 -22 16 -42l-54 -65c-6 -7 -12 -13 -20 -13z" />
    <glyph glyph-name="Edieresis" unicode="&#xcb;" horiz-adv-x="549" 
d="M498 0h-387c-14 0 -26 8 -26 26v648c0 18 12 26 26 26h373c11 0 21 -7 21 -21v-2c0 -15 -10 -22 -21 -22h-346v-272h257c11 0 21 -7 21 -21v-2c0 -14 -10 -21 -21 -21h-257v-295h360c11 0 21 -7 21 -21v-2c0 -14 -10 -21 -21 -21zM263 773c0 -19 -15 -34 -34 -34
s-34 15 -34 34c0 18 15 34 34 34s34 -16 34 -34zM406 773c0 -19 -15 -34 -34 -34c-18 0 -33 15 -33 34c0 18 15 34 33 34c19 0 34 -16 34 -34z" />
    <glyph glyph-name="Egrave" unicode="&#xc8;" horiz-adv-x="549" 
d="M498 0h-387c-14 0 -26 8 -26 26v648c0 18 12 26 26 26h373c11 0 21 -7 21 -21v-2c0 -15 -10 -22 -21 -22h-346v-272h257c11 0 21 -7 21 -21v-2c0 -14 -10 -21 -21 -21h-257v-295h360c11 0 21 -7 21 -21v-2c0 -14 -10 -21 -21 -21zM304 728h-1c-8 0 -14 6 -20 13l-54 65
c-16 20 -5 42 16 42h1c9 0 16 -5 23 -16l44 -70c13 -20 5 -34 -9 -34z" />
    <glyph glyph-name="Iacute" unicode="&#xcd;" horiz-adv-x="228" 
d="M87 23v654c0 18 12 26 26 26h2c14 0 26 -8 26 -26v-654c0 -18 -12 -26 -26 -26h-2c-14 0 -26 8 -26 26zM115 728h-1c-14 0 -22 14 -9 34l44 70c7 11 14 16 23 16h1c21 0 32 -22 16 -42l-54 -65c-6 -7 -12 -13 -20 -13z" />
    <glyph glyph-name="Icircumflex" unicode="&#xce;" horiz-adv-x="228" 
d="M87 23v654c0 18 12 26 26 26h2c14 0 26 -8 26 -26v-654c0 -18 -12 -26 -26 -26h-2c-14 0 -26 8 -26 26zM146 827l63 -67c15 -15 5 -31 -8 -31h-1c-6 0 -12 4 -18 9l-69 63l-68 -63c-6 -5 -12 -9 -18 -9h-1c-13 0 -23 16 -8 31l62 67c8 9 17 16 31 16h4c14 0 23 -7 31 -16
z" />
    <glyph glyph-name="Idieresis" unicode="&#xcf;" horiz-adv-x="228" 
d="M77 773c0 -19 -15 -34 -34 -34s-34 15 -34 34c0 18 15 34 34 34s34 -16 34 -34zM220 773c0 -19 -15 -34 -34 -34c-18 0 -33 15 -33 34c0 18 15 34 33 34c19 0 34 -16 34 -34zM87 23v654c0 18 12 26 26 26h2c14 0 26 -8 26 -26v-654c0 -18 -12 -26 -26 -26h-2
c-14 0 -26 8 -26 26z" />
    <glyph glyph-name="Igrave" unicode="&#xcc;" horiz-adv-x="228" 
d="M87 23v654c0 18 12 26 26 26h2c14 0 26 -8 26 -26v-654c0 -18 -12 -26 -26 -26h-2c-14 0 -26 8 -26 26zM117 728h-1c-8 0 -14 6 -20 13l-54 65c-16 20 -5 42 16 42h1c9 0 16 -5 23 -16l44 -70c13 -20 5 -34 -9 -34z" />
    <glyph glyph-name="Oacute" unicode="&#xd3;" horiz-adv-x="710" 
d="M669 350c0 -230 -143 -354 -313 -354c-172 0 -315 124 -315 354c0 229 143 354 315 354c170 0 313 -125 313 -354zM96 349c0 -205 113 -311 260 -311c145 0 258 106 258 311s-113 313 -258 313c-147 0 -260 -108 -260 -313zM355 728h-1c-14 0 -22 14 -9 34l44 70
c7 11 14 16 23 16h1c21 0 32 -22 16 -42l-54 -65c-6 -7 -12 -13 -20 -13z" />
    <glyph glyph-name="Ocircumflex" unicode="&#xd4;" horiz-adv-x="710" 
d="M669 350c0 -230 -143 -354 -313 -354c-172 0 -315 124 -315 354c0 229 143 354 315 354c170 0 313 -125 313 -354zM96 349c0 -205 113 -311 260 -311c145 0 258 106 258 311s-113 313 -258 313c-147 0 -260 -108 -260 -313zM386 827l63 -67c15 -15 5 -31 -8 -31h-1
c-6 0 -12 4 -18 9l-69 63l-68 -63c-6 -5 -12 -9 -18 -9h-1c-13 0 -23 16 -8 31l62 67c8 9 17 16 31 16h4c14 0 23 -7 31 -16z" />
    <glyph glyph-name="Ograve" unicode="&#xd2;" horiz-adv-x="710" 
d="M669 350c0 -230 -143 -354 -313 -354c-172 0 -315 124 -315 354c0 229 143 354 315 354c170 0 313 -125 313 -354zM96 349c0 -205 113 -311 260 -311c145 0 258 106 258 311s-113 313 -258 313c-147 0 -260 -108 -260 -313zM357 728h-1c-8 0 -14 6 -20 13l-54 65
c-16 20 -5 42 16 42h1c9 0 16 -5 23 -16l44 -70c13 -20 5 -34 -9 -34z" />
    <glyph glyph-name="Uacute" unicode="&#xda;" horiz-adv-x="672" 
d="M593 678v-441c0 -176 -109 -241 -254 -241c-143 0 -259 64 -259 241v440c0 18 12 26 26 26h1c14 0 26 -8 26 -26v-442c0 -150 95 -195 209 -195c110 0 199 42 199 195v443c0 17 11 25 25 25h2c14 0 25 -8 25 -25zM338 728h-1c-14 0 -22 14 -9 34l44 70c7 11 14 16 23 16
h1c21 0 32 -22 16 -42l-54 -65c-6 -7 -12 -13 -20 -13z" />
    <glyph glyph-name="Ucircumflex" unicode="&#xdb;" horiz-adv-x="672" 
d="M593 678v-441c0 -176 -109 -241 -254 -241c-143 0 -259 64 -259 241v440c0 18 12 26 26 26h1c14 0 26 -8 26 -26v-442c0 -150 95 -195 209 -195c110 0 199 42 199 195v443c0 17 11 25 25 25h2c14 0 25 -8 25 -25zM368 827l63 -67c15 -15 5 -31 -8 -31h-1
c-6 0 -12 4 -18 9l-69 63l-68 -63c-6 -5 -12 -9 -18 -9h-1c-13 0 -23 16 -8 31l62 67c8 9 17 16 31 16h4c14 0 23 -7 31 -16z" />
    <glyph glyph-name="Ugrave" unicode="&#xd9;" horiz-adv-x="672" 
d="M593 678v-441c0 -176 -109 -241 -254 -241c-143 0 -259 64 -259 241v440c0 18 12 26 26 26h1c14 0 26 -8 26 -26v-442c0 -150 95 -195 209 -195c110 0 199 42 199 195v443c0 17 11 25 25 25h2c14 0 25 -8 25 -25zM339 728h-1c-8 0 -14 6 -20 13l-54 65
c-16 20 -5 42 16 42h1c9 0 16 -5 23 -16l44 -70c13 -20 5 -34 -9 -34z" />
    <glyph glyph-name="dotlessi" unicode="&#x131;" horiz-adv-x="197" 
d="M123 478v-457c0 -17 -11 -24 -24 -24h-2c-13 0 -24 7 -24 24v479c0 17 9 24 22 24h1c18 0 27 -9 27 -46z" />
    <glyph glyph-name="circumflex" unicode="&#x2c6;" horiz-adv-x="411" 
d="M239 688l71 -88c13 -16 3 -31 -10 -31h-1c-6 0 -13 5 -18 11l-76 80l-75 -80c-5 -6 -11 -11 -18 -11h-1c-13 0 -24 15 -10 31l74 88c9 10 16 18 31 18h2c15 0 22 -7 31 -18z" />
    <glyph glyph-name="tilde" unicode="&#x2dc;" 
d="M259 589c-45 0 -78 40 -106 40c-18 0 -31 -10 -38 -27c-4 -9 -8 -19 -20 -19h-1c-15 0 -19 15 -15 31c8 32 35 56 71 56c44 0 77 -39 106 -39c18 0 30 10 37 27c4 9 8 19 20 19h1c15 0 19 -15 15 -31c-8 -32 -34 -57 -70 -57z" />
    <glyph glyph-name="macron" unicode="&#xaf;" 
d="M110 648h193c12 0 17 -8 17 -17v-2c0 -10 -5 -18 -17 -18h-193c-13 0 -18 8 -18 18v2c0 9 5 17 18 17z" />
    <glyph glyph-name="breve" unicode="&#x2d8;" 
d="M206 575c-59 0 -97 37 -113 85c-6 18 0 32 14 32h1c11 0 16 -10 23 -24c19 -40 42 -54 75 -54s56 14 75 54c7 14 12 24 23 24h1c14 0 20 -14 14 -32c-16 -48 -54 -85 -113 -85z" />
    <glyph glyph-name="dotaccent" unicode="&#x2d9;" 
d="M241 635c0 -19 -16 -34 -34 -34c-19 0 -34 15 -34 34c0 18 15 34 34 34c18 0 34 -16 34 -34z" />
    <glyph glyph-name="ring" unicode="&#x2da;" 
d="M293 659c0 -52 -42 -85 -87 -85c-46 0 -88 33 -88 85s42 86 88 86c45 0 87 -34 87 -86zM155 659c0 -31 22 -52 51 -52c28 0 51 21 51 52c0 32 -23 54 -51 54c-29 0 -51 -22 -51 -54z" />
    <glyph glyph-name="cedilla" unicode="&#xb8;" 
d="M167 -59v59h37v-40c50 -2 79 -26 79 -68s-37 -66 -83 -66c-24 0 -44 5 -59 14c-8 5 -12 11 -12 19v1c0 9 6 17 15 17c15 0 20 -15 53 -15c25 0 43 10 43 31c0 20 -14 34 -50 34h-8c-10 0 -15 5 -15 14z" />
    <glyph glyph-name="hungarumlaut" unicode="&#x2dd;" 
d="M152 569h-1c-12 0 -20 9 -13 26l40 91c5 11 12 22 26 22h1c20 0 27 -18 17 -36l-50 -87c-4 -8 -10 -16 -20 -16zM270 569h-1c-12 0 -20 9 -13 26l40 91c5 11 12 22 26 22h1c20 0 27 -18 17 -36l-50 -87c-4 -8 -10 -16 -20 -16z" />
    <glyph glyph-name="ogonek" unicode="&#x2db;" horiz-adv-x="400" 
d="M145 -93c0 39 33 72 63 93h45c-38 -29 -61 -55 -61 -85c0 -26 14 -43 49 -43h21c10 0 15 -6 15 -15v-1c0 -11 -6 -15 -15 -17s-22 -3 -35 -3c-50 0 -82 27 -82 71z" />
    <glyph glyph-name="caron" unicode="&#x2c7;" horiz-adv-x="411" 
d="M310 675l-71 -88c-9 -11 -16 -18 -31 -18h-2c-15 0 -22 8 -31 18l-74 88c-14 16 -3 31 10 31h1c7 0 13 -5 18 -11l75 -80l76 80c5 6 12 11 18 11h1c13 0 23 -15 10 -31z" />
    <glyph glyph-name="Dcroat" unicode="&#x110;" horiz-adv-x="665" 
d="M111 700h161c231 0 352 -100 352 -349c0 -248 -121 -351 -353 -351h-160c-14 0 -26 8 -26 26v303h-55c-11 0 -21 10 -21 21v2c0 11 8 21 21 21h55v301c0 18 12 26 26 26zM138 656v-283h194c13 0 21 -10 21 -21v-2c0 -11 -8 -21 -21 -21h-194v-285h133
c202 0 298 85 298 306s-96 306 -298 306h-133z" />
    <glyph glyph-name="uni0237" unicode="&#x237;" horiz-adv-x="197" 
d="M73 -52v552c0 17 9 24 22 24h1c18 0 27 -9 27 -46v-532c0 -75 -38 -110 -105 -110c-5 0 -15 0 -23 1c-15 2 -22 8 -22 19v2c0 12 9 17 21 18c63 3 79 21 79 72z" />
    <glyph glyph-name="dcroat" unicode="&#x111;" horiz-adv-x="554" 
d="M430 46v44c-42 -53 -109 -94 -191 -94c-105 0 -206 66 -206 260c0 202 116 271 223 271c82 0 135 -25 174 -65v121h-141c-13 0 -18 8 -18 18v2c0 9 5 17 18 17h141v58c0 17 9 25 23 25h1c18 0 27 -9 27 -46v-37h53c12 0 17 -8 17 -17v-2c0 -10 -5 -18 -17 -18h-53v-562
c0 -17 -9 -24 -22 -24h-1c-19 0 -28 11 -28 49zM244 35c85 0 141 45 186 106v276c-41 44 -89 71 -166 71c-88 0 -180 -48 -180 -230c0 -173 82 -223 160 -223z" />
    <glyph glyph-name="Abreve" unicode="&#x102;" horiz-adv-x="610" 
d="M348 672l228 -636c10 -27 -6 -39 -22 -39h-1c-10 0 -20 5 -27 25l-71 197h-303l-69 -194c-7 -21 -17 -28 -28 -28h-1c-18 0 -30 13 -20 39l231 636c8 21 20 28 39 28h5c19 0 31 -7 39 -28zM303 641l-135 -378h272l-135 378h-2zM306 731c-59 0 -97 33 -113 77
c-6 18 0 31 14 31h1c11 0 15 -9 23 -23c18 -33 45 -46 75 -46s57 13 75 46c8 14 12 23 23 23h1c14 0 20 -13 14 -31c-16 -44 -54 -77 -113 -77z" />
    <glyph glyph-name="Amacron" unicode="&#x100;" horiz-adv-x="610" 
d="M348 672l228 -636c10 -27 -6 -39 -22 -39h-1c-10 0 -20 5 -27 25l-71 197h-303l-69 -194c-7 -21 -17 -28 -28 -28h-1c-18 0 -30 13 -20 39l231 636c8 21 20 28 39 28h5c19 0 31 -7 39 -28zM303 641l-135 -378h272l-135 378h-2zM206 795h201c12 0 18 -8 18 -18v-2
c0 -11 -6 -19 -18 -19h-201c-13 0 -19 8 -19 19v2c0 10 6 18 19 18z" />
    <glyph glyph-name="Aogonek" unicode="&#x104;" horiz-adv-x="610" 
d="M55 -3h-1c-18 0 -30 13 -20 39l231 636c8 21 20 28 39 28h5c19 0 31 -7 39 -28l228 -636c5 -15 5 -25 -3 -32c-37 -32 -55 -59 -55 -89c0 -26 14 -43 49 -43h21c10 0 15 -6 15 -15v-1c0 -11 -6 -15 -15 -17s-22 -3 -35 -3c-50 0 -82 27 -82 71c0 38 27 72 61 98l-77 214
h-303l-69 -194c-7 -21 -17 -28 -28 -28zM305 641h-2l-135 -378h272z" />
    <glyph glyph-name="Cacute" unicode="&#x106;" horiz-adv-x="614" 
d="M351 -4c-178 0 -302 126 -302 356s141 352 308 352c81 0 139 -17 186 -50c20 -14 27 -27 27 -37v-1c0 -14 -10 -23 -23 -23c-35 0 -54 68 -187 68c-145 0 -256 -105 -256 -307c0 -206 97 -315 248 -315c153 0 179 82 207 82c13 0 23 -9 23 -22v-1c0 -11 -9 -24 -27 -38
c-46 -36 -110 -64 -204 -64zM347 728h-1c-14 0 -22 14 -9 34l44 70c7 11 14 16 23 16h1c21 0 32 -22 16 -42l-54 -65c-6 -7 -12 -13 -20 -13z" />
    <glyph glyph-name="Ccaron" unicode="&#x10c;" horiz-adv-x="614" 
d="M351 -4c-178 0 -302 126 -302 356s141 352 308 352c81 0 139 -17 186 -50c20 -14 27 -27 27 -37v-1c0 -14 -10 -23 -23 -23c-35 0 -54 68 -187 68c-145 0 -256 -105 -256 -307c0 -206 97 -315 248 -315c153 0 179 82 207 82c13 0 23 -9 23 -22v-1c0 -11 -9 -24 -27 -38
c-46 -36 -110 -64 -204 -64zM442 812l-63 -67c-8 -9 -17 -16 -31 -16h-4c-14 0 -23 7 -31 16l-62 67c-15 15 -5 31 8 31h1c6 0 12 -4 18 -9l68 -63l69 63c6 5 12 9 18 9h1c13 0 23 -16 8 -31z" />
    <glyph glyph-name="Ccircumflex" unicode="&#x108;" horiz-adv-x="614" 
d="M351 -4c-178 0 -302 126 -302 356s141 352 308 352c81 0 139 -17 186 -50c20 -14 27 -27 27 -37v-1c0 -14 -10 -23 -23 -23c-35 0 -54 68 -187 68c-145 0 -256 -105 -256 -307c0 -206 97 -315 248 -315c153 0 179 82 207 82c13 0 23 -9 23 -22v-1c0 -11 -9 -24 -27 -38
c-46 -36 -110 -64 -204 -64zM378 827l63 -67c15 -15 5 -31 -8 -31h-1c-6 0 -12 4 -18 9l-69 63l-68 -63c-6 -5 -12 -9 -18 -9h-1c-13 0 -23 16 -8 31l62 67c8 9 17 16 31 16h4c14 0 23 -7 31 -16z" />
    <glyph glyph-name="Cdotaccent" unicode="&#x10a;" horiz-adv-x="614" 
d="M351 -4c-178 0 -302 126 -302 356s141 352 308 352c81 0 139 -17 186 -50c20 -14 27 -27 27 -37v-1c0 -14 -10 -23 -23 -23c-35 0 -54 68 -187 68c-145 0 -256 -105 -256 -307c0 -206 97 -315 248 -315c153 0 179 82 207 82c13 0 23 -9 23 -22v-1c0 -11 -9 -24 -27 -38
c-46 -36 -110 -64 -204 -64zM381 774c0 -18 -16 -34 -34 -34c-19 0 -34 16 -34 34c0 19 15 34 34 34c18 0 34 -15 34 -34z" />
    <glyph glyph-name="Dcaron" unicode="&#x10e;" horiz-adv-x="665" 
d="M138 656v-612h133c202 0 298 85 298 306s-96 306 -298 306h-133zM111 700h161c231 0 352 -100 352 -349c0 -248 -121 -351 -353 -351h-160c-14 0 -26 8 -26 26v648c0 18 12 26 26 26zM402 812l-63 -67c-8 -9 -17 -16 -31 -16h-4c-14 0 -23 7 -31 16l-62 67
c-15 15 -5 31 8 31h1c6 0 12 -4 18 -9l68 -63l69 63c6 5 12 9 18 9h1c13 0 23 -16 8 -31z" />
    <glyph glyph-name="Ebreve" unicode="&#x114;" horiz-adv-x="549" 
d="M498 0h-387c-14 0 -26 8 -26 26v648c0 18 12 26 26 26h373c11 0 21 -7 21 -21v-2c0 -15 -10 -22 -21 -22h-346v-272h257c11 0 21 -7 21 -21v-2c0 -14 -10 -21 -21 -21h-257v-295h360c11 0 21 -7 21 -21v-2c0 -14 -10 -21 -21 -21zM300 731c-59 0 -97 33 -113 77
c-6 18 0 31 14 31h1c11 0 15 -9 23 -23c18 -33 45 -46 75 -46s57 13 75 46c8 14 12 23 23 23h1c14 0 20 -13 14 -31c-16 -44 -54 -77 -113 -77z" />
    <glyph glyph-name="Ecaron" unicode="&#x11a;" horiz-adv-x="549" 
d="M498 0h-387c-14 0 -26 8 -26 26v648c0 18 12 26 26 26h373c11 0 21 -7 21 -21v-2c0 -15 -10 -22 -21 -22h-346v-272h257c11 0 21 -7 21 -21v-2c0 -14 -10 -21 -21 -21h-257v-295h360c11 0 21 -7 21 -21v-2c0 -14 -10 -21 -21 -21zM396 812l-63 -67c-8 -9 -17 -16 -31 -16
h-4c-14 0 -23 7 -31 16l-62 67c-15 15 -5 31 8 31h1c6 0 12 -4 18 -9l68 -63l69 63c6 5 12 9 18 9h1c13 0 23 -16 8 -31z" />
    <glyph glyph-name="Edotaccent" unicode="&#x116;" horiz-adv-x="549" 
d="M498 0h-387c-14 0 -26 8 -26 26v648c0 18 12 26 26 26h373c11 0 21 -7 21 -21v-2c0 -15 -10 -22 -21 -22h-346v-272h257c11 0 21 -7 21 -21v-2c0 -14 -10 -21 -21 -21h-257v-295h360c11 0 21 -7 21 -21v-2c0 -14 -10 -21 -21 -21zM335 774c0 -18 -16 -34 -34 -34
c-19 0 -34 16 -34 34c0 19 15 34 34 34c18 0 34 -15 34 -34z" />
    <glyph glyph-name="Emacron" unicode="&#x112;" horiz-adv-x="549" 
d="M201 795h201c12 0 18 -8 18 -18v-2c0 -11 -6 -19 -18 -19h-201c-13 0 -19 8 -19 19v2c0 10 6 18 19 18zM498 0h-387c-14 0 -26 8 -26 26v648c0 18 12 26 26 26h373c11 0 21 -7 21 -21v-2c0 -15 -10 -22 -21 -22h-346v-272h257c11 0 21 -7 21 -21v-2
c0 -14 -10 -21 -21 -21h-257v-295h360c11 0 21 -7 21 -21v-2c0 -14 -10 -21 -21 -21z" />
    <glyph glyph-name="Eogonek" unicode="&#x118;" horiz-adv-x="549" 
d="M498 0h-20c-38 -29 -61 -55 -61 -85c0 -26 14 -43 49 -43h21c10 0 15 -6 15 -15v-1c0 -11 -6 -15 -15 -17s-22 -3 -35 -3c-50 0 -82 27 -82 71c0 39 33 72 63 93h-322c-14 0 -26 8 -26 26v648c0 18 12 26 26 26h373c11 0 21 -7 21 -21v-2c0 -15 -10 -22 -21 -22h-346
v-272h257c11 0 21 -7 21 -21v-2c0 -14 -10 -21 -21 -21h-257v-295h360c11 0 21 -7 21 -21v-2c0 -14 -10 -21 -21 -21z" />
    <glyph glyph-name="Gbreve" unicode="&#x11e;" horiz-adv-x="668" 
d="M594 317v-237c0 -21 -8 -31 -28 -41c-45 -23 -108 -43 -203 -43c-197 0 -322 119 -322 356c0 236 145 352 327 352c88 0 150 -21 185 -44c15 -10 20 -19 20 -32v-1c0 -14 -8 -23 -21 -23c-28 0 -46 57 -184 57c-155 0 -270 -96 -270 -307s98 -315 265 -315
c91 0 140 19 178 39v221h-137c-15 0 -21 10 -21 21v2c0 11 6 21 21 21h164c18 0 26 -12 26 -26zM364 731c-59 0 -97 33 -113 77c-6 18 0 31 14 31h1c11 0 15 -9 23 -23c18 -33 45 -46 75 -46s57 13 75 46c8 14 12 23 23 23h1c14 0 20 -13 14 -31c-16 -44 -54 -77 -113 -77z
" />
    <glyph glyph-name="Gcircumflex" unicode="&#x11c;" horiz-adv-x="668" 
d="M594 317v-237c0 -21 -8 -31 -28 -41c-45 -23 -108 -43 -203 -43c-197 0 -322 119 -322 356c0 236 145 352 327 352c88 0 150 -21 185 -44c15 -10 20 -19 20 -32v-1c0 -14 -8 -23 -21 -23c-28 0 -46 57 -184 57c-155 0 -270 -96 -270 -307s98 -315 265 -315
c91 0 140 19 178 39v221h-137c-15 0 -21 10 -21 21v2c0 11 6 21 21 21h164c18 0 26 -12 26 -26zM395 827l63 -67c15 -15 5 -31 -8 -31h-1c-6 0 -12 4 -18 9l-69 63l-68 -63c-6 -5 -12 -9 -18 -9h-1c-13 0 -23 16 -8 31l62 67c8 9 17 16 31 16h4c14 0 23 -7 31 -16z" />
    <glyph glyph-name="Gcommaaccent" unicode="&#x122;" horiz-adv-x="668" 
d="M594 317v-237c0 -21 -8 -31 -28 -41c-45 -23 -108 -43 -203 -43c-197 0 -322 119 -322 356c0 236 145 352 327 352c88 0 150 -21 185 -44c15 -10 20 -19 20 -32v-1c0 -14 -8 -23 -21 -23c-28 0 -46 57 -184 57c-155 0 -270 -96 -270 -307s98 -315 265 -315
c91 0 140 19 178 39v221h-137c-15 0 -21 10 -21 21v2c0 11 6 21 21 21h164c18 0 26 -12 26 -26zM402 -84c0 -46 -22 -75 -63 -86c-12 -3 -19 3 -19 11v1c0 7 3 12 16 18s24 13 24 25s-9 15 -17 21c-9 6 -14 15 -14 29c0 18 15 31 35 31s38 -13 38 -50z" />
    <glyph glyph-name="Gdotaccent" unicode="&#x120;" horiz-adv-x="668" 
d="M594 317v-237c0 -21 -8 -31 -28 -41c-45 -23 -108 -43 -203 -43c-197 0 -322 119 -322 356c0 236 145 352 327 352c88 0 150 -21 185 -44c15 -10 20 -19 20 -32v-1c0 -14 -8 -23 -21 -23c-28 0 -46 57 -184 57c-155 0 -270 -96 -270 -307s98 -315 265 -315
c91 0 140 19 178 39v221h-137c-15 0 -21 10 -21 21v2c0 11 6 21 21 21h164c18 0 26 -12 26 -26zM398 774c0 -18 -16 -34 -34 -34c-19 0 -34 16 -34 34c0 19 15 34 34 34c18 0 34 -15 34 -34z" />
    <glyph glyph-name="Hbar" unicode="&#x126;" horiz-adv-x="681" 
d="M138 339v-316c0 -18 -12 -26 -26 -26h-1c-14 0 -26 8 -26 26v495h-63c-13 0 -20 9 -20 20v2c0 10 7 19 20 19h63v118c0 18 12 26 26 26h1c14 0 26 -8 26 -26v-118h405v118c0 18 12 26 26 26h2c13 0 25 -8 25 -26v-118h64c12 0 19 -9 19 -19v-2c0 -11 -7 -20 -19 -20h-64
v-495c0 -18 -12 -26 -25 -26h-2c-14 0 -26 8 -26 26v316h-405zM138 383h405v135h-405v-135z" />
    <glyph glyph-name="Hcircumflex" unicode="&#x124;" horiz-adv-x="681" 
d="M138 339v-316c0 -18 -12 -26 -26 -26h-1c-14 0 -26 8 -26 26v654c0 18 12 26 26 26h1c14 0 26 -8 26 -26v-294h405v294c0 18 12 26 26 26h2c13 0 25 -8 25 -26v-654c0 -18 -12 -26 -25 -26h-2c-14 0 -26 8 -26 26v316h-405zM371 827l63 -67c15 -15 5 -31 -8 -31h-1
c-6 0 -12 4 -18 9l-69 63l-68 -63c-6 -5 -12 -9 -18 -9h-1c-13 0 -23 16 -8 31l62 67c8 9 17 16 31 16h4c14 0 23 -7 31 -16z" />
    <glyph glyph-name="Idotaccent" unicode="&#x130;" horiz-adv-x="228" 
d="M87 23v654c0 18 12 26 26 26h2c14 0 26 -8 26 -26v-654c0 -18 -12 -26 -26 -26h-2c-14 0 -26 8 -26 26zM149 774c0 -18 -16 -34 -34 -34c-19 0 -34 16 -34 34c0 19 15 34 34 34c18 0 34 -15 34 -34z" />
    <glyph glyph-name="Imacron" unicode="&#x12a;" horiz-adv-x="228" 
d="M21 789h189c12 0 18 -8 18 -18v-2c0 -11 -6 -19 -18 -19h-189c-13 0 -19 8 -19 19v2c0 10 6 18 19 18zM87 23v654c0 18 12 26 26 26h2c14 0 26 -8 26 -26v-654c0 -18 -12 -26 -26 -26h-2c-14 0 -26 8 -26 26z" />
    <glyph glyph-name="Iogonek" unicode="&#x12e;" horiz-adv-x="228" 
d="M87 -2v679c0 18 12 26 26 26h2c14 0 26 -8 26 -26v-654c0 -9 -3 -17 -9 -23c-35 -35 -53 -55 -53 -85c0 -26 14 -43 49 -43h21c10 0 15 -6 15 -15v-1c0 -11 -6 -15 -15 -17s-22 -3 -35 -3c-50 0 -82 27 -82 71c0 34 24 66 55 91z" />
    <glyph glyph-name="Jcircumflex" unicode="&#x134;" horiz-adv-x="409" 
d="M328 677v-517c0 -103 -56 -165 -175 -165c-40 0 -80 7 -110 22c-18 9 -28 20 -28 36v1c0 13 9 23 23 23c24 0 34 -39 112 -39c86 0 124 44 124 123v516c0 18 12 26 26 26h2c14 0 26 -8 26 -26zM333 827l63 -67c15 -15 5 -31 -8 -31h-1c-6 0 -12 4 -18 9l-69 63l-68 -63
c-6 -5 -12 -9 -18 -9h-1c-13 0 -23 16 -8 31l62 67c8 9 17 16 31 16h4c14 0 23 -7 31 -16z" />
    <glyph glyph-name="Kcommaaccent" unicode="&#x136;" horiz-adv-x="616" 
d="M112 -3h-1c-14 0 -26 8 -26 26v655c0 17 12 25 26 25h1c14 0 26 -8 26 -25v-380l366 389c10 11 18 16 26 16h1c17 0 32 -20 10 -43l-235 -246l264 -374c16 -23 2 -43 -17 -43h-1c-10 0 -19 7 -27 19l-254 361l-133 -141v-213c0 -18 -12 -26 -26 -26zM344 -84
c0 -46 -22 -75 -63 -86c-12 -3 -19 3 -19 11v1c0 7 3 12 16 18s24 13 24 25s-9 15 -17 21c-9 6 -14 15 -14 29c0 18 15 31 35 31s38 -13 38 -50z" />
    <glyph glyph-name="Lacute" unicode="&#x139;" horiz-adv-x="537" 
d="M85 26v651c0 18 12 26 26 26h1c14 0 26 -8 26 -26v-633h347c11 0 21 -7 21 -21v-2c0 -14 -10 -21 -21 -21h-374c-14 0 -26 12 -26 26zM114 728h-1c-14 0 -22 14 -9 34l44 70c7 11 14 16 23 16h1c21 0 32 -22 16 -42l-54 -65c-6 -7 -12 -13 -20 -13z" />
    <glyph glyph-name="Lcaron" unicode="&#x13d;" horiz-adv-x="537" 
d="M326 563h-2c-13 0 -18 10 -17 20l7 95c1 15 9 26 22 26h4c18 0 26 -13 22 -33l-20 -94c-2 -8 -8 -14 -16 -14zM85 26v651c0 18 12 26 26 26h1c14 0 26 -8 26 -26v-633h347c11 0 21 -7 21 -21v-2c0 -14 -10 -21 -21 -21h-374c-14 0 -26 12 -26 26z" />
    <glyph glyph-name="Lcommaaccent" unicode="&#x13b;" horiz-adv-x="537" 
d="M85 26v651c0 18 12 26 26 26h1c14 0 26 -8 26 -26v-633h347c11 0 21 -7 21 -21v-2c0 -14 -10 -21 -21 -21h-374c-14 0 -26 12 -26 26zM332 -84c0 -46 -22 -75 -63 -86c-12 -3 -19 3 -19 11v1c0 7 3 12 16 18s24 13 24 25s-9 15 -17 21c-9 6 -14 15 -14 29
c0 18 15 31 35 31s38 -13 38 -50z" />
    <glyph glyph-name="Nacute" unicode="&#x143;" horiz-adv-x="676" 
d="M526 23l-389 606h-2v-607c0 -17 -11 -25 -25 -25h-1c-13 0 -24 8 -24 25v651c0 18 12 27 26 27h16c20 0 29 -8 40 -25l373 -579h1v582c0 17 11 25 25 25h1c14 0 25 -8 25 -25v-653c0 -19 -10 -27 -26 -27h-3c-19 0 -26 8 -37 25zM348 728h-1c-14 0 -22 14 -9 34l44 70
c7 11 14 16 23 16h1c21 0 32 -22 16 -42l-54 -65c-6 -7 -12 -13 -20 -13z" />
    <glyph glyph-name="Ncaron" unicode="&#x147;" horiz-adv-x="676" 
d="M526 23l-389 606h-2v-607c0 -17 -11 -25 -25 -25h-1c-13 0 -24 8 -24 25v651c0 18 12 27 26 27h16c20 0 29 -8 40 -25l373 -579h1v582c0 17 11 25 25 25h1c14 0 25 -8 25 -25v-653c0 -19 -10 -27 -26 -27h-3c-19 0 -26 8 -37 25zM444 812l-63 -67c-8 -9 -17 -16 -31 -16
h-4c-14 0 -23 7 -31 16l-62 67c-15 15 -5 31 8 31h1c6 0 12 -4 18 -9l68 -63l69 63c6 5 12 9 18 9h1c13 0 23 -16 8 -31z" />
    <glyph glyph-name="Ncommaaccent" unicode="&#x145;" horiz-adv-x="676" 
d="M526 23l-389 606h-2v-607c0 -17 -11 -25 -25 -25h-1c-13 0 -24 8 -24 25v651c0 18 12 27 26 27h16c20 0 29 -8 40 -25l373 -579h1v582c0 17 11 25 25 25h1c14 0 25 -8 25 -25v-653c0 -19 -10 -27 -26 -27h-3c-19 0 -26 8 -37 25zM376 -84c0 -46 -22 -75 -63 -86
c-12 -3 -19 3 -19 11v1c0 7 3 12 16 18s24 13 24 25s-9 15 -17 21c-9 6 -14 15 -14 29c0 18 15 31 35 31s38 -13 38 -50z" />
    <glyph glyph-name="Ohungarumlaut" unicode="&#x150;" horiz-adv-x="710" 
d="M669 350c0 -230 -143 -354 -313 -354c-172 0 -315 124 -315 354c0 229 143 354 315 354c170 0 313 -125 313 -354zM96 349c0 -205 113 -311 260 -311c145 0 258 106 258 311s-113 313 -258 313c-147 0 -260 -108 -260 -313zM297 728h-1c-13 0 -20 12 -14 26l31 71
c7 17 15 23 25 23h1c18 0 30 -18 17 -39l-42 -69c-4 -7 -10 -12 -17 -12zM415 729h-1c-13 0 -20 12 -14 26l31 71c7 17 15 23 25 23h1c18 0 30 -18 17 -39l-42 -69c-4 -7 -10 -12 -17 -12z" />
    <glyph glyph-name="Omacron" unicode="&#x14c;" horiz-adv-x="710" 
d="M255 795h201c12 0 18 -8 18 -18v-2c0 -11 -6 -19 -18 -19h-201c-13 0 -19 8 -19 19v2c0 10 6 18 19 18zM669 350c0 -230 -143 -354 -313 -354c-172 0 -315 124 -315 354c0 229 143 354 315 354c170 0 313 -125 313 -354zM96 349c0 -205 113 -311 260 -311
c145 0 258 106 258 311s-113 313 -258 313c-147 0 -260 -108 -260 -313z" />
    <glyph glyph-name="Racute" unicode="&#x154;" horiz-adv-x="598" 
d="M526 -3h-1c-9 0 -18 5 -26 20l-164 303c-19 -2 -40 -3 -61 -3h-133v-294c0 -18 -12 -26 -26 -26h-2c-14 0 -26 8 -26 26v651c0 18 12 26 26 26h161c142 0 240 -50 240 -190c0 -101 -48 -156 -127 -179l159 -295c12 -23 -3 -39 -20 -39zM272 656h-131v-296h131
c117 0 188 32 188 148c0 113 -77 148 -188 148zM287 728h-1c-14 0 -22 14 -9 34l44 70c7 11 14 16 23 16h1c21 0 32 -22 16 -42l-54 -65c-6 -7 -12 -13 -20 -13z" />
    <glyph glyph-name="Rcaron" unicode="&#x158;" horiz-adv-x="598" 
d="M526 -3h-1c-9 0 -18 5 -26 20l-164 303c-19 -2 -40 -3 -61 -3h-133v-294c0 -18 -12 -26 -26 -26h-2c-14 0 -26 8 -26 26v651c0 18 12 26 26 26h161c142 0 240 -50 240 -190c0 -101 -48 -156 -127 -179l159 -295c12 -23 -3 -39 -20 -39zM272 656h-131v-296h131
c117 0 188 32 188 148c0 113 -77 148 -188 148zM381 812l-63 -67c-8 -9 -17 -16 -31 -16h-4c-14 0 -23 7 -31 16l-62 67c-15 15 -5 31 8 31h1c6 0 12 -4 18 -9l68 -63l69 63c6 5 12 9 18 9h1c13 0 23 -16 8 -31z" />
    <glyph glyph-name="Rcommaaccent" unicode="&#x156;" horiz-adv-x="598" 
d="M526 -3h-1c-9 0 -18 5 -26 20l-164 303c-19 -2 -40 -3 -61 -3h-133v-294c0 -18 -12 -26 -26 -26h-2c-14 0 -26 8 -26 26v651c0 18 12 26 26 26h161c142 0 240 -50 240 -190c0 -101 -48 -156 -127 -179l159 -295c12 -23 -3 -39 -20 -39zM272 656h-131v-296h131
c117 0 188 32 188 148c0 113 -77 148 -188 148zM339 -84c0 -46 -22 -75 -63 -86c-12 -3 -19 3 -19 11v1c0 7 3 12 16 18s24 13 24 25s-9 15 -17 21c-9 6 -14 15 -14 29c0 18 15 31 35 31s38 -13 38 -50z" />
    <glyph glyph-name="Sacute" unicode="&#x15a;" horiz-adv-x="508" 
d="M238 -4c-88 0 -157 23 -195 53c-14 11 -21 22 -21 34v1c0 13 9 23 22 23c29 0 45 -68 193 -68c107 0 181 44 181 150c0 103 -81 123 -182 150c-125 33 -197 73 -197 187c0 101 74 178 211 178c79 0 132 -19 166 -42c15 -10 22 -20 22 -34v-1c0 -14 -10 -22 -22 -22
c-29 0 -42 56 -165 56c-114 0 -161 -57 -161 -131c0 -96 66 -118 161 -143c141 -37 219 -72 219 -194c0 -136 -96 -197 -232 -197zM252 728h-1c-14 0 -22 14 -9 34l44 70c7 11 14 16 23 16h1c21 0 32 -22 16 -42l-54 -65c-6 -7 -12 -13 -20 -13z" />
    <glyph glyph-name="Scedilla" unicode="&#x15e;" horiz-adv-x="508" 
d="M43 49c-14 11 -21 22 -21 34v1c0 13 9 23 22 23c29 0 45 -68 193 -68c107 0 181 44 181 150c0 103 -81 123 -182 150c-125 33 -197 73 -197 187c0 101 74 178 211 178c79 0 132 -19 166 -42c15 -10 22 -20 22 -34v-1c0 -14 -10 -22 -22 -22c-29 0 -42 56 -165 56
c-114 0 -161 -57 -161 -131c0 -96 66 -118 161 -143c141 -37 219 -72 219 -194c0 -133 -91 -193 -221 -197v-36c50 -2 79 -26 79 -68s-37 -66 -83 -66c-24 0 -44 5 -59 14c-8 5 -12 11 -12 19v1c0 9 6 17 15 17c15 0 20 -15 53 -15c25 0 43 10 43 31c0 20 -14 34 -50 34h-8
c-10 0 -15 5 -15 14v56c-76 3 -135 25 -169 52z" />
    <glyph glyph-name="Scircumflex" unicode="&#x15c;" horiz-adv-x="508" 
d="M238 -4c-88 0 -157 23 -195 53c-14 11 -21 22 -21 34v1c0 13 9 23 22 23c29 0 45 -68 193 -68c107 0 181 44 181 150c0 103 -81 123 -182 150c-125 33 -197 73 -197 187c0 101 74 178 211 178c79 0 132 -19 166 -42c15 -10 22 -20 22 -34v-1c0 -14 -10 -22 -22 -22
c-29 0 -42 56 -165 56c-114 0 -161 -57 -161 -131c0 -96 66 -118 161 -143c141 -37 219 -72 219 -194c0 -136 -96 -197 -232 -197zM282 827l63 -67c15 -15 5 -31 -8 -31h-1c-6 0 -12 4 -18 9l-69 63l-68 -63c-6 -5 -12 -9 -18 -9h-1c-13 0 -23 16 -8 31l62 67
c8 9 17 16 31 16h4c14 0 23 -7 31 -16z" />
    <glyph glyph-name="Scommaaccent" unicode="&#x218;" horiz-adv-x="508" 
d="M238 -4c-88 0 -157 23 -195 53c-14 11 -21 22 -21 34v1c0 13 9 23 22 23c29 0 45 -68 193 -68c107 0 181 44 181 150c0 103 -81 123 -182 150c-125 33 -197 73 -197 187c0 101 74 178 211 178c79 0 132 -19 166 -42c15 -10 22 -20 22 -34v-1c0 -14 -10 -22 -22 -22
c-29 0 -42 56 -165 56c-114 0 -161 -57 -161 -131c0 -96 66 -118 161 -143c141 -37 219 -72 219 -194c0 -136 -96 -197 -232 -197zM283 -84c0 -46 -22 -75 -63 -86c-12 -3 -19 3 -19 11v1c0 7 3 12 16 18s24 13 24 25s-9 15 -17 21c-9 6 -14 15 -14 29c0 18 15 31 35 31
s38 -13 38 -50z" />
    <glyph glyph-name="Tcaron" unicode="&#x164;" horiz-adv-x="553" 
d="M250 656h-211c-11 0 -21 7 -21 21v2c0 14 10 21 21 21h475c11 0 21 -7 21 -21v-2c0 -14 -10 -21 -21 -21h-210v-633c0 -18 -12 -26 -26 -26h-2c-14 0 -26 8 -26 26v633zM371 811l-63 -67c-8 -9 -17 -16 -31 -16h-4c-14 0 -23 7 -31 16l-62 67c-15 15 -5 31 8 31h1
c6 0 12 -4 18 -9l68 -63l69 63c6 5 12 9 18 9h1c13 0 23 -16 8 -31z" />
    <glyph glyph-name="Tcommaaccent" unicode="&#x162;" horiz-adv-x="553" 
d="M250 656h-211c-11 0 -21 7 -21 21v2c0 14 10 21 21 21h475c11 0 21 -7 21 -21v-2c0 -14 -10 -21 -21 -21h-210v-633c0 -18 -12 -26 -26 -26h-2c-14 0 -26 8 -26 26v633zM314 -84c0 -46 -22 -75 -63 -86c-12 -3 -19 3 -19 11v1c0 7 3 12 16 18s24 13 24 25s-9 15 -17 21
c-9 6 -14 15 -14 29c0 18 15 31 35 31s38 -13 38 -50z" />
    <glyph glyph-name="Ubreve" unicode="&#x16c;" horiz-adv-x="672" 
d="M593 678v-441c0 -176 -109 -241 -254 -241c-143 0 -259 64 -259 241v440c0 18 12 26 26 26h1c14 0 26 -8 26 -26v-442c0 -150 95 -195 209 -195c110 0 199 42 199 195v443c0 17 11 25 25 25h2c14 0 25 -8 25 -25zM337 731c-59 0 -97 33 -113 77c-6 18 0 31 14 31h1
c11 0 15 -9 23 -23c18 -33 45 -46 75 -46s57 13 75 46c8 14 12 23 23 23h1c14 0 20 -13 14 -31c-16 -44 -54 -77 -113 -77z" />
    <glyph glyph-name="Uhungarumlaut" unicode="&#x170;" horiz-adv-x="672" 
d="M593 678v-441c0 -176 -109 -241 -254 -241c-143 0 -259 64 -259 241v440c0 18 12 26 26 26h1c14 0 26 -8 26 -26v-442c0 -150 95 -195 209 -195c110 0 199 42 199 195v443c0 17 11 25 25 25h2c14 0 25 -8 25 -25zM279 728h-1c-13 0 -20 12 -14 26l31 71c7 17 15 23 25 23
h1c18 0 30 -18 17 -39l-42 -69c-4 -7 -10 -12 -17 -12zM397 729h-1c-13 0 -20 12 -14 26l31 71c7 17 15 23 25 23h1c18 0 30 -18 17 -39l-42 -69c-4 -7 -10 -12 -17 -12z" />
    <glyph glyph-name="Umacron" unicode="&#x16a;" horiz-adv-x="672" 
d="M237 795h201c12 0 18 -8 18 -18v-2c0 -11 -6 -19 -18 -19h-201c-13 0 -19 8 -19 19v2c0 10 6 18 19 18zM593 678v-441c0 -176 -109 -241 -254 -241c-143 0 -259 64 -259 241v440c0 18 12 26 26 26h1c14 0 26 -8 26 -26v-442c0 -150 95 -195 209 -195
c110 0 199 42 199 195v443c0 17 11 25 25 25h2c14 0 25 -8 25 -25z" />
    <glyph glyph-name="Uogonek" unicode="&#x172;" horiz-adv-x="672" 
d="M593 678v-441c0 -125 -54 -195 -149 -230c-76 -28 -100 -63 -100 -92c0 -26 13 -43 48 -43h21c10 0 15 -6 15 -15v-1c0 -11 -6 -15 -15 -17s-22 -3 -35 -3c-50 0 -82 27 -82 71c0 37 31 74 64 90c0 0 -12 -1 -21 -1c-143 0 -259 64 -259 241v440c0 18 12 26 26 26h1
c14 0 26 -8 26 -26v-442c0 -150 95 -195 209 -195c110 0 200 42 200 195v443c0 17 11 25 25 25h1c14 0 25 -8 25 -25z" />
    <glyph glyph-name="Uring" unicode="&#x16e;" horiz-adv-x="672" 
d="M593 678v-441c0 -176 -109 -241 -254 -241c-143 0 -259 64 -259 241v440c0 18 12 26 26 26h1c14 0 26 -8 26 -26v-442c0 -150 95 -195 209 -195c110 0 199 42 199 195v443c0 17 11 25 25 25h2c14 0 25 -8 25 -25zM424 790c0 -53 -42 -85 -87 -85c-46 0 -88 32 -88 85
c0 52 42 86 88 86c45 0 87 -34 87 -86zM286 790c0 -32 22 -52 51 -52c28 0 51 20 51 52c0 31 -23 53 -51 53c-29 0 -51 -22 -51 -53z" />
    <glyph glyph-name="Zacute" unicode="&#x179;" horiz-adv-x="530" 
d="M497 635l-422 -591v-2h407c15 0 20 -9 20 -20v-2c0 -11 -5 -20 -20 -20h-443c-16 0 -22 11 -22 23v5c0 17 5 25 13 36l423 592v1h-392c-15 0 -20 9 -20 21v2c0 11 5 20 21 20h426c16 0 22 -11 22 -23v-5c0 -19 -5 -26 -13 -37zM284 728h-1c-14 0 -22 14 -9 34l44 70
c7 11 14 16 23 16h1c21 0 32 -22 16 -42l-54 -65c-6 -7 -12 -13 -20 -13z" />
    <glyph glyph-name="Zdotaccent" unicode="&#x17b;" horiz-adv-x="530" 
d="M497 635l-422 -591v-2h407c15 0 20 -9 20 -20v-2c0 -11 -5 -20 -20 -20h-443c-16 0 -22 11 -22 23v5c0 17 5 25 13 36l423 592v1h-392c-15 0 -20 9 -20 21v2c0 11 5 20 21 20h426c16 0 22 -11 22 -23v-5c0 -19 -5 -26 -13 -37zM317 774c0 -18 -16 -34 -34 -34
c-19 0 -34 16 -34 34c0 19 15 34 34 34c18 0 34 -15 34 -34z" />
    <glyph glyph-name="abreve" unicode="&#x103;" horiz-adv-x="491" 
d="M374 46v25c-44 -46 -92 -76 -178 -76c-97 0 -168 53 -168 151c0 105 87 153 209 153c50 0 94 -5 137 -16v94c0 81 -52 110 -128 110c-122 0 -132 -47 -163 -47c-11 0 -21 7 -21 21v1c0 9 6 22 34 35c38 18 89 30 152 30c106 0 176 -39 176 -147v-359
c0 -17 -9 -24 -22 -24h-1c-18 0 -27 11 -27 49zM203 34c84 0 130 36 171 85v128c-40 9 -84 16 -134 16c-92 0 -161 -33 -161 -113c0 -83 54 -116 124 -116zM249 575c-59 0 -97 37 -113 85c-6 18 0 32 14 32h1c11 0 16 -10 23 -24c19 -40 42 -54 75 -54s56 14 75 54
c7 14 12 24 23 24h1c14 0 20 -14 14 -32c-16 -48 -54 -85 -113 -85z" />
    <glyph glyph-name="amacron" unicode="&#x101;" horiz-adv-x="491" 
d="M374 46v25c-44 -46 -92 -76 -178 -76c-97 0 -168 53 -168 151c0 105 87 153 209 153c50 0 94 -5 137 -16v94c0 81 -52 110 -128 110c-122 0 -132 -47 -163 -47c-11 0 -21 7 -21 21v1c0 9 6 22 34 35c38 18 89 30 152 30c106 0 176 -39 176 -147v-359
c0 -17 -9 -24 -22 -24h-1c-18 0 -27 11 -27 49zM203 34c84 0 130 36 171 85v128c-40 9 -84 16 -134 16c-92 0 -161 -33 -161 -113c0 -83 54 -116 124 -116zM149 648h193c12 0 17 -8 17 -17v-2c0 -10 -5 -18 -17 -18h-193c-13 0 -18 8 -18 18v2c0 9 5 17 18 17z" />
    <glyph glyph-name="aogonek" unicode="&#x105;" horiz-adv-x="491" 
d="M374 46v25c-44 -46 -92 -76 -178 -76c-97 0 -168 53 -168 151c0 105 87 153 209 153c50 0 94 -5 137 -16v94c0 81 -52 110 -128 110c-122 0 -132 -47 -163 -47c-11 0 -21 7 -21 21v1c0 9 6 22 34 35c38 18 89 30 152 30c106 0 176 -39 176 -147v-360c0 -8 -2 -15 -8 -21
c-35 -35 -53 -54 -53 -84c0 -26 14 -43 49 -43h21c10 0 15 -6 15 -15v-1c0 -11 -6 -15 -15 -17s-22 -3 -35 -3c-50 0 -82 27 -82 71c0 39 33 73 66 97c-5 7 -8 20 -8 42zM203 34c84 0 130 36 171 85v128c-40 9 -84 16 -134 16c-92 0 -161 -33 -161 -113
c0 -83 54 -116 124 -116z" />
    <glyph glyph-name="cacute" unicode="&#x107;" horiz-adv-x="478" 
d="M434 45c-36 -30 -91 -49 -158 -49c-153 0 -244 102 -244 266c0 165 102 265 247 265c58 0 106 -12 140 -35c14 -10 23 -20 23 -33v-1c0 -12 -9 -21 -21 -21c-27 0 -39 50 -143 50c-116 0 -195 -83 -195 -225c0 -143 73 -226 195 -226c113 0 126 59 153 59
c13 0 20 -9 20 -20v-1c0 -9 -5 -19 -17 -29zM359 664l-74 -85c-6 -7 -12 -10 -17 -10h-1c-15 0 -23 15 -13 29l60 88c10 15 18 22 30 22h1c20 0 32 -23 14 -44z" />
    <glyph glyph-name="ccaron" unicode="&#x10d;" horiz-adv-x="478" 
d="M434 45c-36 -30 -91 -49 -158 -49c-153 0 -244 102 -244 266c0 165 102 265 247 265c58 0 106 -12 140 -35c14 -10 23 -20 23 -33v-1c0 -12 -9 -21 -21 -21c-27 0 -39 50 -143 50c-116 0 -195 -83 -195 -225c0 -143 73 -226 195 -226c113 0 126 59 153 59
c13 0 20 -9 20 -20v-1c0 -9 -5 -19 -17 -29zM369 675l-71 -88c-9 -11 -16 -18 -31 -18h-2c-15 0 -22 8 -31 18l-74 88c-14 16 -3 31 10 31h1c7 0 13 -5 18 -11l75 -80l76 80c5 6 12 11 18 11h1c13 0 23 -15 10 -31z" />
    <glyph glyph-name="ccircumflex" unicode="&#x109;" horiz-adv-x="478" 
d="M434 45c-36 -30 -91 -49 -158 -49c-153 0 -244 102 -244 266c0 165 102 265 247 265c58 0 106 -12 140 -35c14 -10 23 -20 23 -33v-1c0 -12 -9 -21 -21 -21c-27 0 -39 50 -143 50c-116 0 -195 -83 -195 -225c0 -143 73 -226 195 -226c113 0 126 59 153 59
c13 0 20 -9 20 -20v-1c0 -9 -5 -19 -17 -29zM298 688l71 -88c13 -16 3 -31 -10 -31h-1c-6 0 -13 5 -18 11l-76 80l-75 -80c-5 -6 -11 -11 -18 -11h-1c-13 0 -24 15 -10 31l74 88c9 10 16 18 31 18h2c15 0 22 -7 31 -18z" />
    <glyph glyph-name="cdotaccent" unicode="&#x10b;" horiz-adv-x="478" 
d="M434 45c-36 -30 -91 -49 -158 -49c-153 0 -244 102 -244 266c0 165 102 265 247 265c58 0 106 -12 140 -35c14 -10 23 -20 23 -33v-1c0 -12 -9 -21 -21 -21c-27 0 -39 50 -143 50c-116 0 -195 -83 -195 -225c0 -143 73 -226 195 -226c113 0 126 59 153 59
c13 0 20 -9 20 -20v-1c0 -9 -5 -19 -17 -29zM300 635c0 -19 -16 -34 -34 -34c-19 0 -34 15 -34 34c0 18 15 34 34 34c18 0 34 -16 34 -34z" />
    <glyph glyph-name="dcaron" unicode="&#x10f;" horiz-adv-x="554" 
d="M430 44v44c-42 -53 -109 -94 -191 -94c-105 0 -206 66 -206 260c0 202 116 271 223 271c82 0 135 -25 174 -65v216c0 17 9 25 23 25h1c18 0 27 -9 27 -46v-636c0 -17 -9 -24 -22 -24h-1c-19 0 -28 11 -28 49zM244 33c85 0 141 45 186 106v276c-41 44 -89 71 -166 71
c-88 0 -180 -48 -180 -230c0 -173 82 -223 160 -223zM555 563h-2c-13 0 -18 10 -17 20l7 95c1 15 9 26 22 26h2c18 0 26 -13 22 -33l-18 -94c-2 -8 -8 -14 -16 -14z" />
    <glyph glyph-name="ebreve" unicode="&#x115;" horiz-adv-x="507" 
d="M281 37c121 0 141 53 164 53c13 0 21 -8 21 -19v-1c0 -11 -9 -20 -19 -27c-36 -25 -87 -47 -171 -47c-157 0 -244 101 -244 263c0 164 98 268 231 268c128 0 214 -74 214 -244c0 -17 -11 -24 -24 -24h-370c0 -146 68 -222 198 -222zM84 297h343c-3 139 -67 192 -164 192
c-96 0 -167 -64 -179 -192zM262 575c-59 0 -97 37 -113 85c-6 18 0 32 14 32h1c11 0 16 -10 23 -24c19 -40 42 -54 75 -54s56 14 75 54c7 14 12 24 23 24h1c14 0 20 -14 14 -32c-16 -48 -54 -85 -113 -85z" />
    <glyph glyph-name="ecaron" unicode="&#x11b;" horiz-adv-x="507" 
d="M281 37c121 0 141 53 164 53c13 0 21 -8 21 -19v-1c0 -11 -9 -20 -19 -27c-36 -25 -87 -47 -171 -47c-157 0 -244 101 -244 263c0 164 98 268 231 268c128 0 214 -74 214 -244c0 -17 -11 -24 -24 -24h-370c0 -146 68 -222 198 -222zM84 297h343c-3 139 -67 192 -164 192
c-96 0 -167 -64 -179 -192zM366 675l-71 -88c-9 -11 -16 -18 -31 -18h-2c-15 0 -22 8 -31 18l-74 88c-14 16 -3 31 10 31h1c7 0 13 -5 18 -11l75 -80l76 80c5 6 12 11 18 11h1c13 0 23 -15 10 -31z" />
    <glyph glyph-name="edotaccent" unicode="&#x117;" horiz-adv-x="507" 
d="M281 37c121 0 141 53 164 53c13 0 21 -8 21 -19v-1c0 -11 -9 -20 -19 -27c-36 -25 -87 -47 -171 -47c-157 0 -244 101 -244 263c0 164 98 268 231 268c128 0 214 -74 214 -244c0 -17 -11 -24 -24 -24h-370c0 -146 68 -222 198 -222zM84 297h343c-3 139 -67 192 -164 192
c-96 0 -167 -64 -179 -192zM297 635c0 -19 -16 -34 -34 -34c-19 0 -34 15 -34 34c0 18 15 34 34 34c18 0 34 -16 34 -34z" />
    <glyph glyph-name="emacron" unicode="&#x113;" horiz-adv-x="507" 
d="M281 37c121 0 141 53 164 53c13 0 21 -8 21 -19v-1c0 -11 -9 -20 -19 -27c-36 -25 -87 -47 -171 -47c-157 0 -244 101 -244 263c0 164 98 268 231 268c128 0 214 -74 214 -244c0 -17 -11 -24 -24 -24h-370c0 -146 68 -222 198 -222zM84 297h343c-3 139 -67 192 -164 192
c-96 0 -167 -64 -179 -192zM167 648h193c12 0 17 -8 17 -17v-2c0 -10 -5 -18 -17 -18h-193c-13 0 -18 8 -18 18v2c0 9 5 17 18 17z" />
    <glyph glyph-name="eogonek" unicode="&#x119;" horiz-adv-x="507" 
d="M276 -4c-157 0 -244 101 -244 263c0 164 98 268 231 268c128 0 214 -74 214 -244c0 -17 -11 -24 -24 -24h-370c0 -146 68 -222 198 -222c121 0 141 53 164 53c13 0 21 -8 21 -19v-1c0 -11 -9 -21 -20 -28c-108 -69 -124 -96 -124 -127c0 -26 14 -43 49 -43h21
c10 0 15 -6 15 -15v-1c0 -11 -6 -15 -15 -17s-22 -3 -35 -3c-50 0 -82 27 -82 71c0 34 22 69 63 93c-18 -2 -39 -4 -62 -4zM84 297h343c-3 139 -67 192 -164 192c-96 0 -167 -64 -179 -192z" />
    <glyph glyph-name="gbreve" unicode="&#x11f;" horiz-adv-x="552" 
d="M430 9v87c-44 -52 -109 -92 -193 -92c-101 0 -204 66 -204 256c0 197 116 267 224 267c79 0 135 -26 173 -64c0 48 10 61 28 61h1c13 0 22 -7 22 -24v-494c0 -115 -100 -172 -221 -172c-71 0 -138 14 -180 37c-13 7 -20 16 -20 26v1c0 11 7 21 20 21c27 0 50 -46 174 -46
c97 0 176 37 176 136zM244 43c84 0 142 46 186 105v268c-42 45 -90 72 -164 72c-86 0 -182 -45 -182 -226c0 -171 82 -219 160 -219zM269 575c-59 0 -97 37 -113 85c-6 18 0 32 14 32h1c11 0 16 -10 23 -24c19 -40 42 -54 75 -54s56 14 75 54c7 14 12 24 23 24h1
c14 0 20 -14 14 -32c-16 -48 -54 -85 -113 -85z" />
    <glyph glyph-name="gcircumflex" unicode="&#x11d;" horiz-adv-x="552" 
d="M430 9v87c-44 -52 -109 -92 -193 -92c-101 0 -204 66 -204 256c0 197 116 267 224 267c79 0 135 -26 173 -64c0 48 10 61 28 61h1c13 0 22 -7 22 -24v-494c0 -115 -100 -172 -221 -172c-71 0 -138 14 -180 37c-13 7 -20 16 -20 26v1c0 11 7 21 20 21c27 0 50 -46 174 -46
c97 0 176 37 176 136zM244 43c84 0 142 46 186 105v268c-42 45 -90 72 -164 72c-86 0 -182 -45 -182 -226c0 -171 82 -219 160 -219zM301 688l71 -88c13 -16 3 -31 -10 -31h-1c-6 0 -13 5 -18 11l-76 80l-75 -80c-5 -6 -11 -11 -18 -11h-1c-13 0 -24 15 -10 31l74 88
c9 10 16 18 31 18h2c15 0 22 -7 31 -18z" />
    <glyph glyph-name="gcommaaccent" unicode="&#x123;" horiz-adv-x="552" 
d="M430 9v87c-44 -52 -109 -92 -193 -92c-101 0 -204 66 -204 256c0 197 116 267 224 267c79 0 135 -26 173 -64c0 48 10 61 28 61h1c13 0 22 -7 22 -24v-494c0 -115 -100 -172 -221 -172c-71 0 -138 14 -180 37c-13 7 -20 16 -20 26v1c0 11 7 21 20 21c27 0 50 -46 174 -46
c97 0 176 37 176 136zM244 43c84 0 142 46 186 105v268c-42 45 -90 72 -164 72c-86 0 -182 -45 -182 -226c0 -171 82 -219 160 -219zM235 638c0 46 22 75 63 86c12 3 19 -3 19 -11v-1c0 -7 -3 -12 -16 -18s-24 -13 -24 -25s9 -15 17 -21c9 -6 14 -15 14 -29
c0 -18 -15 -31 -35 -31s-38 13 -38 50z" />
    <glyph glyph-name="gdotaccent" unicode="&#x121;" horiz-adv-x="552" 
d="M430 9v87c-44 -52 -109 -92 -193 -92c-101 0 -204 66 -204 256c0 197 116 267 224 267c79 0 135 -26 173 -64c0 48 10 61 28 61h1c13 0 22 -7 22 -24v-494c0 -115 -100 -172 -221 -172c-71 0 -138 14 -180 37c-13 7 -20 16 -20 26v1c0 11 7 21 20 21c27 0 50 -46 174 -46
c97 0 176 37 176 136zM244 43c84 0 142 46 186 105v268c-42 45 -90 72 -164 72c-86 0 -182 -45 -182 -226c0 -171 82 -219 160 -219zM303 635c0 -19 -16 -34 -34 -34c-19 0 -34 15 -34 34c0 18 15 34 34 34c18 0 34 -16 34 -34z" />
    <glyph glyph-name="hbar" unicode="&#x127;" horiz-adv-x="551" 
d="M94 703c18 0 27 -9 27 -46v-37h143c12 0 17 -8 17 -17v-2c0 -10 -5 -18 -17 -18h-143v-145c59 47 137 89 229 89c73 0 135 -30 135 -139v-367c0 -17 -11 -24 -24 -24h-2c-13 0 -24 7 -24 24v361c0 83 -45 103 -104 103c-77 0 -151 -43 -210 -88v-376
c0 -17 -11 -24 -24 -24h-2c-13 0 -24 7 -24 24v562h-52c-10 0 -18 8 -18 18v2c0 9 5 17 18 17h52v59c0 17 9 24 22 24h1z" />
    <glyph glyph-name="hcircumflex" unicode="&#x125;" horiz-adv-x="551" 
d="M485 388v-367c0 -17 -11 -24 -24 -24h-2c-13 0 -24 7 -24 24v361c0 83 -45 103 -104 103c-77 0 -151 -43 -210 -88v-376c0 -17 -11 -24 -24 -24h-2c-13 0 -24 7 -24 24v658c0 17 9 24 22 24h1c18 0 27 -9 27 -46v-219c59 47 137 89 229 89c73 0 135 -30 135 -139z
M312 844l63 -67c15 -15 5 -31 -8 -31h-1c-6 0 -12 4 -18 9l-69 63l-68 -63c-6 -5 -12 -9 -18 -9h-1c-13 0 -23 16 -8 31l62 67c8 9 17 16 31 16h4c14 0 23 -7 31 -16z" />
    <glyph glyph-name="idotaccent" horiz-adv-x="197" 
d="M133 635c0 -19 -15 -34 -34 -34s-34 15 -34 34c0 18 15 34 34 34s34 -16 34 -34zM123 478v-457c0 -17 -11 -24 -24 -24h-2c-13 0 -24 7 -24 24v479c0 17 9 24 22 24h1c18 0 27 -9 27 -46z" />
    <glyph glyph-name="imacron" unicode="&#x12b;" horiz-adv-x="197" 
d="M24 648h150c12 0 17 -8 17 -17v-2c0 -10 -5 -18 -17 -18h-150c-13 0 -18 8 -18 18v2c0 9 5 17 18 17zM123 478v-457c0 -17 -11 -24 -24 -24h-2c-13 0 -24 7 -24 24v479c0 17 9 24 22 24h1c18 0 27 -9 27 -46z" />
    <glyph glyph-name="iogonek" unicode="&#x12f;" horiz-adv-x="197" 
d="M133 635c0 -19 -15 -34 -34 -34s-34 15 -34 34c0 18 15 34 34 34s34 -16 34 -34zM73 22v478c0 17 9 24 22 24h1c18 0 27 -9 27 -46v-456c0 -9 -2 -16 -8 -22c-35 -35 -53 -55 -53 -85c0 -26 14 -43 49 -43h21c10 0 15 -6 15 -15v-1c0 -11 -6 -15 -15 -17s-22 -3 -35 -3
c-50 0 -82 27 -82 71c0 36 30 71 64 96c-4 5 -6 10 -6 19z" />
    <glyph glyph-name="jcircumflex" unicode="&#x135;" horiz-adv-x="197" 
d="M73 -52v552c0 17 9 24 22 24h1c18 0 27 -9 27 -46v-532c0 -75 -38 -110 -105 -110c-5 0 -15 0 -23 1c-15 2 -22 8 -22 19v2c0 12 9 17 21 18c63 3 79 21 79 72zM131 687l71 -88c13 -16 3 -31 -10 -31h-1c-6 0 -13 5 -18 11l-76 80l-75 -80c-5 -6 -11 -11 -18 -11h-1
c-13 0 -24 15 -10 31l74 88c9 10 16 18 31 18h2c15 0 22 -7 31 -18z" />
    <glyph glyph-name="kcommaaccent" unicode="&#x137;" horiz-adv-x="474" 
d="M94 703c18 0 27 -9 27 -46v-431l264 284c8 9 15 14 23 14h1c15 0 30 -19 12 -38l-173 -182l191 -269c13 -19 0 -38 -18 -38h-1c-10 0 -17 7 -24 17l-181 256l-94 -101v-148c0 -17 -11 -24 -24 -24h-2c-13 0 -24 7 -24 24v658c0 17 9 24 22 24h1zM290 -84
c0 -46 -22 -75 -63 -86c-12 -3 -19 3 -19 11v1c0 7 3 12 16 18s24 13 24 25s-9 15 -17 21c-9 6 -14 15 -14 29c0 18 15 31 35 31s38 -13 38 -50z" />
    <glyph glyph-name="lacute" unicode="&#x13a;" horiz-adv-x="194" 
d="M122 657v-636c0 -17 -11 -24 -24 -24h-2c-13 0 -24 7 -24 24v658c0 17 9 24 22 24h1c18 0 27 -9 27 -46zM103 736h-1c-14 0 -22 14 -9 34l44 70c7 11 14 16 23 16h1c21 0 32 -22 16 -42l-54 -65c-6 -7 -12 -13 -20 -13z" />
    <glyph glyph-name="lcaron" unicode="&#x13e;" horiz-adv-x="194" 
d="M196 563h-2c-13 0 -18 10 -17 20l7 95c1 15 9 26 22 26h2c18 0 26 -13 22 -33l-18 -94c-2 -8 -8 -14 -16 -14zM122 657v-636c0 -17 -11 -24 -24 -24h-2c-13 0 -24 7 -24 24v658c0 17 9 24 22 24h1c18 0 27 -9 27 -46z" />
    <glyph glyph-name="lcommaaccent" unicode="&#x13c;" horiz-adv-x="194" 
d="M122 657v-636c0 -17 -11 -24 -24 -24h-2c-13 0 -24 7 -24 24v658c0 17 9 24 22 24h1c18 0 27 -9 27 -46zM136 -84c0 -46 -22 -75 -63 -86c-12 -3 -19 3 -19 11v1c0 7 3 12 16 18s24 13 24 25s-9 15 -17 21c-9 6 -14 15 -14 29c0 18 15 31 35 31s38 -13 38 -50z" />
    <glyph glyph-name="nacute" unicode="&#x144;" horiz-adv-x="551" 
d="M485 388v-367c0 -17 -11 -24 -24 -24h-2c-13 0 -24 7 -24 24v361c0 83 -45 103 -104 103c-77 0 -151 -43 -210 -88v-376c0 -17 -11 -24 -24 -24h-2c-13 0 -24 7 -24 24v479c0 17 9 24 22 24h1c18 0 27 -9 27 -46v-40c59 47 137 89 229 89c73 0 135 -30 135 -139zM375 664
l-74 -85c-6 -7 -12 -10 -17 -10h-1c-15 0 -23 15 -13 29l60 88c10 15 18 22 30 22h1c20 0 32 -23 14 -44z" />
    <glyph glyph-name="ncaron" unicode="&#x148;" horiz-adv-x="551" 
d="M485 388v-367c0 -17 -11 -24 -24 -24h-2c-13 0 -24 7 -24 24v361c0 83 -45 103 -104 103c-77 0 -151 -43 -210 -88v-376c0 -17 -11 -24 -24 -24h-2c-13 0 -24 7 -24 24v479c0 17 9 24 22 24h1c18 0 27 -9 27 -46v-40c59 47 137 89 229 89c73 0 135 -30 135 -139zM385 675
l-71 -88c-9 -11 -16 -18 -31 -18h-2c-15 0 -22 8 -31 18l-74 88c-14 16 -3 31 10 31h1c7 0 13 -5 18 -11l75 -80l76 80c5 6 12 11 18 11h1c13 0 23 -15 10 -31z" />
    <glyph glyph-name="ncommaaccent" unicode="&#x146;" horiz-adv-x="551" 
d="M485 388v-367c0 -17 -11 -24 -24 -24h-2c-13 0 -24 7 -24 24v361c0 83 -45 103 -104 103c-77 0 -151 -43 -210 -88v-376c0 -17 -11 -24 -24 -24h-2c-13 0 -24 7 -24 24v479c0 17 9 24 22 24h1c18 0 27 -9 27 -46v-40c59 47 137 89 229 89c73 0 135 -30 135 -139zM320 -84
c0 -46 -22 -75 -63 -86c-12 -3 -19 3 -19 11v1c0 7 3 12 16 18s24 13 24 25s-9 15 -17 21c-9 6 -14 15 -14 29c0 18 15 31 35 31s38 -13 38 -50z" />
    <glyph glyph-name="ohungarumlaut" unicode="&#x151;" horiz-adv-x="549" 
d="M517 261c0 -165 -97 -265 -243 -265c-144 0 -242 100 -242 265c0 164 98 266 242 266c146 0 243 -102 243 -266zM83 261c0 -143 73 -226 191 -226c119 0 192 83 192 226c0 142 -73 227 -192 227c-118 0 -191 -85 -191 -227zM218 569h-1c-12 0 -20 9 -13 26l40 91
c5 11 12 22 26 22h1c20 0 27 -18 17 -36l-50 -87c-4 -8 -10 -16 -20 -16zM336 569h-1c-12 0 -20 9 -13 26l40 91c5 11 12 22 26 22h1c20 0 27 -18 17 -36l-50 -87c-4 -8 -10 -16 -20 -16z" />
    <glyph glyph-name="omacron" unicode="&#x14d;" horiz-adv-x="549" 
d="M517 261c0 -165 -97 -265 -243 -265c-144 0 -242 100 -242 265c0 164 98 266 242 266c146 0 243 -102 243 -266zM83 261c0 -143 73 -226 191 -226c119 0 192 83 192 226c0 142 -73 227 -192 227c-118 0 -191 -85 -191 -227zM178 648h193c12 0 17 -8 17 -17v-2
c0 -10 -5 -18 -17 -18h-193c-13 0 -18 8 -18 18v2c0 9 5 17 18 17z" />
    <glyph glyph-name="racute" unicode="&#x155;" horiz-adv-x="341" 
d="M121 478v-47c41 50 97 94 171 94c19 0 27 -9 27 -21v-1c0 -13 -8 -20 -27 -22c-72 -8 -114 -31 -171 -97v-363c0 -17 -11 -24 -24 -24h-2c-13 0 -24 7 -24 24v479c0 17 9 24 22 24h1c18 0 27 -9 27 -46zM290 664l-74 -85c-6 -7 -12 -10 -17 -10h-1c-15 0 -23 15 -13 29
l60 88c10 15 18 22 30 22h1c20 0 32 -23 14 -44z" />
    <glyph glyph-name="rcaron" unicode="&#x159;" horiz-adv-x="341" 
d="M121 478v-47c41 50 97 94 171 94c19 0 27 -9 27 -21v-1c0 -13 -8 -20 -27 -22c-72 -8 -114 -31 -171 -97v-363c0 -17 -11 -24 -24 -24h-2c-13 0 -24 7 -24 24v479c0 17 9 24 22 24h1c18 0 27 -9 27 -46zM300 675l-71 -88c-9 -11 -16 -18 -31 -18h-2c-15 0 -22 8 -31 18
l-74 88c-14 16 -3 31 10 31h1c7 0 13 -5 18 -11l75 -80l76 80c5 6 12 11 18 11h1c13 0 23 -15 10 -31z" />
    <glyph glyph-name="rcommaaccent" unicode="&#x157;" horiz-adv-x="341" 
d="M121 478v-47c41 50 97 94 171 94c19 0 27 -9 27 -21v-1c0 -13 -8 -20 -27 -22c-72 -8 -114 -31 -171 -97v-363c0 -17 -11 -24 -24 -24h-2c-13 0 -24 7 -24 24v479c0 17 9 24 22 24h1c18 0 27 -9 27 -46zM134 -84c0 -46 -22 -75 -63 -86c-12 -3 -19 3 -19 11v1
c0 7 3 12 16 18s24 13 24 25s-9 15 -17 21c-9 6 -14 15 -14 29c0 18 15 31 35 31s38 -13 38 -50z" />
    <glyph glyph-name="sacute" unicode="&#x15b;" horiz-adv-x="425" 
d="M391 151c0 -96 -59 -155 -189 -155c-62 0 -108 13 -144 34c-18 11 -25 19 -25 32v1c0 12 8 21 21 21c22 0 43 -49 146 -49c96 0 142 40 142 112c0 61 -34 86 -140 103c-100 16 -163 51 -163 139c0 90 71 138 175 138c49 0 94 -9 125 -25c18 -9 26 -18 26 -30v-2
c0 -13 -8 -21 -19 -21c-21 0 -33 39 -131 39c-85 0 -129 -32 -129 -95c0 -60 35 -83 136 -100c109 -17 169 -50 169 -142zM304 664l-74 -85c-6 -7 -12 -10 -17 -10h-1c-15 0 -23 15 -13 29l60 88c10 15 18 22 30 22h1c20 0 32 -23 14 -44z" />
    <glyph glyph-name="scedilla" unicode="&#x15f;" horiz-adv-x="425" 
d="M391 151c0 -93 -56 -151 -177 -155v-36c50 -2 79 -26 79 -68s-37 -66 -83 -66c-24 0 -44 5 -59 14c-8 5 -12 11 -12 19v1c0 9 6 17 15 17c15 0 20 -15 53 -15c25 0 43 10 43 31c0 20 -14 34 -50 34h-8c-10 0 -15 5 -15 14v56c-50 3 -88 15 -119 33c-18 11 -25 19 -25 32
v1c0 12 8 21 21 21c22 0 43 -49 146 -49c96 0 142 40 142 112c0 61 -34 86 -140 103c-100 16 -163 51 -163 139c0 90 71 138 175 138c49 0 94 -9 125 -25c18 -9 26 -18 26 -30v-2c0 -13 -8 -21 -19 -21c-21 0 -33 39 -131 39c-85 0 -129 -32 -129 -95c0 -60 35 -83 136 -100
c109 -17 169 -50 169 -142z" />
    <glyph glyph-name="scircumflex" unicode="&#x15d;" horiz-adv-x="425" 
d="M391 151c0 -96 -59 -155 -189 -155c-62 0 -108 13 -144 34c-18 11 -25 19 -25 32v1c0 12 8 21 21 21c22 0 43 -49 146 -49c96 0 142 40 142 112c0 61 -34 86 -140 103c-100 16 -163 51 -163 139c0 90 71 138 175 138c49 0 94 -9 125 -25c18 -9 26 -18 26 -30v-2
c0 -13 -8 -21 -19 -21c-21 0 -33 39 -131 39c-85 0 -129 -32 -129 -95c0 -60 35 -83 136 -100c109 -17 169 -50 169 -142zM243 688l71 -88c13 -16 3 -31 -10 -31h-1c-6 0 -13 5 -18 11l-76 80l-75 -80c-5 -6 -11 -11 -18 -11h-1c-13 0 -24 15 -10 31l74 88c9 10 16 18 31 18
h2c15 0 22 -7 31 -18z" />
    <glyph glyph-name="scommaaccent" unicode="&#x219;" horiz-adv-x="425" 
d="M391 151c0 -96 -59 -155 -189 -155c-62 0 -108 13 -144 34c-18 11 -25 19 -25 32v1c0 12 8 21 21 21c22 0 43 -49 146 -49c96 0 142 40 142 112c0 61 -34 86 -140 103c-100 16 -163 51 -163 139c0 90 71 138 175 138c49 0 94 -9 125 -25c18 -9 26 -18 26 -30v-2
c0 -13 -8 -21 -19 -21c-21 0 -33 39 -131 39c-85 0 -129 -32 -129 -95c0 -60 35 -83 136 -100c109 -17 169 -50 169 -142zM249 -84c0 -46 -22 -75 -63 -86c-12 -3 -19 3 -19 11v1c0 7 3 12 16 18s24 13 24 25s-9 15 -17 21c-9 6 -14 15 -14 29c0 18 15 31 35 31
s38 -13 38 -50z" />
    <glyph glyph-name="tcaron" unicode="&#x165;" horiz-adv-x="295" 
d="M212 563h-2c-13 0 -18 10 -17 20l7 95c1 15 9 26 22 26h2c18 0 26 -13 22 -33l-18 -94c-2 -8 -8 -14 -16 -14zM203 -4c-80 0 -123 34 -123 117v370h-52c-14 0 -20 8 -20 18v2c0 10 6 18 20 18h52v124c0 17 11 24 24 24h2c13 0 24 -7 24 -24v-124h122c14 0 20 -8 20 -18
v-2c0 -10 -6 -18 -20 -18h-122v-364c0 -63 29 -82 90 -82c9 0 30 3 38 3c15 0 22 -7 22 -19v-1c0 -9 -6 -17 -21 -20s-35 -4 -56 -4z" />
    <glyph glyph-name="tcommaaccent" unicode="&#x163;" horiz-adv-x="295" 
d="M203 -4c-80 0 -123 34 -123 117v370h-52c-14 0 -20 8 -20 18v2c0 10 6 18 20 18h52v124c0 17 11 24 24 24h2c13 0 24 -7 24 -24v-124h122c14 0 20 -8 20 -18v-2c0 -10 -6 -18 -20 -18h-122v-364c0 -63 29 -82 90 -82c9 0 30 3 38 3c15 0 22 -7 22 -19v-1
c0 -9 -6 -17 -21 -20s-35 -4 -56 -4zM218 -84c0 -46 -22 -75 -63 -86c-12 -3 -19 3 -19 11v1c0 7 3 12 16 18s24 13 24 25s-9 15 -17 21c-9 6 -14 15 -14 29c0 18 15 31 35 31s38 -13 38 -50z" />
    <glyph glyph-name="ubreve" unicode="&#x16d;" horiz-adv-x="547" 
d="M207 -6c-80 0 -141 33 -141 136v370c0 17 11 24 24 24h3c13 0 24 -7 24 -24v-365c0 -80 42 -100 97 -100c79 0 151 40 210 83v382c0 17 11 24 24 24h2c13 0 24 -7 24 -24v-479c0 -17 -9 -24 -22 -24h-1c-18 0 -27 11 -27 49v30c-58 -44 -136 -82 -217 -82zM272 575
c-59 0 -97 37 -113 85c-6 18 0 32 14 32h1c11 0 16 -10 23 -24c19 -40 42 -54 75 -54s56 14 75 54c7 14 12 24 23 24h1c14 0 20 -14 14 -32c-16 -48 -54 -85 -113 -85z" />
    <glyph glyph-name="uhungarumlaut" unicode="&#x171;" horiz-adv-x="547" 
d="M207 -6c-80 0 -141 33 -141 136v370c0 17 11 24 24 24h3c13 0 24 -7 24 -24v-365c0 -80 42 -100 97 -100c79 0 151 40 210 83v382c0 17 11 24 24 24h2c13 0 24 -7 24 -24v-479c0 -17 -9 -24 -22 -24h-1c-18 0 -27 11 -27 49v30c-58 -44 -136 -82 -217 -82zM333 569h-1
c-12 0 -20 9 -13 26l40 91c5 11 12 22 26 22h1c20 0 27 -18 17 -36l-50 -87c-4 -8 -10 -16 -20 -16zM215 569h-1c-12 0 -20 9 -13 26l40 91c5 11 12 22 26 22h1c20 0 27 -18 17 -36l-50 -87c-4 -8 -10 -16 -20 -16z" />
    <glyph glyph-name="umacron" unicode="&#x16b;" horiz-adv-x="547" 
d="M207 -6c-80 0 -141 33 -141 136v370c0 17 11 24 24 24h3c13 0 24 -7 24 -24v-365c0 -80 42 -100 97 -100c79 0 151 40 210 83v382c0 17 11 24 24 24h2c13 0 24 -7 24 -24v-479c0 -17 -9 -24 -22 -24h-1c-18 0 -27 11 -27 49v30c-58 -44 -136 -82 -217 -82zM176 648h193
c12 0 17 -8 17 -17v-2c0 -10 -5 -18 -17 -18h-193c-13 0 -18 8 -18 18v2c0 9 5 17 18 17z" />
    <glyph glyph-name="uogonek" unicode="&#x173;" horiz-adv-x="547" 
d="M424 46v30c-58 -44 -136 -82 -217 -82c-80 0 -141 33 -141 136v370c0 17 11 24 24 24h3c13 0 24 -7 24 -24v-365c0 -80 42 -100 97 -100c79 0 151 40 210 83v382c0 17 11 24 24 24h2c13 0 24 -7 24 -24v-479c0 -9 -2 -16 -8 -22c-35 -35 -54 -54 -54 -84
c0 -26 14 -43 49 -43h21c10 0 15 -6 15 -15v-1c0 -11 -6 -15 -15 -17s-22 -3 -35 -3c-50 0 -82 27 -82 71c0 39 34 73 67 97c-5 7 -8 20 -8 42z" />
    <glyph glyph-name="uring" unicode="&#x16f;" horiz-adv-x="547" 
d="M207 -6c-80 0 -141 33 -141 136v370c0 17 11 24 24 24h3c13 0 24 -7 24 -24v-365c0 -80 42 -100 97 -100c79 0 151 40 210 83v382c0 17 11 24 24 24h2c13 0 24 -7 24 -24v-479c0 -17 -9 -24 -22 -24h-1c-18 0 -27 11 -27 49v30c-58 -44 -136 -82 -217 -82zM359 659
c0 -52 -42 -85 -87 -85c-46 0 -88 33 -88 85s42 86 88 86c45 0 87 -34 87 -86zM221 659c0 -31 22 -52 51 -52c28 0 51 21 51 52c0 32 -23 54 -51 54c-29 0 -51 -22 -51 -54z" />
    <glyph glyph-name="zacute" unicode="&#x17a;" horiz-adv-x="456" 
d="M70 521h346c14 0 19 -8 19 -19v-4c0 -13 -3 -21 -12 -32l-333 -427h324c13 0 18 -8 18 -18v-2c0 -11 -5 -19 -18 -19h-362c-14 0 -19 8 -19 19v5c0 16 6 22 15 34l330 424h-308c-14 0 -19 8 -19 19v2c0 10 5 18 19 18zM340 664l-74 -85c-6 -7 -12 -10 -17 -10h-1
c-15 0 -23 15 -13 29l60 88c10 15 18 22 30 22h1c20 0 32 -23 14 -44z" />
    <glyph glyph-name="zdotaccent" unicode="&#x17c;" horiz-adv-x="456" 
d="M70 521h346c14 0 19 -8 19 -19v-4c0 -13 -3 -21 -12 -32l-333 -427h324c13 0 18 -8 18 -18v-2c0 -11 -5 -19 -18 -19h-362c-14 0 -19 8 -19 19v5c0 16 6 22 15 34l330 424h-308c-14 0 -19 8 -19 19v2c0 10 5 18 19 18zM281 635c0 -19 -16 -34 -34 -34
c-19 0 -34 15 -34 34c0 18 15 34 34 34c18 0 34 -16 34 -34z" />
    <glyph glyph-name="oneeighth" unicode="&#x215b;" horiz-adv-x="686" 
d="M528 -3c-88 0 -139 43 -139 107c0 50 31 80 78 95v2c-37 10 -60 41 -60 82c0 56 48 93 121 93c72 0 122 -37 122 -93c0 -41 -27 -69 -59 -82v-2c46 -14 77 -45 77 -95c0 -64 -51 -107 -140 -107zM53 -3l470 719c7 11 13 17 22 17h1c16 0 26 -16 14 -35l-470 -719
c-7 -11 -13 -17 -22 -17h-1c-16 0 -26 16 -14 35zM528 30c65 0 96 33 96 76c0 44 -32 76 -96 76s-94 -32 -94 -76c0 -43 30 -76 94 -76zM152 678v-332c0 -16 -11 -23 -23 -23h-1c-12 0 -23 7 -23 23v304l-68 -38c-7 -4 -11 -5 -15 -5c-10 0 -16 9 -16 18v1c0 7 3 12 15 19
l84 47c9 5 16 8 24 8h1c14 0 22 -8 22 -22zM528 215c52 0 80 26 80 64s-28 64 -80 64s-80 -26 -80 -64s28 -64 80 -64z" />
    <glyph glyph-name="onethird" unicode="&#x2153;" horiz-adv-x="669" 
d="M47 -3l470 719c7 11 13 17 22 17h1c16 0 26 -16 14 -35l-470 -719c-7 -11 -13 -17 -22 -17h-1c-16 0 -26 16 -14 35zM651 106c0 -70 -52 -109 -134 -109c-41 0 -80 12 -102 29c-7 5 -13 12 -13 21v1c0 10 7 17 17 17c19 0 28 -32 96 -32c58 0 91 28 91 76
c0 51 -44 68 -88 68h-25c-11 0 -16 7 -16 16v2c0 8 5 15 16 15h22c49 0 83 23 83 67c0 41 -27 63 -78 63c-58 0 -71 -30 -89 -30c-10 0 -17 8 -17 17v1c0 9 5 15 12 20c24 16 59 28 99 28c70 0 117 -32 117 -95c0 -47 -27 -71 -65 -84v-2c45 -11 74 -37 74 -89zM152 678
v-332c0 -16 -11 -23 -23 -23h-1c-12 0 -23 7 -23 23v304l-68 -38c-7 -4 -11 -5 -15 -5c-10 0 -16 9 -16 18v1c0 7 3 12 15 19l84 47c9 5 16 8 24 8h1c14 0 22 -8 22 -22z" />
    <glyph glyph-name="threeeighths" unicode="&#x215c;" horiz-adv-x="699" 
d="M257 433c0 -70 -52 -109 -134 -109c-41 0 -80 12 -102 29c-7 5 -13 12 -13 21v1c0 10 7 17 17 17c19 0 28 -32 96 -32c58 0 91 28 91 76c0 51 -44 68 -88 68h-25c-11 0 -16 7 -16 16v2c0 8 5 15 16 15h22c49 0 83 23 83 67c0 41 -27 63 -78 63c-58 0 -71 -30 -89 -30
c-10 0 -17 8 -17 17v1c0 9 5 15 12 20c24 16 59 28 99 28c70 0 117 -32 117 -95c0 -47 -27 -71 -65 -84v-2c45 -11 74 -37 74 -89zM542 -3c-88 0 -139 43 -139 107c0 50 31 80 78 95v2c-37 10 -60 41 -60 82c0 56 48 93 121 93c72 0 122 -37 122 -93c0 -41 -27 -69 -59 -82
v-2c46 -14 77 -45 77 -95c0 -64 -51 -107 -140 -107zM542 30c65 0 96 33 96 76c0 44 -32 76 -96 76s-94 -32 -94 -76c0 -43 30 -76 94 -76zM542 215c52 0 80 26 80 64s-28 64 -80 64s-80 -26 -80 -64s28 -64 80 -64zM86 -3l470 719c7 11 13 17 22 17h1c16 0 26 -16 14 -35
l-470 -719c-7 -11 -13 -17 -22 -17h-1c-16 0 -26 16 -14 35z" />
    <glyph glyph-name="fiveeighths" unicode="&#x215d;" horiz-adv-x="709" 
d="M156 565c63 0 114 -37 114 -115c0 -75 -59 -126 -143 -126c-39 0 -74 10 -98 26c-10 7 -13 14 -13 22v1c0 11 7 18 17 18c20 0 27 -32 92 -32c60 0 99 36 99 91s-33 81 -79 81c-32 0 -54 -12 -71 -26c-7 -6 -13 -12 -23 -12c-11 0 -19 7 -19 20v159c0 15 9 28 28 28h173
c11 0 17 -8 17 -17v-2c0 -9 -6 -17 -17 -17h-165v-131h1c14 14 43 32 87 32zM552 -3c-88 0 -139 43 -139 107c0 50 31 80 78 95v2c-37 10 -60 41 -60 82c0 56 48 93 121 93c72 0 122 -37 122 -93c0 -41 -27 -69 -59 -82v-2c46 -14 77 -45 77 -95c0 -64 -51 -107 -140 -107z
M552 30c65 0 96 33 96 76c0 44 -32 76 -96 76s-94 -32 -94 -76c0 -43 30 -76 94 -76zM552 215c52 0 80 26 80 64s-28 64 -80 64s-80 -26 -80 -64s28 -64 80 -64zM93 -3l470 719c7 11 13 17 22 17h1c16 0 26 -16 14 -35l-470 -719c-7 -11 -13 -17 -22 -17h-1
c-16 0 -26 16 -14 35z" />
    <glyph glyph-name="twothirds" unicode="&#x2154;" horiz-adv-x="737" 
d="M718 106c0 -70 -52 -109 -134 -109c-41 0 -80 12 -102 29c-7 5 -13 12 -13 21v1c0 10 7 17 17 17c19 0 28 -32 96 -32c58 0 91 28 91 76c0 51 -44 68 -88 68h-25c-11 0 -16 7 -16 16v2c0 8 5 15 16 15h22c49 0 83 23 83 67c0 41 -27 63 -78 63c-58 0 -71 -30 -89 -30
c-10 0 -17 8 -17 17v1c0 9 5 15 12 20c24 16 59 28 99 28c70 0 117 -32 117 -95c0 -47 -27 -71 -65 -84v-2c45 -11 74 -37 74 -89zM129 -3l470 719c7 11 13 17 22 17h1c16 0 26 -16 14 -35l-470 -719c-7 -11 -13 -17 -22 -17h-1c-16 0 -26 16 -14 35zM75 365h176
c13 0 18 -8 18 -18v-2c0 -10 -5 -18 -18 -18h-216c-12 0 -18 8 -18 19v1c0 16 5 21 26 40l90 82c59 55 84 86 84 128c0 43 -26 70 -76 70c-63 0 -69 -38 -94 -38c-10 0 -18 8 -18 18v1c0 6 3 14 13 22c23 18 60 33 104 33c72 0 119 -40 119 -102c0 -55 -37 -96 -102 -155z
" />
    <glyph glyph-name="seveneighths" unicode="&#x215e;" horiz-adv-x="686" 
d="M94 323h-1c-17 0 -30 15 -19 37l155 301v2h-197c-11 0 -17 8 -17 18v2c0 9 6 17 18 17h213c14 0 23 -9 23 -23v-1c0 -15 -2 -20 -11 -39l-141 -295c-6 -12 -12 -19 -23 -19zM528 -3c-88 0 -139 43 -139 107c0 50 31 80 78 95v2c-37 10 -60 41 -60 82c0 56 48 93 121 93
c72 0 122 -37 122 -93c0 -41 -27 -69 -59 -82v-2c46 -14 77 -45 77 -95c0 -64 -51 -107 -140 -107zM528 30c65 0 96 33 96 76c0 44 -32 76 -96 76s-94 -32 -94 -76c0 -43 30 -76 94 -76zM528 215c52 0 80 26 80 64s-28 64 -80 64s-80 -26 -80 -64s28 -64 80 -64zM47 -3
l470 719c7 11 13 17 22 17h1c16 0 26 -16 14 -35l-470 -719c-7 -11 -13 -17 -22 -17h-1c-16 0 -26 16 -14 35z" />
    <glyph glyph-name="space_uni0326" 
d="M242 -84c0 -46 -22 -75 -63 -86c-12 -3 -19 3 -19 11v1c0 7 3 12 16 18s24 13 24 25s-9 15 -17 21c-9 6 -14 15 -14 29c0 18 15 31 35 31s38 -13 38 -50z" />
    <glyph glyph-name="zero.numerator" horiz-adv-x="372" 
d="M348 515c0 -129 -76 -191 -162 -191c-87 0 -162 62 -162 191c0 126 76 188 162 188s162 -62 162 -188zM72 513c0 -107 48 -153 114 -153c65 0 114 46 114 153c0 106 -49 154 -114 154c-66 0 -114 -48 -114 -154z" />
    <glyph glyph-name="one.numerator" horiz-adv-x="214" 
d="M152 678v-332c0 -16 -11 -23 -23 -23h-1c-12 0 -23 7 -23 23v304l-68 -38c-7 -4 -11 -5 -15 -5c-10 0 -16 9 -16 18v1c0 7 3 12 15 19l84 47c9 5 16 8 24 8h1c14 0 22 -8 22 -22z" />
    <glyph glyph-name="two.numerator" horiz-adv-x="285" 
d="M75 365h176c13 0 18 -8 18 -18v-2c0 -10 -5 -18 -18 -18h-216c-12 0 -18 8 -18 19v1c0 16 5 21 26 40l90 82c59 55 84 86 84 128c0 43 -26 70 -76 70c-63 0 -69 -38 -94 -38c-10 0 -18 8 -18 18v1c0 6 3 14 13 22c23 18 60 33 104 33c72 0 119 -40 119 -102
c0 -55 -37 -96 -102 -155z" />
    <glyph glyph-name="three.numerator" horiz-adv-x="276" 
d="M257 433c0 -70 -52 -109 -134 -109c-41 0 -80 12 -102 29c-7 5 -13 12 -13 21v1c0 10 7 17 17 17c19 0 28 -32 96 -32c58 0 91 28 91 76c0 51 -44 68 -88 68h-25c-11 0 -16 7 -16 16v2c0 8 5 15 16 15h22c49 0 83 23 83 67c0 41 -27 63 -78 63c-58 0 -71 -30 -89 -30
c-10 0 -17 8 -17 17v1c0 9 5 15 12 20c24 16 59 28 99 28c70 0 117 -32 117 -95c0 -47 -27 -71 -65 -84v-2c45 -11 74 -37 74 -89z" />
    <glyph glyph-name="four.numerator" horiz-adv-x="325" 
d="M208 640l-150 -185v-2h151v187h-1zM229 700h3c11 0 21 -8 21 -21v-226h41c11 0 16 -7 16 -16v-2c0 -9 -5 -16 -16 -16h-41v-75c0 -13 -10 -21 -21 -21h-2c-11 0 -21 8 -21 21v75h-174c-13 0 -19 8 -19 20v1c0 15 4 20 17 36l164 208c8 10 15 16 32 16z" />
    <glyph glyph-name="five.numerator" horiz-adv-x="293" 
d="M155 565c63 0 114 -37 114 -115c0 -75 -59 -126 -143 -126c-39 0 -74 10 -98 26c-10 7 -13 14 -13 22v1c0 11 7 18 17 18c20 0 27 -32 92 -32c60 0 99 36 99 91s-33 81 -79 81c-32 0 -54 -12 -71 -26c-7 -6 -13 -12 -23 -12c-11 0 -19 7 -19 20v159c0 15 9 28 28 28h173
c11 0 17 -8 17 -17v-2c0 -9 -6 -17 -17 -17h-165v-131h1c14 14 43 32 87 32z" />
    <glyph glyph-name="six.numerator" horiz-adv-x="326" 
d="M185 557c63 0 120 -32 120 -110c0 -77 -56 -123 -132 -123c-81 0 -149 53 -149 182c0 127 77 197 180 197c26 0 52 -6 68 -14c10 -5 15 -12 15 -20v-1c0 -12 -8 -19 -17 -19c-17 0 -27 17 -67 17c-78 0 -131 -51 -133 -152c27 26 72 43 115 43zM171 523
c-39 0 -78 -19 -100 -43c7 -91 50 -121 100 -121c53 0 88 30 88 86c0 59 -37 78 -88 78z" />
    <glyph glyph-name="seven.numerator" horiz-adv-x="285" 
d="M94 323h-1c-17 0 -30 15 -19 37l155 301v2h-197c-11 0 -17 8 -17 18v2c0 9 6 17 18 17h213c14 0 23 -9 23 -23v-1c0 -15 -2 -20 -11 -39l-141 -295c-6 -12 -12 -19 -23 -19z" />
    <glyph glyph-name="eight.numerator" horiz-adv-x="315" 
d="M157 324c-88 0 -139 43 -139 107c0 50 31 80 78 95v2c-37 10 -60 41 -60 82c0 56 48 93 121 93c72 0 122 -37 122 -93c0 -41 -27 -69 -59 -82v-2c46 -14 77 -45 77 -95c0 -64 -51 -107 -140 -107zM157 357c65 0 96 33 96 76c0 44 -32 76 -96 76s-94 -32 -94 -76
c0 -43 30 -76 94 -76zM157 542c52 0 80 26 80 64s-28 64 -80 64s-80 -26 -80 -64s28 -64 80 -64z" />
    <glyph glyph-name="nine.numerator" horiz-adv-x="325" 
d="M144 470c-63 0 -122 34 -122 113c0 76 55 120 132 120c81 0 148 -53 148 -180s-63 -199 -179 -199c-27 0 -53 5 -69 13c-10 5 -17 12 -17 22v1c0 9 6 19 17 19c16 0 28 -18 69 -18c86 0 130 51 134 150c-27 -26 -71 -41 -113 -41zM154 504c40 0 79 17 102 43
c-6 91 -51 123 -101 123c-53 0 -89 -29 -89 -86c0 -60 42 -80 88 -80z" />
    <glyph glyph-name="zero.denominator" horiz-adv-x="372" 
d="M348 188c0 -129 -76 -191 -162 -191c-87 0 -162 62 -162 191c0 126 76 188 162 188s162 -62 162 -188zM72 186c0 -107 48 -153 114 -153c65 0 114 46 114 153c0 106 -49 154 -114 154c-66 0 -114 -48 -114 -154z" />
    <glyph glyph-name="one.denominator" horiz-adv-x="214" 
d="M152 351v-332c0 -16 -11 -23 -23 -23h-1c-12 0 -23 7 -23 23v304l-68 -38c-7 -4 -11 -5 -15 -5c-10 0 -16 9 -16 18v1c0 7 3 12 15 19l84 47c9 5 16 8 24 8h1c14 0 22 -8 22 -22z" />
    <glyph glyph-name="two.denominator" horiz-adv-x="285" 
d="M75 38h176c13 0 18 -8 18 -18v-2c0 -10 -5 -18 -18 -18h-216c-12 0 -18 8 -18 19v1c0 16 5 21 26 40l90 82c59 55 84 86 84 128c0 43 -26 70 -76 70c-63 0 -69 -38 -94 -38c-10 0 -18 8 -18 18v1c0 6 3 14 13 22c23 18 60 33 104 33c72 0 119 -40 119 -102
c0 -55 -37 -96 -102 -155z" />
    <glyph glyph-name="three.denominator" horiz-adv-x="276" 
d="M257 106c0 -70 -52 -109 -134 -109c-41 0 -80 12 -102 29c-7 5 -13 12 -13 21v1c0 10 7 17 17 17c19 0 28 -32 96 -32c58 0 91 28 91 76c0 51 -44 68 -88 68h-25c-11 0 -16 7 -16 16v2c0 8 5 15 16 15h22c49 0 83 23 83 67c0 41 -27 63 -78 63c-58 0 -71 -30 -89 -30
c-10 0 -17 8 -17 17v1c0 9 5 15 12 20c24 16 59 28 99 28c70 0 117 -32 117 -95c0 -47 -27 -71 -65 -84v-2c45 -11 74 -37 74 -89z" />
    <glyph glyph-name="four.denominator" horiz-adv-x="325" 
d="M208 313l-150 -185v-2h151v187h-1zM229 373h3c11 0 21 -8 21 -21v-226h41c11 0 16 -7 16 -16v-2c0 -9 -5 -16 -16 -16h-41v-75c0 -13 -10 -21 -21 -21h-2c-11 0 -21 8 -21 21v75h-174c-13 0 -19 8 -19 20v1c0 15 4 20 17 36l164 208c8 10 15 16 32 16z" />
    <glyph glyph-name="five.denominator" horiz-adv-x="293" 
d="M155 238c63 0 114 -37 114 -115c0 -75 -59 -126 -143 -126c-39 0 -74 10 -98 26c-10 7 -13 14 -13 22v1c0 11 7 18 17 18c20 0 27 -32 92 -32c60 0 99 36 99 91s-33 81 -79 81c-32 0 -54 -12 -71 -26c-7 -6 -13 -12 -23 -12c-11 0 -19 7 -19 20v159c0 15 9 28 28 28h173
c11 0 17 -8 17 -17v-2c0 -9 -6 -17 -17 -17h-165v-131h1c14 14 43 32 87 32z" />
    <glyph glyph-name="six.denominator" horiz-adv-x="326" 
d="M185 230c63 0 120 -32 120 -110c0 -77 -56 -123 -132 -123c-81 0 -149 53 -149 182c0 127 77 197 180 197c26 0 52 -6 68 -14c10 -5 15 -12 15 -20v-1c0 -12 -8 -19 -17 -19c-17 0 -27 17 -67 17c-78 0 -131 -51 -133 -152c27 26 72 43 115 43zM171 196
c-39 0 -78 -19 -100 -43c7 -91 50 -121 100 -121c53 0 88 30 88 86c0 59 -37 78 -88 78z" />
    <glyph glyph-name="seven.denominator" horiz-adv-x="285" 
d="M94 -4h-1c-17 0 -30 15 -19 37l155 301v2h-197c-11 0 -17 8 -17 18v2c0 9 6 17 18 17h213c14 0 23 -9 23 -23v-1c0 -15 -2 -20 -11 -39l-141 -295c-6 -12 -12 -19 -23 -19z" />
    <glyph glyph-name="eight.denominator" horiz-adv-x="315" 
d="M157 -3c-88 0 -139 43 -139 107c0 50 31 80 78 95v2c-37 10 -60 41 -60 82c0 56 48 93 121 93c72 0 122 -37 122 -93c0 -41 -27 -69 -59 -82v-2c46 -14 77 -45 77 -95c0 -64 -51 -107 -140 -107zM157 30c65 0 96 33 96 76c0 44 -32 76 -96 76s-94 -32 -94 -76
c0 -43 30 -76 94 -76zM157 215c52 0 80 26 80 64s-28 64 -80 64s-80 -26 -80 -64s28 -64 80 -64z" />
    <glyph glyph-name="nine.denominator" horiz-adv-x="325" 
d="M144 143c-63 0 -122 34 -122 113c0 76 55 120 132 120c81 0 148 -53 148 -180s-63 -199 -179 -199c-27 0 -53 5 -69 13c-10 5 -17 12 -17 22v1c0 9 6 19 17 19c16 0 28 -18 69 -18c86 0 130 51 134 150c-27 -26 -71 -41 -113 -41zM154 177c40 0 79 17 102 43
c-6 91 -51 123 -101 123c-53 0 -89 -29 -89 -86c0 -60 42 -80 88 -80z" />
    <glyph glyph-name="one.superior" unicode="&#xb9;" horiz-adv-x="214" 
d="M153 678v-332c0 -16 -11 -23 -23 -23h-1c-12 0 -23 7 -23 23v304l-68 -38c-7 -4 -11 -5 -15 -5c-10 0 -16 9 -16 18v1c0 7 3 12 15 19l84 47c9 5 16 8 24 8h1c14 0 22 -8 22 -22z" />
    <glyph glyph-name="two.superior" unicode="&#xb2;" horiz-adv-x="285" 
d="M75 365h176c13 0 18 -8 18 -18v-2c0 -10 -5 -18 -18 -18h-216c-12 0 -18 8 -18 19v1c0 16 5 21 26 40l90 82c59 55 84 86 84 128c0 43 -26 70 -76 70c-63 0 -69 -38 -94 -38c-10 0 -18 8 -18 18v1c0 6 3 14 13 22c23 18 60 33 104 33c72 0 119 -40 119 -102
c0 -55 -37 -96 -102 -155z" />
    <glyph glyph-name="three.superior" unicode="&#xb3;" horiz-adv-x="276" 
d="M257 433c0 -70 -52 -109 -134 -109c-41 0 -80 12 -102 29c-7 5 -13 12 -13 21v1c0 10 7 17 17 17c19 0 28 -32 96 -32c58 0 91 28 91 76c0 51 -44 68 -88 68h-25c-11 0 -16 7 -16 16v2c0 8 5 15 16 15h22c49 0 83 23 83 67c0 41 -27 63 -78 63c-58 0 -71 -30 -89 -30
c-10 0 -17 8 -17 17v1c0 9 5 15 12 20c24 16 59 28 99 28c70 0 117 -32 117 -95c0 -47 -27 -71 -65 -84v-2c45 -11 74 -37 74 -89z" />
    <glyph glyph-name="Q.alt" horiz-adv-x="714" 
d="M96 349c0 -205 113 -311 260 -311c145 0 258 106 258 311s-113 313 -258 313c-147 0 -260 -108 -260 -313zM691 -80c6 -8 10 -17 10 -26v-1c0 -13 -12 -23 -24 -23c-20 0 -27 15 -37 28c-52 66 -143 89 -289 97c-62 3 -116 18 -162 47c-98 63 -148 172 -148 308
c0 230 143 354 315 354c170 0 313 -124 313 -354c0 -191 -95 -298 -208 -328v-1c131 -11 196 -56 230 -101z" />
    <glyph glyph-name="Q.alt1" horiz-adv-x="714" 
d="M669 350c0 -108 -32 -192 -83 -252l81 -65c10 -8 10 -21 3 -29c-6 -9 -19 -11 -30 -2l-82 67c-55 -49 -126 -73 -202 -73c-172 0 -315 124 -315 354c0 229 143 354 315 354c170 0 313 -125 313 -354zM445 214l104 -85c40 52 65 125 65 220c0 205 -113 313 -258 313
c-147 0 -260 -108 -260 -313s113 -311 260 -311c63 0 121 20 165 60l-103 85c-10 8 -10 21 -3 29c6 9 19 11 30 2z" />
    <glyph glyph-name="f.short" horiz-adv-x="260" 
d="M80 483h-52c-14 0 -20 8 -20 18v2c0 10 6 18 20 18h52v52c0 88 49 130 121 130c12 0 26 -1 36 -3c16 -3 22 -10 22 -19v-1c0 -13 -7 -19 -22 -19c-7 0 -19 1 -27 1c-53 0 -80 -25 -80 -92v-49h109c14 0 20 -8 20 -18v-2c0 -10 -6 -18 -20 -18h-109v-462
c0 -17 -11 -24 -24 -24h-2c-13 0 -24 7 -24 24v462z" />
    <glyph glyph-name="f_f.short" horiz-adv-x="516" 
d="M336 521v52c0 88 49 130 121 130c12 0 26 -1 36 -3c16 -3 22 -10 22 -19v-1c0 -13 -7 -19 -22 -19c-7 0 -19 1 -27 1c-53 0 -80 -25 -80 -92v-49h109c14 0 20 -8 20 -18v-2c0 -10 -6 -18 -20 -18h-109v-462c0 -17 -11 -24 -24 -24h-2c-13 0 -24 7 -24 24v462h-206v-462
c0 -17 -11 -24 -24 -24h-2c-13 0 -24 7 -24 24v462h-52c-14 0 -20 8 -20 18v2c0 10 6 18 20 18h52v46c0 91 52 130 122 130c19 0 32 -1 45 -4c16 -4 21 -11 21 -20v-1c0 -12 -8 -19 -23 -18c-8 0 -22 2 -31 2c-54 0 -84 -20 -84 -92v-43h206z" />
    <glyph glyph-name="less.cap" horiz-adv-x="444" 
d="M360 9l-315 311c-10 10 -15 19 -15 29v2c0 10 5 19 15 29l315 311c9 9 16 14 25 14h1c18 0 29 -23 12 -40l-315 -313v-3l315 -314c17 -17 6 -40 -12 -40h-1c-9 0 -16 5 -25 14z" />
    <glyph glyph-name="greater.cap" horiz-adv-x="444" 
d="M400 320l-315 -311c-9 -9 -16 -14 -25 -14h-1c-18 0 -29 23 -12 40l315 314v3l-315 313c-17 17 -6 40 12 40h1c9 0 16 -5 25 -14l315 -311c10 -10 15 -19 15 -29v-2c0 -10 -5 -19 -15 -29z" />
    <glyph glyph-name="questiondown.cap" horiz-adv-x="428" 
d="M221 666c0 22 18 38 39 38c22 0 38 -16 38 -38c0 -21 -16 -39 -38 -39c-21 0 -39 18 -39 39zM216 38c116 0 125 58 158 58c12 0 20 -10 20 -23v-1c0 -15 -12 -26 -27 -36c-35 -22 -81 -40 -152 -40c-112 0 -182 53 -182 159c0 93 65 141 131 206c31 30 57 55 70 90
c9 23 10 53 10 87c0 15 11 21 20 21h2c11 0 20 -6 21 -21c7 -96 -20 -135 -89 -206c-48 -48 -111 -97 -111 -179c0 -73 45 -115 129 -115z" />
    <glyph glyph-name="exclamdown.cap" horiz-adv-x="225" 
d="M91 538c1 15 10 21 20 21h2c10 0 19 -6 20 -21c0 0 6 -348 6 -514c0 -17 -11 -27 -26 -27h-2c-15 0 -26 10 -26 27c0 166 6 514 6 514zM74 666c0 22 17 38 39 38s38 -16 38 -38c0 -21 -16 -39 -38 -39s-39 18 -39 39z" />
    <glyph glyph-name="bullet.cap" horiz-adv-x="296" 
d="M265 328c0 -72 -52 -114 -117 -114s-117 42 -117 114c0 73 52 117 117 117s117 -44 117 -117z" />
    <glyph glyph-name="hyphen.cap" horiz-adv-x="238" 
d="M197 313h-154c-16 0 -23 10 -23 23v2c0 12 7 22 23 22h154c15 0 22 -10 22 -22v-2c0 -13 -7 -23 -22 -23z" />
    <glyph glyph-name="endash.cap" horiz-adv-x="388" 
d="M345 314h-302c-14 0 -21 10 -21 21v2c0 11 7 21 21 21h302c14 0 21 -10 21 -21v-2c0 -11 -7 -21 -21 -21z" />
    <glyph glyph-name="emdash.cap" horiz-adv-x="653" 
d="M610 314h-567c-14 0 -21 10 -21 21v2c0 11 7 21 21 21h567c14 0 21 -10 21 -21v-2c0 -11 -7 -21 -21 -21z" />
    <glyph glyph-name="dagger.cap" horiz-adv-x="417" 
d="M193 468c0 0 -82 -11 -139 -11c-21 0 -29 10 -29 24v1c0 14 8 24 29 24c57 0 139 -10 139 -10s-10 102 -10 179c0 20 11 29 25 29h2c14 0 25 -9 25 -29c0 -77 -9 -179 -9 -179s81 10 138 10c21 0 29 -10 29 -24v-1c0 -14 -8 -24 -29 -24c-57 0 -138 10 -138 10
s10 -73 10 -128c0 -109 -7 -322 -7 -322c0 -14 -9 -21 -19 -21h-2c-10 0 -19 7 -19 21c0 0 -7 214 -7 321c0 56 11 130 11 130z" />
    <glyph glyph-name="daggerdbl.cap" horiz-adv-x="417" 
d="M236 351c0 -56 -10 -126 -10 -126s81 10 138 10c21 0 29 -10 29 -24v-1c0 -14 -8 -24 -29 -24c-57 0 -138 10 -138 10s9 -100 9 -171c0 -20 -11 -29 -25 -29h-2c-14 0 -25 9 -25 29c0 71 10 171 10 171s-82 -10 -139 -10c-21 0 -29 10 -29 24v1c0 14 8 24 29 24
c57 0 139 -11 139 -11s-11 71 -11 127s11 125 11 125s-82 -11 -139 -11c-21 0 -29 10 -29 24v1c0 14 8 24 29 24c57 0 139 -10 139 -10s-10 100 -10 171c0 20 11 29 25 29h2c14 0 25 -9 25 -29c0 -71 -9 -171 -9 -171s81 10 138 10c21 0 29 -10 29 -24v-1
c0 -14 -8 -24 -29 -24c-57 0 -138 10 -138 10s10 -69 10 -124z" />
    <glyph glyph-name="quoteleft.cap" horiz-adv-x="505" 
d="M472 182c0 -98 -71 -186 -200 -186c-132 0 -239 89 -239 279c0 238 154 399 413 423c11 1 24 -6 24 -20v-1c0 -15 -13 -21 -24 -22c-201 -28 -303 -135 -303 -231c0 -94 106 -69 183 -80c81 -7 146 -61 146 -162z" />
    <glyph glyph-name="quoteright.cap" horiz-adv-x="506" 
d="M33 518c0 98 71 186 200 186c132 0 239 -89 239 -279c0 -238 -154 -399 -413 -423c-11 -1 -24 6 -24 20v1c0 15 13 21 24 22c201 28 303 135 303 231c0 94 -106 69 -183 80c-81 7 -146 61 -146 162z" />
    <glyph glyph-name="quotedblleft.cap" horiz-adv-x="987" 
d="M472 182c0 -98 -71 -186 -200 -186c-132 0 -239 89 -239 279c0 238 154 399 413 423c11 1 24 -6 24 -20v-1c0 -15 -13 -21 -24 -22c-201 -28 -303 -135 -303 -231c0 -94 106 -69 183 -80c81 -7 146 -61 146 -162zM954 182c0 -98 -71 -186 -200 -186
c-132 0 -239 89 -239 279c0 238 154 399 413 423c11 1 24 -6 24 -20v-1c0 -15 -13 -21 -24 -22c-201 -28 -303 -135 -303 -231c0 -94 106 -69 183 -80c81 -7 146 -61 146 -162z" />
    <glyph glyph-name="quotedblright.cap" horiz-adv-x="988" 
d="M33 518c0 98 71 186 200 186c132 0 239 -89 239 -279c0 -238 -154 -399 -413 -423c-11 -1 -24 6 -24 20v1c0 15 13 21 24 22c201 28 303 135 303 231c0 94 -106 69 -183 80c-81 7 -146 61 -146 162zM515 518c0 98 71 186 200 186c132 0 239 -89 239 -279
c0 -238 -154 -399 -413 -423c-11 -1 -24 6 -24 20v1c0 15 13 21 24 22c201 28 303 135 303 231c0 94 -106 69 -183 80c-81 7 -146 61 -146 162z" />
    <glyph glyph-name="guillemotleft.cap" horiz-adv-x="611" 
d="M315 9l-272 312c-7 7 -11 18 -11 28v2c0 10 4 21 11 28l272 312c11 11 17 14 25 14h1c18 0 29 -22 12 -41l-271 -312v-3l271 -313c17 -19 6 -41 -12 -41h-1c-8 0 -14 3 -25 14zM527 9l-272 312c-7 7 -11 18 -11 28v2c0 10 4 21 11 28l272 312c11 11 17 14 25 14h1
c18 0 29 -22 12 -41l-271 -312v-3l271 -313c17 -19 6 -41 -12 -41h-1c-8 0 -14 3 -25 14z" />
    <glyph glyph-name="guillemotright.cap" horiz-adv-x="611" 
d="M569 321l-272 -312c-11 -11 -17 -14 -25 -14h-1c-18 0 -29 22 -12 41l271 313v3l-271 312c-17 19 -6 41 12 41h1c8 0 14 -3 25 -14l272 -312c7 -7 11 -18 11 -28v-2c0 -10 -4 -21 -11 -28zM357 321l-272 -312c-11 -11 -17 -14 -25 -14h-1c-18 0 -29 22 -12 41l271 313v3
l-271 312c-17 19 -6 41 12 41h1c8 0 14 -3 25 -14l272 -312c7 -7 11 -18 11 -28v-2c0 -10 -4 -21 -11 -28z" />
    <glyph glyph-name="at.cap" horiz-adv-x="841" 
d="M281 286c0 -58 32 -82 74 -82c59 0 102 38 145 87l42 181c-19 14 -41 25 -80 25c-103 0 -181 -105 -181 -211zM599 513l-54 -234c-10 -44 0 -75 49 -75c74 0 163 53 163 207c0 170 -129 270 -311 270c-171 0 -358 -122 -358 -353c0 -218 144 -311 328 -311
c186 0 225 73 255 73c11 0 18 -8 18 -17v-1c0 -11 -6 -19 -17 -27c-58 -42 -157 -66 -256 -66c-196 0 -374 106 -374 349c0 251 216 390 404 390c195 0 353 -111 353 -307c0 -173 -114 -244 -209 -244c-71 0 -94 37 -94 77c-33 -38 -82 -79 -153 -79c-59 0 -109 37 -109 120
c0 120 98 251 225 251c50 0 77 -15 96 -33c7 22 12 36 28 36h1c12 0 19 -8 15 -26z" />
    <glyph glyph-name="paragraph.cap" horiz-adv-x="546" 
d="M307 -4h-2c-12 0 -22 7 -22 22v320h-16c-132 0 -234 39 -234 181c0 147 104 181 240 181h163c14 0 26 -9 26 -26v-656c0 -15 -10 -22 -22 -22h-2c-12 0 -22 7 -22 22v638h-87v-638c0 -15 -10 -22 -22 -22z" />
    <glyph glyph-name="grave.cap" 
d="M210 728h-1c-8 0 -14 6 -20 13l-54 65c-16 20 -5 42 16 42h1c9 0 16 -5 23 -16l44 -70c13 -20 5 -34 -9 -34z" />
    <glyph glyph-name="dieresis.cap" 
d="M168 773c0 -19 -15 -34 -34 -34s-34 15 -34 34c0 18 15 34 34 34s34 -16 34 -34zM311 773c0 -19 -15 -34 -34 -34c-18 0 -33 15 -33 34c0 18 15 34 33 34c19 0 34 -16 34 -34z" />
    <glyph glyph-name="macron.cap" 
d="M106 795h201c12 0 18 -8 18 -18v-2c0 -11 -6 -19 -18 -19h-201c-13 0 -19 8 -19 19v2c0 10 6 18 19 18z" />
    <glyph glyph-name="acute.cap" 
d="M203 728h-1c-14 0 -22 14 -9 34l44 70c7 11 14 16 23 16h1c21 0 32 -22 16 -42l-54 -65c-6 -7 -12 -13 -20 -13z" />
    <glyph glyph-name="circumflex.cap" 
d="M238 827l63 -67c15 -15 5 -31 -8 -31h-1c-6 0 -12 4 -18 9l-69 63l-68 -63c-6 -5 -12 -9 -18 -9h-1c-13 0 -23 16 -8 31l62 67c8 9 17 16 31 16h4c14 0 23 -7 31 -16z" />
    <glyph glyph-name="caron.cap" 
d="M301 812l-63 -67c-8 -9 -17 -16 -31 -16h-4c-14 0 -23 7 -31 16l-62 67c-15 15 -5 31 8 31h1c6 0 12 -4 18 -9l68 -63l69 63c6 5 12 9 18 9h1c13 0 23 -16 8 -31z" />
    <glyph glyph-name="breve.cap" 
d="M206 731c-59 0 -97 33 -113 77c-6 18 0 31 14 31h1c11 0 15 -9 23 -23c18 -33 45 -46 75 -46s57 13 75 46c8 14 12 23 23 23h1c14 0 20 -13 14 -31c-16 -44 -54 -77 -113 -77z" />
    <glyph glyph-name="dotaccent.cap" 
d="M241 774c0 -18 -16 -34 -34 -34c-19 0 -34 16 -34 34c0 19 15 34 34 34c18 0 34 -15 34 -34z" />
    <glyph glyph-name="ring.cap" 
d="M293 820c0 -53 -42 -85 -87 -85c-46 0 -88 32 -88 85c0 52 42 86 88 86c45 0 87 -34 87 -86zM155 820c0 -32 22 -52 51 -52c28 0 51 20 51 52c0 31 -23 53 -51 53c-29 0 -51 -22 -51 -53z" />
    <glyph glyph-name="tilde.cap" 
d="M259 741c-45 0 -78 40 -106 40c-18 0 -31 -10 -38 -27c-4 -9 -8 -19 -20 -19h-1c-15 0 -19 15 -15 31c8 32 35 56 71 56c44 0 77 -39 106 -39c18 0 30 10 37 27c4 9 8 19 20 19h1c15 0 19 -15 15 -31c-8 -32 -34 -57 -70 -57z" />
    <glyph glyph-name="hungarumlaut.cap" 
d="M153 728h-1c-13 0 -20 12 -14 26l31 71c7 17 15 23 25 23h1c18 0 30 -18 17 -39l-42 -69c-4 -7 -10 -12 -17 -12zM271 729h-1c-13 0 -20 12 -14 26l31 71c7 17 15 23 25 23h1c18 0 30 -18 17 -39l-42 -69c-4 -7 -10 -12 -17 -12z" />
    <glyph glyph-name="uni2009" unicode="&#x2009;" horiz-adv-x="110" 
 />
    </font>
</defs>
</svg>
