<?xml version="1.0" standalone="no"?>
<!DOCTYPE svg PUBLIC "-//W3C//DTD SVG 1.1//EN" "http://www.w3.org/Graphics/SVG/1.1/DTD/svg11.dtd" >
<svg>
<metadata>
Created by FontForge 20110222 at Wed Mar 14 11:39:18 2012
 By Stefan Warting
(c)2009 Christian Schwartz, under exclusive license to Schwartzco Inc./Commercial Type. All rights reserved.
</metadata>
<defs>
<font id="StagSansRound-Bold" horiz-adv-x="400" >
  <font-face 
    font-family="Stag Sans Round Bold"
    font-weight="700"
    font-stretch="normal"
    units-per-em="1000"
    panose-1="2 11 8 3 4 0 0 2 0 4"
    ascent="838"
    descent="-162"
    x-height="528"
    cap-height="700"
    bbox="-153.898 -242.487 1325 931"
    underline-thickness="50"
    underline-position="-50"
    stemh="161"
    stemv="222"
    unicode-range="U+0020-FB02"
  />
<missing-glyph horiz-adv-x="242" 
 />
    <glyph glyph-name="f_f" unicode="ff" horiz-adv-x="722" 
d="M292 540v-12h110v23c0 119 71 162 194 162c25 0 45 -2 64 -6c32 -7 50 -22 50 -58v-16c0 -29 -15 -46 -48 -53c-29 -6 -38 -19 -38 -36v-14h24c33 -1 58 -19 58 -63v-14c0 -44 -25 -61 -58 -61h-24v-315c0 -52 -33 -77 -76 -77h-69c-44 0 -77 25 -77 77v315h-110v-315
c0 -52 -33 -77 -76 -77h-69c-44 0 -77 25 -77 77v315h-8c-32 0 -52 17 -52 61v14c0 44 20 61 52 61h8v18c0 119 71 163 194 163c23 0 41 -1 60 -5c32 -7 49 -23 49 -59v-16c0 -30 -15 -46 -48 -53c-26 -5 -33 -18 -33 -36z" />
    <glyph glyph-name=".notdef" horiz-adv-x="242" 
 />
    <glyph glyph-name="Eth" unicode="&#xd0;" horiz-adv-x="733" 
d="M327 0h-194c-46 0 -80 27 -80 80v198c-42 4 -61 34 -61 71v4c0 36 19 65 61 69v198c0 53 34 80 80 80h201c253 0 376 -118 376 -345c0 -234 -121 -355 -383 -355zM322 278h-32v-124h31c99 0 148 48 148 192s-46 195 -148 195h-31v-118h32c49 0 70 -31 70 -70v-4
c0 -40 -21 -71 -70 -71z" />
    <glyph glyph-name="eth" unicode="&#xf0;" horiz-adv-x="622" 
d="M127 640c0 41 25 63 93 59c36 -3 71 -8 103 -17l22 15c15 11 27 17 40 17h2c40 -3 58 -44 34 -73c113 -65 185 -183 185 -346c0 -210 -123 -304 -300 -304c-170 0 -290 95 -290 260c0 166 116 247 215 247c71 0 96 -16 123 -43c-13 37 -40 63 -75 83l-20 -14
c-15 -11 -27 -17 -40 -17h-1c-39 0 -61 39 -38 69c-38 12 -53 30 -53 60v4zM240 247c0 -88 28 -121 73 -121c44 0 68 33 68 121c0 90 -24 124 -68 124c-45 0 -73 -34 -73 -124z" />
    <glyph glyph-name="Lslash" unicode="&#x141;" horiz-adv-x="582" 
d="M481 0h-346c-46 0 -80 27 -80 80v133c-33 -4 -57 14 -67 46c-14 38 0 73 40 87l27 9v266c0 51 32 79 79 79h80c47 0 79 -28 79 -79v-182l78 28c44 15 76 -3 89 -39c14 -39 -1 -74 -43 -88l-124 -44v-137h188c48 0 73 -31 73 -71v-17c0 -40 -25 -71 -73 -71z" />
    <glyph glyph-name="lslash" unicode="&#x142;" horiz-adv-x="324" 
d="M274 583v-88c28 6 51 -6 64 -32c15 -32 7 -64 -28 -82l-36 -18v-286c0 -52 -33 -77 -77 -77h-69c-43 0 -76 25 -76 77v184c-24 -2 -43 11 -54 35c-16 31 -7 63 27 80l27 13v233c0 52 30 78 75 78h58c65 0 89 -31 89 -117z" />
    <glyph glyph-name="Scaron" unicode="&#x160;" horiz-adv-x="584" 
d="M562 221c0 -145 -104 -232 -303 -232c-68 0 -128 10 -171 27c-46 18 -66 47 -66 87v25c0 42 25 68 64 68c47 0 68 -45 164 -45c55 0 88 15 88 47c0 40 -38 45 -113 62c-127 28 -205 76 -205 225c0 152 117 226 284 226c63 0 117 -8 160 -22c42 -14 67 -39 67 -85v-26
c0 -40 -23 -63 -59 -63c-43 0 -77 35 -163 35c-54 0 -79 -14 -79 -44c0 -33 31 -42 99 -56c179 -36 233 -96 233 -229zM284 845l8 -8l8 8c29 29 52 42 79 42h2c54 0 79 -58 35 -106l-9 -10c-27 -30 -67 -47 -108 -47h-14c-41 0 -81 17 -108 47l-9 10c-44 48 -19 106 35 106
h2c27 0 50 -13 79 -42z" />
    <glyph glyph-name="scaron" unicode="&#x161;" horiz-adv-x="491" 
d="M140 599l-9 9c-50 50 -22 112 31 112h3c26 0 51 -14 78 -42l8 -8l8 8c27 28 52 42 78 42h3c53 0 81 -62 31 -112l-9 -9c-32 -32 -68 -45 -107 -45h-8c-39 0 -75 13 -107 45zM477 181c0 -121 -84 -189 -256 -189c-59 0 -103 6 -137 18c-42 14 -63 38 -63 76v17
c0 35 20 60 55 60s62 -33 137 -33c36 0 65 5 65 25c0 22 -18 24 -89 35c-108 15 -173 49 -173 168c0 125 103 179 239 179c57 0 100 -4 135 -15c42 -13 63 -32 63 -67v-27c0 -33 -21 -52 -50 -52c-39 0 -68 27 -137 27c-43 0 -58 -8 -58 -25c0 -18 18 -23 81 -31
c120 -14 188 -46 188 -166z" />
    <glyph glyph-name="Yacute" unicode="&#xdd;" horiz-adv-x="670" 
d="M541 700h46c58 0 79 -51 55 -97l-185 -350v-174c0 -54 -35 -79 -78 -79h-81c-44 0 -79 25 -79 79v168l-188 352c-26 48 1 101 60 101h67c50 0 77 -23 101 -70l91 -176h2l91 180c22 45 49 66 98 66zM281 797l8 26c12 41 38 60 81 60h75c59 0 76 -52 34 -90l-27 -24
c-35 -31 -69 -44 -104 -44h-10c-43 0 -70 28 -57 72z" />
    <glyph glyph-name="yacute" unicode="&#xfd;" horiz-adv-x="595" 
d="M566 429l-206 -524c-20 -50 -53 -70 -95 -70h-83c-43 0 -65 36 -41 86l50 105l-162 403c-21 53 2 99 57 99h69c47 0 72 -21 89 -72l67 -194h3l64 196c16 50 40 70 85 70h49c54 0 75 -44 54 -99zM250 626l6 27c10 42 38 62 81 62h77c53 0 76 -52 33 -91l-27 -25
c-36 -32 -65 -45 -103 -45h-7c-45 0 -69 29 -60 72z" />
    <glyph glyph-name="Thorn" unicode="&#xde;" horiz-adv-x="653" 
d="M210 0h-81c-44 0 -79 25 -79 79v542c0 51 32 79 79 79h81c46 0 78 -28 78 -79v-35h52c206 0 295 -75 295 -231c0 -154 -101 -227 -306 -227h-41v-49c0 -54 -35 -79 -78 -79zM325 435h-40v-168h40c59 0 79 34 79 87c0 54 -19 81 -79 81z" />
    <glyph glyph-name="thorn" unicode="&#xfe;" horiz-adv-x="630" 
d="M175 700c65 0 89 -31 89 -117v-110c37 39 86 65 155 65c98 0 194 -65 194 -259c0 -197 -86 -285 -216 -285c-54 0 -99 14 -133 42v-121c0 -52 -34 -77 -77 -77h-69c-44 0 -77 25 -77 77v707c0 52 31 78 76 78h58zM312 377c-14 0 -32 -4 -48 -9v-223c12 -7 26 -11 46 -11
c44 0 78 24 78 128c0 94 -33 115 -76 115z" />
    <glyph glyph-name="Zcaron" unicode="&#x17d;" horiz-adv-x="601" 
d="M304 846l8 -8l8 8c29 29 52 42 79 42h2c54 0 79 -58 35 -106l-9 -10c-27 -30 -67 -47 -108 -47h-14c-41 0 -81 17 -108 47l-9 10c-44 48 -19 106 35 106h2c27 0 50 -13 79 -42zM80 229l232 306v4h-195c-48 0 -71 31 -71 72v18c0 40 23 71 71 71h379c49 0 74 -31 74 -73
v-26c0 -56 -9 -84 -48 -134l-234 -303v-4h213c48 0 71 -31 71 -71v-18c0 -40 -23 -71 -71 -71h-397c-40 0 -74 25 -74 73v20c0 55 9 84 50 136z" />
    <glyph glyph-name="zcaron" unicode="&#x17e;" horiz-adv-x="528" 
d="M158 599l-9 9c-50 50 -22 112 31 112h3c26 0 51 -14 78 -42l8 -8l8 8c27 28 52 42 78 42h3c53 0 81 -62 31 -112l-9 -9c-32 -32 -68 -45 -107 -45h-8c-39 0 -75 13 -107 45zM70 197l170 181h-142c-47 0 -70 31 -70 70v10c0 40 23 70 70 70h334c43 0 74 -23 74 -71v-13
c0 -48 -15 -77 -51 -115l-171 -182h151c47 0 70 -31 70 -70v-7c0 -40 -23 -70 -70 -70h-342c-43 0 -74 24 -74 73v8c0 48 14 78 51 116z" />
    <glyph glyph-name="onehalf" unicode="&#xbd;" horiz-adv-x="870" 
d="M255 637v-267c0 -50 -32 -71 -72 -71h-23c-39 0 -71 21 -71 71v182l-8 -6c-13 -9 -20 -13 -32 -13c-18 0 -31 12 -31 38v21c0 48 18 70 63 87c35 13 71 21 100 21h8c41 0 66 -20 66 -63zM146 53l408 631c23 37 40 49 63 49h3c40 0 68 -42 36 -92l-408 -631
c-23 -37 -40 -49 -63 -49h-3c-40 0 -68 42 -36 92zM709 115h76c41 0 57 -25 57 -56v-2c0 -31 -16 -57 -57 -57h-205c-36 0 -57 23 -57 60v2c0 38 7 57 49 92l63 52c29 25 42 39 42 56c0 14 -10 24 -31 24c-41 0 -49 -19 -80 -19c-22 0 -38 15 -38 44v14c0 35 13 57 49 69
c28 9 62 13 98 13c114 0 171 -42 171 -123c0 -60 -36 -93 -90 -134z" />
    <glyph glyph-name="onequarter" unicode="&#xbc;" horiz-adv-x="838" 
d="M255 637v-267c0 -50 -32 -71 -72 -71h-23c-39 0 -71 21 -71 71v182l-8 -6c-13 -9 -20 -13 -32 -13c-18 0 -31 12 -31 38v21c0 48 18 70 63 87c35 13 71 21 100 21h8c41 0 66 -20 66 -63zM149 53l408 631c23 37 40 49 63 49h3c40 0 68 -42 36 -92l-408 -631
c-23 -37 -40 -49 -63 -49h-3c-40 0 -68 42 -36 92zM780 79v-15c0 -44 -28 -64 -69 -64h-25c-41 0 -69 20 -69 64v15h-116c-34 0 -55 19 -55 57v3c0 34 10 55 40 92l93 114c34 43 61 58 111 58h21c42 0 69 -21 69 -71v-159h4c29 0 40 -16 40 -39v-16c0 -23 -11 -39 -40 -39
h-4zM624 260l-69 -87v-2h71v89h-2z" />
    <glyph glyph-name="threequarters" unicode="&#xbe;" horiz-adv-x="866" 
d="M185 428c0 17 -12 23 -37 26l-9 1c-31 3 -42 18 -42 43v4c0 25 11 39 42 43l10 1c23 2 35 9 35 25c0 17 -13 26 -40 26c-32 0 -49 -17 -77 -17c-23 0 -38 15 -38 42v11c0 28 10 46 42 58c29 11 67 16 105 16c93 0 159 -33 159 -107c0 -55 -26 -81 -81 -92v-4
c63 -7 90 -40 90 -93c0 -76 -64 -119 -185 -119c-35 0 -66 4 -91 13c-34 12 -48 31 -48 62v7c0 28 13 43 39 43c25 0 36 -18 80 -18c29 0 46 11 46 29zM191 53l408 631c23 37 40 49 63 49h3c40 0 68 -42 36 -92l-408 -631c-23 -37 -40 -49 -63 -49h-3c-40 0 -68 42 -36 92z
M808 79v-15c0 -44 -28 -64 -69 -64h-25c-41 0 -69 20 -69 64v15h-116c-34 0 -55 19 -55 57v3c0 34 10 55 40 92l93 114c34 43 61 58 111 58h21c42 0 69 -21 69 -71v-159h4c29 0 40 -16 40 -39v-16c0 -23 -11 -39 -40 -39h-4zM652 260l-69 -87v-2h71v89h-2z" />
    <glyph glyph-name="brokenbar" unicode="&#xa6;" horiz-adv-x="231" 
d="M36 20v220c0 50 32 72 72 72h15c40 0 72 -22 72 -72v-220c0 -50 -32 -72 -72 -72h-15c-40 0 -72 22 -72 72zM195 674v-220c0 -50 -32 -72 -72 -72h-15c-40 0 -72 22 -72 72v220c0 50 32 71 72 71h15c40 0 72 -21 72 -71z" />
    <glyph glyph-name="minus" unicode="&#x2212;" horiz-adv-x="545" 
d="M526 359v-26c0 -40 -21 -72 -72 -72h-362c-51 0 -72 32 -72 72v26c0 39 21 71 72 71h362c50 0 72 -32 72 -71z" />
    <glyph glyph-name="multiply" unicode="&#xd7;" horiz-adv-x="546" 
d="M273 228l-87 -86c-32 -32 -72 -28 -100 0l-16 16c-28 28 -32 67 1 99l86 84l-86 84c-33 32 -28 72 0 100l16 16c27 27 67 32 100 0l86 -85l86 85c33 32 74 28 101 -1l15 -16c27 -29 32 -67 0 -99l-85 -83l85 -84c32 -32 30 -73 1 -100l-16 -15c-28 -27 -67 -33 -100 -1z
" />
    <glyph glyph-name="space" unicode=" " horiz-adv-x="136" 
 />
    <glyph glyph-name="exclam" unicode="!" horiz-adv-x="326" 
d="M167 233h-8c-40 0 -72 22 -79 72c0 0 -35 257 -35 310c0 56 26 85 80 85h76c54 0 80 -29 80 -85c0 -53 -35 -310 -35 -310c-7 -50 -39 -72 -79 -72zM272 96c0 -57 -49 -103 -109 -103c-61 0 -109 46 -109 103c0 59 48 105 109 105c60 0 109 -46 109 -105z" />
    <glyph glyph-name="quotedbl" unicode="&#x22;" horiz-adv-x="455" 
d="M118 428h-2c-37 0 -68 21 -75 69c0 0 -16 84 -16 142c0 41 18 61 59 61h66c41 0 60 -20 60 -61c0 -58 -16 -142 -16 -142c-8 -48 -39 -69 -76 -69zM339 428h-2c-37 0 -68 21 -75 69c0 0 -16 84 -16 142c0 41 19 61 59 61h67c40 0 59 -20 59 -61c0 -58 -16 -142 -16 -142
c-8 -48 -38 -69 -76 -69z" />
    <glyph glyph-name="numbersign" unicode="#" horiz-adv-x="563" 
d="M321 401h-68l-11 -78h68zM425 180l-18 -124c-6 -40 -31 -61 -68 -61h-2c-42 0 -71 23 -64 72l16 113h-68l-18 -124c-6 -40 -31 -61 -69 -61h-1c-42 0 -71 23 -64 72l16 113h-9c-45 0 -60 28 -60 62v12c0 38 15 69 71 69h19l11 78h-9c-45 0 -60 28 -60 63v12
c0 38 15 68 71 68h18l15 100c7 40 31 61 69 61h1c43 0 72 -23 65 -72l-14 -89h69l15 100c6 40 30 61 68 61h2c42 0 71 -23 64 -72l-13 -89h9c45 0 59 -28 59 -62v-12c0 -38 -14 -69 -70 -69h-19l-11 -78h9c45 0 59 -28 59 -63v-11c0 -39 -14 -69 -70 -69h-19z" />
    <glyph glyph-name="dollar" unicode="$" horiz-adv-x="577" 
d="M360 721v-19c35 -3 67 -10 95 -20c49 -18 65 -41 65 -88v-16c0 -43 -23 -63 -56 -63c-44 0 -69 39 -156 39c-56 0 -84 -18 -84 -48c0 -33 32 -42 90 -58c184 -47 241 -94 241 -225c0 -116 -70 -195 -203 -219v-56c0 -37 -20 -59 -59 -59h-28c-40 0 -59 22 -59 59v50
c-45 2 -83 10 -114 23c-51 20 -67 43 -67 91v18c0 38 20 65 59 65c45 0 65 -47 165 -47c58 0 88 17 88 49c0 40 -33 44 -110 64c-123 33 -209 76 -209 222c0 122 77 192 196 214v24c0 37 19 59 59 59h28c39 0 59 -22 59 -59z" />
    <glyph glyph-name="percent" unicode="%" horiz-adv-x="916" 
d="M714 644l-417 -644c-17 -27 -35 -39 -55 -39h-2c-48 0 -70 45 -41 90l416 644c18 27 36 39 56 39h1c49 0 70 -45 42 -90zM417 517c0 -132 -97 -195 -200 -195c-102 0 -199 63 -199 195c0 131 97 192 199 192c103 0 200 -61 200 -192zM173 515c0 -63 16 -86 44 -86
c30 0 45 23 45 86s-15 87 -45 87c-28 0 -44 -24 -44 -87zM898 185c0 -132 -97 -194 -199 -194c-103 0 -200 62 -200 194c0 131 97 193 200 193c102 0 199 -62 199 -193zM654 183c0 -63 16 -86 45 -86s44 23 44 86s-15 87 -44 87s-45 -24 -45 -87z" />
    <glyph glyph-name="ampersand" unicode="&#x26;" horiz-adv-x="756" 
d="M651 0h-85c-36 0 -49 5 -77 32l-5 5c-52 -29 -112 -45 -187 -45c-187 0 -277 85 -277 212c0 99 66 161 144 196c-18 33 -28 67 -28 109c0 119 88 202 261 202c45 0 84 -5 118 -16c48 -16 63 -41 63 -88v-20c0 -37 -22 -59 -55 -59c-39 0 -61 26 -106 26
c-32 0 -51 -20 -51 -46c0 -28 17 -47 48 -82l105 -119l18 47c22 58 45 74 100 74h12c67 0 85 -37 58 -112c-17 -46 -45 -103 -72 -145l59 -68c40 -46 8 -103 -43 -103zM231 232c0 -55 35 -92 99 -92c18 0 36 5 51 14l-126 140c-14 -15 -24 -36 -24 -62z" />
    <glyph glyph-name="quotesingle" unicode="'" horiz-adv-x="234" 
d="M118 428h-2c-37 0 -68 21 -75 69c0 0 -16 84 -16 142c0 41 18 61 59 61h66c41 0 60 -20 60 -61c0 -58 -16 -142 -16 -142c-8 -48 -39 -69 -76 -69z" />
    <glyph glyph-name="parenleft" unicode="(" horiz-adv-x="374" 
d="M364 16c0 -40 -23 -66 -70 -66c-23 0 -48 8 -74 22c-103 54 -194 167 -194 378c0 203 91 316 194 370c25 14 51 22 74 22c47 0 70 -26 70 -66c0 -23 -9 -42 -21 -59c-37 -50 -109 -98 -109 -267c0 -175 72 -225 109 -275c12 -17 21 -36 21 -59z" />
    <glyph glyph-name="parenright" unicode=")" horiz-adv-x="374" 
d="M349 350c0 -211 -92 -324 -195 -378c-25 -14 -51 -22 -74 -22c-47 0 -70 26 -70 66c0 23 9 42 22 59c37 50 108 100 108 275c0 169 -71 217 -108 267c-13 17 -22 36 -22 59c0 40 24 66 71 66c22 0 48 -8 73 -22c103 -54 195 -167 195 -370z" />
    <glyph glyph-name="asterisk" unicode="*" horiz-adv-x="431" 
d="M158 492c-38 -9 -79 -10 -96 -4c-35 10 -46 42 -33 78l3 8c14 37 45 56 78 44c17 -5 43 -28 70 -59c-19 34 -35 71 -35 88c0 34 23 58 66 58h9c43 0 66 -24 66 -58c0 -17 -15 -54 -35 -88c28 33 50 54 70 60c32 11 63 -5 78 -44l3 -8c14 -38 -1 -69 -34 -80
c-17 -6 -57 -5 -95 4c39 -15 68 -29 81 -47c20 -27 16 -61 -18 -86l-8 -6c-33 -25 -67 -19 -88 9c-11 14 -20 49 -24 88c-5 -39 -14 -76 -25 -90c-21 -28 -54 -34 -87 -8l-9 7c-33 26 -38 59 -17 86c13 18 41 32 80 48z" />
    <glyph glyph-name="plus" unicode="+" horiz-adv-x="545" 
d="M526 359v-26c0 -40 -22 -72 -72 -72h-89v-101c0 -50 -33 -72 -73 -72h-38c-40 0 -72 22 -72 72v101h-90c-51 0 -72 32 -72 72v26c0 39 21 71 72 71h90v101c0 50 32 72 72 72h38c40 0 73 -22 73 -72v-101h89c50 0 72 -32 72 -71z" />
    <glyph glyph-name="comma" unicode="," horiz-adv-x="253" 
d="M13 -74v3c0 22 11 34 41 44c29 11 35 19 35 31c0 16 -19 21 -38 37c-18 13 -34 33 -34 69c0 52 44 91 106 91s114 -42 114 -126c0 -104 -57 -174 -169 -187c-34 -4 -55 11 -55 38z" />
    <glyph glyph-name="hyphen" unicode="-" horiz-adv-x="314" 
d="M220 206h-126c-48 0 -73 32 -73 73v15c0 40 25 72 73 72h126c48 0 72 -32 72 -72v-15c0 -41 -24 -73 -72 -73z" />
    <glyph glyph-name="period" unicode="." horiz-adv-x="253" 
d="M235 96c0 -57 -49 -103 -109 -103c-61 0 -109 46 -109 103c0 59 48 105 109 105c60 0 109 -46 109 -105z" />
    <glyph glyph-name="slash" unicode="/" horiz-adv-x="392" 
d="M17 38l196 639c13 42 39 66 82 66h20c51 0 73 -38 58 -89l-196 -639c-13 -42 -39 -66 -83 -66h-20c-50 0 -72 38 -57 89z" />
    <glyph glyph-name="zero" unicode="0" horiz-adv-x="703" 
d="M352 -11c-186 0 -328 125 -328 361s147 361 328 361c180 0 328 -125 328 -361s-142 -361 -328 -361zM352 147c61 0 91 55 91 199c0 143 -30 196 -91 196c-62 0 -92 -53 -92 -196c0 -144 30 -199 92 -199z" />
    <glyph glyph-name="one" unicode="1" horiz-adv-x="426" 
d="M368 629v-550c0 -54 -35 -79 -79 -79h-81c-43 0 -78 25 -78 79v395l-9 -7c-27 -21 -43 -26 -59 -26c-26 0 -43 19 -43 53v56c0 50 20 76 76 101c72 33 136 51 186 51h14c44 0 73 -23 73 -73z" />
    <glyph glyph-name="two" unicode="2" horiz-adv-x="570" 
d="M469 172c50 0 73 -33 73 -73v-26c0 -41 -23 -73 -73 -73h-374c-51 0 -73 33 -73 75v26c0 56 15 87 61 129l130 117c65 60 94 95 94 134c0 33 -23 54 -70 54c-67 0 -92 -40 -141 -40c-34 0 -60 24 -60 65v27c0 46 15 73 70 95c51 20 111 29 171 29c171 0 270 -66 270 -216
c0 -98 -59 -162 -158 -243l-98 -80h178z" />
    <glyph glyph-name="three" unicode="3" horiz-adv-x="565" 
d="M213 149c53 0 93 21 93 65c0 39 -21 58 -85 65l-9 1c-44 5 -64 25 -64 63v13c0 39 19 59 62 65l7 1c57 8 86 23 86 61c0 37 -27 59 -75 59c-67 0 -94 -31 -137 -31c-36 0 -59 23 -59 61v25c0 48 16 72 71 90c50 16 106 24 163 24c155 0 265 -58 265 -187
c0 -94 -50 -143 -137 -164v-4c100 -14 150 -66 150 -160c0 -132 -115 -207 -307 -207c-62 0 -118 8 -159 21c-43 14 -66 35 -66 83v28c0 37 24 63 62 63c45 -1 67 -35 139 -35z" />
    <glyph glyph-name="four" unicode="4" horiz-adv-x="631" 
d="M546 143v-65c0 -53 -34 -78 -78 -78h-78c-44 0 -78 25 -78 78v65h-220c-45 0 -75 26 -75 74v25c0 47 10 76 56 135l199 257c38 49 68 68 127 68h69c43 0 78 -25 78 -77v-335h20c40 0 55 -25 55 -55v-38c0 -30 -15 -54 -55 -54h-20zM183 294v-4h137v181h-4z" />
    <glyph glyph-name="five" unicode="5" horiz-adv-x="574" 
d="M240 -11c-53 0 -109 7 -147 18c-54 16 -77 47 -77 94v20c0 41 23 67 63 67c44 0 69 -36 139 -36c66 0 99 29 99 79c0 46 -28 70 -77 70c-57 0 -79 -30 -136 -30c-42 0 -67 23 -67 66v283c0 54 36 80 81 80h323c51 0 73 -32 73 -73v-25c0 -41 -22 -73 -73 -73h-238v-118h3
c24 21 61 37 129 37c124 0 218 -66 218 -218c0 -150 -116 -241 -313 -241z" />
    <glyph glyph-name="six" unicode="6" horiz-adv-x="651" 
d="M420 447c124 0 211 -68 211 -209c0 -153 -107 -249 -288 -249c-192 0 -319 102 -319 346c0 239 135 376 379 376c52 0 93 -6 125 -16c39 -12 64 -38 64 -88v-27c0 -47 -24 -69 -61 -69c-39 0 -60 27 -127 27c-81 0 -127 -39 -141 -134c42 30 100 43 157 43zM329 306
c-27 0 -53 -7 -71 -15c5 -125 29 -156 74 -156c50 0 69 32 69 90s-22 81 -72 81z" />
    <glyph glyph-name="seven" unicode="7" horiz-adv-x="551" 
d="M249 0h-93c-54 0 -85 43 -51 105l225 411v4h-239c-50 0 -73 32 -73 72v35c0 41 23 73 73 73h359c48 0 77 -31 77 -75v-40c0 -53 -12 -102 -29 -146l-144 -359c-22 -55 -55 -80 -105 -80z" />
    <glyph glyph-name="eight" unicode="8" horiz-adv-x="641" 
d="M320 -11c-195 0 -302 81 -302 210c0 89 39 144 130 172v4c-73 24 -105 72 -105 147c0 117 117 189 277 189c161 0 277 -72 277 -189c0 -75 -29 -123 -102 -147v-4c89 -28 128 -83 128 -172c0 -129 -107 -210 -303 -210zM320 135c54 0 77 37 77 85s-23 84 -77 84
s-77 -36 -77 -84s23 -85 77 -85zM320 431c41 0 63 25 63 66c0 40 -22 67 -63 67s-63 -27 -63 -67c0 -41 22 -66 63 -66z" />
    <glyph glyph-name="nine" unicode="9" horiz-adv-x="651" 
d="M237 250c-129 0 -217 72 -217 213c0 153 108 248 289 248c191 0 319 -102 319 -349c0 -234 -119 -373 -378 -373c-46 0 -91 5 -125 14c-50 13 -74 40 -74 85v32c0 40 24 66 65 66c36 0 66 -27 129 -27c99 0 133 40 143 135c-42 -31 -98 -44 -151 -44zM321 390
c27 0 52 7 70 15c-4 128 -29 156 -74 156c-50 0 -68 -33 -68 -89c0 -59 22 -82 72 -82z" />
    <glyph glyph-name="colon" unicode=":" horiz-adv-x="255" 
d="M237 96c0 -57 -49 -103 -109 -103c-61 0 -110 46 -110 103c0 59 49 105 110 105c60 0 109 -46 109 -105zM237 371c0 -57 -49 -103 -109 -103c-61 0 -110 46 -110 103c0 59 49 105 110 105c60 0 109 -46 109 -105z" />
    <glyph glyph-name="semicolon" unicode=";" horiz-adv-x="256" 
d="M237 371c0 -57 -49 -103 -109 -103c-61 0 -110 46 -110 103c0 59 49 105 110 105c60 0 109 -46 109 -105zM14 -74v3c0 22 11 34 40 44c30 11 36 19 36 31c0 16 -19 21 -38 37c-18 13 -34 33 -34 69c0 52 44 91 105 91c63 0 115 -42 115 -126c0 -104 -58 -174 -169 -187
c-34 -4 -55 11 -55 38z" />
    <glyph glyph-name="less" unicode="&#x3c;" horiz-adv-x="470" 
d="M88 224c-51 23 -68 53 -68 98v15c0 44 17 74 69 98l255 119c59 28 103 -2 103 -55v-20c0 -47 -20 -72 -73 -96l-120 -53v-3l120 -52c54 -23 73 -50 73 -96v-21c0 -53 -44 -82 -103 -55z" />
    <glyph glyph-name="equal" unicode="=" horiz-adv-x="504" 
d="M483 420v-13c0 -40 -21 -72 -71 -72h-319c-50 0 -72 32 -72 72v13c0 39 22 71 72 71h319c50 0 71 -32 71 -71zM483 210v-13c0 -40 -21 -72 -71 -72h-319c-50 0 -72 32 -72 72v13c0 39 22 71 72 71h319c50 0 71 -32 71 -71z" />
    <glyph glyph-name="greater" unicode="&#x3e;" horiz-adv-x="470" 
d="M126 102c-59 -27 -103 2 -103 55v20c0 47 19 72 73 96l120 53v3l-120 53c-54 24 -73 49 -73 96v20c0 53 44 82 103 55l255 -120c51 -24 69 -53 69 -98v-14c0 -45 -17 -75 -68 -99z" />
    <glyph glyph-name="question" unicode="?" horiz-adv-x="488" 
d="M181 231c-45 0 -76 17 -76 65c0 41 25 82 62 116c39 36 74 58 74 91c0 28 -21 43 -57 43c-51 0 -70 -33 -115 -33c-34 0 -55 22 -55 61v20c0 45 17 74 67 94c38 15 83 23 142 23c161 0 245 -71 245 -185c0 -70 -29 -111 -65 -144c-35 -33 -78 -60 -107 -105
c-19 -31 -44 -46 -89 -46h-26zM304 96c0 -57 -50 -103 -110 -103c-61 0 -109 46 -109 103c0 59 48 105 109 105c60 0 110 -46 110 -105z" />
    <glyph glyph-name="at" unicode="@" horiz-adv-x="888" 
d="M689 -82c-63 -32 -156 -52 -250 -52c-223 0 -421 112 -421 374c0 277 243 427 450 427c226 0 403 -118 403 -330c0 -187 -133 -272 -279 -272c-77 0 -116 25 -133 63c-29 -31 -70 -59 -131 -59c-71 0 -119 48 -119 143c0 123 87 242 215 242c46 0 76 -18 99 -44
c18 27 35 39 70 39h42c37 0 50 -24 43 -54l-41 -179c-7 -30 -2 -49 20 -49c49 0 106 52 106 170c0 150 -109 238 -295 238c-167 0 -336 -110 -336 -335c0 -198 133 -282 307 -282c167 0 205 65 250 65c28 0 44 -16 44 -42v-3c0 -25 -14 -44 -44 -60zM460 338
c-46 0 -76 -56 -76 -112c0 -26 12 -41 33 -41c13 0 27 5 37 14l31 135c-6 2 -13 4 -25 4z" />
    <glyph glyph-name="A" unicode="A" horiz-adv-x="730" 
d="M139 0h-56c-48 0 -72 37 -53 95l176 528c17 53 55 77 104 77h109c48 0 85 -24 103 -77l176 -523c20 -60 -10 -100 -56 -100h-89c-47 0 -74 22 -88 74l-17 60h-209l-17 -61c-14 -50 -41 -73 -83 -73zM342 501l-59 -210h121l-59 210h-3z" />
    <glyph glyph-name="B" unicode="B" horiz-adv-x="661" 
d="M284 292v-151h45c52 0 79 25 79 76c0 52 -28 75 -79 75h-45zM284 555v-131h42c48 0 71 22 71 66c0 43 -22 65 -70 65h-43zM343 0h-212c-47 0 -81 27 -81 80v540c0 53 34 80 81 80h209c185 0 278 -59 278 -183c0 -86 -48 -127 -129 -148v-4c96 -16 154 -67 154 -164
c0 -133 -112 -201 -300 -201z" />
    <glyph glyph-name="C" unicode="C" horiz-adv-x="654" 
d="M560 24c-45 -21 -106 -35 -178 -35c-221 0 -357 125 -357 354c0 236 145 368 378 368c62 0 112 -9 154 -25c41 -16 65 -43 65 -92v-27c0 -39 -24 -65 -61 -65c-48 0 -76 42 -153 42c-85 0 -140 -55 -140 -191c0 -149 47 -201 132 -201c83 0 116 50 163 50
c37 0 63 -24 63 -62v-19c0 -49 -25 -78 -66 -97z" />
    <glyph glyph-name="D" unicode="D" horiz-adv-x="731" 
d="M325 0h-194c-47 0 -81 27 -81 80v540c0 53 34 80 81 80h201c253 0 375 -118 375 -345c0 -234 -121 -355 -382 -355zM288 541v-387h30c100 0 149 48 149 192s-46 195 -149 195h-30z" />
    <glyph glyph-name="E" unicode="E" horiz-adv-x="604" 
d="M500 0h-369c-47 0 -81 27 -81 80v540c0 53 34 80 81 80h360c42 0 71 -24 71 -71v-17c0 -48 -29 -72 -71 -72h-204v-112h126c41 0 71 -23 71 -70v-10c0 -48 -30 -71 -71 -71h-126v-121h213c42 0 71 -24 71 -71v-14c0 -48 -29 -71 -71 -71z" />
    <glyph glyph-name="F" unicode="F" horiz-adv-x="595" 
d="M288 252v-173c0 -52 -33 -79 -78 -79h-81c-45 0 -79 27 -79 79v541c0 53 34 80 81 80h360c41 0 71 -24 71 -71v-17c0 -48 -30 -72 -71 -72h-203v-133h139c42 0 71 -24 71 -71v-13c0 -48 -29 -71 -71 -71h-139z" />
    <glyph glyph-name="G" unicode="G" horiz-adv-x="706" 
d="M584 17c-56 -19 -126 -28 -199 -28c-253 0 -361 130 -361 354c0 238 145 368 388 368c62 0 113 -8 154 -21c44 -14 67 -41 67 -89v-31c0 -42 -25 -64 -62 -64c-46 0 -67 37 -158 37c-96 0 -147 -52 -147 -199c0 -151 36 -201 118 -201c27 0 45 3 58 7v90h-21
c-37 0 -58 18 -58 63v17c0 44 23 63 67 63h153c46 0 78 -28 78 -81v-187c0 -55 -27 -81 -77 -98z" />
    <glyph glyph-name="H" unicode="H" horiz-adv-x="737" 
d="M288 270v-191c0 -53 -33 -79 -78 -79h-81c-45 0 -79 26 -79 79v542c0 52 34 79 79 79h81c45 0 78 -27 78 -79v-182h161v182c0 52 33 79 79 79h80c46 0 79 -27 79 -79v-542c0 -53 -33 -79 -79 -79h-80c-46 0 -79 26 -79 79v191h-161z" />
    <glyph glyph-name="I" unicode="I" horiz-adv-x="345" 
d="M291 621v-542c0 -54 -34 -79 -78 -79h-81c-44 0 -79 25 -79 79v542c0 51 33 79 79 79h81c47 0 78 -28 78 -79z" />
    <glyph glyph-name="J" unicode="J" horiz-adv-x="526" 
d="M480 223c0 -155 -86 -232 -277 -232c-45 0 -84 5 -117 15c-50 17 -72 40 -72 97v21c0 41 21 68 61 68c39 0 55 -31 104 -31c42 0 64 21 64 57v403c0 51 32 79 78 79h81c47 0 78 -28 78 -79v-398z" />
    <glyph glyph-name="K" unicode="K" horiz-adv-x="734" 
d="M288 621v-180l155 196c39 51 62 63 112 63h57c56 0 78 -57 42 -100l-147 -173l178 -320c29 -52 4 -107 -53 -107h-81c-49 0 -77 17 -106 69l-111 197l-46 -49v-138c0 -54 -35 -79 -78 -79h-81c-44 0 -79 25 -79 79v542c0 51 32 79 79 79h81c46 0 78 -28 78 -79z" />
    <glyph glyph-name="L" unicode="L" horiz-adv-x="576" 
d="M476 0h-345c-47 0 -81 27 -81 80v541c0 51 32 79 79 79h81c46 0 78 -28 78 -79v-462h188c49 0 73 -31 73 -71v-17c0 -40 -24 -71 -73 -71z" />
    <glyph glyph-name="M" unicode="M" horiz-adv-x="918" 
d="M164 0h-40c-42 0 -74 24 -74 74v546c0 52 34 80 81 80h151c46 0 78 -23 94 -77l82 -275h3l83 275c16 54 47 77 93 77h150c46 0 80 -28 80 -80v-542c0 -52 -33 -78 -78 -78h-74c-45 0 -78 26 -78 78v356h-3l-112 -367c-15 -53 -41 -72 -83 -72h-4c-42 0 -68 19 -84 72
l-110 367h-3v-360c0 -50 -32 -74 -74 -74z" />
    <glyph glyph-name="N" unicode="N" horiz-adv-x="730" 
d="M168 0h-43c-42 0 -75 24 -75 75v545c0 52 34 80 81 80h95c49 0 77 -21 104 -70l154 -280h3v275c0 52 33 75 75 75h43c42 0 74 -23 74 -75v-549c0 -50 -33 -76 -77 -76h-76c-47 0 -73 18 -100 67l-181 326h-3v-318c0 -51 -32 -75 -74 -75z" />
    <glyph glyph-name="O" unicode="O" horiz-adv-x="763" 
d="M739 348c0 -232 -154 -359 -358 -359s-357 127 -357 359s159 363 357 363c199 0 358 -131 358 -363zM264 347c0 -140 47 -197 117 -197s117 57 117 197s-47 197 -117 197s-117 -57 -117 -197z" />
    <glyph glyph-name="P" unicode="P" horiz-adv-x="653" 
d="M210 0h-81c-44 0 -79 25 -79 79v541c0 53 34 80 81 80h209c206 0 295 -75 295 -233c0 -156 -101 -230 -306 -230h-41v-158c0 -54 -35 -79 -78 -79zM325 549h-40v-173h40c59 0 79 36 79 90c0 55 -19 83 -79 83z" />
    <glyph glyph-name="Q" unicode="Q" horiz-adv-x="763" 
d="M700 -117c-14 0 -28 2 -56 9l-282 72c-220 53 -338 162 -338 389s159 358 357 358c199 0 358 -131 358 -362c0 -142 -74 -221 -168 -260v-4l113 -13c51 -6 73 -26 73 -77v-55c0 -36 -23 -57 -57 -57zM264 347c0 -148 47 -202 117 -202s117 54 117 202
c0 140 -47 197 -117 197s-117 -57 -117 -197z" />
    <glyph glyph-name="R" unicode="R" horiz-adv-x="695" 
d="M599 0h-78c-44 0 -72 20 -98 71l-84 164h-51v-156c0 -54 -35 -79 -78 -79h-81c-44 0 -79 25 -79 79v541c0 53 34 80 81 80h217c205 0 295 -78 295 -225c0 -82 -37 -142 -93 -182l100 -187c30 -58 -2 -106 -51 -106zM326 546h-43v-163h43c59 0 84 27 84 81
c0 55 -25 82 -84 82z" />
    <glyph glyph-name="S" unicode="S" horiz-adv-x="584" 
d="M562 221c0 -145 -104 -232 -303 -232c-68 0 -128 10 -171 27c-46 18 -66 47 -66 87v25c0 42 25 68 64 68c47 0 68 -45 164 -45c55 0 88 15 88 47c0 40 -38 45 -113 62c-127 28 -205 76 -205 225c0 152 117 226 284 226c63 0 117 -8 160 -22c42 -14 67 -39 67 -85v-26
c0 -40 -23 -63 -59 -63c-43 0 -77 35 -163 35c-54 0 -79 -14 -79 -44c0 -33 31 -42 99 -56c179 -36 233 -96 233 -229z" />
    <glyph glyph-name="T" unicode="T" horiz-adv-x="623" 
d="M530 538h-100v-459c0 -54 -35 -79 -78 -79h-81c-44 0 -78 25 -78 79v459h-100c-42 0 -72 23 -72 71v20c0 48 30 71 72 71h437c41 0 71 -23 71 -71v-20c0 -48 -30 -71 -71 -71z" />
    <glyph glyph-name="U" unicode="U" horiz-adv-x="715" 
d="M286 263c0 -72 28 -102 93 -102c64 0 91 30 91 102v362c0 50 31 75 74 75h49c43 0 74 -25 74 -75v-369c0 -173 -106 -264 -303 -264c-209 0 -316 92 -316 264v365c0 51 32 79 78 79h81c47 0 79 -28 79 -79v-358z" />
    <glyph glyph-name="V" unicode="V" horiz-adv-x="715" 
d="M374 266l106 363c14 48 41 71 83 71h65c57 0 78 -39 58 -101l-169 -510c-22 -68 -54 -89 -105 -89h-109c-50 0 -83 21 -105 89l-168 506c-20 62 5 105 59 105h92c43 0 71 -24 85 -74l105 -360h3z" />
    <glyph glyph-name="W" unicode="W" horiz-adv-x="980" 
d="M690 298l61 325c10 55 37 77 89 77h57c50 0 71 -35 58 -90l-127 -527c-14 -58 -49 -83 -99 -83h-80c-49 0 -84 23 -98 81l-64 270h-3l-64 -270c-13 -57 -48 -81 -98 -81h-72c-48 0 -84 22 -98 81l-126 524c-14 59 9 95 60 95h85c52 0 82 -25 92 -80l62 -322h2l73 325
c12 53 41 77 91 77h32c50 0 78 -25 90 -78l75 -324h2z" />
    <glyph glyph-name="X" unicode="X" horiz-adv-x="714" 
d="M658 596l-139 -229l149 -257c30 -51 6 -110 -58 -110h-80c-44 0 -74 18 -101 65l-96 167l-91 -166c-26 -48 -53 -66 -101 -66h-46c-58 0 -83 53 -53 104l152 254l-140 232c-31 50 -6 110 58 110h80c43 0 73 -19 101 -65l87 -144l78 143c26 49 54 66 100 66h47
c57 0 83 -53 53 -104z" />
    <glyph glyph-name="Y" unicode="Y" horiz-adv-x="670" 
d="M541 700h46c58 0 79 -51 55 -97l-185 -350v-174c0 -54 -35 -79 -78 -79h-81c-44 0 -79 25 -79 79v168l-188 352c-26 48 1 101 60 101h67c50 0 77 -23 101 -70l91 -176h2l91 180c22 45 49 66 98 66z" />
    <glyph glyph-name="Z" unicode="Z" horiz-adv-x="601" 
d="M80 229l232 306v4h-195c-48 0 -71 31 -71 72v18c0 40 23 71 71 71h379c49 0 74 -31 74 -73v-26c0 -56 -9 -84 -48 -134l-234 -303v-4h213c48 0 71 -31 71 -71v-18c0 -40 -23 -71 -71 -71h-397c-40 0 -74 25 -74 73v20c0 55 9 84 50 136z" />
    <glyph glyph-name="bracketleft" unicode="[" horiz-adv-x="354" 
d="M267 -49h-134c-44 0 -80 26 -80 80v630c0 54 36 80 80 80h134c48 0 69 -31 69 -69v-7c0 -35 -19 -64 -64 -64h-22v-510h22c45 0 64 -29 64 -64v-7c0 -38 -21 -69 -69 -69z" />
    <glyph glyph-name="backslash" unicode="\" horiz-adv-x="392" 
d="M179 677l196 -639c15 -51 -7 -89 -57 -89h-20c-44 0 -69 24 -82 66l-197 639c-16 51 7 89 58 89h20c43 0 70 -24 82 -66z" />
    <glyph glyph-name="bracketright" unicode="]" horiz-adv-x="354" 
d="M221 -49h-134c-48 0 -68 31 -68 69v7c0 35 18 64 63 64h23v510h-23c-45 0 -63 29 -63 64v7c0 38 20 69 68 69h134c45 0 80 -26 80 -80v-630c0 -54 -35 -80 -80 -80z" />
    <glyph glyph-name="asciicircum" unicode="^" horiz-adv-x="461" 
d="M232 535h-3l-23 -32c-32 -44 -58 -62 -90 -62h-4c-59 0 -99 62 -45 145c0 1 30 45 31 46c36 54 77 76 129 76h7c52 0 93 -22 129 -76c1 -1 31 -45 31 -46c54 -83 14 -145 -45 -145h-4c-32 0 -58 18 -90 62z" />
    <glyph glyph-name="underscore" unicode="_" horiz-adv-x="393" 
d="M400 -96v-2c0 -35 -19 -64 -64 -64h-278c-45 0 -64 29 -64 64v2c0 35 19 64 64 64h278c45 0 64 -29 64 -64z" />
    <glyph glyph-name="grave" unicode="`" 
d="M263 650l6 -27c10 -43 -15 -72 -60 -72h-7c-37 0 -68 12 -103 45l-27 25c-43 39 -20 91 33 91h77c43 0 72 -20 81 -62z" />
    <glyph glyph-name="a" unicode="a" horiz-adv-x="576" 
d="M397 0c-36 0 -57 20 -68 49c-37 -39 -86 -56 -150 -56c-87 0 -164 50 -164 156c0 112 81 162 205 162c37 0 68 -2 96 -7v19c0 43 -22 59 -81 59c-62 0 -90 -28 -126 -28c-32 0 -57 22 -57 59v19c0 47 22 71 68 85c44 14 101 21 165 21c173 0 253 -57 253 -199v-261
c0 -53 -30 -78 -75 -78h-66zM270 114c16 0 33 7 46 16v83c-13 2 -29 4 -41 4c-34 0 -53 -16 -53 -54c0 -36 22 -49 48 -49z" />
    <glyph glyph-name="b" unicode="b" horiz-adv-x="631" 
d="M175 700c66 0 89 -24 89 -117v-112c37 40 87 67 155 67c98 0 194 -59 194 -259c0 -198 -93 -289 -221 -289c-70 0 -118 22 -153 66c-18 -34 -44 -56 -72 -56h-52c-42 0 -74 24 -74 77v545c0 52 31 78 76 78h58zM264 368v-226c13 -8 25 -12 46 -12c43 0 78 23 78 130
c0 97 -33 117 -77 117c-14 0 -31 -4 -47 -9z" />
    <glyph glyph-name="c" unicode="c" horiz-adv-x="523" 
d="M438 10c-34 -12 -80 -19 -130 -19c-182 0 -292 90 -292 271c0 175 118 276 306 276c39 0 81 -5 114 -16c40 -13 64 -35 64 -82v-24c0 -39 -22 -58 -52 -58c-35 0 -57 27 -108 27c-60 0 -98 -37 -98 -125c0 -84 34 -123 95 -123c55 0 77 32 110 32c38 0 53 -24 53 -57v-20
c0 -44 -23 -69 -62 -82z" />
    <glyph glyph-name="d" unicode="d" horiz-adv-x="631" 
d="M590 583v-505c0 -53 -30 -78 -76 -78h-68c-31 0 -53 13 -66 51c-30 -33 -74 -61 -151 -61c-122 0 -211 79 -211 270c0 209 116 276 213 276c67 0 106 -21 137 -55v141c0 52 30 78 75 78h62c64 0 85 -24 85 -117zM322 377c-43 0 -79 -21 -79 -116c0 -99 28 -131 73 -131
c21 0 36 6 52 16v221c-14 7 -29 10 -46 10z" />
    <glyph glyph-name="e" unicode="e" horiz-adv-x="580" 
d="M492 216h-253c9 -66 42 -84 104 -84c85 0 106 32 146 32c32 0 53 -19 53 -55v-15c0 -34 -17 -59 -54 -75c-43 -18 -100 -28 -180 -28c-198 0 -292 103 -292 270c0 169 110 277 285 277c179 0 263 -98 263 -253c0 -45 -27 -69 -72 -69zM302 404c-31 0 -56 -15 -64 -86h123
c-3 66 -22 86 -59 86z" />
    <glyph glyph-name="f" unicode="f" horiz-adv-x="390" 
d="M292 77c0 -52 -33 -77 -76 -77h-69c-44 0 -77 25 -77 77v315h-8c-32 0 -52 17 -52 61v14c0 44 20 61 52 61h8v23c0 119 71 162 194 162c25 0 45 -2 64 -6c32 -7 50 -22 50 -58v-16c0 -29 -15 -46 -48 -53c-29 -6 -38 -19 -38 -36v-14h24c34 -1 58 -19 58 -63v-14
c0 -44 -24 -61 -58 -61h-24v-315z" />
    <glyph glyph-name="g" unicode="g" horiz-adv-x="631" 
d="M368 55v20c-31 -26 -80 -40 -137 -40c-117 0 -213 55 -213 244c0 200 116 259 220 259c65 0 109 -25 146 -70c14 34 40 60 83 60h50c43 0 73 -24 73 -75v-398c0 -152 -123 -225 -318 -225c-66 0 -121 5 -161 17c-42 12 -66 39 -66 78v25c0 36 23 59 58 59
c40 0 57 -28 140 -28c86 0 125 23 125 74zM318 164c19 0 36 5 50 13v190c-15 7 -30 10 -47 10c-42 0 -78 -12 -78 -103c0 -98 28 -110 75 -110z" />
    <glyph glyph-name="h" unicode="h" horiz-adv-x="631" 
d="M311 372c-17 0 -34 -3 -47 -6v-289c0 -52 -34 -77 -77 -77h-69c-44 0 -77 25 -77 77v545c0 52 31 78 76 78h58c65 0 89 -24 89 -117v-124c44 42 102 79 183 79c82 0 145 -36 145 -153v-308c0 -52 -33 -77 -77 -77h-68c-44 0 -77 25 -77 77v249c0 38 -18 46 -59 46z" />
    <glyph glyph-name="i" unicode="i" horiz-adv-x="306" 
d="M263 643c0 -57 -45 -93 -110 -93s-110 36 -110 93s45 94 110 94s110 -37 110 -94zM264 420v-343c0 -52 -33 -77 -77 -77h-69c-43 0 -76 25 -76 77v374c0 52 30 77 76 77h58c64 0 88 -30 88 -108z" />
    <glyph glyph-name="j" unicode="j" horiz-adv-x="306" 
d="M263 643c0 -57 -45 -93 -110 -93s-110 36 -110 93s45 94 110 94s110 -37 110 -94zM264 420v-423c0 -123 -67 -167 -194 -167c-19 0 -44 2 -59 5c-37 8 -54 26 -54 61v6c0 33 13 51 45 59c32 7 40 18 40 51v439c0 52 30 77 76 77h58c64 0 88 -30 88 -108z" />
    <glyph glyph-name="k" unicode="k" horiz-adv-x="612" 
d="M361 66l-65 117l-32 -38v-68c0 -52 -34 -77 -77 -77h-69c-44 0 -77 25 -77 77v545c0 52 31 78 76 78h58c65 0 89 -24 89 -117v-235l98 125c29 38 57 55 103 55h41c54 0 81 -55 40 -103l-90 -106l121 -217c28 -50 3 -102 -51 -102h-64c-46 0 -74 15 -101 66z" />
    <glyph glyph-name="l" unicode="l" horiz-adv-x="309" 
d="M177 700c65 0 89 -31 89 -117v-506c0 -52 -34 -77 -77 -77h-69c-44 0 -77 25 -77 77v545c0 52 31 78 76 78h58z" />
    <glyph glyph-name="m" unicode="m" horiz-adv-x="936" 
d="M301 372c-14 0 -26 -2 -37 -4v-291c0 -52 -34 -77 -77 -77h-69c-44 0 -77 25 -77 77v374c0 52 31 77 76 77h66c37 0 63 -19 75 -78c44 51 101 88 179 88c63 0 115 -22 135 -84c46 50 107 84 182 84c81 0 143 -38 143 -153v-308c0 -52 -33 -77 -76 -77h-69
c-44 0 -77 25 -77 77v249c0 38 -17 46 -57 46c-14 0 -26 -2 -37 -5v-290c0 -52 -34 -77 -77 -77h-69c-44 0 -77 25 -77 77v249c0 38 -17 46 -57 46z" />
    <glyph glyph-name="n" unicode="n" horiz-adv-x="631" 
d="M311 372c-17 0 -34 -3 -47 -6v-289c0 -52 -34 -77 -77 -77h-69c-44 0 -77 25 -77 77v374c0 52 31 77 76 77h60c38 0 68 -14 80 -76c45 45 105 86 190 86c82 0 145 -36 145 -153v-308c0 -52 -33 -77 -77 -77h-68c-44 0 -77 25 -77 77v249c0 38 -18 46 -59 46z" />
    <glyph glyph-name="o" unicode="o" horiz-adv-x="622" 
d="M606 261c0 -168 -123 -270 -295 -270s-295 102 -295 270c0 169 123 277 295 277s295 -108 295 -277zM240 260c0 -93 27 -133 71 -133s70 40 70 133s-26 132 -70 132s-71 -39 -71 -132z" />
    <glyph glyph-name="p" unicode="p" horiz-adv-x="631" 
d="M264 -85c0 -52 -34 -77 -77 -77h-69c-44 0 -77 25 -77 77v536c0 52 31 77 76 77h66c39 0 62 -13 73 -63c38 43 89 73 163 73c98 0 194 -60 194 -257c0 -204 -106 -277 -223 -277c-56 0 -96 12 -126 35v-124zM264 368v-218c12 -7 26 -11 46 -11c44 0 78 21 78 123
c0 94 -33 115 -76 115c-14 0 -32 -4 -48 -9z" />
    <glyph glyph-name="q" unicode="q" horiz-adv-x="631" 
d="M513 -162h-69c-43 0 -76 25 -76 77v129c-32 -26 -80 -40 -137 -40c-117 0 -213 74 -213 264c0 209 116 270 220 270c66 0 109 -25 146 -72c15 41 43 62 82 62h51c43 0 73 -24 73 -75v-538c0 -52 -33 -77 -77 -77zM318 139c19 0 36 5 50 14v214c-15 7 -30 10 -47 10
c-42 0 -78 -21 -78 -113c0 -100 27 -125 75 -125z" />
    <glyph glyph-name="r" unicode="r" horiz-adv-x="447" 
d="M183 528c37 0 63 -16 74 -84c37 57 85 88 126 88c33 0 52 -15 52 -56v-63c0 -37 -21 -65 -66 -68c-43 -2 -80 -7 -105 -14v-254c0 -52 -34 -77 -77 -77h-69c-44 0 -77 25 -77 77v374c0 52 31 77 76 77h66z" />
    <glyph glyph-name="s" unicode="s" horiz-adv-x="491" 
d="M477 181c0 -121 -84 -189 -256 -189c-59 0 -103 6 -137 18c-42 14 -63 38 -63 76v17c0 35 20 60 55 60s62 -33 137 -33c36 0 65 5 65 25c0 22 -18 24 -89 35c-108 15 -173 49 -173 168c0 125 103 179 239 179c57 0 100 -4 135 -15c42 -13 63 -32 63 -67v-27
c0 -33 -21 -52 -50 -52c-39 0 -68 27 -137 27c-43 0 -58 -8 -58 -25c0 -18 18 -23 81 -31c120 -14 188 -46 188 -166z" />
    <glyph glyph-name="t" unicode="t" horiz-adv-x="399" 
d="M69 392h-7c-31 0 -52 15 -52 61v14c0 41 21 61 52 61h7v53c0 51 32 77 77 77h69c44 0 76 -26 76 -77v-51h31c39 0 60 -24 60 -63v-14c0 -39 -21 -61 -60 -61h-31v-205c0 -42 13 -54 46 -58c29 -4 44 -18 45 -50v-21c0 -38 -19 -55 -56 -63c-19 -5 -40 -6 -72 -6
c-108 0 -185 36 -185 159v244z" />
    <glyph glyph-name="u" unicode="u" horiz-adv-x="634" 
d="M449 0c-41 0 -64 15 -74 73c-45 -42 -98 -82 -180 -82c-86 0 -155 37 -155 162v298c0 51 32 77 77 77h69c44 0 76 -26 76 -77v-252c0 -39 19 -48 62 -48c15 0 32 3 45 7v293c0 51 32 77 77 77h68c45 0 77 -26 77 -77v-373c0 -53 -30 -78 -75 -78h-67z" />
    <glyph glyph-name="v" unicode="v" horiz-adv-x="598" 
d="M93 528h72c46 0 66 -22 82 -75l66 -212h3l63 215c14 50 34 72 80 72h56c53 0 74 -41 55 -94l-132 -358c-19 -53 -58 -76 -103 -76h-69c-46 0 -84 22 -103 75l-132 353c-22 58 6 100 62 100z" />
    <glyph glyph-name="w" unicode="w" horiz-adv-x="849" 
d="M474 76l-48 169h-3l-51 -171c-16 -55 -48 -74 -94 -74h-49c-47 0 -81 20 -97 75l-104 354c-18 60 9 99 63 99h65c48 0 77 -23 89 -76l44 -191h3l54 195c14 52 42 75 91 75h10c49 0 78 -25 90 -76l52 -194h3l48 196c12 49 37 71 84 71h41c50 0 74 -40 58 -93l-108 -360
c-17 -55 -50 -75 -97 -75h-50c-47 0 -79 21 -94 76z" />
    <glyph glyph-name="x" unicode="x" horiz-adv-x="605" 
d="M39 98l111 175l-97 153c-32 51 -6 102 48 102h75c43 0 73 -15 98 -63l48 -77l46 78c24 41 48 62 95 62h41c53 0 76 -50 46 -98l-90 -146l105 -182c30 -52 6 -102 -48 -102h-76c-42 0 -71 16 -98 63l-54 95l-58 -96c-24 -40 -48 -62 -95 -62h-51c-53 0 -76 50 -46 98z" />
    <glyph glyph-name="y" unicode="y" horiz-adv-x="595" 
d="M566 429l-206 -524c-20 -50 -53 -70 -95 -70h-83c-43 0 -65 36 -41 86l50 105l-162 403c-21 53 2 99 57 99h69c47 0 72 -21 89 -72l67 -194h3l64 196c16 50 40 70 85 70h49c54 0 75 -44 54 -99z" />
    <glyph glyph-name="z" unicode="z" horiz-adv-x="528" 
d="M70 197l170 181h-142c-47 0 -70 31 -70 70v10c0 40 23 70 70 70h334c43 0 74 -23 74 -71v-13c0 -48 -15 -77 -51 -115l-171 -182h151c47 0 70 -31 70 -70v-7c0 -40 -23 -70 -70 -70h-342c-43 0 -74 24 -74 73v8c0 48 14 78 51 116z" />
    <glyph glyph-name="braceleft" unicode="{" horiz-adv-x="391" 
d="M381 30v-14c0 -43 -25 -65 -75 -65h-44c-107 0 -165 54 -165 148v120c0 35 -11 48 -42 59l-5 2c-30 11 -41 24 -41 60v22c0 36 11 49 41 60l5 2c31 11 42 24 42 59v112c0 92 57 146 168 146h41c50 0 75 -22 75 -65v-14c0 -37 -12 -60 -51 -66c-26 -4 -37 -24 -37 -56v-76
c0 -54 -22 -93 -97 -112c75 -20 97 -59 97 -113v-87c0 -32 11 -52 37 -56c39 -6 51 -29 51 -66z" />
    <glyph glyph-name="bar" unicode="|" horiz-adv-x="231" 
d="M108 745h15c40 0 72 -23 72 -71v-655c0 -49 -32 -72 -72 -72h-15c-40 0 -72 23 -72 72v655c0 48 32 71 72 71z" />
    <glyph glyph-name="braceright" unicode="}" horiz-adv-x="391" 
d="M10 16v14c0 37 12 60 51 66c26 4 37 24 37 56v87c0 54 22 93 97 113c-75 19 -97 58 -97 112v76c0 32 -11 52 -37 56c-39 6 -51 29 -51 66v14c0 43 25 65 75 65h41c111 0 168 -54 168 -146v-112c0 -35 11 -48 42 -59l5 -2c30 -11 41 -24 41 -60v-22c0 -36 -11 -49 -41 -60
l-5 -2c-31 -11 -42 -24 -42 -59v-120c0 -94 -58 -148 -165 -148h-44c-50 0 -75 22 -75 65z" />
    <glyph glyph-name="asciitilde" unicode="~" horiz-adv-x="425" 
d="M283 200c-56 0 -95 28 -123 28c-45 0 -56 -37 -91 -37h-2c-35 0 -61 26 -50 87c11 66 58 108 124 108c56 0 97 -27 124 -27c46 0 55 37 91 37h2c35 0 61 -26 50 -87c-12 -67 -57 -109 -125 -109z" />
    <glyph glyph-name="Adieresis" unicode="&#xc4;" horiz-adv-x="730" 
d="M139 0h-56c-48 0 -72 37 -53 95l176 528c17 53 55 77 104 77h109c48 0 85 -24 103 -77l176 -523c20 -60 -10 -100 -56 -100h-89c-47 0 -74 22 -88 74l-17 60h-209l-17 -61c-14 -50 -41 -73 -83 -73zM347 814c0 -53 -39 -87 -96 -87s-96 34 -96 87s39 87 96 87
s96 -34 96 -87zM567 814c0 -53 -39 -87 -96 -87s-96 34 -96 87s39 87 96 87s96 -34 96 -87zM342 501l-59 -210h121l-59 210h-3z" />
    <glyph glyph-name="Aring" unicode="&#xc5;" horiz-adv-x="730" 
d="M139 0h-56c-48 0 -72 37 -53 95l176 528c17 53 55 77 104 77h109c48 0 85 -24 103 -77l176 -523c20 -60 -10 -100 -56 -100h-89c-47 0 -74 22 -88 74l-17 60h-209l-17 -61c-14 -50 -41 -73 -83 -73zM470 827c0 -63 -51 -103 -109 -103s-109 40 -109 103s51 104 109 104
s109 -41 109 -104zM342 501l-59 -210h121l-59 210h-3zM331 827c0 -19 12 -32 30 -32c19 0 31 13 31 32c0 20 -12 33 -31 33c-18 0 -30 -13 -30 -33z" />
    <glyph glyph-name="Ccedilla" unicode="&#xc7;" horiz-adv-x="654" 
d="M322 -62v54c-186 21 -297 143 -297 351c0 236 145 368 378 368c62 0 112 -9 154 -25c41 -16 65 -43 65 -92v-27c0 -39 -24 -65 -61 -65c-48 0 -76 42 -153 42c-85 0 -140 -55 -140 -191c0 -149 47 -201 132 -201c83 0 116 50 163 50c37 0 63 -24 63 -62v-19
c0 -49 -25 -78 -66 -97c-40 -19 -92 -31 -152 -34v-15c54 -3 81 -27 81 -71c0 -46 -32 -79 -121 -79c-19 0 -39 2 -58 7c-25 7 -32 19 -32 40v3c0 18 8 30 26 30c12 0 24 -8 40 -8c14 0 22 6 22 14c0 7 -6 12 -25 12h-3c-10 0 -16 5 -16 15z" />
    <glyph glyph-name="Eacute" unicode="&#xc9;" horiz-adv-x="604" 
d="M247 797l8 26c12 41 38 60 81 60h75c59 0 76 -52 34 -90l-27 -24c-35 -31 -69 -44 -104 -44h-10c-43 0 -70 28 -57 72zM500 0h-369c-47 0 -81 27 -81 80v540c0 53 34 80 81 80h360c42 0 71 -24 71 -71v-17c0 -48 -29 -72 -71 -72h-204v-112h126c41 0 71 -23 71 -70v-10
c0 -48 -30 -71 -71 -71h-126v-121h213c42 0 71 -24 71 -71v-14c0 -48 -29 -71 -71 -71z" />
    <glyph glyph-name="Ntilde" unicode="&#xd1;" horiz-adv-x="730" 
d="M446 724c-48 0 -89 24 -113 24c-18 0 -30 -8 -41 -17c-11 -8 -21 -16 -36 -16h-2c-31 0 -54 23 -45 76c10 57 53 92 110 92c48 0 89 -24 112 -24c19 0 31 8 42 16s21 16 36 16h2c30 0 53 -22 45 -75c-10 -57 -53 -92 -110 -92zM168 0h-43c-42 0 -75 24 -75 75v545
c0 52 34 80 81 80h95c49 0 77 -21 104 -70l154 -280h3v275c0 52 33 75 75 75h43c42 0 74 -23 74 -75v-549c0 -50 -33 -76 -77 -76h-76c-47 0 -73 18 -100 67l-181 326h-3v-318c0 -51 -32 -75 -74 -75z" />
    <glyph glyph-name="Odieresis" unicode="&#xd6;" horiz-adv-x="763" 
d="M367 811c0 -53 -39 -87 -96 -87s-96 34 -96 87s39 87 96 87s96 -34 96 -87zM587 811c0 -53 -39 -87 -96 -87s-96 34 -96 87s39 87 96 87s96 -34 96 -87zM739 348c0 -232 -154 -359 -358 -359s-357 127 -357 359s159 363 357 363c199 0 358 -131 358 -363zM264 347
c0 -140 47 -197 117 -197s117 57 117 197s-47 197 -117 197s-117 -57 -117 -197z" />
    <glyph glyph-name="Udieresis" unicode="&#xdc;" horiz-adv-x="715" 
d="M361 811c0 -53 -39 -87 -96 -87s-96 34 -96 87s39 87 96 87s96 -34 96 -87zM581 811c0 -53 -39 -87 -96 -87s-96 34 -96 87s39 87 96 87s96 -34 96 -87zM286 263c0 -72 28 -102 93 -102c64 0 91 30 91 102v362c0 50 31 75 74 75h49c43 0 74 -25 74 -75v-369
c0 -173 -106 -264 -303 -264c-209 0 -316 92 -316 264v365c0 51 32 79 78 79h81c47 0 79 -28 79 -79v-358z" />
    <glyph glyph-name="aacute" unicode="&#xe1;" horiz-adv-x="576" 
d="M397 0c-36 0 -57 20 -68 49c-37 -39 -86 -56 -150 -56c-87 0 -164 50 -164 156c0 112 81 162 205 162c37 0 68 -2 96 -7v19c0 43 -22 59 -81 59c-62 0 -90 -28 -126 -28c-32 0 -57 22 -57 59v19c0 47 22 71 68 85c44 14 101 21 165 21c173 0 253 -57 253 -199v-261
c0 -53 -30 -78 -75 -78h-66zM221 626l6 27c10 42 38 62 81 62h77c53 0 76 -52 33 -91l-27 -25c-36 -32 -65 -45 -103 -45h-7c-45 0 -69 29 -60 72zM270 114c16 0 33 7 46 16v83c-13 2 -29 4 -41 4c-34 0 -53 -16 -53 -54c0 -36 22 -49 48 -49z" />
    <glyph glyph-name="agrave" unicode="&#xe0;" horiz-adv-x="576" 
d="M397 0c-36 0 -57 20 -68 49c-37 -39 -86 -56 -150 -56c-87 0 -164 50 -164 156c0 112 81 162 205 162c37 0 68 -2 96 -7v19c0 43 -22 59 -81 59c-62 0 -90 -28 -126 -28c-32 0 -57 22 -57 59v19c0 47 22 71 68 85c44 14 101 21 165 21c173 0 253 -57 253 -199v-261
c0 -53 -30 -78 -75 -78h-66zM347 653l6 -27c10 -43 -15 -72 -60 -72h-7c-37 0 -68 12 -103 45l-27 25c-43 39 -20 91 33 91h77c43 0 72 -20 81 -62zM270 114c16 0 33 7 46 16v83c-13 2 -29 4 -41 4c-34 0 -53 -16 -53 -54c0 -36 22 -49 48 -49z" />
    <glyph glyph-name="acircumflex" unicode="&#xe2;" horiz-adv-x="576" 
d="M397 0c-36 0 -57 20 -68 49c-37 -39 -86 -56 -150 -56c-87 0 -164 50 -164 156c0 112 81 162 205 162c37 0 68 -2 96 -7v19c0 43 -22 59 -81 59c-62 0 -90 -28 -126 -28c-32 0 -57 22 -57 59v19c0 47 22 71 68 85c44 14 101 21 165 21c173 0 253 -57 253 -199v-261
c0 -53 -30 -78 -75 -78h-66zM168 665l9 9c32 32 68 45 107 45h8c39 0 75 -13 107 -45l9 -9c50 -50 22 -112 -31 -112h-3c-26 0 -51 14 -78 42l-8 8l-8 -8c-27 -28 -52 -42 -78 -42h-3c-53 0 -81 62 -31 112zM270 114c16 0 33 7 46 16v83c-13 2 -29 4 -41 4
c-34 0 -53 -16 -53 -54c0 -36 22 -49 48 -49z" />
    <glyph glyph-name="adieresis" unicode="&#xe4;" horiz-adv-x="576" 
d="M397 0c-36 0 -57 20 -68 49c-37 -39 -86 -56 -150 -56c-87 0 -164 50 -164 156c0 112 81 162 205 162c37 0 68 -2 96 -7v19c0 43 -22 59 -81 59c-62 0 -90 -28 -126 -28c-32 0 -57 22 -57 59v19c0 47 22 71 68 85c44 14 101 21 165 21c173 0 253 -57 253 -199v-261
c0 -53 -30 -78 -75 -78h-66zM271 640c0 -54 -39 -88 -96 -88s-96 34 -96 88c0 53 39 87 96 87s96 -34 96 -87zM491 640c0 -54 -39 -88 -96 -88s-96 34 -96 88c0 53 39 87 96 87s96 -34 96 -87zM270 114c16 0 33 7 46 16v83c-13 2 -29 4 -41 4c-34 0 -53 -16 -53 -54
c0 -36 22 -49 48 -49z" />
    <glyph glyph-name="atilde" unicode="&#xe3;" horiz-adv-x="576" 
d="M397 0c-36 0 -57 20 -68 49c-37 -39 -86 -56 -150 -56c-87 0 -164 50 -164 156c0 112 81 162 205 162c37 0 68 -2 96 -7v19c0 43 -22 59 -81 59c-62 0 -90 -28 -126 -28c-32 0 -57 22 -57 59v19c0 47 22 71 68 85c44 14 101 21 165 21c173 0 253 -57 253 -199v-261
c0 -53 -30 -78 -75 -78h-66zM350 559c-48 0 -89 24 -113 24c-18 0 -30 -8 -41 -17c-11 -8 -21 -16 -36 -16h-2c-31 0 -54 23 -45 76c10 57 53 92 110 92c48 0 89 -24 112 -24c19 0 31 8 42 16s21 16 36 16h2c30 0 53 -22 45 -75c-10 -57 -53 -92 -110 -92zM270 114
c16 0 33 7 46 16v83c-13 2 -29 4 -41 4c-34 0 -53 -16 -53 -54c0 -36 22 -49 48 -49z" />
    <glyph glyph-name="aring" unicode="&#xe5;" horiz-adv-x="576" 
d="M397 0c-36 0 -57 20 -68 49c-37 -39 -86 -56 -150 -56c-87 0 -164 50 -164 156c0 112 81 162 205 162c37 0 68 -2 96 -7v19c0 43 -22 59 -81 59c-62 0 -90 -28 -126 -28c-32 0 -57 22 -57 59v19c0 47 22 71 68 85c44 14 101 21 165 21c173 0 253 -57 253 -199v-261
c0 -53 -30 -78 -75 -78h-66zM394 661c0 -64 -51 -103 -109 -103s-109 39 -109 103c0 63 51 103 109 103s109 -40 109 -103zM270 114c16 0 33 7 46 16v83c-13 2 -29 4 -41 4c-34 0 -53 -16 -53 -54c0 -36 22 -49 48 -49zM255 661c0 -19 12 -32 30 -32c19 0 31 13 31 32
s-12 32 -31 32c-18 0 -30 -13 -30 -32z" />
    <glyph glyph-name="ccedilla" unicode="&#xe7;" horiz-adv-x="523" 
d="M438 10c-32 -11 -74 -18 -119 -19v-16c54 -3 81 -27 81 -71c0 -46 -32 -79 -121 -79c-19 0 -39 2 -58 7c-25 7 -32 19 -32 40v3c0 18 8 30 26 30c12 0 24 -8 40 -8c14 0 22 6 22 14c0 7 -6 12 -25 12h-3c-10 0 -16 5 -16 15v59c-137 22 -217 110 -217 265
c0 175 118 276 306 276c39 0 81 -5 114 -16c40 -13 64 -35 64 -82v-24c0 -39 -22 -58 -52 -58c-35 0 -57 27 -108 27c-60 0 -98 -37 -98 -125c0 -84 34 -123 95 -123c55 0 77 32 110 32c38 0 53 -24 53 -57v-20c0 -44 -23 -69 -62 -82z" />
    <glyph glyph-name="eacute" unicode="&#xe9;" horiz-adv-x="580" 
d="M492 216h-253c9 -66 42 -84 104 -84c85 0 106 32 146 32c32 0 53 -19 53 -55v-15c0 -34 -17 -59 -54 -75c-43 -18 -100 -28 -180 -28c-198 0 -292 103 -292 270c0 169 110 277 285 277c179 0 263 -98 263 -253c0 -45 -27 -69 -72 -69zM233 626l6 27c10 42 38 62 81 62h77
c53 0 76 -52 33 -91l-27 -25c-36 -32 -65 -45 -103 -45h-7c-45 0 -69 29 -60 72zM302 404c-31 0 -56 -15 -64 -86h123c-3 66 -22 86 -59 86z" />
    <glyph glyph-name="egrave" unicode="&#xe8;" horiz-adv-x="580" 
d="M492 216h-253c9 -66 42 -84 104 -84c85 0 106 32 146 32c32 0 53 -19 53 -55v-15c0 -34 -17 -59 -54 -75c-43 -18 -100 -28 -180 -28c-198 0 -292 103 -292 270c0 169 110 277 285 277c179 0 263 -98 263 -253c0 -45 -27 -69 -72 -69zM352 653l6 -27
c10 -43 -15 -72 -60 -72h-7c-37 0 -68 12 -103 45l-27 25c-43 39 -20 91 33 91h77c43 0 72 -20 81 -62zM302 404c-31 0 -56 -15 -64 -86h123c-3 66 -22 86 -59 86z" />
    <glyph glyph-name="ecircumflex" unicode="&#xea;" horiz-adv-x="580" 
d="M492 216h-253c9 -66 42 -84 104 -84c85 0 106 32 146 32c32 0 53 -19 53 -55v-15c0 -34 -17 -59 -54 -75c-43 -18 -100 -28 -180 -28c-198 0 -292 103 -292 270c0 169 110 277 285 277c179 0 263 -98 263 -253c0 -45 -27 -69 -72 -69zM174 665l9 9c32 32 68 45 107 45h8
c39 0 75 -13 107 -45l9 -9c50 -50 22 -112 -31 -112h-3c-26 0 -51 14 -78 42l-8 8l-8 -8c-27 -28 -52 -42 -78 -42h-3c-53 0 -81 62 -31 112zM302 404c-31 0 -56 -15 -64 -86h123c-3 66 -22 86 -59 86z" />
    <glyph glyph-name="edieresis" unicode="&#xeb;" horiz-adv-x="580" 
d="M492 216h-253c9 -66 42 -84 104 -84c85 0 106 32 146 32c32 0 53 -19 53 -55v-15c0 -34 -17 -59 -54 -75c-43 -18 -100 -28 -180 -28c-198 0 -292 103 -292 270c0 169 110 277 285 277c179 0 263 -98 263 -253c0 -45 -27 -69 -72 -69zM500 640c0 -54 -39 -88 -96 -88
s-96 34 -96 88c0 53 39 87 96 87s96 -34 96 -87zM280 640c0 -54 -39 -88 -96 -88s-96 34 -96 88c0 53 39 87 96 87s96 -34 96 -87zM302 404c-31 0 -56 -15 -64 -86h123c-3 66 -22 86 -59 86z" />
    <glyph glyph-name="iacute" unicode="&#xed;" horiz-adv-x="306" 
d="M86 626l6 27c10 42 38 62 81 62h77c53 0 76 -52 33 -91l-27 -25c-36 -32 -65 -45 -103 -45h-7c-45 0 -69 29 -60 72zM264 420v-343c0 -52 -33 -77 -77 -77h-69c-43 0 -76 25 -76 77v374c0 52 30 77 76 77h58c64 0 88 -30 88 -108z" />
    <glyph glyph-name="igrave" unicode="&#xec;" horiz-adv-x="306" 
d="M264 420v-343c0 -52 -33 -77 -77 -77h-69c-43 0 -76 25 -76 77v374c0 52 30 77 76 77h58c64 0 88 -30 88 -108zM213 653l6 -27c10 -43 -15 -72 -60 -72h-7c-37 0 -68 12 -103 45l-27 25c-43 39 -20 91 33 91h77c43 0 72 -20 81 -62z" />
    <glyph glyph-name="icircumflex" unicode="&#xee;" horiz-adv-x="306" 
d="M34 665l9 9c32 32 68 45 107 45h8c39 0 75 -13 107 -45l9 -9c50 -50 22 -112 -31 -112h-3c-26 0 -51 14 -78 42l-8 8l-8 -8c-27 -28 -52 -42 -78 -42h-3c-53 0 -81 62 -31 112zM264 420v-343c0 -52 -33 -77 -77 -77h-69c-43 0 -76 25 -76 77v374c0 52 30 77 76 77h58
c64 0 88 -30 88 -108z" />
    <glyph glyph-name="idieresis" unicode="&#xef;" horiz-adv-x="306" 
d="M144 640c0 -54 -40 -88 -96 -88c-58 0 -97 34 -97 88c0 53 39 87 97 87c56 0 96 -34 96 -87zM355 640c0 -54 -39 -88 -97 -88c-57 0 -96 34 -96 88c0 53 39 87 96 87c58 0 97 -34 97 -87zM264 420v-343c0 -52 -33 -77 -77 -77h-69c-43 0 -76 25 -76 77v374
c0 52 30 77 76 77h58c64 0 88 -30 88 -108z" />
    <glyph glyph-name="ntilde" unicode="&#xf1;" horiz-adv-x="631" 
d="M311 372c-17 0 -34 -3 -47 -6v-289c0 -52 -34 -77 -77 -77h-69c-44 0 -77 25 -77 77v374c0 52 31 77 76 77h60c38 0 68 -14 80 -76c45 45 105 86 190 86c82 0 145 -36 145 -153v-308c0 -52 -33 -77 -77 -77h-68c-44 0 -77 25 -77 77v249c0 38 -18 46 -59 46zM383 559
c-48 0 -89 24 -113 24c-18 0 -30 -8 -41 -17c-11 -8 -21 -16 -36 -16h-2c-31 0 -54 23 -45 76c10 57 53 92 110 92c48 0 89 -24 112 -24c19 0 31 8 42 16s21 16 36 16h2c30 0 53 -22 45 -75c-10 -57 -53 -92 -110 -92z" />
    <glyph glyph-name="oacute" unicode="&#xf3;" horiz-adv-x="622" 
d="M249 626l6 27c10 42 38 62 81 62h77c53 0 76 -52 33 -91l-27 -25c-36 -32 -65 -45 -103 -45h-7c-45 0 -69 29 -60 72zM606 261c0 -168 -123 -270 -295 -270s-295 102 -295 270c0 169 123 277 295 277s295 -108 295 -277zM240 260c0 -93 27 -133 71 -133s70 40 70 133
s-26 132 -70 132s-71 -39 -71 -132z" />
    <glyph glyph-name="ograve" unicode="&#xf2;" horiz-adv-x="622" 
d="M606 261c0 -168 -123 -270 -295 -270s-295 102 -295 270c0 169 123 277 295 277s295 -108 295 -277zM240 260c0 -93 27 -133 71 -133s70 40 70 133s-26 132 -70 132s-71 -39 -71 -132zM368 653l6 -27c10 -43 -15 -72 -60 -72h-7c-37 0 -68 12 -103 45l-27 25
c-43 39 -20 91 33 91h77c43 0 72 -20 81 -62z" />
    <glyph glyph-name="ocircumflex" unicode="&#xf4;" horiz-adv-x="622" 
d="M191 665l9 9c32 32 68 45 107 45h8c39 0 75 -13 107 -45l9 -9c50 -50 22 -112 -31 -112h-3c-26 0 -51 14 -78 42l-8 8l-8 -8c-27 -28 -52 -42 -78 -42h-3c-53 0 -81 62 -31 112zM606 261c0 -168 -123 -270 -295 -270s-295 102 -295 270c0 169 123 277 295 277
s295 -108 295 -277zM240 260c0 -93 27 -133 71 -133s70 40 70 133s-26 132 -70 132s-71 -39 -71 -132z" />
    <glyph glyph-name="odieresis" unicode="&#xf6;" horiz-adv-x="622" 
d="M297 640c0 -54 -39 -88 -96 -88s-96 34 -96 88c0 53 39 87 96 87s96 -34 96 -87zM517 640c0 -54 -39 -88 -96 -88s-96 34 -96 88c0 53 39 87 96 87s96 -34 96 -87zM606 261c0 -168 -123 -270 -295 -270s-295 102 -295 270c0 169 123 277 295 277s295 -108 295 -277z
M240 260c0 -93 27 -133 71 -133s70 40 70 133s-26 132 -70 132s-71 -39 -71 -132z" />
    <glyph glyph-name="otilde" unicode="&#xf5;" horiz-adv-x="622" 
d="M606 261c0 -168 -123 -270 -295 -270s-295 102 -295 270c0 169 123 277 295 277s295 -108 295 -277zM240 260c0 -93 27 -133 71 -133s70 40 70 133s-26 132 -70 132s-71 -39 -71 -132zM374 559c-48 0 -89 24 -113 24c-18 0 -30 -8 -41 -17c-11 -8 -21 -16 -36 -16h-2
c-31 0 -54 23 -45 76c10 57 53 92 110 92c48 0 89 -24 112 -24c19 0 31 8 42 16s21 16 36 16h2c30 0 53 -22 45 -75c-10 -57 -53 -92 -110 -92z" />
    <glyph glyph-name="uacute" unicode="&#xfa;" horiz-adv-x="634" 
d="M449 0c-41 0 -64 15 -74 73c-45 -42 -98 -82 -180 -82c-86 0 -155 37 -155 162v298c0 51 32 77 77 77h69c44 0 76 -26 76 -77v-252c0 -39 19 -48 62 -48c15 0 32 3 45 7v293c0 51 32 77 77 77h68c45 0 77 -26 77 -77v-373c0 -53 -30 -78 -75 -78h-67zM255 626l6 27
c10 42 38 62 81 62h77c53 0 76 -52 33 -91l-27 -25c-36 -32 -65 -45 -103 -45h-7c-45 0 -69 29 -60 72z" />
    <glyph glyph-name="ugrave" unicode="&#xf9;" horiz-adv-x="634" 
d="M449 0c-41 0 -64 15 -74 73c-45 -42 -98 -82 -180 -82c-86 0 -155 37 -155 162v298c0 51 32 77 77 77h69c44 0 76 -26 76 -77v-252c0 -39 19 -48 62 -48c15 0 32 3 45 7v293c0 51 32 77 77 77h68c45 0 77 -26 77 -77v-373c0 -53 -30 -78 -75 -78h-67zM375 653l6 -27
c10 -43 -15 -72 -60 -72h-7c-37 0 -68 12 -103 45l-27 25c-43 39 -20 91 33 91h77c43 0 72 -20 81 -62z" />
    <glyph glyph-name="ucircumflex" unicode="&#xfb;" horiz-adv-x="634" 
d="M449 0c-41 0 -64 15 -74 73c-45 -42 -98 -82 -180 -82c-86 0 -155 37 -155 162v298c0 51 32 77 77 77h69c44 0 76 -26 76 -77v-252c0 -39 19 -48 62 -48c15 0 32 3 45 7v293c0 51 32 77 77 77h68c45 0 77 -26 77 -77v-373c0 -53 -30 -78 -75 -78h-67zM197 665l9 9
c32 32 68 45 107 45h8c39 0 75 -13 107 -45l9 -9c50 -50 22 -112 -31 -112h-3c-26 0 -51 14 -78 42l-8 8l-8 -8c-27 -28 -52 -42 -78 -42h-3c-53 0 -81 62 -31 112z" />
    <glyph glyph-name="udieresis" unicode="&#xfc;" horiz-adv-x="634" 
d="M449 0c-41 0 -64 15 -74 73c-45 -42 -98 -82 -180 -82c-86 0 -155 37 -155 162v298c0 51 32 77 77 77h69c44 0 76 -26 76 -77v-252c0 -39 19 -48 62 -48c15 0 32 3 45 7v293c0 51 32 77 77 77h68c45 0 77 -26 77 -77v-373c0 -53 -30 -78 -75 -78h-67zM303 640
c0 -54 -39 -88 -96 -88s-96 34 -96 88c0 53 39 87 96 87s96 -34 96 -87zM523 640c0 -54 -39 -88 -96 -88s-96 34 -96 88c0 53 39 87 96 87s96 -34 96 -87z" />
    <glyph glyph-name="dagger" unicode="&#x2020;" horiz-adv-x="496" 
d="M250 -54h-4c-41 0 -66 21 -78 71c-10 32 -25 148 -25 216c0 70 21 125 52 181c-36 -26 -69 -48 -100 -48c-52 0 -83 34 -83 90v9c0 56 31 90 83 90c31 0 64 -22 100 -48c-24 41 -47 80 -47 115c0 51 36 83 94 83h12c59 0 94 -32 94 -83c0 -35 -23 -75 -47 -115
c36 26 69 48 101 48c51 0 82 -34 82 -90v-9c0 -56 -31 -90 -82 -90c-32 0 -65 22 -101 48c32 -56 52 -111 52 -181c0 -68 -15 -184 -25 -216c-12 -49 -37 -71 -78 -71z" />
    <glyph glyph-name="degree" unicode="&#xb0;" horiz-adv-x="358" 
d="M336 558c0 -90 -73 -150 -157 -150s-157 60 -157 150c0 89 73 148 157 148s157 -59 157 -148zM123 558c0 -36 22 -62 56 -62s57 26 57 62s-23 60 -57 60s-56 -24 -56 -60z" />
    <glyph glyph-name="cent" unicode="&#xa2;" horiz-adv-x="529" 
d="M378 556v-21c20 -2 39 -6 57 -11c52 -16 67 -41 67 -85v-24c0 -38 -19 -56 -50 -56c-37 0 -57 26 -110 26c-64 0 -101 -37 -101 -125c0 -84 33 -124 98 -124c58 0 78 30 114 30c31 0 49 -21 49 -54v-20c0 -43 -18 -65 -62 -82c-19 -7 -42 -12 -67 -15v-44
c0 -37 -20 -59 -59 -59h-28c-40 0 -59 22 -59 59v47c-133 24 -212 112 -212 264c0 144 82 238 217 267v27c0 37 19 59 59 59h28c39 0 59 -22 59 -59z" />
    <glyph glyph-name="sterling" unicode="&#xa3;" horiz-adv-x="570" 
d="M443 344v-2c0 -36 -20 -67 -67 -67h-81v-8c0 -45 -21 -79 -38 -95h219c51 0 73 -33 73 -73v-26c0 -41 -22 -73 -73 -73h-390c-44 0 -70 26 -70 72v6c0 76 79 72 79 176c0 7 0 14 -1 21h-9c-46 0 -67 31 -67 67v2c0 31 15 58 48 65c-7 28 -13 56 -13 88
c0 138 102 214 272 214c59 0 112 -9 154 -25c49 -19 64 -48 64 -92v-32c0 -40 -20 -61 -56 -61c-40 0 -64 34 -127 34c-45 0 -78 -19 -78 -69c0 -19 0 -37 2 -55h92c47 0 67 -30 67 -67z" />
    <glyph glyph-name="section" unicode="&#xa7;" horiz-adv-x="588" 
d="M519 61c0 -117 -77 -196 -249 -196c-52 0 -103 6 -141 20c-43 15 -62 38 -62 80v13c0 33 19 57 53 57c40 0 64 -34 143 -34c47 0 65 11 65 32c0 20 -18 26 -89 44c-152 40 -220 83 -220 194c0 69 37 112 90 136c-27 28 -39 64 -39 116c0 116 91 188 235 188
c49 0 96 -5 132 -16c46 -15 62 -37 62 -75v-21c0 -35 -20 -51 -49 -51c-39 0 -69 31 -137 31c-41 0 -62 -9 -62 -29c0 -18 19 -29 80 -44c148 -38 237 -72 237 -195c0 -63 -29 -112 -93 -141c29 -27 44 -62 44 -109zM297 327c-34 8 -64 16 -90 25c-13 -7 -19 -19 -19 -31
c0 -30 14 -43 90 -63c34 -10 66 -19 93 -29c13 7 20 19 20 33c0 32 -22 47 -94 65z" />
    <glyph glyph-name="bullet" unicode="&#x2022;" horiz-adv-x="384" 
d="M354 279c0 -99 -72 -158 -162 -158s-163 59 -163 158s73 160 163 160s162 -61 162 -160z" />
    <glyph glyph-name="paragraph" unicode="&#xb6;" horiz-adv-x="592" 
d="M297 -96h-2c-35 0 -63 18 -63 63v330c-126 0 -213 58 -213 201c0 153 110 202 254 202h188c45 0 81 -26 81 -80v-653c0 -45 -29 -63 -63 -63h-2c-34 0 -63 18 -63 63v604h-55v-604c0 -45 -28 -63 -62 -63z" />
    <glyph glyph-name="germandbls" unicode="&#xdf;" horiz-adv-x="700" 
d="M446 128c25 0 41 8 41 24c0 18 -19 23 -67 41c-76 27 -114 66 -114 140c0 49 21 80 55 120c27 32 43 48 43 70c0 24 -22 42 -60 42c-57 0 -80 -29 -80 -81v-407c0 -53 -34 -77 -78 -77h-68c-44 0 -77 24 -77 77v409c0 147 98 225 309 225c181 0 276 -54 276 -155
c0 -51 -33 -87 -76 -118c-39 -28 -49 -40 -49 -55c0 -16 13 -23 52 -39c85 -36 133 -74 133 -175c0 -107 -73 -177 -229 -177c-35 0 -68 2 -97 11c-43 14 -57 36 -57 77v18c0 32 18 53 49 53c33 0 53 -23 94 -23z" />
    <glyph glyph-name="registered" unicode="&#xae;" horiz-adv-x="386" 
d="M379 529c0 -113 -90 -179 -186 -179c-97 0 -186 66 -186 179c0 114 89 179 186 179c96 0 186 -65 186 -179zM57 529c0 -91 60 -137 136 -137s136 46 136 137c0 90 -60 137 -136 137s-136 -47 -136 -137zM254 514l20 -37c11 -22 1 -38 -24 -38h-1c-19 0 -31 7 -41 30
l-14 29h-11v-25c0 -26 -12 -33 -33 -33h-2c-21 0 -33 7 -33 33v109c0 29 15 40 41 40h43c54 0 79 -22 79 -63c0 -20 -9 -35 -24 -45zM181 579v-39h11c14 0 19 6 19 19s-5 20 -19 20h-11z" />
    <glyph glyph-name="copyright" unicode="&#xa9;" horiz-adv-x="787" 
d="M505 164c-26 -10 -60 -16 -99 -16c-135 0 -216 67 -216 201c0 129 87 204 226 204c23 0 55 -3 81 -11c32 -10 51 -26 51 -63v-19c0 -27 -15 -42 -39 -42c-25 0 -40 18 -79 18c-42 0 -68 -25 -68 -89c0 -61 24 -87 66 -87c44 0 58 21 84 21c25 0 37 -16 37 -39v-15
c0 -32 -16 -52 -44 -63zM759 350c0 -231 -175 -358 -366 -358s-365 127 -365 358s174 358 365 358s366 -127 366 -358zM102 350c0 -188 133 -295 291 -295c159 0 292 107 292 295s-133 295 -292 295c-158 0 -291 -107 -291 -295z" />
    <glyph glyph-name="trademark" unicode="&#x2122;" horiz-adv-x="743" 
d="M217 616v-147c0 -41 -24 -53 -55 -53h-2c-33 0 -56 12 -56 53v147h-38c-32 0 -42 17 -42 41v2c0 24 10 41 42 41h190c30 0 40 -17 40 -41v-2c0 -24 -10 -41 -40 -41h-39zM705 631v-170c0 -33 -21 -45 -46 -45h-19c-26 0 -47 12 -47 45v126h-2l-38 -133
c-9 -30 -23 -39 -46 -39h-2c-23 0 -37 9 -46 39l-39 133h-2v-129c0 -32 -20 -43 -44 -43h-2c-26 0 -46 11 -46 44v172c0 49 23 70 70 70h10c55 0 76 -13 91 -65l16 -59h2l16 59c14 52 35 65 90 65h15c46 0 69 -21 69 -70z" />
    <glyph glyph-name="acute" unicode="&#xb4;" 
d="M131 623l6 27c10 42 38 62 81 62h77c53 0 76 -52 33 -91l-27 -25c-36 -32 -65 -45 -103 -45h-7c-45 0 -69 29 -60 72z" />
    <glyph glyph-name="dieresis" unicode="&#xa8;" 
d="M186 640c0 -54 -39 -88 -96 -88s-96 34 -96 88c0 53 39 87 96 87s96 -34 96 -87zM406 640c0 -54 -39 -88 -96 -88s-96 34 -96 88c0 53 39 87 96 87s96 -34 96 -87z" />
    <glyph glyph-name="AE" unicode="&#xc6;" horiz-adv-x="984" 
d="M513 0c-44 0 -79 32 -80 80v57h-188l-28 -65c-22 -50 -44 -72 -88 -72h-49c-50 0 -75 41 -50 97l243 530c22 49 62 73 113 73h486c42 0 71 -25 71 -71v-17c0 -47 -29 -72 -71 -72h-203v-112h124c42 0 70 -25 70 -70v-10c0 -46 -28 -70 -70 -70h-124v-122h212
c43 0 71 -25 71 -71v-14c0 -46 -28 -71 -71 -71h-368zM418 539l-106 -245h121v245h-15z" />
    <glyph glyph-name="Oslash" unicode="&#xd8;" horiz-adv-x="763" 
d="M696 644l-41 -49c52 -60 84 -144 84 -247c0 -232 -154 -359 -358 -359c-75 0 -144 17 -200 50l-34 -40c-20 -23 -35 -29 -48 -29h-2c-39 0 -60 42 -29 78l42 49c-55 60 -86 145 -86 251c0 232 159 363 357 363c76 0 146 -19 204 -56l32 38c20 23 35 29 48 29h2
c39 0 60 -42 29 -78zM259 347c0 -26 1 -49 4 -70l200 235c-21 25 -49 37 -82 37c-73 0 -122 -59 -122 -202zM504 347c0 24 -2 46 -4 66l-199 -233c20 -24 47 -35 80 -35c73 0 123 59 123 202z" />
    <glyph glyph-name="yen" unicode="&#xa5;" horiz-adv-x="641" 
d="M102 700h64c50 0 80 -21 101 -69l68 -150h3l67 153c20 46 50 66 99 66h47c56 0 76 -48 52 -96l-114 -217h64c37 0 51 -23 51 -50v-2c0 -28 -14 -51 -51 -51h-113v-38h113c37 0 51 -23 51 -50v-2c0 -28 -14 -51 -51 -51h-113v-64c0 -54 -34 -79 -78 -79h-77
c-43 0 -78 25 -78 79v64h-113c-37 0 -51 23 -51 51v2c0 27 14 50 51 50h113v38h-113c-37 0 -51 23 -51 51v2c0 27 14 50 51 50h60l-112 211c-26 51 1 102 60 102z" />
    <glyph glyph-name="ordfeminine" unicode="&#xaa;" horiz-adv-x="495" 
d="M343 258c-36 0 -54 10 -64 39c-29 -31 -70 -45 -122 -45c-72 0 -137 41 -137 130c0 94 68 136 171 136c31 0 57 -1 79 -5v16c0 33 -18 44 -67 45c-47 1 -70 -21 -103 -21c-30 0 -49 20 -49 52v13c0 36 14 57 54 70c37 12 86 20 143 20c147 0 212 -48 212 -169v-215
c0 -46 -28 -66 -66 -66h-51zM270 367v68c-10 1 -23 3 -31 3c-26 0 -43 -13 -43 -44c0 -29 19 -38 39 -38c11 0 25 4 35 11z" />
    <glyph glyph-name="ordmasculine" unicode="&#xba;" horiz-adv-x="539" 
d="M517 477c0 -141 -101 -226 -247 -226s-248 85 -248 226s102 231 248 231s247 -90 247 -231zM213 476c0 -76 22 -109 57 -109s56 33 56 109s-21 107 -56 107s-57 -31 -57 -107z" />
    <glyph glyph-name="ae" unicode="&#xe6;" horiz-adv-x="878" 
d="M607 -9c-103 0 -178 28 -226 79c-43 -49 -94 -77 -189 -77c-100 0 -177 49 -177 156c0 111 76 164 215 164h86v10c0 43 -22 59 -81 59c-62 0 -90 -28 -126 -28c-32 0 -57 22 -57 59v19c0 47 22 71 68 85c44 14 101 21 165 21c67 0 117 -13 149 -42c45 27 101 42 166 42
c179 0 263 -98 263 -253c0 -45 -27 -69 -72 -69h-254c10 -66 43 -84 104 -84c85 0 107 32 147 32c32 0 53 -19 53 -55v-15c0 -34 -17 -59 -54 -75c-43 -18 -100 -28 -180 -28zM269 114c31 0 50 14 66 30c-9 22 -15 46 -18 72h-42c-34 0 -53 -17 -53 -51c0 -37 22 -51 47 -51
zM601 404c-31 0 -57 -15 -65 -86h124c-3 66 -22 86 -59 86z" />
    <glyph glyph-name="oslash" unicode="&#xf8;" horiz-adv-x="622" 
d="M562 487l-30 -34c47 -47 74 -113 74 -192c0 -168 -123 -270 -295 -270c-59 0 -113 12 -157 35l-32 -36c-15 -17 -27 -22 -38 -22h-1c-34 0 -52 34 -23 66l31 36c-47 46 -75 111 -75 191c0 169 123 277 295 277c61 0 115 -14 161 -39l28 32c15 17 27 22 38 22h1
c33 0 52 -34 23 -66zM388 260c0 10 -1 20 -1 29l-128 -144c13 -17 31 -25 52 -25c47 0 77 43 77 140zM233 260c0 -11 0 -20 1 -29l127 143c-13 16 -30 23 -50 23c-47 0 -78 -40 -78 -137z" />
    <glyph glyph-name="questiondown" unicode="&#xbf;" horiz-adv-x="488" 
d="M307 406c45 0 76 -17 76 -65c0 -41 -25 -82 -62 -116c-39 -36 -74 -58 -74 -91c0 -28 21 -43 57 -43c51 0 70 33 115 33c34 0 55 -22 55 -61v-22c0 -45 -17 -72 -67 -92c-38 -15 -83 -23 -142 -23c-161 0 -245 71 -245 185c0 70 29 111 65 144c35 33 78 60 107 105
c19 31 44 46 89 46h26zM184 541c0 57 50 103 110 103c61 0 109 -46 109 -103c0 -59 -48 -105 -109 -105c-60 0 -110 46 -110 105z" />
    <glyph glyph-name="exclamdown" unicode="&#xa1;" horiz-adv-x="326" 
d="M159 404h8c40 0 72 -23 79 -73c0 0 35 -257 35 -310c0 -56 -26 -84 -80 -84h-76c-54 0 -80 28 -80 84c0 53 35 310 35 310c7 50 39 73 79 73zM272 540c0 -59 -49 -104 -109 -104c-61 0 -109 45 -109 104c0 58 48 104 109 104c60 0 109 -46 109 -104z" />
    <glyph glyph-name="florin" unicode="&#x192;" horiz-adv-x="436" 
d="M331 526l-10 -82h16c48 0 67 -29 67 -68v-2c0 -39 -19 -68 -67 -68h-33l-39 -326c-6 -55 -40 -80 -86 -80h-64c-41 0 -75 26 -69 77l38 329c-41 4 -58 32 -58 68v2c0 39 20 68 69 68h4l12 99c13 111 80 171 208 171c16 0 35 -1 53 -4c37 -7 53 -26 53 -59v-17
c0 -32 -14 -52 -49 -60c-27 -6 -41 -18 -45 -48z" />
    <glyph glyph-name="guillemotleft" unicode="&#xab;" horiz-adv-x="551" 
d="M333 99l-55 97c-16 28 -20 45 -20 63v2c0 18 4 35 20 63l55 97c24 42 51 61 99 61h21c52 0 74 -43 47 -91l-72 -129v-3l72 -129c27 -49 5 -91 -47 -91h-21c-48 0 -75 18 -99 60zM95 99l-55 97c-16 28 -20 45 -20 63v2c0 18 4 35 20 63l55 97c24 42 51 61 99 61h21
c51 0 74 -43 47 -91l-73 -129v-3l73 -129c27 -49 4 -91 -47 -91h-21c-48 0 -75 18 -99 60z" />
    <glyph glyph-name="guillemotright" unicode="&#xbb;" horiz-adv-x="551" 
d="M217 421l55 -97c16 -28 21 -45 21 -63v-2c0 -18 -5 -35 -21 -63l-55 -97c-24 -42 -51 -60 -98 -60h-22c-51 0 -74 42 -47 91l73 129v3l-73 129c-27 48 -4 91 47 91h22c47 0 74 -19 98 -61zM455 421l55 -97c16 -28 21 -45 21 -63v-2c0 -18 -5 -35 -21 -63l-55 -97
c-23 -42 -51 -60 -98 -60h-22c-51 0 -73 42 -47 91l73 129v3l-73 129c-27 48 -4 91 47 91h22c47 0 75 -19 98 -61z" />
    <glyph glyph-name="ellipsis" unicode="&#x2026;" horiz-adv-x="774" 
d="M235 96c0 -57 -49 -103 -109 -103c-61 0 -109 46 -109 103c0 59 48 105 109 105c60 0 109 -46 109 -105zM496 96c0 -57 -49 -103 -109 -103c-61 0 -109 46 -109 103c0 59 48 105 109 105c60 0 109 -46 109 -105zM757 96c0 -57 -49 -103 -109 -103c-61 0 -110 46 -110 103
c0 59 49 105 110 105c60 0 109 -46 109 -105z" />
    <glyph glyph-name="Agrave" unicode="&#xc0;" horiz-adv-x="730" 
d="M139 0h-56c-48 0 -72 37 -53 95l176 528c17 53 55 77 104 77h109c48 0 85 -24 103 -77l176 -523c20 -60 -10 -100 -56 -100h-89c-47 0 -74 22 -88 74l-17 60h-209l-17 -61c-14 -50 -41 -73 -83 -73zM421 823l8 -26c13 -44 -14 -72 -57 -72h-10c-35 0 -69 13 -104 44
l-27 24c-42 38 -25 90 34 90h75c43 0 69 -19 81 -60zM342 501l-59 -210h121l-59 210h-3z" />
    <glyph glyph-name="Atilde" unicode="&#xc3;" horiz-adv-x="730" 
d="M139 0h-56c-48 0 -72 37 -53 95l176 528c17 53 55 77 104 77h109c48 0 85 -24 103 -77l176 -523c20 -60 -10 -100 -56 -100h-89c-47 0 -74 22 -88 74l-17 60h-209l-17 -61c-14 -50 -41 -73 -83 -73zM423 724c-48 0 -89 24 -113 24c-18 0 -30 -8 -41 -17
c-11 -8 -21 -16 -36 -16h-2c-31 0 -54 23 -45 76c10 57 53 92 110 92c48 0 89 -24 112 -24c19 0 31 8 42 16s21 16 36 16h2c30 0 53 -22 45 -75c-10 -57 -53 -92 -110 -92zM342 501l-59 -210h121l-59 210h-3z" />
    <glyph glyph-name="Otilde" unicode="&#xd5;" horiz-adv-x="763" 
d="M444 724c-48 0 -89 24 -113 24c-18 0 -30 -8 -41 -17c-11 -8 -21 -16 -36 -16h-2c-31 0 -54 23 -45 76c10 57 53 92 110 92c48 0 89 -24 112 -24c19 0 31 8 42 16s21 16 36 16h2c30 0 53 -22 45 -75c-10 -57 -53 -92 -110 -92zM739 348c0 -232 -154 -359 -358 -359
s-357 127 -357 359s159 363 357 363c199 0 358 -131 358 -363zM264 347c0 -140 47 -197 117 -197s117 57 117 197s-47 197 -117 197s-117 -57 -117 -197z" />
    <glyph glyph-name="OE" unicode="&#x152;" horiz-adv-x="992" 
d="M888 0h-489c-253 0 -375 118 -375 345c0 234 121 355 382 355h473c43 0 71 -25 71 -71v-17c0 -47 -28 -72 -71 -72h-201v-112h122c42 0 71 -25 71 -70v-10c0 -46 -29 -70 -71 -70h-122v-122h210c43 0 71 -25 71 -71v-14c0 -46 -28 -71 -71 -71zM443 158v388h-30
c-100 0 -149 -48 -149 -192s46 -196 149 -196h30z" />
    <glyph glyph-name="oe" unicode="&#x153;" horiz-adv-x="943" 
d="M304 538c74 0 138 -24 185 -68c43 43 105 68 182 68c169 0 256 -95 256 -253c0 -45 -27 -69 -72 -69h-254c10 -66 43 -84 104 -84c86 0 107 32 147 32c32 0 53 -19 53 -55v-15c0 -37 -17 -59 -54 -75c-44 -18 -101 -28 -170 -28c-88 0 -152 22 -195 63
c-46 -41 -109 -63 -182 -63c-166 0 -288 102 -288 270c0 169 122 277 288 277zM240 260c0 -93 27 -134 71 -134s70 41 70 134s-26 131 -70 131s-71 -38 -71 -131zM665 404c-31 0 -57 -15 -65 -86h124c-3 66 -22 86 -59 86z" />
    <glyph glyph-name="endash" unicode="&#x2013;" horiz-adv-x="438" 
d="M340 203h-242c-49 0 -72 32 -72 72v13c0 40 23 71 72 71h242c49 0 72 -31 72 -71v-13c0 -40 -23 -72 -72 -72z" />
    <glyph glyph-name="emdash" unicode="&#x2014;" horiz-adv-x="728" 
d="M630 202h-532c-49 0 -72 32 -72 72v15c0 39 23 71 72 71h532c48 0 72 -32 72 -71v-15c0 -40 -24 -72 -72 -72z" />
    <glyph glyph-name="quotedblleft" unicode="&#x201c;" horiz-adv-x="495" 
d="M234 667v-2c0 -21 -11 -35 -38 -48c-25 -12 -34 -19 -34 -32c0 -15 14 -22 33 -34c27 -16 38 -40 38 -69c0 -51 -42 -87 -99 -87c-60 0 -112 38 -112 126c0 105 67 178 158 183c32 2 54 -12 54 -37zM474 667v-2c0 -21 -11 -35 -38 -48c-25 -12 -34 -19 -34 -32
c0 -15 14 -22 33 -34c26 -16 38 -40 38 -69c0 -51 -42 -87 -99 -87c-60 0 -113 38 -113 126c0 105 67 178 159 183c32 2 54 -12 54 -37z" />
    <glyph glyph-name="quotedblright" unicode="&#x201d;" horiz-adv-x="495" 
d="M260 435v2c0 21 12 35 39 48c25 12 34 19 34 32c0 15 -14 22 -33 34c-27 16 -39 40 -39 69c0 51 43 87 100 87c60 0 112 -38 112 -126c0 -105 -67 -178 -159 -184c-31 -1 -54 13 -54 38zM21 435v2c0 21 11 35 38 48c25 12 34 19 34 32c0 15 -14 22 -33 34
c-27 16 -38 40 -38 69c0 51 42 87 99 87c60 0 112 -38 112 -126c0 -105 -67 -178 -159 -184c-31 -1 -53 13 -53 38z" />
    <glyph glyph-name="quoteleft" unicode="&#x2018;" horiz-adv-x="255" 
d="M234 667v-2c0 -21 -11 -35 -38 -48c-25 -12 -34 -19 -34 -32c0 -15 14 -22 33 -34c27 -16 38 -40 38 -69c0 -51 -42 -87 -99 -87c-60 0 -112 38 -112 126c0 105 67 178 158 183c32 2 54 -12 54 -37z" />
    <glyph glyph-name="quoteright" unicode="&#x2019;" horiz-adv-x="255" 
d="M21 435v2c0 21 11 35 38 48c25 12 34 19 34 32c0 15 -14 22 -33 34c-27 16 -38 40 -38 69c0 51 42 87 99 87c60 0 112 -38 112 -126c0 -105 -67 -178 -159 -184c-31 -1 -53 13 -53 38z" />
    <glyph glyph-name="divide" unicode="&#xf7;" horiz-adv-x="545" 
d="M454 261h-362c-51 0 -72 32 -72 72v26c0 39 21 71 72 71h362c50 0 72 -32 72 -71v-26c0 -40 -22 -72 -72 -72zM165 135c0 58 48 102 108 102c59 0 107 -44 107 -102s-48 -101 -107 -101c-60 0 -108 43 -108 101zM165 555c0 58 48 102 108 102c59 0 107 -44 107 -102
s-48 -101 -107 -101c-60 0 -108 43 -108 101z" />
    <glyph glyph-name="ydieresis" unicode="&#xff;" horiz-adv-x="595" 
d="M566 429l-206 -524c-20 -50 -53 -70 -95 -70h-83c-43 0 -65 36 -41 86l50 105l-162 403c-21 53 2 99 57 99h69c47 0 72 -21 89 -72l67 -194h3l64 196c16 50 40 70 85 70h49c54 0 75 -44 54 -99zM295 640c0 -54 -39 -88 -96 -88s-96 34 -96 88c0 53 39 87 96 87
s96 -34 96 -87zM515 640c0 -54 -39 -88 -96 -88s-96 34 -96 88c0 53 39 87 96 87s96 -34 96 -87z" />
    <glyph glyph-name="Ydieresis" unicode="&#x178;" horiz-adv-x="670" 
d="M541 700h46c58 0 79 -51 55 -97l-185 -350v-174c0 -54 -35 -79 -78 -79h-81c-44 0 -79 25 -79 79v168l-188 352c-26 48 1 101 60 101h67c50 0 77 -23 101 -70l91 -176h2l91 180c22 45 49 66 98 66zM336 811c0 -53 -39 -87 -96 -87s-96 34 -96 87s39 87 96 87
s96 -34 96 -87zM556 811c0 -53 -39 -87 -96 -87s-96 34 -96 87s39 87 96 87s96 -34 96 -87z" />
    <glyph glyph-name="fraction" unicode="&#x2044;" horiz-adv-x="231" 
d="M-140 53l408 631c23 37 40 49 63 49h3c40 0 68 -42 36 -92l-408 -631c-23 -37 -40 -49 -63 -49h-3c-40 0 -68 42 -36 92z" />
    <glyph glyph-name="Euro" unicode="&#x20ac;" horiz-adv-x="639" 
d="M395 229h-75c15 -57 45 -75 99 -75c78 0 99 42 141 42c37 0 58 -23 58 -58v-24c0 -46 -17 -73 -64 -95c-40 -19 -100 -30 -160 -30c-152 0 -278 69 -316 240h-15c-36 0 -49 22 -49 49v2c0 27 13 49 49 49h3v38h-3c-36 0 -49 22 -49 49v2c0 27 13 49 49 49h15
c39 172 166 244 335 244c50 0 96 -6 134 -19c52 -17 68 -43 68 -90v-31c0 -38 -22 -61 -58 -61c-40 0 -67 35 -132 35c-54 0 -88 -21 -105 -78h98c36 0 49 -22 49 -49v-2c0 -27 -13 -49 -49 -49h-109v-38h86c37 0 50 -22 50 -49v-2c0 -27 -13 -49 -50 -49z" />
    <glyph glyph-name="guilsinglleft" unicode="&#x2039;" horiz-adv-x="312" 
d="M189 259l73 -129c27 -49 4 -91 -47 -91h-21c-48 0 -75 18 -99 60l-55 97c-16 28 -20 45 -20 63v2c0 18 4 35 20 63l55 97c24 42 51 61 99 61h21c51 0 74 -43 47 -91l-73 -129v-3z" />
    <glyph glyph-name="guilsinglright" unicode="&#x203a;" horiz-adv-x="312" 
d="M50 130l73 129v3l-73 129c-27 48 -4 91 47 91h22c47 0 74 -19 98 -61l55 -97c16 -28 21 -45 21 -63v-2c0 -18 -5 -35 -21 -63l-55 -97c-24 -42 -51 -60 -98 -60h-22c-51 0 -74 42 -47 91z" />
    <glyph glyph-name="fi" unicode="&#xfb01;" horiz-adv-x="673" 
d="M292 77c0 -52 -33 -77 -76 -77h-69c-44 0 -77 25 -77 77v315h-8c-32 0 -52 17 -52 61v14c0 44 20 61 52 61h8v23c0 119 71 162 194 162c25 0 41 -2 60 -6c32 -7 50 -22 50 -58v-16c0 -29 -15 -46 -48 -53c-29 -6 -34 -21 -34 -38v-12h20c34 -1 58 -19 58 -63v-14
c0 -44 -24 -61 -58 -61h-20v-315zM631 420v-343c0 -52 -33 -77 -77 -77h-68c-44 0 -77 25 -77 77v374c0 52 30 77 76 77h58c64 0 88 -30 88 -108zM630 643c0 -57 -45 -93 -110 -93s-110 36 -110 93s45 94 110 94s110 -37 110 -94z" />
    <glyph glyph-name="fl" unicode="&#xfb02;" horiz-adv-x="674" 
d="M292 77c0 -52 -33 -77 -76 -77h-69c-44 0 -77 25 -77 77v315h-8c-32 0 -52 17 -52 61v14c0 44 20 61 52 61h8v23c0 119 71 162 194 162c25 0 37 -2 56 -6c35 -8 50 -23 50 -58v-16c0 -29 -15 -45 -48 -52c-23 -4 -30 -18 -30 -39v-12h20c34 -1 58 -19 58 -63v-14
c0 -44 -24 -61 -58 -61h-20v-315zM409 77v545c0 52 30 78 76 78h58c64 0 88 -31 88 -117v-506c0 -52 -33 -77 -77 -77h-68c-44 0 -77 25 -77 77z" />
    <glyph glyph-name="daggerdbl" unicode="&#x2021;" horiz-adv-x="496" 
d="M342 326c0 -37 -22 -71 -44 -105c33 24 70 51 104 51c51 0 82 -35 82 -90v-9c0 -56 -31 -90 -82 -90c-32 0 -69 25 -103 49c22 -38 45 -74 45 -110c0 -45 -30 -76 -92 -76h-7c-63 0 -93 31 -93 76c0 36 22 71 45 110c-35 -24 -71 -49 -102 -49c-52 0 -83 34 -83 90v9
c0 55 31 90 83 90c33 0 70 -27 103 -51c-22 34 -44 68 -44 105s22 71 44 105c-33 -25 -70 -51 -103 -51c-52 0 -83 34 -83 89v10c0 55 31 90 83 90c31 0 67 -25 102 -50c-23 39 -45 74 -45 110c0 45 30 76 93 76h7c62 0 92 -31 92 -76c0 -36 -23 -72 -45 -110
c34 24 71 50 103 50c51 0 82 -35 82 -90v-10c0 -55 -31 -89 -82 -89c-34 0 -71 26 -104 51c22 -34 44 -68 44 -105z" />
    <glyph glyph-name="periodcentered" unicode="&#xb7;" horiz-adv-x="253" 
d="M235 293c0 -58 -49 -104 -109 -104c-61 0 -109 46 -109 104c0 59 48 104 109 104c60 0 109 -45 109 -104z" />
    <glyph glyph-name="quotesinglbase" unicode="&#x201a;" horiz-adv-x="255" 
d="M93 18c0 14 -14 22 -33 33c-27 17 -38 41 -38 69c0 52 42 87 99 87c60 0 112 -37 112 -124c0 -96 -58 -161 -159 -179c-30 -6 -53 10 -53 35v3c0 19 11 33 38 45c25 12 34 19 34 31z" />
    <glyph glyph-name="quotedblbase" unicode="&#x201e;" horiz-adv-x="495" 
d="M93 18c0 14 -14 22 -33 33c-27 17 -38 41 -38 69c0 52 42 87 99 87c60 0 112 -37 112 -124c0 -96 -58 -161 -159 -179c-30 -6 -53 10 -53 35v3c0 19 11 33 38 45c25 12 34 19 34 31zM333 18c0 14 -14 22 -33 33c-27 17 -39 41 -39 69c0 52 43 87 100 87
c60 0 112 -37 112 -124c0 -96 -58 -161 -159 -179c-30 -6 -54 10 -54 35v3c0 19 12 33 39 45c25 12 34 19 34 31z" />
    <glyph glyph-name="perthousand" unicode="&#x2030;" horiz-adv-x="1343" 
d="M714 644l-417 -644c-17 -27 -35 -39 -55 -39h-2c-48 0 -70 45 -41 90l416 644c18 27 36 39 56 39h1c49 0 70 -45 42 -90zM173 515c0 -63 16 -86 44 -86c30 0 45 23 45 86s-15 87 -45 87c-28 0 -44 -24 -44 -87zM417 517c0 -132 -97 -195 -200 -195
c-102 0 -199 63 -199 195c0 131 97 192 199 192c103 0 200 -61 200 -192zM654 183c0 -63 16 -86 45 -86s44 23 44 86s-15 87 -44 87s-45 -24 -45 -87zM898 185c0 -132 -97 -194 -199 -194c-103 0 -200 62 -200 194c0 131 97 193 200 193c102 0 199 -62 199 -193zM1082 183
c0 -63 15 -86 44 -86s44 23 44 86s-15 87 -44 87s-44 -24 -44 -87zM1325 185c0 -132 -96 -194 -199 -194s-199 62 -199 194c0 131 96 193 199 193s199 -62 199 -193z" />
    <glyph glyph-name="Acircumflex" unicode="&#xc2;" horiz-adv-x="730" 
d="M139 0h-56c-48 0 -72 37 -53 95l176 528c17 53 55 77 104 77h109c48 0 85 -24 103 -77l176 -523c20 -60 -10 -100 -56 -100h-89c-47 0 -74 22 -88 74l-17 60h-209l-17 -61c-14 -50 -41 -73 -83 -73zM361 774l-8 -8c-29 -29 -52 -42 -79 -42h-2c-54 0 -79 58 -35 106l9 10
c27 30 67 47 108 47h14c41 0 81 -17 108 -47l9 -10c44 -48 19 -106 -35 -106h-2c-27 0 -50 13 -79 42zM342 501l-59 -210h121l-59 210h-3z" />
    <glyph glyph-name="Ecircumflex" unicode="&#xca;" horiz-adv-x="604" 
d="M500 0h-369c-47 0 -81 27 -81 80v540c0 53 34 80 81 80h360c42 0 71 -24 71 -71v-17c0 -48 -29 -72 -71 -72h-204v-112h126c41 0 71 -23 71 -70v-10c0 -48 -30 -71 -71 -71h-126v-121h213c42 0 71 -24 71 -71v-14c0 -48 -29 -71 -71 -71zM307 774l-8 -8
c-29 -29 -52 -42 -79 -42h-2c-54 0 -79 58 -35 106l9 10c27 30 67 47 108 47h14c41 0 81 -17 108 -47l9 -10c44 -48 19 -106 -35 -106h-2c-27 0 -50 13 -79 42z" />
    <glyph glyph-name="Aacute" unicode="&#xc1;" horiz-adv-x="730" 
d="M139 0h-56c-48 0 -72 37 -53 95l176 528c17 53 55 77 104 77h109c48 0 85 -24 103 -77l176 -523c20 -60 -10 -100 -56 -100h-89c-47 0 -74 22 -88 74l-17 60h-209l-17 -61c-14 -50 -41 -73 -83 -73zM293 797l8 26c12 41 38 60 81 60h75c59 0 76 -52 34 -90l-27 -24
c-35 -31 -69 -44 -104 -44h-10c-43 0 -70 28 -57 72zM342 501l-59 -210h121l-59 210h-3z" />
    <glyph glyph-name="Edieresis" unicode="&#xcb;" horiz-adv-x="604" 
d="M500 0h-369c-47 0 -81 27 -81 80v540c0 53 34 80 81 80h360c42 0 71 -24 71 -71v-17c0 -48 -29 -72 -71 -72h-204v-112h126c41 0 71 -23 71 -70v-10c0 -48 -30 -71 -71 -71h-126v-121h213c42 0 71 -24 71 -71v-14c0 -48 -29 -71 -71 -71zM301 811c0 -53 -39 -87 -96 -87
s-96 34 -96 87s39 87 96 87s96 -34 96 -87zM521 811c0 -53 -39 -87 -96 -87s-96 34 -96 87s39 87 96 87s96 -34 96 -87z" />
    <glyph glyph-name="Egrave" unicode="&#xc8;" horiz-adv-x="604" 
d="M375 823l8 -26c13 -44 -14 -72 -57 -72h-10c-35 0 -69 13 -104 44l-27 24c-42 38 -25 90 34 90h75c43 0 69 -19 81 -60zM500 0h-369c-47 0 -81 27 -81 80v540c0 53 34 80 81 80h360c42 0 71 -24 71 -71v-17c0 -48 -29 -72 -71 -72h-204v-112h126c41 0 71 -23 71 -70v-10
c0 -48 -30 -71 -71 -71h-126v-121h213c42 0 71 -24 71 -71v-14c0 -48 -29 -71 -71 -71z" />
    <glyph glyph-name="Iacute" unicode="&#xcd;" horiz-adv-x="345" 
d="M291 621v-542c0 -54 -34 -79 -78 -79h-81c-44 0 -79 25 -79 79v542c0 51 33 79 79 79h81c47 0 78 -28 78 -79zM105 797l8 26c12 41 38 60 81 60h75c59 0 76 -52 34 -90l-27 -24c-35 -31 -69 -44 -104 -44h-10c-43 0 -70 28 -57 72z" />
    <glyph glyph-name="Icircumflex" unicode="&#xce;" horiz-adv-x="345" 
d="M291 621v-542c0 -54 -34 -79 -78 -79h-81c-44 0 -79 25 -79 79v542c0 51 33 79 79 79h81c47 0 78 -28 78 -79zM173 774l-8 -8c-29 -29 -52 -42 -79 -42h-2c-54 0 -79 58 -35 106l9 10c27 30 67 47 108 47h14c41 0 81 -17 108 -47l9 -10c44 -48 19 -106 -35 -106h-2
c-27 0 -50 13 -79 42z" />
    <glyph glyph-name="Idieresis" unicode="&#xcf;" horiz-adv-x="345" 
d="M291 621v-542c0 -54 -34 -79 -78 -79h-81c-44 0 -79 25 -79 79v542c0 51 33 79 79 79h81c47 0 78 -28 78 -79zM158 811c0 -53 -39 -87 -96 -87s-96 34 -96 87s39 87 96 87s96 -34 96 -87zM378 811c0 -53 -39 -87 -96 -87s-96 34 -96 87s39 87 96 87s96 -34 96 -87z" />
    <glyph glyph-name="Igrave" unicode="&#xcc;" horiz-adv-x="345" 
d="M291 621v-542c0 -54 -34 -79 -78 -79h-81c-44 0 -79 25 -79 79v542c0 51 33 79 79 79h81c47 0 78 -28 78 -79zM234 823l8 -26c13 -44 -14 -72 -57 -72h-10c-35 0 -69 13 -104 44l-27 24c-42 38 -25 90 34 90h75c43 0 69 -19 81 -60z" />
    <glyph glyph-name="Oacute" unicode="&#xd3;" horiz-adv-x="763" 
d="M314 797l8 26c12 41 38 60 81 60h75c59 0 76 -52 34 -90l-27 -24c-35 -31 -69 -44 -104 -44h-10c-43 0 -70 28 -57 72zM739 348c0 -232 -154 -359 -358 -359s-357 127 -357 359s159 363 357 363c199 0 358 -131 358 -363zM264 347c0 -140 47 -197 117 -197
s117 57 117 197s-47 197 -117 197s-117 -57 -117 -197z" />
    <glyph glyph-name="Ocircumflex" unicode="&#xd4;" horiz-adv-x="763" 
d="M739 348c0 -232 -154 -359 -358 -359s-357 127 -357 359s159 363 357 363c199 0 358 -131 358 -363zM264 347c0 -140 47 -197 117 -197s117 57 117 197s-47 197 -117 197s-117 -57 -117 -197zM381 774l-8 -8c-29 -29 -52 -42 -79 -42h-2c-54 0 -79 58 -35 106l9 10
c27 30 67 47 108 47h14c41 0 81 -17 108 -47l9 -10c44 -48 19 -106 -35 -106h-2c-27 0 -50 13 -79 42z" />
    <glyph glyph-name="Ograve" unicode="&#xd2;" horiz-adv-x="763" 
d="M441 823l8 -26c13 -44 -14 -72 -57 -72h-10c-35 0 -69 13 -104 44l-27 24c-42 38 -25 90 34 90h75c43 0 69 -19 81 -60zM739 348c0 -232 -154 -359 -358 -359s-357 127 -357 359s159 363 357 363c199 0 358 -131 358 -363zM264 347c0 -140 47 -197 117 -197
s117 57 117 197s-47 197 -117 197s-117 -57 -117 -197z" />
    <glyph glyph-name="Uacute" unicode="&#xda;" horiz-adv-x="715" 
d="M308 797l8 26c12 41 38 60 81 60h75c59 0 76 -52 34 -90l-27 -24c-35 -31 -69 -44 -104 -44h-10c-43 0 -70 28 -57 72zM286 263c0 -72 28 -102 93 -102c64 0 91 30 91 102v362c0 50 31 75 74 75h49c43 0 74 -25 74 -75v-369c0 -173 -106 -264 -303 -264
c-209 0 -316 92 -316 264v365c0 51 32 79 78 79h81c47 0 79 -28 79 -79v-358z" />
    <glyph glyph-name="Ucircumflex" unicode="&#xdb;" horiz-adv-x="715" 
d="M286 263c0 -72 28 -102 93 -102c64 0 91 30 91 102v362c0 50 31 75 74 75h49c43 0 74 -25 74 -75v-369c0 -173 -106 -264 -303 -264c-209 0 -316 92 -316 264v365c0 51 32 79 78 79h81c47 0 79 -28 79 -79v-358zM374 774l-8 -8c-29 -29 -52 -42 -79 -42h-2
c-54 0 -79 58 -35 106l9 10c27 30 67 47 108 47h14c41 0 81 -17 108 -47l9 -10c44 -48 19 -106 -35 -106h-2c-27 0 -50 13 -79 42z" />
    <glyph glyph-name="Ugrave" unicode="&#xd9;" horiz-adv-x="715" 
d="M435 823l8 -26c13 -44 -14 -72 -57 -72h-10c-35 0 -69 13 -104 44l-27 24c-42 38 -25 90 34 90h75c43 0 69 -19 81 -60zM286 263c0 -72 28 -102 93 -102c64 0 91 30 91 102v362c0 50 31 75 74 75h49c43 0 74 -25 74 -75v-369c0 -173 -106 -264 -303 -264
c-209 0 -316 92 -316 264v365c0 51 32 79 78 79h81c47 0 79 -28 79 -79v-358z" />
    <glyph glyph-name="dotlessi" unicode="&#x131;" horiz-adv-x="306" 
d="M264 420v-343c0 -52 -33 -77 -77 -77h-69c-43 0 -76 25 -76 77v374c0 52 30 77 76 77h58c64 0 88 -30 88 -108z" />
    <glyph glyph-name="circumflex" unicode="&#x2c6;" 
d="M80 662l9 9c32 32 68 45 107 45h8c39 0 75 -13 107 -45l9 -9c50 -50 22 -112 -31 -112h-3c-26 0 -51 14 -78 42l-8 8l-8 -8c-27 -28 -52 -42 -78 -42h-3c-53 0 -81 62 -31 112z" />
    <glyph glyph-name="tilde" unicode="&#x2dc;" 
d="M261 559c-48 0 -89 24 -113 24c-18 0 -30 -8 -41 -17c-11 -8 -21 -16 -36 -16h-2c-31 0 -54 23 -45 76c10 57 53 92 110 92c48 0 89 -24 112 -24c19 0 31 8 42 16s21 16 36 16h2c30 0 53 -22 45 -75c-10 -57 -53 -92 -110 -92z" />
    <glyph glyph-name="macron" unicode="&#xaf;" 
d="M113 694h174c42 0 60 -27 60 -60v-2c0 -33 -18 -60 -60 -60h-174c-42 0 -60 27 -60 60v2c0 33 18 60 60 60z" />
    <glyph glyph-name="breve" unicode="&#x2d8;" 
d="M200 556c-88 0 -152 50 -159 109c-4 34 11 61 46 61h3c20 0 35 -12 51 -24s34 -24 59 -24s42 12 59 24c16 12 31 24 51 24h3c35 0 52 -27 46 -61c-10 -59 -71 -109 -159 -109z" />
    <glyph glyph-name="dotaccent" unicode="&#x2d9;" 
d="M306 643c0 -55 -43 -91 -106 -91s-106 36 -106 91s43 92 106 92s106 -37 106 -92z" />
    <glyph glyph-name="ring" unicode="&#x2da;" 
d="M309 661c0 -64 -51 -103 -109 -103s-109 39 -109 103c0 63 51 103 109 103s109 -40 109 -103zM170 661c0 -19 12 -32 30 -32c19 0 31 13 31 32s-12 32 -31 32c-18 0 -30 -13 -30 -32z" />
    <glyph glyph-name="cedilla" unicode="&#xb8;" 
d="M151 -62v62h86v-25c54 -3 81 -27 81 -71c0 -46 -32 -79 -121 -79c-19 0 -39 2 -58 7c-25 7 -32 19 -32 40v3c0 18 8 30 26 30c12 0 24 -8 40 -8c14 0 22 6 22 14c0 7 -6 12 -25 12h-3c-10 0 -16 5 -16 15z" />
    <glyph glyph-name="hungarumlaut" unicode="&#x2dd;" 
d="M53 622l7 28c10 42 36 62 80 62h39c53 0 71 -42 34 -89l-17 -22c-30 -39 -56 -50 -91 -50h-3c-36 0 -61 24 -49 71zM246 622l7 28c10 42 37 62 80 62h39c53 0 71 -42 34 -89l-17 -22c-30 -39 -55 -50 -91 -50h-3c-36 0 -59 24 -49 71z" />
    <glyph glyph-name="ogonek" unicode="&#x2db;" 
d="M79 -90c0 44 38 73 79 90h120c-20 -18 -30 -30 -30 -42c0 -10 12 -16 22 -21c26 -13 34 -24 34 -48v-2c0 -33 -31 -57 -96 -57c-57 0 -129 13 -129 80z" />
    <glyph glyph-name="caron" unicode="&#x2c7;" 
d="M89 596l-9 9c-50 50 -22 112 31 112h3c26 0 51 -14 78 -42l8 -8l8 8c27 28 52 42 78 42h3c53 0 81 -62 31 -112l-9 -9c-32 -32 -68 -45 -107 -45h-8c-39 0 -75 13 -107 45z" />
    <glyph glyph-name="Dcroat" unicode="&#x110;" horiz-adv-x="731" 
d="M327 0h-194c-46 0 -80 27 -80 80v198c-42 4 -61 34 -61 71v4c0 36 19 65 61 69v198c0 53 34 80 80 80h201c253 0 376 -118 376 -345c0 -234 -121 -355 -383 -355zM322 278h-32v-124h31c99 0 148 48 148 192s-46 195 -148 195h-31v-118h32c49 0 70 -31 70 -70v-4
c0 -40 -21 -71 -70 -71z" />
    <glyph glyph-name="uni0237" unicode="&#x237;" horiz-adv-x="306" 
d="M264 420v-423c0 -123 -67 -167 -194 -167c-20 0 -46 2 -61 5c-35 7 -52 25 -52 61v6c0 33 13 52 45 59c30 6 40 18 40 51v439c0 52 30 77 76 77h58c64 0 88 -30 88 -108z" />
    <glyph glyph-name="dcroat" unicode="&#x111;" horiz-adv-x="631" 
d="M590 557v-479c0 -53 -30 -78 -76 -78h-68c-30 0 -53 14 -66 52c-30 -33 -74 -62 -151 -62c-122 0 -211 79 -211 270c0 209 116 278 213 278c67 0 106 -22 137 -57v76h-73c-33 0 -47 22 -47 47v2c0 26 14 47 47 47h77c10 31 36 47 71 47h62c43 0 67 -11 77 -47h9
c33 0 48 -21 48 -47v-2c0 -25 -15 -47 -48 -47h-1zM322 377c-43 0 -79 -21 -79 -116c0 -99 28 -131 73 -131c21 0 36 6 52 16v221c-14 7 -29 10 -46 10z" />
    <glyph glyph-name="Abreve" unicode="&#x102;" horiz-adv-x="730" 
d="M139 0h-56c-48 0 -72 37 -53 95l176 528c17 53 55 77 104 77h109c48 0 85 -24 103 -77l176 -523c20 -60 -10 -100 -56 -100h-89c-47 0 -74 22 -88 74l-17 60h-209l-17 -61c-14 -50 -41 -73 -83 -73zM360 725c-89 0 -149 48 -157 101c-5 32 13 57 47 57h3
c19 0 34 -11 50 -22c15 -11 32 -22 57 -22s42 11 57 22c16 11 31 22 50 22h3c34 0 52 -25 47 -57c-8 -53 -68 -101 -157 -101zM342 501l-59 -210h121l-59 210h-3z" />
    <glyph glyph-name="Amacron" unicode="&#x100;" horiz-adv-x="730" 
d="M139 -2h-56c-48 0 -72 37 -53 95l176 532c17 53 55 77 104 77h109c48 0 85 -24 103 -77l176 -527c20 -60 -10 -100 -56 -100h-89c-47 0 -74 22 -88 74l-18 62h-208l-17 -63c-14 -50 -41 -73 -83 -73zM273 854h176c42 0 60 -28 60 -60v-2c0 -33 -18 -61 -60 -61h-176
c-43 0 -61 28 -61 61v2c0 32 18 60 61 60zM342 501l-59 -210h120l-58 210h-3z" />
    <glyph glyph-name="Aogonek" unicode="&#x104;" horiz-adv-x="730" 
d="M671 4c-23 -15 -32 -28 -32 -40s9 -20 25 -27c26 -13 34 -24 34 -48v-2c0 -33 -31 -57 -96 -57c-57 0 -129 13 -129 80c0 44 35 74 77 91c-52 3 -73 26 -85 71l-18 62h-208l-17 -61c-14 -50 -41 -73 -83 -73h-56c-48 0 -72 37 -53 95l176 528c17 53 55 77 104 77h109
c48 0 85 -24 103 -77l176 -525c15 -46 3 -75 -27 -94zM342 501l-59 -210h120l-58 210h-3z" />
    <glyph glyph-name="Cacute" unicode="&#x106;" horiz-adv-x="654" 
d="M560 24c-45 -21 -106 -35 -178 -35c-221 0 -357 125 -357 354c0 236 145 368 378 368c62 0 112 -9 154 -25c41 -16 65 -43 65 -92v-27c0 -39 -24 -65 -61 -65c-48 0 -76 42 -153 42c-85 0 -140 -55 -140 -191c0 -149 47 -201 132 -201c83 0 116 50 163 50
c37 0 63 -24 63 -62v-19c0 -49 -25 -78 -66 -97zM308 797l8 26c12 41 38 60 81 60h75c59 0 76 -52 34 -90l-27 -24c-35 -31 -69 -44 -104 -44h-10c-43 0 -70 28 -57 72z" />
    <glyph glyph-name="Ccaron" unicode="&#x10c;" horiz-adv-x="654" 
d="M560 24c-45 -21 -106 -35 -178 -35c-221 0 -357 125 -357 354c0 236 145 368 378 368c62 0 112 -9 154 -25c41 -16 65 -43 65 -92v-27c0 -39 -24 -65 -61 -65c-48 0 -76 42 -153 42c-85 0 -140 -55 -140 -191c0 -149 47 -201 132 -201c83 0 116 50 163 50
c37 0 63 -24 63 -62v-19c0 -49 -25 -78 -66 -97zM368 846l8 -8l8 8c29 29 52 42 79 42h2c54 0 79 -58 35 -106l-9 -10c-27 -30 -67 -47 -108 -47h-14c-41 0 -81 17 -108 47l-9 10c-44 48 -19 106 35 106h2c27 0 50 -13 79 -42z" />
    <glyph glyph-name="Ccircumflex" unicode="&#x108;" horiz-adv-x="654" 
d="M560 24c-45 -21 -106 -35 -178 -35c-221 0 -357 125 -357 354c0 236 145 368 378 368c62 0 112 -9 154 -25c41 -16 65 -43 65 -92v-27c0 -39 -24 -65 -61 -65c-48 0 -76 42 -153 42c-85 0 -140 -55 -140 -191c0 -149 47 -201 132 -201c83 0 116 50 163 50
c37 0 63 -24 63 -62v-19c0 -49 -25 -78 -66 -97zM375 774l-8 -8c-29 -29 -52 -42 -79 -42h-2c-54 0 -79 58 -35 106l9 10c27 30 67 47 108 47h14c41 0 81 -17 108 -47l9 -10c44 -48 19 -106 -35 -106h-2c-27 0 -50 13 -79 42z" />
    <glyph glyph-name="Cdotaccent" unicode="&#x10a;" horiz-adv-x="654" 
d="M481 817c0 -55 -43 -90 -106 -90s-106 35 -106 90s43 92 106 92s106 -37 106 -92zM560 24c-45 -21 -106 -35 -178 -35c-221 0 -357 125 -357 354c0 236 145 368 378 368c62 0 112 -9 154 -25c41 -16 65 -43 65 -92v-27c0 -39 -24 -65 -61 -65c-48 0 -76 42 -153 42
c-85 0 -140 -55 -140 -191c0 -149 47 -201 132 -201c83 0 116 50 163 50c37 0 63 -24 63 -62v-19c0 -49 -25 -78 -66 -97z" />
    <glyph glyph-name="Dcaron" unicode="&#x10e;" horiz-adv-x="731" 
d="M324 846l8 -8l8 8c29 29 52 42 79 42h2c54 0 79 -58 35 -106l-9 -10c-27 -30 -67 -47 -108 -47h-14c-41 0 -81 17 -108 47l-9 10c-44 48 -19 106 35 106h2c27 0 50 -13 79 -42zM325 0h-194c-47 0 -81 27 -81 80v540c0 53 34 80 81 80h201c253 0 375 -118 375 -345
c0 -234 -121 -355 -382 -355zM288 541v-387h30c100 0 149 48 149 192s-46 195 -149 195h-30z" />
    <glyph glyph-name="Ebreve" unicode="&#x114;" horiz-adv-x="604" 
d="M315 725c-89 0 -149 48 -157 101c-5 32 13 57 47 57h3c19 0 34 -11 50 -22c15 -11 32 -22 57 -22s42 11 57 22c16 11 31 22 50 22h3c34 0 52 -25 47 -57c-8 -53 -68 -101 -157 -101zM500 0h-369c-47 0 -81 27 -81 80v540c0 53 34 80 81 80h360c42 0 71 -24 71 -71v-17
c0 -48 -29 -72 -71 -72h-204v-112h126c41 0 71 -23 71 -70v-10c0 -48 -30 -71 -71 -71h-126v-121h213c42 0 71 -24 71 -71v-14c0 -48 -29 -71 -71 -71z" />
    <glyph glyph-name="Ecaron" unicode="&#x11a;" horiz-adv-x="604" 
d="M307 846l8 -8l8 8c29 29 52 42 79 42h2c54 0 79 -58 35 -106l-9 -10c-27 -30 -67 -47 -108 -47h-14c-41 0 -81 17 -108 47l-9 10c-44 48 -19 106 35 106h2c27 0 50 -13 79 -42zM500 0h-369c-47 0 -81 27 -81 80v540c0 53 34 80 81 80h360c42 0 71 -24 71 -71v-17
c0 -48 -29 -72 -71 -72h-204v-112h126c41 0 71 -23 71 -70v-10c0 -48 -30 -71 -71 -71h-126v-121h213c42 0 71 -24 71 -71v-14c0 -48 -29 -71 -71 -71z" />
    <glyph glyph-name="Edotaccent" unicode="&#x116;" horiz-adv-x="604" 
d="M421 817c0 -55 -43 -90 -106 -90s-106 35 -106 90s43 92 106 92s106 -37 106 -92zM500 0h-369c-47 0 -81 27 -81 80v540c0 53 34 80 81 80h360c42 0 71 -24 71 -71v-17c0 -48 -29 -72 -71 -72h-204v-112h126c41 0 71 -23 71 -70v-10c0 -48 -30 -71 -71 -71h-126v-121h213
c42 0 71 -24 71 -71v-14c0 -48 -29 -71 -71 -71z" />
    <glyph glyph-name="Emacron" unicode="&#x112;" horiz-adv-x="604" 
d="M228 854h175c43 0 61 -28 61 -60v-2c0 -33 -18 -61 -61 -61h-175c-43 0 -61 28 -61 61v2c0 32 18 60 61 60zM500 0h-369c-47 0 -81 27 -81 80v540c0 53 34 80 81 80h360c42 0 71 -24 71 -71v-17c0 -48 -29 -72 -71 -72h-204v-112h126c41 0 71 -23 71 -70v-10
c0 -48 -30 -71 -71 -71h-126v-121h213c42 0 71 -24 71 -71v-14c0 -48 -29 -71 -71 -71z" />
    <glyph glyph-name="Eogonek" unicode="&#x118;" horiz-adv-x="604" 
d="M520 -2c-21 -12 -27 -24 -27 -34c0 -12 6 -19 25 -27c26 -13 34 -24 34 -48v-2c0 -33 -31 -57 -96 -57c-57 0 -129 13 -129 80c0 44 38 76 89 90h-285c-47 0 -81 27 -81 80v540c0 53 34 80 81 80h360c42 0 71 -24 71 -71v-17c0 -48 -29 -72 -71 -72h-204v-112h126
c41 0 71 -23 71 -70v-10c0 -48 -30 -71 -71 -71h-126v-121h213c42 0 71 -24 71 -71v-14c0 -36 -13 -51 -51 -73z" />
    <glyph glyph-name="Gbreve" unicode="&#x11e;" horiz-adv-x="706" 
d="M377 725c-89 0 -149 48 -157 101c-5 32 13 57 47 57h3c19 0 34 -11 50 -22c15 -11 32 -22 57 -22s42 11 57 22c16 11 31 22 50 22h3c34 0 52 -25 47 -57c-8 -53 -68 -101 -157 -101zM584 17c-56 -19 -126 -28 -199 -28c-253 0 -361 130 -361 354c0 238 145 368 388 368
c62 0 113 -8 154 -21c44 -14 67 -41 67 -89v-31c0 -42 -25 -64 -62 -64c-46 0 -67 37 -158 37c-96 0 -147 -52 -147 -199c0 -151 36 -201 118 -201c27 0 45 3 58 7v90h-21c-37 0 -58 18 -58 63v17c0 44 23 63 67 63h153c46 0 78 -28 78 -81v-187c0 -55 -27 -81 -77 -98z" />
    <glyph glyph-name="Gcircumflex" unicode="&#x11c;" horiz-adv-x="706" 
d="M584 17c-56 -19 -126 -28 -199 -28c-253 0 -361 130 -361 354c0 238 145 368 388 368c62 0 113 -8 154 -21c44 -14 67 -41 67 -89v-31c0 -42 -25 -64 -62 -64c-46 0 -67 37 -158 37c-96 0 -147 -52 -147 -199c0 -151 36 -201 118 -201c27 0 45 3 58 7v90h-21
c-37 0 -58 18 -58 63v17c0 44 23 63 67 63h153c46 0 78 -28 78 -81v-187c0 -55 -27 -81 -77 -98zM376 774l-8 -8c-29 -29 -52 -42 -79 -42h-2c-54 0 -79 58 -35 106l9 10c27 30 67 47 108 47h14c41 0 81 -17 108 -47l9 -10c44 -48 19 -106 -35 -106h-2c-27 0 -50 13 -79 42z
" />
    <glyph glyph-name="Gcommaaccent" unicode="&#x122;" horiz-adv-x="706" 
d="M289 -213v2c0 15 6 25 30 33c24 7 30 12 30 20s-7 11 -27 22c-22 12 -32 25 -32 50c0 36 31 62 85 62s89 -30 89 -88c0 -74 -49 -124 -128 -130c-32 -3 -47 8 -47 29zM584 17c-56 -19 -126 -28 -199 -28c-253 0 -361 130 -361 354c0 238 145 368 388 368
c62 0 113 -8 154 -21c44 -14 67 -41 67 -89v-31c0 -42 -25 -64 -62 -64c-46 0 -67 37 -158 37c-96 0 -147 -52 -147 -199c0 -151 36 -201 118 -201c27 0 45 3 58 7v90h-21c-37 0 -58 18 -58 63v17c0 44 23 63 67 63h153c46 0 78 -28 78 -81v-187c0 -55 -27 -81 -77 -98z" />
    <glyph glyph-name="Gdotaccent" unicode="&#x120;" horiz-adv-x="706" 
d="M483 817c0 -55 -43 -90 -106 -90s-106 35 -106 90s43 92 106 92s106 -37 106 -92zM584 17c-56 -19 -126 -28 -199 -28c-253 0 -361 130 -361 354c0 238 145 368 388 368c62 0 113 -8 154 -21c44 -14 67 -41 67 -89v-31c0 -42 -25 -64 -62 -64c-46 0 -67 37 -158 37
c-96 0 -147 -52 -147 -199c0 -151 36 -201 118 -201c27 0 45 3 58 7v90h-21c-37 0 -58 18 -58 63v17c0 44 23 63 67 63h153c46 0 78 -28 78 -81v-187c0 -55 -27 -81 -77 -98z" />
    <glyph glyph-name="Hbar" unicode="&#x126;" horiz-adv-x="737" 
d="M688 503h-1v-424c0 -53 -33 -79 -79 -79h-80c-46 0 -79 26 -79 79v191h-161v-191c0 -53 -33 -79 -78 -79h-81c-45 0 -79 26 -79 79v424h-1c-42 0 -59 27 -59 59v2c0 33 17 60 59 60h1c1 50 35 76 79 76h81c44 0 76 -26 78 -76h161c1 50 34 76 79 76h80
c45 0 77 -26 79 -76h1c42 0 59 -27 59 -60v-2c0 -32 -17 -59 -59 -59zM288 434h161v69h-161v-69z" />
    <glyph glyph-name="Hcircumflex" unicode="&#x124;" horiz-adv-x="737" 
d="M288 270v-191c0 -53 -33 -79 -78 -79h-81c-45 0 -79 26 -79 79v542c0 52 34 79 79 79h81c45 0 78 -27 78 -79v-182h161v182c0 52 33 79 79 79h80c46 0 79 -27 79 -79v-542c0 -53 -33 -79 -79 -79h-80c-46 0 -79 26 -79 79v191h-161zM368 774l-8 -8
c-29 -29 -52 -42 -79 -42h-2c-54 0 -79 58 -35 106l9 10c27 30 67 47 108 47h14c41 0 81 -17 108 -47l9 -10c44 -48 19 -106 -35 -106h-2c-27 0 -50 13 -79 42z" />
    <glyph glyph-name="Idotaccent" unicode="&#x130;" horiz-adv-x="345" 
d="M291 621v-542c0 -54 -34 -79 -78 -79h-81c-44 0 -79 25 -79 79v542c0 51 33 79 79 79h81c47 0 78 -28 78 -79zM279 817c0 -55 -43 -90 -106 -90s-106 35 -106 90s43 92 106 92s106 -37 106 -92z" />
    <glyph glyph-name="Imacron" unicode="&#x12a;" horiz-adv-x="345" 
d="M88 854h169c43 0 60 -28 60 -60v-2c0 -33 -17 -61 -60 -61h-169c-43 0 -60 28 -60 61v2c0 32 17 60 60 60zM291 621v-542c0 -54 -34 -79 -78 -79h-81c-44 0 -79 25 -79 79v542c0 51 33 79 79 79h81c47 0 78 -28 78 -79z" />
    <glyph glyph-name="Iogonek" unicode="&#x12e;" horiz-adv-x="345" 
d="M259 9c-23 -17 -35 -28 -35 -43c0 -14 6 -20 25 -29c25 -12 34 -24 34 -48v-2c0 -33 -31 -57 -96 -57c-57 0 -129 13 -129 80c0 44 30 75 69 92c-49 3 -74 30 -74 75v544c0 51 33 79 79 79h81c47 0 78 -28 78 -79v-544c0 -34 -10 -52 -32 -68z" />
    <glyph glyph-name="Jcircumflex" unicode="&#x134;" horiz-adv-x="526" 
d="M480 223c0 -155 -86 -232 -277 -232c-45 0 -84 5 -117 15c-50 17 -72 40 -72 97v21c0 41 21 68 61 68c39 0 55 -31 104 -31c42 0 64 21 64 57v403c0 51 32 79 78 79h81c47 0 78 -28 78 -79v-398zM359 774l-8 -8c-29 -29 -52 -42 -79 -42h-2c-54 0 -79 58 -35 106l9 10
c27 30 67 47 108 47h14c41 0 81 -17 108 -47l9 -10c44 -48 19 -106 -35 -106h-2c-27 0 -50 13 -79 42z" />
    <glyph glyph-name="Kcommaaccent" unicode="&#x136;" horiz-adv-x="734" 
d="M288 621v-180l155 196c39 51 62 63 112 63h57c56 0 78 -57 42 -100l-147 -173l178 -320c29 -52 4 -107 -53 -107h-81c-49 0 -77 17 -106 69l-111 197l-46 -49v-138c0 -54 -35 -79 -78 -79h-81c-44 0 -79 25 -79 79v542c0 51 32 79 79 79h81c46 0 78 -28 78 -79zM288 -213
v2c0 15 6 25 30 33c24 7 30 12 30 20s-7 11 -27 22c-22 12 -32 25 -32 50c0 36 31 62 85 62s89 -30 89 -88c0 -74 -49 -124 -128 -130c-32 -3 -47 8 -47 29z" />
    <glyph glyph-name="Lacute" unicode="&#x139;" horiz-adv-x="576" 
d="M106 797l8 26c12 41 38 60 81 60h75c59 0 76 -52 34 -90l-27 -24c-35 -31 -69 -44 -104 -44h-10c-43 0 -70 28 -57 72zM476 0h-345c-47 0 -81 27 -81 80v541c0 51 32 79 79 79h81c46 0 78 -28 78 -79v-462h188c49 0 73 -31 73 -71v-17c0 -40 -24 -71 -73 -71z" />
    <glyph glyph-name="Lcaron" unicode="&#x13d;" horiz-adv-x="576" 
d="M488 618l-22 -38c-22 -37 -46 -51 -72 -51h-2c-30 0 -53 18 -53 56v46c0 40 20 71 74 71h25c53 0 76 -39 50 -84zM476 0h-345c-47 0 -81 27 -81 80v543c0 51 32 79 79 79h81c46 0 78 -28 78 -79v-464h188c49 0 73 -31 73 -71v-17c0 -40 -24 -71 -73 -71z" />
    <glyph glyph-name="Lcommaaccent" unicode="&#x13b;" horiz-adv-x="576" 
d="M209 -213v2c0 15 6 25 30 33c24 7 30 12 30 20s-7 11 -27 22c-22 12 -32 25 -32 50c0 36 31 62 85 62s89 -30 89 -88c0 -74 -49 -124 -128 -130c-32 -3 -47 8 -47 29zM476 0h-345c-47 0 -81 27 -81 80v541c0 51 32 79 79 79h81c46 0 78 -28 78 -79v-462h188
c49 0 73 -31 73 -71v-17c0 -40 -24 -71 -73 -71z" />
    <glyph glyph-name="Nacute" unicode="&#x143;" horiz-adv-x="730" 
d="M315 797l8 26c12 41 38 60 81 60h75c59 0 76 -52 34 -90l-27 -24c-35 -31 -69 -44 -104 -44h-10c-43 0 -70 28 -57 72zM168 0h-43c-42 0 -75 24 -75 75v545c0 52 34 80 81 80h95c49 0 77 -21 104 -70l154 -280h3v275c0 52 33 75 75 75h43c42 0 74 -23 74 -75v-549
c0 -50 -33 -76 -77 -76h-76c-47 0 -73 18 -100 67l-181 326h-3v-318c0 -51 -32 -75 -74 -75z" />
    <glyph glyph-name="Ncaron" unicode="&#x147;" horiz-adv-x="730" 
d="M374 846l8 -8l8 8c29 29 52 42 79 42h2c54 0 79 -58 35 -106l-9 -10c-27 -30 -67 -47 -108 -47h-14c-41 0 -81 17 -108 47l-9 10c-44 48 -19 106 35 106h2c27 0 50 -13 79 -42zM168 0h-43c-42 0 -75 24 -75 75v545c0 52 34 80 81 80h95c49 0 77 -21 104 -70l154 -280h3
v275c0 52 33 75 75 75h43c42 0 74 -23 74 -75v-549c0 -50 -33 -76 -77 -76h-76c-47 0 -73 18 -100 67l-181 326h-3v-318c0 -51 -32 -75 -74 -75z" />
    <glyph glyph-name="Ncommaaccent" unicode="&#x145;" horiz-adv-x="730" 
d="M267 -213v2c0 15 6 25 30 33c24 7 30 12 30 20s-7 11 -27 22c-22 12 -32 25 -32 50c0 36 31 62 85 62s89 -30 89 -88c0 -74 -49 -124 -128 -130c-32 -3 -47 8 -47 29zM168 0h-43c-42 0 -75 24 -75 75v545c0 52 34 80 81 80h95c49 0 77 -21 104 -70l154 -280h3v275
c0 52 33 75 75 75h43c42 0 74 -23 74 -75v-549c0 -50 -33 -76 -77 -76h-76c-47 0 -73 18 -100 67l-181 326h-3v-318c0 -51 -32 -75 -74 -75z" />
    <glyph glyph-name="Ohungarumlaut" unicode="&#x150;" horiz-adv-x="763" 
d="M739 348c0 -232 -154 -359 -358 -359s-357 127 -357 359s159 363 357 363c199 0 358 -131 358 -363zM264 347c0 -140 47 -197 117 -197s117 57 117 197s-47 197 -117 197s-117 -57 -117 -197zM426 793l6 27c9 42 36 61 80 61h45c53 0 71 -42 34 -88l-17 -21
c-29 -35 -55 -49 -93 -49h-4c-37 0 -61 23 -51 70zM225 793l7 27c11 42 36 61 80 61h45c52 0 71 -42 33 -88l-17 -21c-29 -35 -54 -49 -92 -49h-4c-37 0 -64 23 -52 70z" />
    <glyph glyph-name="Omacron" unicode="&#x14c;" horiz-adv-x="763" 
d="M293 854h176c43 0 61 -28 61 -60v-2c0 -33 -18 -61 -61 -61h-176c-42 0 -60 28 -60 61v2c0 32 18 60 60 60zM739 348c0 -232 -154 -359 -358 -359s-357 127 -357 359s159 363 357 363c199 0 358 -131 358 -363zM264 347c0 -140 47 -197 117 -197s117 57 117 197
s-47 197 -117 197s-117 -57 -117 -197z" />
    <glyph glyph-name="Racute" unicode="&#x154;" horiz-adv-x="695" 
d="M599 0h-78c-44 0 -72 20 -98 71l-84 164h-51v-156c0 -54 -35 -79 -78 -79h-81c-44 0 -79 25 -79 79v541c0 53 34 80 81 80h217c205 0 295 -78 295 -225c0 -82 -37 -142 -93 -182l100 -187c30 -58 -2 -106 -51 -106zM266 797l8 26c12 41 38 60 81 60h75
c59 0 76 -52 34 -90l-27 -24c-35 -31 -69 -44 -104 -44h-10c-43 0 -70 28 -57 72zM326 546h-43v-163h43c59 0 84 27 84 81c0 55 -25 82 -84 82z" />
    <glyph glyph-name="Rcaron" unicode="&#x158;" horiz-adv-x="695" 
d="M599 0h-78c-44 0 -72 20 -98 71l-84 164h-51v-156c0 -54 -35 -79 -78 -79h-81c-44 0 -79 25 -79 79v541c0 53 34 80 81 80h217c205 0 295 -78 295 -225c0 -82 -37 -142 -93 -182l100 -187c30 -58 -2 -106 -51 -106zM325 846l8 -8l8 8c29 29 52 42 79 42h2
c54 0 79 -58 35 -106l-9 -10c-27 -30 -67 -47 -108 -47h-14c-41 0 -81 17 -108 47l-9 10c-44 48 -19 106 35 106h2c27 0 50 -13 79 -42zM326 546h-43v-163h43c59 0 84 27 84 81c0 55 -25 82 -84 82z" />
    <glyph glyph-name="Rcommaaccent" unicode="&#x156;" horiz-adv-x="695" 
d="M599 0h-78c-44 0 -72 20 -98 71l-84 164h-51v-156c0 -54 -35 -79 -78 -79h-81c-44 0 -79 25 -79 79v541c0 53 34 80 81 80h217c205 0 295 -78 295 -225c0 -82 -37 -142 -93 -182l100 -187c30 -58 -2 -106 -51 -106zM272 -213v2c0 15 6 25 30 33c24 7 30 12 30 20
s-7 11 -27 22c-22 12 -32 25 -32 50c0 36 31 62 85 62s89 -30 89 -88c0 -74 -49 -124 -128 -130c-32 -3 -47 8 -47 29zM326 546h-43v-163h43c59 0 84 27 84 81c0 55 -25 82 -84 82z" />
    <glyph glyph-name="Sacute" unicode="&#x15a;" horiz-adv-x="584" 
d="M562 221c0 -145 -104 -232 -303 -232c-68 0 -128 10 -171 27c-46 18 -66 47 -66 87v25c0 42 25 68 64 68c47 0 68 -45 164 -45c55 0 88 15 88 47c0 40 -38 45 -113 62c-127 28 -205 76 -205 225c0 152 117 226 284 226c63 0 117 -8 160 -22c42 -14 67 -39 67 -85v-26
c0 -40 -23 -63 -59 -63c-43 0 -77 35 -163 35c-54 0 -79 -14 -79 -44c0 -33 31 -42 99 -56c179 -36 233 -96 233 -229zM227 797l8 26c12 41 38 60 81 60h75c59 0 76 -52 34 -90l-27 -24c-35 -31 -69 -44 -104 -44h-10c-43 0 -70 28 -57 72z" />
    <glyph glyph-name="Scedilla" unicode="&#x15e;" horiz-adv-x="584" 
d="M562 221c0 -131 -84 -214 -246 -229v-17c54 -3 81 -27 81 -71c0 -46 -32 -79 -121 -79c-19 0 -39 2 -58 7c-25 7 -32 19 -32 40v3c0 18 8 30 26 30c12 0 24 -8 40 -8c14 0 22 6 22 14c0 7 -6 12 -25 12h-3c-10 0 -16 5 -16 15v52c-56 2 -105 11 -142 26
c-46 18 -66 45 -66 85v27c0 42 25 68 64 68c47 0 68 -45 164 -45c55 0 88 15 88 47c0 40 -38 45 -113 62c-127 28 -205 76 -205 225c0 152 117 226 284 226c63 0 117 -8 160 -22c42 -14 67 -39 67 -85v-26c0 -40 -23 -63 -59 -63c-43 0 -77 35 -163 35
c-54 0 -79 -14 -79 -44c0 -33 31 -42 99 -56c179 -36 233 -96 233 -229z" />
    <glyph glyph-name="Scircumflex" unicode="&#x15c;" horiz-adv-x="584" 
d="M562 221c0 -145 -104 -232 -303 -232c-68 0 -128 10 -171 27c-46 18 -66 47 -66 87v25c0 42 25 68 64 68c47 0 68 -45 164 -45c55 0 88 15 88 47c0 40 -38 45 -113 62c-127 28 -205 76 -205 225c0 152 117 226 284 226c63 0 117 -8 160 -22c42 -14 67 -39 67 -85v-26
c0 -40 -23 -63 -59 -63c-43 0 -77 35 -163 35c-54 0 -79 -14 -79 -44c0 -33 31 -42 99 -56c179 -36 233 -96 233 -229zM293 774l-8 -8c-29 -29 -52 -42 -79 -42h-2c-54 0 -79 58 -35 106l9 10c27 30 67 47 108 47h14c41 0 81 -17 108 -47l9 -10c44 -48 19 -106 -35 -106h-2
c-27 0 -50 13 -79 42z" />
    <glyph glyph-name="Scommaaccent" unicode="&#x218;" horiz-adv-x="584" 
d="M198 -213v2c0 15 6 25 30 33c24 7 30 12 30 20s-7 11 -27 22c-22 12 -32 25 -32 50c0 36 31 62 85 62s89 -30 89 -88c0 -74 -49 -124 -128 -130c-32 -3 -47 8 -47 29zM562 221c0 -145 -104 -232 -303 -232c-68 0 -128 10 -171 27c-46 18 -66 47 -66 87v25
c0 42 25 68 64 68c47 0 68 -45 164 -45c55 0 88 15 88 47c0 40 -38 45 -113 62c-127 28 -205 76 -205 225c0 152 117 226 284 226c63 0 117 -8 160 -22c42 -14 67 -39 67 -85v-26c0 -40 -23 -63 -59 -63c-43 0 -77 35 -163 35c-54 0 -79 -14 -79 -44c0 -33 31 -42 99 -56
c179 -36 233 -96 233 -229z" />
    <glyph glyph-name="Tcaron" unicode="&#x164;" horiz-adv-x="623" 
d="M304 846l8 -8l8 8c29 29 52 42 79 42h2c54 0 79 -58 35 -106l-9 -10c-27 -30 -67 -47 -108 -47h-14c-41 0 -81 17 -108 47l-9 10c-44 48 -19 106 35 106h2c27 0 50 -13 79 -42zM530 538h-100v-459c0 -54 -35 -79 -78 -79h-81c-44 0 -78 25 -78 79v459h-100
c-42 0 -72 23 -72 71v20c0 48 30 71 72 71h437c41 0 71 -23 71 -71v-20c0 -48 -30 -71 -71 -71z" />
    <glyph glyph-name="Tcommaaccent" unicode="&#x162;" horiz-adv-x="623" 
d="M223 -213v2c0 15 6 25 30 33c24 7 30 12 30 20s-7 11 -27 22c-22 12 -32 25 -32 50c0 36 31 62 85 62s89 -30 89 -88c0 -74 -49 -124 -128 -130c-32 -3 -47 8 -47 29zM530 538h-100v-459c0 -54 -35 -79 -78 -79h-81c-44 0 -78 25 -78 79v459h-100c-42 0 -72 23 -72 71v20
c0 48 30 71 72 71h437c41 0 71 -23 71 -71v-20c0 -48 -30 -71 -71 -71z" />
    <glyph glyph-name="Ubreve" unicode="&#x16c;" horiz-adv-x="715" 
d="M375 725c-89 0 -149 48 -157 101c-5 32 13 57 47 57h3c19 0 34 -11 50 -22c15 -11 32 -22 57 -22s42 11 57 22c16 11 31 22 50 22h3c34 0 52 -25 47 -57c-8 -53 -68 -101 -157 -101zM286 263c0 -72 28 -102 93 -102c64 0 91 30 91 102v362c0 50 31 75 74 75h49
c43 0 74 -25 74 -75v-369c0 -173 -106 -264 -303 -264c-209 0 -316 92 -316 264v365c0 51 32 79 78 79h81c47 0 79 -28 79 -79v-358z" />
    <glyph glyph-name="Uhungarumlaut" unicode="&#x170;" horiz-adv-x="715" 
d="M286 263c0 -72 28 -102 93 -102c64 0 91 30 91 102v362c0 50 31 75 74 75h49c43 0 74 -25 74 -75v-369c0 -173 -106 -264 -303 -264c-209 0 -316 92 -316 264v365c0 51 32 79 78 79h81c47 0 79 -28 79 -79v-358zM420 793l6 27c9 42 36 61 80 61h45c53 0 71 -42 34 -88
l-17 -21c-29 -35 -55 -49 -93 -49h-4c-37 0 -61 23 -51 70zM219 793l7 27c11 42 36 61 80 61h45c52 0 71 -42 33 -88l-17 -21c-29 -35 -54 -49 -92 -49h-4c-37 0 -64 23 -52 70z" />
    <glyph glyph-name="Umacron" unicode="&#x16a;" horiz-adv-x="715" 
d="M286 263c0 -72 28 -102 93 -102c64 0 91 30 91 102v364c0 50 31 75 74 75h49c43 0 74 -25 74 -75v-371c0 -173 -106 -264 -303 -264c-209 0 -316 92 -316 264v367c0 51 32 79 78 79h81c47 0 79 -28 79 -79v-360zM287 854h176c43 0 61 -28 61 -60v-2
c0 -33 -18 -61 -61 -61h-176c-42 0 -60 28 -60 61v2c0 32 18 60 60 60z" />
    <glyph glyph-name="Uogonek" unicode="&#x172;" horiz-adv-x="715" 
d="M448 -34c0 -11 9 -19 25 -27c26 -13 34 -26 34 -50v-2c0 -33 -32 -57 -96 -57c-55 0 -130 13 -130 80c0 36 24 62 61 83c-22 1 -43 2 -64 5c-151 22 -230 112 -230 258v365c0 51 32 79 78 79h81c47 0 79 -28 79 -79v-358c0 -72 28 -102 93 -102c64 0 91 30 91 102v362
c0 50 31 75 74 75h49c43 0 74 -25 74 -75v-369c0 -113 -42 -186 -126 -229c-50 -26 -93 -32 -93 -61z" />
    <glyph glyph-name="Uring" unicode="&#x16e;" horiz-adv-x="715" 
d="M286 263c0 -72 28 -102 93 -102c64 0 91 30 91 102v362c0 50 31 75 74 75h49c43 0 74 -25 74 -75v-369c0 -173 -106 -264 -303 -264c-209 0 -316 92 -316 264v365c0 51 32 79 78 79h81c47 0 79 -28 79 -79v-358zM487 804c0 -63 -51 -103 -109 -103s-109 40 -109 103
s51 104 109 104s109 -41 109 -104zM348 804c0 -19 12 -32 30 -32c19 0 31 13 31 32c0 20 -12 33 -31 33c-18 0 -30 -13 -30 -33z" />
    <glyph glyph-name="Zacute" unicode="&#x179;" horiz-adv-x="601" 
d="M80 229l232 306v4h-195c-48 0 -71 31 -71 72v18c0 40 23 71 71 71h379c49 0 74 -31 74 -73v-26c0 -56 -9 -84 -48 -134l-234 -303v-4h213c48 0 71 -31 71 -71v-18c0 -40 -23 -71 -71 -71h-397c-40 0 -74 25 -74 73v20c0 55 9 84 50 136zM241 797l8 26c12 41 38 60 81 60
h75c59 0 76 -52 34 -90l-27 -24c-35 -31 -69 -44 -104 -44h-10c-43 0 -70 28 -57 72z" />
    <glyph glyph-name="Zdotaccent" unicode="&#x17b;" horiz-adv-x="601" 
d="M416 817c0 -55 -43 -90 -106 -90s-106 35 -106 90s43 92 106 92s106 -37 106 -92zM80 229l232 306v4h-195c-48 0 -71 31 -71 72v18c0 40 23 71 71 71h379c49 0 74 -31 74 -73v-26c0 -56 -9 -84 -48 -134l-234 -303v-4h213c48 0 71 -31 71 -71v-18c0 -40 -23 -71 -71 -71
h-397c-40 0 -74 25 -74 73v20c0 55 9 84 50 136z" />
    <glyph glyph-name="abreve" unicode="&#x103;" horiz-adv-x="576" 
d="M397 0c-36 0 -57 20 -68 49c-37 -39 -86 -56 -150 -56c-87 0 -164 50 -164 156c0 112 81 162 205 162c37 0 68 -2 96 -7v19c0 43 -22 59 -81 59c-62 0 -90 -28 -126 -28c-32 0 -57 22 -57 59v19c0 47 22 71 68 85c44 14 101 21 165 21c173 0 253 -57 253 -199v-261
c0 -53 -30 -78 -75 -78h-66zM285 556c-88 0 -152 50 -159 109c-4 34 11 61 46 61h3c20 0 35 -12 51 -24s34 -24 59 -24s42 12 59 24c16 12 31 24 51 24h3c35 0 52 -27 46 -61c-10 -59 -71 -109 -159 -109zM270 114c16 0 33 7 46 16v83c-13 2 -29 4 -41 4
c-34 0 -53 -16 -53 -54c0 -36 22 -49 48 -49z" />
    <glyph glyph-name="amacron" unicode="&#x101;" horiz-adv-x="576" 
d="M397 0c-36 0 -57 20 -68 49c-37 -39 -86 -56 -150 -56c-87 0 -164 50 -164 156c0 112 81 162 205 162c37 0 68 -2 96 -7v19c0 43 -22 59 -81 59c-62 0 -90 -28 -126 -28c-32 0 -57 22 -57 59v19c0 47 22 71 68 85c44 14 101 21 165 21c173 0 253 -57 253 -199v-261
c0 -53 -30 -78 -75 -78h-66zM198 694h174c42 0 60 -27 60 -60v-2c0 -33 -18 -60 -60 -60h-174c-42 0 -60 27 -60 60v2c0 33 18 60 60 60zM270 114c16 0 33 7 46 16v83c-13 2 -29 4 -41 4c-34 0 -53 -16 -53 -54c0 -36 22 -49 48 -49z" />
    <glyph glyph-name="aogonek" unicode="&#x105;" horiz-adv-x="576" 
d="M506 8c-25 -18 -32 -28 -32 -42c0 -11 6 -20 26 -29c27 -12 35 -25 35 -48v-2c0 -33 -31 -57 -96 -57c-57 0 -129 13 -129 80c0 44 33 75 76 92c-30 4 -48 23 -58 46c-36 -38 -86 -55 -149 -55c-87 0 -164 50 -164 156c0 112 81 162 205 162c37 0 68 -2 96 -7v19
c0 43 -22 59 -81 59c-62 0 -90 -28 -126 -28c-31 0 -57 22 -57 59v19c0 46 22 71 68 85c44 14 101 21 165 21c173 0 253 -57 253 -199v-263c0 -36 -8 -50 -32 -68zM270 114c16 0 33 7 46 16v83c-13 2 -29 4 -41 4c-34 0 -53 -16 -53 -54c0 -36 22 -49 48 -49z" />
    <glyph glyph-name="cacute" unicode="&#x107;" horiz-adv-x="523" 
d="M230 626l6 27c10 42 38 62 81 62h77c53 0 76 -52 33 -91l-27 -25c-36 -32 -65 -45 -103 -45h-7c-45 0 -69 29 -60 72zM438 10c-34 -12 -80 -19 -130 -19c-182 0 -292 90 -292 271c0 175 118 276 306 276c39 0 81 -5 114 -16c40 -13 64 -35 64 -82v-24
c0 -39 -22 -58 -52 -58c-35 0 -57 27 -108 27c-60 0 -98 -37 -98 -125c0 -84 34 -123 95 -123c55 0 77 32 110 32c38 0 53 -24 53 -57v-20c0 -44 -23 -69 -62 -82z" />
    <glyph glyph-name="ccaron" unicode="&#x10d;" horiz-adv-x="523" 
d="M182 599l-9 9c-50 50 -22 112 31 112h3c26 0 51 -14 78 -42l8 -8l8 8c27 28 52 42 78 42h3c53 0 81 -62 31 -112l-9 -9c-32 -32 -68 -45 -107 -45h-8c-39 0 -75 13 -107 45zM438 10c-34 -12 -80 -19 -130 -19c-182 0 -292 90 -292 271c0 175 118 276 306 276
c39 0 81 -5 114 -16c40 -13 64 -35 64 -82v-24c0 -39 -22 -58 -52 -58c-35 0 -57 27 -108 27c-60 0 -98 -37 -98 -125c0 -84 34 -123 95 -123c55 0 77 32 110 32c38 0 53 -24 53 -57v-20c0 -44 -23 -69 -62 -82z" />
    <glyph glyph-name="ccircumflex" unicode="&#x109;" horiz-adv-x="523" 
d="M171 665l9 9c32 32 68 45 107 45h8c39 0 75 -13 107 -45l9 -9c50 -50 22 -112 -31 -112h-3c-26 0 -51 14 -78 42l-8 8l-8 -8c-27 -28 -52 -42 -78 -42h-3c-53 0 -81 62 -31 112zM438 10c-34 -12 -80 -19 -130 -19c-182 0 -292 90 -292 271c0 175 118 276 306 276
c39 0 81 -5 114 -16c40 -13 64 -35 64 -82v-24c0 -39 -22 -58 -52 -58c-35 0 -57 27 -108 27c-60 0 -98 -37 -98 -125c0 -84 34 -123 95 -123c55 0 77 32 110 32c38 0 53 -24 53 -57v-20c0 -44 -23 -69 -62 -82z" />
    <glyph glyph-name="cdotaccent" unicode="&#x10b;" horiz-adv-x="523" 
d="M438 10c-34 -12 -80 -19 -130 -19c-182 0 -292 90 -292 271c0 175 118 276 306 276c39 0 81 -5 114 -16c40 -13 64 -35 64 -82v-24c0 -39 -22 -58 -52 -58c-35 0 -57 27 -108 27c-60 0 -98 -37 -98 -125c0 -84 34 -123 95 -123c55 0 77 32 110 32c38 0 53 -24 53 -57v-20
c0 -44 -23 -69 -62 -82zM398 645c0 -55 -43 -91 -106 -91s-106 36 -106 91s43 92 106 92s106 -37 106 -92z" />
    <glyph glyph-name="dcaron" unicode="&#x10f;" horiz-adv-x="631" 
d="M590 583v-505c0 -53 -30 -78 -76 -78h-68c-31 0 -53 13 -66 51c-30 -33 -74 -61 -151 -61c-122 0 -211 79 -211 270c0 209 116 278 213 278c67 0 106 -22 137 -57v141c0 52 30 78 75 78h62c64 0 85 -24 85 -117zM322 377c-43 0 -79 -21 -79 -116c0 -99 28 -131 73 -131
c21 0 36 6 52 16v221c-14 7 -29 10 -46 10zM765 618l-22 -38c-22 -37 -46 -51 -72 -51h-3c-29 0 -52 18 -52 56v46c0 40 20 71 73 71h25c54 0 77 -39 51 -84z" />
    <glyph glyph-name="ebreve" unicode="&#x115;" horiz-adv-x="580" 
d="M492 216h-253c9 -66 42 -84 104 -84c85 0 106 32 146 32c32 0 53 -19 53 -55v-15c0 -34 -17 -59 -54 -75c-43 -18 -100 -28 -180 -28c-198 0 -292 103 -292 270c0 169 110 277 285 277c179 0 263 -98 263 -253c0 -45 -27 -69 -72 -69zM294 556c-88 0 -152 50 -159 109
c-4 34 11 61 46 61h3c20 0 35 -12 51 -24s34 -24 59 -24s42 12 59 24c16 12 31 24 51 24h3c35 0 52 -27 46 -61c-10 -59 -71 -109 -159 -109zM302 404c-31 0 -56 -15 -64 -86h123c-3 66 -22 86 -59 86z" />
    <glyph glyph-name="ecaron" unicode="&#x11b;" horiz-adv-x="580" 
d="M492 216h-253c9 -66 42 -84 104 -84c85 0 106 32 146 32c32 0 53 -19 53 -55v-15c0 -34 -17 -59 -54 -75c-43 -18 -100 -28 -180 -28c-198 0 -292 103 -292 270c0 169 110 277 285 277c179 0 263 -98 263 -253c0 -45 -27 -69 -72 -69zM186 599l-9 9
c-50 50 -22 112 31 112h3c26 0 51 -14 78 -42l8 -8l8 8c27 28 52 42 78 42h3c53 0 81 -62 31 -112l-9 -9c-32 -32 -68 -45 -107 -45h-8c-39 0 -75 13 -107 45zM302 404c-31 0 -56 -15 -64 -86h123c-3 66 -22 86 -59 86z" />
    <glyph glyph-name="edotaccent" unicode="&#x117;" horiz-adv-x="580" 
d="M492 216h-253c9 -66 42 -84 104 -84c85 0 106 32 146 32c32 0 53 -19 53 -55v-15c0 -34 -17 -59 -54 -75c-43 -18 -100 -28 -180 -28c-198 0 -292 103 -292 270c0 169 110 277 285 277c179 0 263 -98 263 -253c0 -45 -27 -69 -72 -69zM402 645c0 -55 -43 -91 -106 -91
s-106 36 -106 91s43 92 106 92s106 -37 106 -92zM302 404c-31 0 -56 -15 -64 -86h123c-3 66 -22 86 -59 86z" />
    <glyph glyph-name="emacron" unicode="&#x113;" horiz-adv-x="580" 
d="M492 216h-253c9 -66 42 -84 104 -84c85 0 106 32 146 32c32 0 53 -19 53 -55v-15c0 -34 -17 -59 -54 -75c-43 -18 -100 -28 -180 -28c-198 0 -292 103 -292 270c0 169 110 277 285 277c179 0 263 -98 263 -253c0 -45 -27 -69 -72 -69zM207 694h174c42 0 60 -27 60 -60v-2
c0 -33 -18 -60 -60 -60h-174c-42 0 -60 27 -60 60v2c0 33 18 60 60 60zM302 404c-31 0 -56 -15 -64 -86h123c-3 66 -22 86 -59 86z" />
    <glyph glyph-name="eogonek" unicode="&#x119;" horiz-adv-x="580" 
d="M449 -35c0 -10 9 -18 24 -26c25 -13 33 -25 33 -50v-2c0 -33 -31 -57 -96 -57c-57 0 -129 13 -129 80c0 38 27 66 58 82c-4 -1 -25 -1 -31 -1c-198 0 -292 103 -292 270c0 169 110 277 285 277c179 0 263 -98 263 -253c0 -45 -27 -69 -72 -69h-253c9 -66 43 -84 104 -84
c85 0 106 32 146 32c32 0 53 -19 53 -55v-18c0 -36 -13 -57 -52 -83c-24 -17 -41 -27 -41 -43zM302 404c-32 0 -57 -15 -64 -86h123c-3 66 -22 86 -59 86z" />
    <glyph glyph-name="gbreve" unicode="&#x11f;" horiz-adv-x="631" 
d="M368 55v20c-31 -26 -80 -40 -137 -40c-117 0 -213 55 -213 244c0 200 116 259 220 259c65 0 109 -25 146 -70c14 34 40 60 83 60h50c43 0 73 -24 73 -75v-398c0 -152 -123 -225 -318 -225c-66 0 -121 5 -161 17c-42 12 -66 39 -66 78v25c0 36 23 59 58 59
c40 0 57 -28 140 -28c86 0 125 23 125 74zM321 556c-88 0 -152 50 -159 109c-4 34 11 61 46 61h3c20 0 35 -12 51 -24s34 -24 59 -24s42 12 59 24c16 12 31 24 51 24h3c35 0 52 -27 46 -61c-10 -59 -71 -109 -159 -109zM318 164c19 0 36 5 50 13v190c-15 7 -30 10 -47 10
c-42 0 -78 -12 -78 -103c0 -98 28 -110 75 -110z" />
    <glyph glyph-name="gcircumflex" unicode="&#x11d;" horiz-adv-x="631" 
d="M368 55v20c-31 -26 -80 -40 -137 -40c-117 0 -213 55 -213 244c0 200 116 259 220 259c65 0 109 -25 146 -70c14 34 40 60 83 60h50c43 0 73 -24 73 -75v-398c0 -152 -123 -225 -318 -225c-66 0 -121 5 -161 17c-42 12 -66 39 -66 78v25c0 36 23 59 58 59
c40 0 57 -28 140 -28c86 0 125 23 125 74zM201 665l9 9c32 32 68 45 107 45h8c39 0 75 -13 107 -45l9 -9c50 -50 22 -112 -31 -112h-3c-26 0 -51 14 -78 42l-8 8l-8 -8c-27 -28 -52 -42 -78 -42h-3c-53 0 -81 62 -31 112zM318 164c19 0 36 5 50 13v190c-15 7 -30 10 -47 10
c-42 0 -78 -12 -78 -103c0 -98 28 -110 75 -110z" />
    <glyph glyph-name="gcommaaccent" unicode="&#x123;" horiz-adv-x="631" 
d="M368 55v20c-31 -26 -80 -40 -137 -40c-117 0 -213 55 -213 244c0 200 116 259 220 259c65 0 109 -25 146 -70c14 34 40 60 83 60h50c43 0 73 -24 73 -75v-398c0 -152 -123 -225 -318 -225c-66 0 -121 5 -161 17c-42 12 -66 39 -66 78v25c0 36 23 59 58 59
c40 0 57 -28 140 -28c86 0 125 23 125 74zM398 747v-2c0 -15 -6 -25 -30 -33c-24 -7 -30 -12 -30 -20s7 -11 27 -22c22 -12 32 -25 32 -50c0 -36 -31 -62 -85 -62s-89 30 -89 88c0 74 49 124 128 130c32 3 47 -8 47 -29zM318 164c19 0 36 5 50 13v190c-15 7 -30 10 -47 10
c-42 0 -78 -12 -78 -103c0 -98 28 -110 75 -110z" />
    <glyph glyph-name="gdotaccent" unicode="&#x121;" horiz-adv-x="631" 
d="M368 55v20c-31 -26 -80 -40 -137 -40c-117 0 -213 55 -213 244c0 200 116 259 220 259c65 0 109 -25 146 -70c14 34 40 60 83 60h50c43 0 73 -24 73 -75v-398c0 -152 -123 -225 -318 -225c-66 0 -121 5 -161 17c-42 12 -66 39 -66 78v25c0 36 23 59 58 59
c40 0 57 -28 140 -28c86 0 125 23 125 74zM423 645c0 -55 -43 -91 -106 -91s-106 36 -106 91s43 92 106 92s106 -37 106 -92zM318 164c19 0 36 5 50 13v190c-15 7 -30 10 -47 10c-42 0 -78 -12 -78 -103c0 -98 28 -110 75 -110z" />
    <glyph glyph-name="hbar" unicode="&#x127;" horiz-adv-x="631" 
d="M175 700c44 0 69 -11 81 -47h79c33 0 47 -21 47 -47v-2c0 -25 -14 -47 -47 -47h-71v-98c44 42 102 79 183 79c82 0 145 -36 145 -153v-308c0 -52 -33 -77 -77 -77h-68c-44 0 -77 25 -77 77v249c0 38 -18 46 -59 46c-17 0 -34 -3 -47 -6v-289c0 -52 -34 -77 -77 -77h-69
c-44 0 -77 25 -77 77v480c-33 0 -48 22 -48 47v2c0 26 15 47 48 47h4c10 31 37 47 72 47h58z" />
    <glyph glyph-name="hcircumflex" unicode="&#x125;" horiz-adv-x="631" 
d="M311 372c-17 0 -34 -3 -47 -6v-289c0 -52 -34 -77 -77 -77h-69c-44 0 -77 25 -77 77v545c0 52 31 78 76 78h58c65 0 89 -24 89 -117v-124c44 42 102 79 183 79c82 0 145 -36 145 -153v-308c0 -52 -33 -77 -77 -77h-68c-44 0 -77 25 -77 77v249c0 38 -18 46 -59 46z
M310 774l-8 -8c-29 -29 -52 -42 -79 -42h-2c-54 0 -79 58 -35 106l9 10c27 30 67 47 108 47h14c41 0 81 -17 108 -47l9 -10c44 -48 19 -106 -35 -106h-2c-27 0 -50 13 -79 42z" />
    <glyph glyph-name="idotaccent" horiz-adv-x="306" 
d="M263 643c0 -57 -45 -93 -110 -93s-110 36 -110 93s45 94 110 94s110 -37 110 -94zM264 420v-343c0 -52 -33 -77 -77 -77h-69c-43 0 -76 25 -76 77v374c0 52 30 77 76 77h58c64 0 88 -30 88 -108z" />
    <glyph glyph-name="imacron" unicode="&#x12b;" horiz-adv-x="306" 
d="M76 694h154c43 0 60 -27 60 -60v-2c0 -33 -17 -60 -60 -60h-154c-43 0 -61 27 -61 60v2c0 33 18 60 61 60zM264 420v-343c0 -52 -33 -77 -77 -77h-69c-43 0 -76 25 -76 77v374c0 52 30 77 76 77h58c64 0 88 -30 88 -108z" />
    <glyph glyph-name="iogonek" unicode="&#x12f;" horiz-adv-x="306" 
d="M263 643c0 -57 -45 -93 -110 -93s-110 36 -110 93s45 94 110 94s110 -37 110 -94zM202 -34c0 -12 8 -20 27 -29c25 -12 34 -24 34 -48v-2c0 -33 -31 -57 -96 -57c-57 0 -129 13 -129 80c0 44 27 74 69 94c-41 4 -65 28 -65 71v377c0 52 30 77 76 77h58
c64 0 88 -30 88 -108v-346c0 -33 -9 -47 -29 -63c-25 -20 -33 -29 -33 -46z" />
    <glyph glyph-name="jcircumflex" unicode="&#x135;" horiz-adv-x="306" 
d="M264 420v-423c0 -123 -67 -167 -194 -167c-20 0 -46 2 -61 5c-35 7 -52 25 -52 61v6c0 33 13 52 45 59c30 6 40 18 40 51v439c0 52 30 77 76 77h58c64 0 88 -30 88 -108zM32 665l9 9c32 32 68 45 107 45h8c39 0 75 -13 107 -45l9 -9c50 -50 22 -112 -31 -112h-3
c-26 0 -51 14 -78 42l-8 8l-8 -8c-27 -28 -52 -42 -78 -42h-3c-53 0 -81 62 -31 112z" />
    <glyph glyph-name="kcommaaccent" unicode="&#x137;" horiz-adv-x="612" 
d="M361 66l-65 117l-32 -38v-68c0 -52 -34 -77 -77 -77h-69c-44 0 -77 25 -77 77v545c0 52 31 78 76 78h58c65 0 89 -24 89 -117v-235l98 125c29 38 57 55 103 55h41c54 0 81 -55 40 -103l-90 -106l121 -217c28 -50 3 -102 -51 -102h-64c-46 0 -74 15 -101 66zM234 -213v2
c0 15 6 25 30 33c24 7 30 12 30 20s-7 11 -27 22c-22 12 -32 25 -32 50c0 36 31 62 85 62s89 -30 89 -88c0 -74 -49 -124 -128 -130c-32 -3 -47 8 -47 29z" />
    <glyph glyph-name="lacute" unicode="&#x13a;" horiz-adv-x="309" 
d="M82 792l8 26c12 41 38 60 81 60h75c59 0 76 -52 34 -90l-27 -24c-35 -31 -69 -44 -104 -44h-10c-43 0 -70 28 -57 72zM177 700c65 0 89 -31 89 -117v-506c0 -52 -34 -77 -77 -77h-69c-44 0 -77 25 -77 77v545c0 52 31 78 76 78h58z" />
    <glyph glyph-name="lcaron" unicode="&#x13e;" horiz-adv-x="309" 
d="M43 77v545c0 52 31 78 76 78h58c65 0 89 -31 89 -117v-506c0 -52 -34 -77 -77 -77h-69c-44 0 -77 25 -77 77zM441 618l-22 -38c-22 -37 -46 -51 -73 -51h-2c-29 0 -53 18 -53 56v46c0 40 20 71 74 71h25c54 0 77 -39 51 -84z" />
    <glyph glyph-name="lcommaaccent" unicode="&#x13c;" horiz-adv-x="309" 
d="M68 -213v2c0 15 6 25 30 33c24 7 30 12 30 20s-7 11 -27 22c-22 12 -32 25 -32 50c0 36 31 62 85 62s89 -30 89 -88c0 -74 -49 -124 -128 -130c-32 -3 -47 8 -47 29zM177 700c65 0 89 -31 89 -117v-506c0 -52 -34 -77 -77 -77h-69c-44 0 -77 25 -77 77v545
c0 52 31 78 76 78h58z" />
    <glyph glyph-name="nacute" unicode="&#x144;" horiz-adv-x="631" 
d="M311 372c-17 0 -34 -3 -47 -6v-289c0 -52 -34 -77 -77 -77h-69c-44 0 -77 25 -77 77v374c0 52 31 77 76 77h60c38 0 68 -14 80 -76c45 45 105 86 190 86c82 0 145 -36 145 -153v-308c0 -52 -33 -77 -77 -77h-68c-44 0 -77 25 -77 77v249c0 38 -18 46 -59 46zM256 626
l6 27c10 42 38 62 81 62h77c53 0 76 -52 33 -91l-27 -25c-36 -32 -65 -45 -103 -45h-7c-45 0 -69 29 -60 72z" />
    <glyph glyph-name="ncaron" unicode="&#x148;" horiz-adv-x="631" 
d="M311 372c-17 0 -34 -3 -47 -6v-289c0 -52 -34 -77 -77 -77h-69c-44 0 -77 25 -77 77v374c0 52 31 77 76 77h60c38 0 68 -14 80 -76c45 45 105 86 190 86c82 0 145 -36 145 -153v-308c0 -52 -33 -77 -77 -77h-68c-44 0 -77 25 -77 77v249c0 38 -18 46 -59 46zM208 599
l-9 9c-50 50 -22 112 31 112h3c26 0 51 -14 78 -42l8 -8l8 8c27 28 52 42 78 42h3c53 0 81 -62 31 -112l-9 -9c-32 -32 -68 -45 -107 -45h-8c-39 0 -75 13 -107 45z" />
    <glyph glyph-name="ncommaaccent" unicode="&#x146;" horiz-adv-x="631" 
d="M311 372c-17 0 -34 -3 -47 -6v-289c0 -52 -34 -77 -77 -77h-69c-44 0 -77 25 -77 77v374c0 52 31 77 76 77h60c38 0 68 -14 80 -76c45 45 105 86 190 86c82 0 145 -36 145 -153v-308c0 -52 -33 -77 -77 -77h-68c-44 0 -77 25 -77 77v249c0 38 -18 46 -59 46zM231 -213v2
c0 15 6 25 30 33c24 7 30 12 30 20s-7 11 -27 22c-22 12 -32 25 -32 50c0 36 31 62 85 62s89 -30 89 -88c0 -74 -49 -124 -128 -130c-32 -3 -47 8 -47 29z" />
    <glyph glyph-name="ohungarumlaut" unicode="&#x151;" horiz-adv-x="622" 
d="M158 625l7 28c10 42 36 62 80 62h39c53 0 71 -42 34 -89l-17 -22c-30 -39 -56 -50 -91 -50h-3c-36 0 -61 24 -49 71zM351 625l7 28c10 42 37 62 80 62h39c53 0 71 -42 34 -89l-17 -22c-30 -39 -55 -50 -91 -50h-3c-36 0 -59 24 -49 71zM606 261
c0 -168 -123 -270 -295 -270s-295 102 -295 270c0 169 123 277 295 277s295 -108 295 -277zM240 260c0 -93 27 -133 71 -133s70 40 70 133s-26 132 -70 132s-71 -39 -71 -132z" />
    <glyph glyph-name="omacron" unicode="&#x14d;" horiz-adv-x="622" 
d="M224 694h174c42 0 60 -27 60 -60v-2c0 -33 -18 -60 -60 -60h-174c-42 0 -60 27 -60 60v2c0 33 18 60 60 60zM606 261c0 -168 -123 -270 -295 -270s-295 102 -295 270c0 169 123 277 295 277s295 -108 295 -277zM240 260c0 -93 27 -133 71 -133s70 40 70 133
s-26 132 -70 132s-71 -39 -71 -132z" />
    <glyph glyph-name="racute" unicode="&#x155;" horiz-adv-x="447" 
d="M183 528c37 0 63 -16 74 -84c37 57 85 88 126 88c33 0 52 -15 52 -56v-63c0 -37 -21 -65 -66 -68c-43 -2 -80 -7 -105 -14v-254c0 -52 -34 -77 -77 -77h-69c-44 0 -77 25 -77 77v374c0 52 31 77 76 77h66zM191 626l6 27c10 42 38 62 81 62h77c53 0 76 -52 33 -91l-27 -25
c-36 -32 -65 -45 -103 -45h-7c-45 0 -69 29 -60 72z" />
    <glyph glyph-name="rcaron" unicode="&#x159;" horiz-adv-x="447" 
d="M183 528c37 0 63 -16 74 -84c37 57 85 88 126 88c33 0 52 -15 52 -56v-63c0 -37 -21 -65 -66 -68c-43 -2 -80 -7 -105 -14v-254c0 -52 -34 -77 -77 -77h-69c-44 0 -77 25 -77 77v374c0 52 31 77 76 77h66zM141 599l-9 9c-50 50 -22 112 31 112h3c26 0 51 -14 78 -42l8 -8
l8 8c27 28 52 42 78 42h3c53 0 81 -62 31 -112l-9 -9c-32 -32 -68 -45 -107 -45h-8c-39 0 -75 13 -107 45z" />
    <glyph glyph-name="rcommaaccent" unicode="&#x157;" horiz-adv-x="447" 
d="M183 528c37 0 63 -16 74 -84c37 57 85 88 126 88c33 0 52 -15 52 -56v-63c0 -37 -21 -65 -66 -68c-43 -2 -80 -7 -105 -14v-254c0 -52 -34 -77 -77 -77h-69c-44 0 -77 25 -77 77v374c0 52 31 77 76 77h66zM61 -213v2c0 15 6 25 30 33c24 7 30 12 30 20s-7 11 -27 22
c-22 12 -32 25 -32 50c0 36 31 62 85 62s89 -30 89 -88c0 -74 -49 -124 -128 -130c-32 -3 -47 8 -47 29z" />
    <glyph glyph-name="sacute" unicode="&#x15b;" horiz-adv-x="491" 
d="M189 626l6 27c10 42 38 62 81 62h77c53 0 76 -52 33 -91l-27 -25c-36 -32 -65 -45 -103 -45h-7c-45 0 -69 29 -60 72zM477 181c0 -121 -84 -189 -256 -189c-59 0 -103 6 -137 18c-42 14 -63 38 -63 76v17c0 35 20 60 55 60s62 -33 137 -33c36 0 65 5 65 25
c0 22 -18 24 -89 35c-108 15 -173 49 -173 168c0 125 103 179 239 179c57 0 100 -4 135 -15c42 -13 63 -32 63 -67v-27c0 -33 -21 -52 -50 -52c-39 0 -68 27 -137 27c-43 0 -58 -8 -58 -25c0 -18 18 -23 81 -31c120 -14 188 -46 188 -166z" />
    <glyph glyph-name="scedilla" unicode="&#x15f;" horiz-adv-x="491" 
d="M477 181c0 -105 -64 -171 -193 -185v-21c54 -3 81 -27 81 -71c0 -46 -32 -79 -121 -79c-19 0 -39 2 -58 7c-25 7 -32 19 -32 40v3c0 18 8 30 26 30c12 0 24 -8 40 -8c14 0 22 6 22 14c0 7 -6 12 -25 12h-3c-10 0 -16 5 -16 15v54c-48 2 -85 8 -114 18
c-42 14 -63 38 -63 76v17c0 35 20 60 55 60s62 -33 137 -33c36 0 65 5 65 25c0 22 -18 24 -89 35c-108 15 -173 49 -173 168c0 125 103 179 239 179c57 0 100 -4 135 -15c42 -13 63 -32 63 -67v-27c0 -33 -21 -52 -50 -52c-39 0 -68 27 -137 27c-43 0 -58 -8 -58 -25
c0 -18 18 -23 81 -31c120 -14 188 -46 188 -166z" />
    <glyph glyph-name="scircumflex" unicode="&#x15d;" horiz-adv-x="491" 
d="M129 665l9 9c32 32 68 45 107 45h8c39 0 75 -13 107 -45l9 -9c50 -50 22 -112 -31 -112h-3c-26 0 -51 14 -78 42l-8 8l-8 -8c-27 -28 -52 -42 -78 -42h-3c-53 0 -81 62 -31 112zM477 181c0 -121 -84 -189 -256 -189c-59 0 -103 6 -137 18c-42 14 -63 38 -63 76v17
c0 35 20 60 55 60s62 -33 137 -33c36 0 65 5 65 25c0 22 -18 24 -89 35c-108 15 -173 49 -173 168c0 125 103 179 239 179c57 0 100 -4 135 -15c42 -13 63 -32 63 -67v-27c0 -33 -21 -52 -50 -52c-39 0 -68 27 -137 27c-43 0 -58 -8 -58 -25c0 -18 18 -23 81 -31
c120 -14 188 -46 188 -166z" />
    <glyph glyph-name="scommaaccent" unicode="&#x219;" horiz-adv-x="491" 
d="M163 -213v2c0 15 6 25 30 33c24 7 30 12 30 20s-7 11 -27 22c-22 12 -32 25 -32 50c0 36 31 62 85 62s89 -30 89 -88c0 -74 -49 -124 -128 -130c-32 -3 -47 8 -47 29zM477 181c0 -121 -84 -189 -256 -189c-59 0 -103 6 -137 18c-42 14 -63 38 -63 76v17c0 35 20 60 55 60
s62 -33 137 -33c36 0 65 5 65 25c0 22 -18 24 -89 35c-108 15 -173 49 -173 168c0 125 103 179 239 179c57 0 100 -4 135 -15c42 -13 63 -32 63 -67v-27c0 -33 -21 -52 -50 -52c-39 0 -68 27 -137 27c-43 0 -58 -8 -58 -25c0 -18 18 -23 81 -31c120 -14 188 -46 188 -166z
" />
    <glyph glyph-name="tcaron" unicode="&#x165;" horiz-adv-x="399" 
d="M69 392h-7c-31 0 -52 15 -52 61v14c0 41 21 61 52 61h7v53c0 51 32 77 77 77h69c44 0 76 -26 76 -77v-51h31c39 0 60 -24 60 -63v-14c0 -39 -21 -61 -60 -61h-31v-205c0 -43 13 -54 46 -58c16 -2 27 -7 35 -14c7 -8 10 -20 10 -36v-21c0 -38 -19 -55 -56 -63
c-19 -5 -40 -6 -72 -6c-108 0 -185 36 -185 159v244zM460 622l-19 -34c-20 -35 -42 -48 -67 -48h-3c-26 0 -49 17 -49 53v42c0 37 19 67 69 67h23c50 0 71 -38 46 -80z" />
    <glyph glyph-name="tcommaaccent" unicode="&#x163;" horiz-adv-x="399" 
d="M134 -213v2c0 15 6 25 30 33c24 7 30 12 30 20s-7 11 -27 22c-22 12 -32 25 -32 50c0 36 31 62 85 62s89 -30 89 -88c0 -74 -49 -124 -128 -130c-32 -3 -47 8 -47 29zM69 392h-7c-31 0 -52 15 -52 61v14c0 41 21 61 52 61h7v53c0 51 32 77 77 77h69c44 0 76 -26 76 -77
v-51h31c39 0 60 -24 60 -63v-14c0 -39 -21 -61 -60 -61h-31v-205c0 -42 13 -54 46 -58c29 -4 44 -18 45 -50v-21c0 -38 -19 -55 -56 -63c-19 -5 -40 -6 -72 -6c-108 0 -185 36 -185 159v244z" />
    <glyph glyph-name="ubreve" unicode="&#x16d;" horiz-adv-x="634" 
d="M449 0c-41 0 -64 15 -74 73c-45 -42 -98 -82 -180 -82c-86 0 -155 37 -155 162v298c0 51 32 77 77 77h69c44 0 76 -26 76 -77v-252c0 -39 19 -48 62 -48c15 0 32 3 45 7v293c0 51 32 77 77 77h68c45 0 77 -26 77 -77v-373c0 -53 -30 -78 -75 -78h-67zM316 556
c-88 0 -152 50 -159 109c-4 34 11 61 46 61h3c20 0 35 -12 51 -24s34 -24 59 -24s42 12 59 24c16 12 31 24 51 24h3c35 0 52 -27 46 -61c-10 -59 -71 -109 -159 -109z" />
    <glyph glyph-name="uhungarumlaut" unicode="&#x171;" horiz-adv-x="634" 
d="M449 0c-41 0 -64 15 -74 73c-45 -42 -98 -82 -180 -82c-86 0 -155 37 -155 162v298c0 51 32 77 77 77h69c44 0 76 -26 76 -77v-252c0 -39 19 -48 62 -48c15 0 32 3 45 7v293c0 51 32 77 77 77h68c45 0 77 -26 77 -77v-373c0 -53 -30 -78 -75 -78h-67zM163 625l7 28
c10 42 36 62 80 62h39c53 0 71 -42 34 -89l-17 -22c-30 -39 -56 -50 -91 -50h-3c-36 0 -61 24 -49 71zM356 625l7 28c10 42 37 62 80 62h39c53 0 71 -42 34 -89l-17 -22c-30 -39 -55 -50 -91 -50h-3c-36 0 -59 24 -49 71z" />
    <glyph glyph-name="umacron" unicode="&#x16b;" horiz-adv-x="634" 
d="M449 0c-41 0 -64 15 -74 73c-45 -42 -98 -82 -180 -82c-86 0 -155 37 -155 162v298c0 51 32 77 77 77h69c44 0 76 -26 76 -77v-252c0 -39 19 -48 62 -48c15 0 32 3 45 7v293c0 51 32 77 77 77h68c45 0 77 -26 77 -77v-373c0 -53 -30 -78 -75 -78h-67zM230 694h174
c42 0 60 -27 60 -60v-2c0 -33 -18 -60 -60 -60h-174c-42 0 -60 27 -60 60v2c0 33 18 60 60 60z" />
    <glyph glyph-name="uogonek" unicode="&#x173;" horiz-adv-x="634" 
d="M558 8c-28 -20 -32 -32 -32 -42c0 -13 8 -20 27 -29c26 -12 34 -24 34 -48v-2c0 -33 -31 -57 -96 -57c-57 0 -129 13 -129 80c0 46 37 76 78 93c-37 3 -56 19 -65 70c-45 -43 -99 -82 -180 -82c-86 0 -155 37 -155 162v298c0 51 32 77 77 77h69c44 0 76 -26 76 -77v-252
c0 -39 19 -48 62 -48c15 0 32 3 45 7v293c0 51 32 77 77 77h68c45 0 77 -26 77 -77v-375c0 -36 -9 -51 -33 -68z" />
    <glyph glyph-name="uring" unicode="&#x16f;" horiz-adv-x="634" 
d="M449 0c-41 0 -64 15 -74 73c-45 -42 -98 -82 -180 -82c-86 0 -155 37 -155 162v298c0 51 32 77 77 77h69c44 0 76 -26 76 -77v-252c0 -39 19 -48 62 -48c15 0 32 3 45 7v293c0 51 32 77 77 77h68c45 0 77 -26 77 -77v-373c0 -53 -30 -78 -75 -78h-67zM426 661
c0 -64 -51 -103 -109 -103s-109 39 -109 103c0 63 51 103 109 103s109 -40 109 -103zM287 661c0 -19 12 -32 30 -32c19 0 31 13 31 32s-12 32 -31 32c-18 0 -30 -13 -30 -32z" />
    <glyph glyph-name="zacute" unicode="&#x17a;" horiz-adv-x="528" 
d="M204 626l6 27c10 42 38 62 81 62h77c53 0 76 -52 33 -91l-27 -25c-36 -32 -65 -45 -103 -45h-7c-45 0 -69 29 -60 72zM70 197l170 181h-142c-47 0 -70 31 -70 70v10c0 40 23 70 70 70h334c43 0 74 -23 74 -71v-13c0 -48 -15 -77 -51 -115l-171 -182h151
c47 0 70 -31 70 -70v-7c0 -40 -23 -70 -70 -70h-342c-43 0 -74 24 -74 73v8c0 48 14 78 51 116z" />
    <glyph glyph-name="zdotaccent" unicode="&#x17c;" horiz-adv-x="528" 
d="M70 197l170 181h-142c-47 0 -70 31 -70 70v10c0 40 23 70 70 70h334c43 0 74 -23 74 -71v-13c0 -48 -15 -77 -51 -115l-171 -182h151c47 0 70 -31 70 -70v-7c0 -40 -23 -70 -70 -70h-342c-43 0 -74 24 -74 73v8c0 48 14 78 51 116zM372 645c0 -55 -43 -91 -106 -91
s-106 36 -106 91s43 92 106 92s106 -37 106 -92z" />
    <glyph glyph-name="oneeighth" unicode="&#x215b;" horiz-adv-x="887" 
d="M255 637v-267c0 -50 -32 -71 -72 -71h-23c-39 0 -71 21 -71 71v182l-8 -6c-13 -9 -20 -13 -32 -13c-18 0 -31 12 -31 38v21c0 48 18 70 63 87c35 13 71 21 100 21h8c41 0 66 -20 66 -63zM141 53l408 631c23 37 40 49 63 49h3c40 0 68 -42 36 -92l-408 -631
c-23 -37 -40 -49 -63 -49h-3c-40 0 -68 42 -36 92zM679 -5c-131 0 -193 47 -193 120c0 51 25 84 80 98v2c-45 11 -65 42 -65 84c0 67 71 109 178 109c106 0 176 -42 176 -109c0 -42 -20 -73 -65 -84v-2c55 -14 80 -47 80 -98c0 -73 -62 -120 -191 -120zM679 88
c26 0 38 18 38 43c0 26 -12 45 -38 45c-27 0 -40 -19 -40 -45c0 -25 13 -43 40 -43zM679 246c22 0 33 14 33 35s-11 36 -33 36c-24 0 -35 -15 -35 -36s11 -35 35 -35z" />
    <glyph glyph-name="onethird" unicode="&#x2153;" horiz-adv-x="863" 
d="M255 637v-267c0 -50 -32 -71 -72 -71h-23c-39 0 -71 21 -71 71v182l-8 -6c-13 -9 -20 -13 -32 -13c-18 0 -31 12 -31 38v21c0 48 18 70 63 87c35 13 71 21 100 21h8c41 0 66 -20 66 -63zM139 53l408 631c23 37 40 49 63 49h3c40 0 68 -42 36 -92l-408 -631
c-23 -37 -40 -49 -63 -49h-3c-40 0 -68 42 -36 92zM683 129c0 17 -12 23 -37 26l-9 1c-31 3 -42 18 -42 43v4c0 25 11 39 42 43l10 1c23 2 35 9 35 25c0 17 -13 26 -40 26c-32 0 -49 -17 -77 -17c-23 0 -38 15 -38 42v11c0 28 10 46 42 58c29 11 67 16 105 16
c93 0 159 -33 159 -107c0 -55 -26 -81 -81 -92v-4c63 -7 90 -40 90 -93c0 -76 -64 -119 -185 -119c-35 0 -66 4 -91 13c-34 12 -48 31 -48 62v7c0 28 13 43 39 43c25 0 36 -18 80 -18c29 0 46 11 46 29z" />
    <glyph glyph-name="threeeighths" unicode="&#x215c;" horiz-adv-x="912" 
d="M704 -5c-130 0 -192 47 -192 120c0 51 24 84 80 98v2c-46 11 -65 42 -65 84c0 67 70 109 177 109c106 0 176 -42 176 -109c0 -42 -19 -73 -65 -84v-2c55 -14 80 -47 80 -98c0 -73 -61 -120 -191 -120zM704 88c26 0 38 18 38 43c0 26 -12 45 -38 45c-27 0 -39 -19 -39 -45
c0 -25 12 -43 39 -43zM704 246c22 0 33 14 33 35s-11 36 -33 36c-24 0 -34 -15 -34 -36s10 -35 34 -35zM179 53l408 631c23 37 40 49 63 49h3c40 0 68 -42 36 -92l-408 -631c-23 -37 -40 -49 -63 -49h-3c-40 0 -68 42 -36 92zM185 428c0 17 -12 23 -37 26l-9 1
c-31 3 -42 18 -42 43v4c0 25 11 39 42 43l10 1c23 2 35 9 35 25c0 17 -13 26 -40 26c-32 0 -49 -17 -77 -17c-23 0 -38 15 -38 42v11c0 28 10 46 42 58c29 11 67 16 105 16c93 0 159 -33 159 -107c0 -55 -26 -81 -81 -92v-4c63 -7 90 -40 90 -93c0 -76 -64 -119 -185 -119
c-35 0 -66 4 -91 13c-34 12 -48 31 -48 62v7c0 28 13 43 39 43c25 0 36 -18 80 -18c29 0 46 11 46 29z" />
    <glyph glyph-name="fiveeighths" unicode="&#x215d;" horiz-adv-x="922" 
d="M714 -5c-130 0 -192 47 -192 120c0 51 24 84 80 98v2c-46 11 -65 42 -65 84c0 67 70 109 177 109c106 0 176 -42 176 -109c0 -42 -19 -73 -65 -84v-2c55 -14 80 -47 80 -98c0 -73 -61 -120 -191 -120zM714 88c26 0 38 18 38 43c0 26 -12 45 -38 45c-27 0 -39 -19 -39 -45
c0 -25 12 -43 39 -43zM714 246c22 0 33 14 33 35s-11 36 -33 36c-24 0 -34 -15 -34 -36s10 -35 34 -35zM229 555c68 0 120 -38 120 -124s-72 -139 -191 -139c-33 0 -67 4 -92 14c-30 12 -43 30 -43 58v12c0 23 15 41 40 41s42 -17 77 -17s50 13 50 33c0 19 -16 30 -37 30
c-30 0 -47 -14 -74 -14c-28 0 -45 16 -45 45v137c0 41 22 69 70 69h174c39 0 53 -24 53 -54v-2c0 -30 -14 -55 -53 -55h-133v-55h2c14 12 39 21 82 21zM183 53l408 631c23 37 40 49 63 49h3c40 0 68 -42 36 -92l-408 -631c-23 -37 -40 -49 -63 -49h-3c-40 0 -68 42 -36 92z
" />
    <glyph glyph-name="twothirds" unicode="&#x2154;" horiz-adv-x="928" 
d="M206 415h76c41 0 57 -25 57 -56v-2c0 -31 -16 -57 -57 -57h-205c-36 0 -57 23 -57 60v2c0 38 7 57 49 92l63 52c29 25 42 39 42 56c0 14 -10 24 -31 24c-41 0 -49 -19 -80 -19c-22 0 -38 15 -38 44v14c0 35 13 57 49 69c28 9 62 13 98 13c114 0 171 -42 171 -123
c0 -60 -36 -93 -90 -134zM212 53l408 631c23 37 40 49 63 49h3c40 0 68 -42 36 -92l-408 -631c-23 -37 -40 -49 -63 -49h-3c-40 0 -68 42 -36 92zM748 129c0 17 -12 23 -37 26l-9 1c-31 3 -42 18 -42 43v4c0 25 11 39 42 43l10 1c23 2 35 9 35 25c0 17 -13 26 -40 26
c-32 0 -49 -17 -77 -17c-23 0 -38 15 -38 42v11c0 28 10 46 42 58c29 11 67 16 105 16c93 0 159 -33 159 -107c0 -55 -26 -81 -81 -92v-4c63 -7 90 -40 90 -93c0 -76 -64 -119 -185 -119c-35 0 -66 4 -91 13c-34 12 -48 31 -48 62v7c0 28 13 43 39 43c25 0 36 -18 80 -18
c29 0 46 11 46 29z" />
    <glyph glyph-name="seveneighths" unicode="&#x215e;" horiz-adv-x="908" 
d="M699 -5c-130 0 -192 47 -192 120c0 51 24 84 80 98v2c-45 11 -65 42 -65 84c0 67 70 109 177 109c106 0 176 -42 176 -109c0 -42 -19 -73 -64 -84v-2c55 -14 79 -47 79 -98c0 -73 -61 -120 -191 -120zM699 88c26 0 38 18 38 43c0 26 -12 45 -38 45s-39 -19 -39 -45
c0 -25 13 -43 39 -43zM699 246c22 0 33 14 33 35s-11 36 -33 36c-23 0 -34 -15 -34 -36s11 -35 34 -35zM165 299h-41c-41 0 -67 35 -42 82l108 193v2h-114c-38 0 -56 21 -56 61v2c0 41 22 61 59 61h195c36 0 63 -19 63 -64v-8c0 -46 -9 -76 -26 -117l-60 -148
c-17 -43 -43 -64 -86 -64zM150 53l408 631c23 37 40 49 63 49h3c40 0 68 -42 36 -92l-408 -631c-23 -37 -40 -49 -63 -49h-3c-40 0 -68 42 -36 92z" />
    <glyph glyph-name="space_uni0326" 
d="M116 -210v2c0 15 6 25 30 33c24 7 30 12 30 20s-7 11 -27 22c-22 12 -32 25 -32 50c0 36 31 62 85 62s89 -30 89 -88c0 -74 -49 -124 -128 -130c-32 -3 -47 8 -47 29z" />
    <glyph glyph-name="zero.numerator" horiz-adv-x="452" 
d="M432 500c0 -134 -89 -208 -205 -208c-117 0 -207 74 -207 208s97 207 207 207s205 -73 205 -207zM184 497c0 -77 17 -98 43 -98c27 0 42 21 42 98c0 74 -15 94 -42 94c-26 0 -43 -20 -43 -94z" />
    <glyph glyph-name="one.numerator" horiz-adv-x="298" 
d="M255 637v-267c0 -50 -32 -71 -72 -71h-23c-39 0 -71 21 -71 71v182l-8 -6c-13 -9 -20 -13 -32 -13c-18 0 -31 12 -31 38v21c0 48 18 70 63 87c35 13 71 21 100 21h8c41 0 66 -20 66 -63z" />
    <glyph glyph-name="two.numerator" horiz-adv-x="367" 
d="M207 415h76c41 0 57 -25 57 -56v-2c0 -31 -16 -57 -57 -57h-205c-36 0 -57 23 -57 60v2c0 38 7 57 49 92l63 52c29 25 42 39 42 56c0 14 -10 24 -31 24c-41 0 -49 -19 -80 -19c-22 0 -38 15 -38 44v14c0 35 13 57 49 69c28 9 62 13 98 13c114 0 171 -42 171 -123
c0 -60 -36 -93 -90 -134z" />
    <glyph glyph-name="three.numerator" horiz-adv-x="363" 
d="M183 428c0 17 -12 23 -37 26l-9 1c-31 3 -42 18 -42 43v4c0 25 11 39 42 43l10 1c23 2 35 9 35 25c0 17 -13 26 -40 26c-32 0 -49 -17 -77 -17c-23 0 -38 15 -38 42v11c0 28 10 46 42 58c29 11 67 16 105 16c93 0 159 -33 159 -107c0 -55 -26 -81 -81 -92v-4
c63 -7 90 -40 90 -93c0 -76 -64 -119 -185 -119c-35 0 -66 4 -91 13c-34 12 -48 31 -48 62v7c0 28 13 43 39 43c25 0 36 -18 80 -18c29 0 46 11 46 29z" />
    <glyph glyph-name="four.numerator" horiz-adv-x="408" 
d="M350 378v-15c0 -44 -28 -64 -69 -64h-25c-41 0 -69 20 -69 64v15h-116c-34 0 -55 19 -55 57v3c0 34 10 55 40 92l93 114c34 43 61 58 111 58h21c42 0 69 -21 69 -71v-159h4c29 0 40 -16 40 -39v-16c0 -23 -11 -39 -40 -39h-4zM194 559l-69 -87v-2h71v89h-2z" />
    <glyph glyph-name="five.numerator" horiz-adv-x="366" 
d="M226 555c68 0 120 -38 120 -124s-72 -139 -191 -139c-33 0 -67 4 -92 14c-30 12 -43 30 -43 58v12c0 23 15 41 40 41s42 -17 77 -17s50 13 50 33c0 19 -16 30 -37 30c-30 0 -47 -14 -74 -14c-28 0 -45 16 -45 45v137c0 41 22 69 70 69h174c39 0 53 -24 53 -54v-2
c0 -30 -14 -55 -53 -55h-133v-55h2c14 12 39 21 82 21z" />
    <glyph glyph-name="six.numerator" horiz-adv-x="416" 
d="M275 551c68 0 123 -33 123 -114c0 -93 -73 -145 -184 -145c-116 0 -194 57 -194 199c0 136 84 216 228 216c28 0 53 -2 75 -7c36 -9 50 -28 50 -57v-24c0 -23 -16 -39 -39 -39c-24 0 -36 13 -73 13c-44 0 -71 -17 -79 -65c24 15 57 23 93 23zM211 467
c-11 0 -23 -3 -31 -6c2 -59 13 -73 33 -73c19 0 31 13 31 41c0 30 -13 38 -33 38z" />
    <glyph glyph-name="seven.numerator" horiz-adv-x="359" 
d="M165 299h-41c-41 0 -67 35 -42 82l108 193v2h-114c-38 0 -56 21 -56 61v2c0 41 22 61 59 61h195c36 0 63 -19 63 -64v-8c0 -46 -9 -76 -26 -117l-60 -148c-17 -43 -43 -64 -86 -64z" />
    <glyph glyph-name="eight.numerator" horiz-adv-x="418" 
d="M209 294c-130 0 -192 47 -192 121c0 51 25 83 80 97v2c-45 12 -65 42 -65 85c0 67 71 108 177 108c107 0 177 -41 177 -108c0 -43 -20 -73 -65 -85v-2c55 -14 80 -46 80 -97c0 -74 -62 -121 -192 -121zM209 387c27 0 38 18 38 44c0 25 -11 44 -38 44
c-26 0 -39 -19 -39 -44c0 -26 13 -44 39 -44zM209 545c23 0 34 14 34 35s-11 36 -34 36s-34 -15 -34 -36s11 -35 34 -35z" />
    <glyph glyph-name="nine.numerator" horiz-adv-x="414" 
d="M151 405c52 0 74 16 81 64c-24 -15 -57 -23 -91 -23c-69 0 -124 33 -124 115c0 92 73 146 183 146c117 0 195 -57 195 -199c0 -136 -72 -216 -232 -216c-32 0 -58 3 -79 9c-33 9 -47 29 -47 62v9c0 27 15 44 40 44c24 0 38 -11 74 -11zM204 530c11 0 22 2 30 5
c-2 61 -12 75 -32 75s-32 -14 -32 -41c0 -32 14 -39 34 -39z" />
    <glyph glyph-name="zero.denominator" horiz-adv-x="452" 
d="M432 200c0 -134 -89 -207 -205 -207c-117 0 -207 73 -207 207c0 135 97 208 207 208s205 -73 205 -208zM184 197c0 -76 17 -97 43 -97c27 0 42 21 42 97c0 74 -15 95 -42 95c-26 0 -43 -21 -43 -95z" />
    <glyph glyph-name="one.denominator" horiz-adv-x="298" 
d="M255 338v-267c0 -50 -32 -71 -72 -71h-23c-39 0 -71 21 -71 71v182l-8 -6c-13 -9 -20 -13 -32 -13c-18 0 -31 12 -31 38v21c0 48 18 70 63 87c35 13 71 21 100 21h8c41 0 66 -20 66 -63z" />
    <glyph glyph-name="two.denominator" horiz-adv-x="367" 
d="M207 115h76c41 0 57 -25 57 -56v-2c0 -31 -16 -57 -57 -57h-205c-36 0 -57 23 -57 60v2c0 38 7 57 49 92l63 52c29 25 42 39 42 56c0 14 -10 24 -31 24c-41 0 -49 -19 -80 -19c-22 0 -38 15 -38 44v14c0 35 13 57 49 69c28 9 62 13 98 13c114 0 171 -42 171 -123
c0 -60 -36 -93 -90 -134z" />
    <glyph glyph-name="three.denominator" horiz-adv-x="363" 
d="M183 129c0 17 -12 23 -37 26l-9 1c-31 3 -42 18 -42 43v4c0 25 11 39 42 43l10 1c23 2 35 9 35 25c0 17 -13 26 -40 26c-32 0 -49 -17 -77 -17c-23 0 -38 15 -38 42v11c0 28 10 46 42 58c29 11 67 16 105 16c93 0 159 -33 159 -107c0 -55 -26 -81 -81 -92v-4
c63 -7 90 -40 90 -93c0 -76 -64 -119 -185 -119c-35 0 -66 4 -91 13c-34 12 -48 31 -48 62v7c0 28 13 43 39 43c25 0 36 -18 80 -18c29 0 46 11 46 29z" />
    <glyph glyph-name="four.denominator" horiz-adv-x="408" 
d="M350 79v-15c0 -44 -28 -64 -69 -64h-25c-41 0 -69 20 -69 64v15h-116c-34 0 -55 19 -55 57v3c0 34 10 55 40 92l93 114c34 43 61 58 111 58h21c42 0 69 -21 69 -71v-159h4c29 0 40 -16 40 -39v-16c0 -23 -11 -39 -40 -39h-4zM194 260l-69 -87v-2h71v89h-2z" />
    <glyph glyph-name="five.denominator" horiz-adv-x="366" 
d="M226 256c68 0 120 -38 120 -124s-72 -139 -191 -139c-33 0 -67 4 -92 14c-30 12 -43 30 -43 58v12c0 23 15 41 40 41s42 -17 77 -17s50 13 50 33c0 19 -16 30 -37 30c-30 0 -47 -14 -74 -14c-28 0 -45 16 -45 45v137c0 41 22 69 70 69h174c39 0 53 -24 53 -54v-2
c0 -30 -14 -55 -53 -55h-133v-55h2c14 12 39 21 82 21z" />
    <glyph glyph-name="six.denominator" horiz-adv-x="416" 
d="M275 252c68 0 123 -33 123 -114c0 -93 -73 -145 -184 -145c-116 0 -194 57 -194 199c0 136 84 216 228 216c28 0 53 -2 75 -7c36 -9 50 -28 50 -57v-24c0 -23 -16 -39 -39 -39c-24 0 -36 13 -73 13c-44 0 -71 -17 -79 -65c24 15 57 23 93 23zM211 168
c-11 0 -23 -3 -31 -6c2 -59 13 -73 33 -73c19 0 31 13 31 41c0 30 -13 38 -33 38z" />
    <glyph glyph-name="seven.denominator" horiz-adv-x="359" 
d="M165 0h-41c-41 0 -67 35 -42 82l108 193v2h-114c-38 0 -56 21 -56 61v2c0 41 22 61 59 61h195c36 0 63 -19 63 -64v-8c0 -46 -9 -76 -26 -117l-60 -148c-17 -43 -43 -64 -86 -64z" />
    <glyph glyph-name="eight.denominator" horiz-adv-x="418" 
d="M209 -5c-130 0 -192 47 -192 120c0 51 25 84 80 98v2c-45 11 -65 42 -65 84c0 67 71 109 177 109c107 0 177 -42 177 -109c0 -42 -20 -73 -65 -84v-2c55 -14 80 -47 80 -98c0 -73 -62 -120 -192 -120zM209 88c27 0 38 18 38 43c0 26 -11 45 -38 45c-26 0 -39 -19 -39 -45
c0 -25 13 -43 39 -43zM209 246c23 0 34 14 34 35s-11 36 -34 36s-34 -15 -34 -36s11 -35 34 -35z" />
    <glyph glyph-name="nine.denominator" horiz-adv-x="414" 
d="M151 106c52 0 74 16 81 64c-24 -15 -57 -23 -91 -23c-69 0 -124 33 -124 115c0 92 73 146 183 146c117 0 195 -57 195 -199c0 -136 -72 -216 -232 -216c-32 0 -58 3 -79 9c-33 9 -47 29 -47 62v9c0 27 15 44 40 44c24 0 38 -11 74 -11zM204 231c11 0 22 2 30 5
c-2 61 -12 75 -32 75s-32 -14 -32 -41c0 -32 14 -39 34 -39z" />
    <glyph glyph-name="one.superior" unicode="&#xb9;" horiz-adv-x="294" 
d="M251 637v-267c0 -50 -32 -71 -72 -71h-23c-39 0 -71 21 -71 71v182l-8 -6c-13 -9 -20 -13 -32 -13c-18 0 -31 12 -31 38v21c0 48 18 70 63 87c35 13 71 21 100 21h8c41 0 66 -20 66 -63z" />
    <glyph glyph-name="two.superior" unicode="&#xb2;" horiz-adv-x="367" 
d="M206 415h76c41 0 57 -25 57 -56v-2c0 -31 -16 -57 -57 -57h-205c-36 0 -57 23 -57 60v2c0 38 7 57 49 92l63 52c29 25 42 39 42 56c0 14 -10 24 -31 24c-41 0 -49 -19 -80 -19c-22 0 -38 15 -38 44v14c0 35 13 57 49 69c28 9 62 13 98 13c114 0 171 -42 171 -123
c0 -60 -36 -93 -90 -134z" />
    <glyph glyph-name="three.superior" unicode="&#xb3;" horiz-adv-x="363" 
d="M183 428c0 17 -12 23 -37 26l-9 1c-31 3 -42 18 -42 43v4c0 25 11 39 42 43l10 1c23 2 35 9 35 25c0 17 -13 26 -40 26c-32 0 -49 -17 -77 -17c-23 0 -38 15 -38 42v11c0 28 10 46 42 58c29 11 67 16 105 16c93 0 159 -33 159 -107c0 -55 -26 -81 -81 -92v-4
c63 -7 90 -40 90 -93c0 -76 -64 -119 -185 -119c-35 0 -66 4 -91 13c-34 12 -48 31 -48 62v7c0 28 13 43 39 43c25 0 36 -18 80 -18c29 0 46 11 46 29z" />
    <glyph glyph-name="Q.alt" horiz-adv-x="763" 
d="M739 349c0 -140 -60 -222 -172 -260v-3c75 -7 120 -15 154 -29c43 -17 58 -48 58 -87v-20c0 -46 -27 -73 -71 -73c-27 0 -54 11 -91 27c-48 19 -114 46 -223 70c-121 27 -196 58 -251 101c-75 58 -119 147 -119 278c0 227 159 358 357 358c199 0 358 -131 358 -362z
M264 347c0 -145 47 -201 117 -201s117 56 117 201c0 140 -47 197 -117 197s-117 -57 -117 -197z" />
    <glyph glyph-name="Q.alt1" horiz-adv-x="763" 
d="M586 11l-30 24c-52 -30 -112 -46 -175 -46c-204 0 -357 127 -357 359s159 363 357 363c199 0 358 -131 358 -363c0 -77 -24 -147 -64 -205l16 -12c38 -31 36 -71 7 -107c-32 -38 -75 -42 -112 -13zM264 347c0 -147 47 -206 117 -206c15 0 29 1 40 3l-16 14
c-38 30 -36 70 -7 106c28 35 63 45 99 22c1 18 1 38 1 61c0 140 -47 197 -117 197s-117 -57 -117 -197z" />
    <glyph glyph-name="f.short" horiz-adv-x="368" 
d="M292 544v-14h20c34 -1 58 -19 58 -63v-14c0 -44 -24 -61 -58 -61h-20v-315c0 -52 -33 -77 -76 -77h-69c-44 0 -77 25 -77 77v315h-8c-32 0 -52 17 -52 61v14c0 44 20 61 52 61h8v23c0 120 71 162 194 162c23 0 38 -2 57 -6c32 -7 49 -22 49 -58v-15
c0 -32 -15 -46 -48 -54c-24 -6 -30 -17 -30 -36z" />
    <glyph glyph-name="f_f.short" horiz-adv-x="699" 
d="M292 542v-14h110v23c0 120 70 162 193 162c23 0 38 -2 57 -6c32 -7 49 -22 49 -58v-15c0 -32 -15 -46 -48 -54c-24 -6 -29 -17 -29 -36v-14h20c33 -1 57 -19 57 -63v-14c0 -44 -24 -61 -57 -61h-20v-315c0 -52 -33 -77 -76 -77h-69c-44 0 -77 25 -77 77v315h-110v-315
c0 -52 -33 -77 -76 -77h-69c-44 0 -77 25 -77 77v315h-8c-32 0 -52 17 -52 61v14c0 44 20 61 52 61h8v20c0 119 71 163 194 163c23 0 41 -1 60 -5c32 -7 49 -23 49 -59v-16c0 -30 -15 -46 -48 -53c-26 -5 -33 -18 -33 -36z" />
    <glyph glyph-name="less.cap" horiz-adv-x="456" 
d="M184 65l-137 199c-21 31 -31 56 -31 85v2c0 29 9 55 31 86l137 198c35 51 63 67 114 67h49c54 0 88 -56 50 -114l-155 -236v-3l155 -237c38 -59 4 -114 -50 -114h-49c-51 0 -79 16 -114 67z" />
    <glyph glyph-name="greater.cap" horiz-adv-x="456" 
d="M409 264l-137 -199c-34 -51 -63 -67 -114 -67h-49c-54 0 -88 55 -50 114l155 237v3l-155 236c-38 58 -4 114 50 114h49c51 0 79 -17 114 -67l137 -198c22 -32 31 -57 31 -86v-2c0 -29 -9 -54 -31 -85z" />
    <glyph glyph-name="questiondown.cap" horiz-adv-x="488" 
d="M307 469c45 0 76 -17 76 -65c0 -41 -25 -82 -62 -116c-39 -36 -74 -58 -74 -91c0 -28 21 -43 57 -43c51 0 70 33 115 33c34 0 55 -22 55 -61v-22c0 -45 -17 -72 -67 -92c-38 -15 -83 -23 -142 -23c-161 0 -245 71 -245 185c0 70 29 111 65 144c35 33 78 60 107 105
c19 31 44 46 89 46h26zM184 604c0 57 50 103 110 103c61 0 109 -46 109 -103c0 -59 -48 -105 -109 -105c-60 0 -110 46 -110 105z" />
    <glyph glyph-name="exclamdown.cap" horiz-adv-x="326" 
d="M246 395c0 0 35 -257 35 -310c0 -56 -26 -85 -80 -85h-76c-54 0 -80 29 -80 85c0 53 35 310 35 310c7 50 39 72 79 72h8c40 0 72 -22 79 -72zM272 604c0 -59 -49 -105 -109 -105c-61 0 -109 46 -109 105c0 57 48 103 109 103c60 0 109 -46 109 -103z" />
    <glyph glyph-name="bullet.cap" horiz-adv-x="384" 
d="M354 327c0 -99 -72 -158 -162 -158s-163 59 -163 158s73 159 163 159s162 -60 162 -159z" />
    <glyph glyph-name="hyphen.cap" horiz-adv-x="329" 
d="M227 241h-125c-48 0 -73 32 -73 73v15c0 40 25 72 73 72h125c48 0 73 -32 73 -72v-15c0 -41 -25 -73 -73 -73z" />
    <glyph glyph-name="endash.cap" horiz-adv-x="445" 
d="M344 243h-242c-49 0 -72 31 -72 71v14c0 39 23 71 72 71h242c48 0 72 -32 72 -71v-14c0 -40 -24 -71 -72 -71z" />
    <glyph glyph-name="emdash.cap" horiz-adv-x="735" 
d="M634 242h-532c-49 0 -72 32 -72 72v15c0 39 23 71 72 71h532c48 0 71 -32 71 -71v-15c0 -40 -23 -72 -71 -72z" />
    <glyph glyph-name="dagger.cap" horiz-adv-x="496" 
d="M95 375c-52 0 -83 35 -83 90v9c0 56 31 90 83 90c31 0 65 -23 100 -47c-23 37 -45 74 -45 111c0 45 31 77 94 77h9c63 0 93 -32 93 -77c0 -37 -21 -73 -45 -111c36 24 69 47 101 47c51 0 82 -34 82 -90v-9c0 -55 -31 -90 -82 -90c-32 0 -65 23 -101 48
c32 -56 52 -102 52 -170c0 -53 -14 -155 -25 -187c-12 -49 -37 -71 -78 -71h-4c-41 0 -65 21 -78 71c-10 32 -25 133 -25 187c0 67 21 114 52 170c-35 -25 -69 -48 -100 -48z" />
    <glyph glyph-name="daggerdbl.cap" horiz-adv-x="496" 
d="M199 451c-33 -24 -69 -50 -104 -50c-52 0 -83 32 -83 84v7c0 53 31 86 83 86c35 0 70 -26 104 -50c-23 35 -45 67 -45 102c0 44 29 75 92 75h5c63 0 91 -31 91 -75c0 -35 -22 -67 -45 -102c34 24 69 50 105 50c51 0 82 -33 82 -86v-7c0 -52 -31 -84 -82 -84
c-36 0 -72 26 -105 50c23 -34 42 -66 42 -101c0 -36 -19 -67 -42 -101c33 24 69 50 105 50c51 0 82 -32 82 -84v-7c0 -53 -31 -86 -82 -86c-36 0 -71 26 -105 50c23 -35 45 -67 45 -102c0 -44 -28 -75 -91 -75h-5c-63 0 -92 31 -92 75c0 35 22 67 45 102
c-34 -24 -69 -50 -104 -50c-52 0 -83 33 -83 86v7c0 52 31 84 83 84c35 0 71 -26 104 -50c-22 34 -42 65 -42 101c0 35 20 67 42 101z" />
    <glyph glyph-name="quoteleft.cap" horiz-adv-x="541" 
d="M443 348c36 -26 73 -71 73 -154c0 -121 -96 -202 -229 -202c-140 0 -262 89 -262 289c0 231 141 406 370 423c76 5 113 -22 113 -70v-3c0 -42 -16 -66 -82 -90c-78 -29 -103 -54 -103 -91c0 -47 60 -58 120 -102z" />
    <glyph glyph-name="quoteright.cap" horiz-adv-x="541" 
d="M98 356c-36 26 -73 71 -73 154c0 121 96 201 229 201c139 0 262 -89 262 -289c0 -230 -142 -408 -371 -423c-75 -5 -112 23 -112 70v4c0 41 15 66 81 90c77 29 103 54 103 91c0 47 -60 57 -119 102z" />
    <glyph glyph-name="quotedblleft.cap" horiz-adv-x="1070" 
d="M972 348c36 -26 74 -71 74 -154c0 -121 -97 -202 -230 -202c-139 0 -262 89 -262 289c0 231 142 406 371 423c75 5 112 -22 112 -70v-3c0 -42 -16 -66 -81 -90c-78 -29 -103 -54 -103 -91c0 -47 60 -58 119 -102zM443 348c36 -26 73 -71 73 -154
c0 -121 -96 -202 -229 -202c-140 0 -262 89 -262 289c0 231 141 406 370 423c76 5 113 -22 113 -70v-3c0 -42 -16 -66 -82 -90c-78 -29 -103 -54 -103 -91c0 -47 60 -58 120 -102z" />
    <glyph glyph-name="quotedblright.cap" horiz-adv-x="1070" 
d="M98 356c-36 26 -73 71 -73 154c0 121 96 201 229 201c139 0 262 -89 262 -289c0 -230 -142 -408 -371 -423c-75 -5 -112 23 -112 70v4c0 41 15 66 81 90c77 29 103 54 103 91c0 47 -60 57 -119 102zM627 356c-36 26 -73 71 -73 154c0 121 96 201 229 201
c140 0 263 -89 263 -289c0 -230 -142 -408 -371 -423c-76 -5 -113 23 -113 70v4c0 41 15 65 82 90c77 29 103 54 103 91c0 47 -60 57 -120 102z" />
    <glyph glyph-name="guillemotleft.cap" horiz-adv-x="781" 
d="M509 65l-138 199c-21 31 -31 56 -31 85v2c0 29 9 55 31 86l138 198c34 51 63 67 113 67h49c55 0 89 -56 51 -114l-155 -236v-3l155 -237c38 -59 4 -114 -51 -114h-49c-50 0 -79 16 -113 67zM184 65l-137 199c-21 31 -31 56 -31 85v2c0 29 9 55 31 86l137 198
c35 51 63 67 114 67h49c54 0 88 -56 50 -114l-155 -236v-3l155 -237c38 -59 4 -114 -50 -114h-49c-51 0 -79 16 -114 67z" />
    <glyph glyph-name="guillemotright.cap" horiz-adv-x="781" 
d="M214 352l-155 236c-38 58 -4 114 50 114h49c51 0 79 -17 114 -67l137 -198c22 -32 31 -57 31 -86v-2c0 -29 -9 -54 -31 -85l-137 -199c-35 -50 -63 -67 -114 -67h-49c-54 0 -88 55 -50 114l155 237v3zM538 352l-155 236c-38 58 -4 114 51 114h49c50 0 78 -17 113 -67
l138 -198c21 -32 31 -57 31 -86v-2c0 -29 -10 -54 -31 -85l-138 -199c-35 -50 -63 -67 -113 -67h-49c-55 0 -89 55 -51 114l155 237v3z" />
    <glyph glyph-name="at.cap" horiz-adv-x="865" 
d="M446 413c-41 0 -67 -50 -67 -101c0 -24 11 -35 30 -35c13 0 23 4 34 13l26 119c-6 2 -11 4 -23 4zM427 -27c-209 0 -400 105 -400 351c0 260 233 401 428 401c212 0 383 -110 383 -309c0 -182 -126 -258 -261 -258c-78 0 -114 25 -130 61c-27 -30 -67 -58 -121 -58
c-70 0 -119 48 -119 137c0 118 74 231 205 231c44 0 74 -18 95 -42c18 26 34 37 67 37h41c36 0 49 -24 42 -53l-37 -169c-6 -26 -4 -45 18 -45c43 0 93 48 93 159c0 140 -101 219 -276 219c-157 0 -315 -106 -315 -311c0 -183 124 -261 288 -261c163 0 194 62 239 62
c26 0 42 -17 42 -42v-2c0 -24 -12 -42 -44 -60c-55 -30 -144 -48 -238 -48z" />
    <glyph glyph-name="paragraph.cap" horiz-adv-x="592" 
d="M297 -5h-2c-35 0 -63 18 -63 63v239c-126 0 -213 58 -213 201c0 153 110 202 254 202h188c48 0 81 -29 81 -80v-562c0 -45 -29 -63 -63 -63h-2c-34 0 -63 18 -63 63v513h-55v-513c0 -45 -28 -63 -62 -63z" />
    <glyph glyph-name="grave.cap" 
d="M262 820l8 -26c13 -44 -14 -72 -57 -72h-10c-35 0 -69 13 -104 44l-27 24c-42 38 -25 90 34 90h75c43 0 69 -19 81 -60z" />
    <glyph glyph-name="dieresis.cap" 
d="M186 811c0 -53 -39 -87 -96 -87s-96 34 -96 87s39 87 96 87s96 -34 96 -87zM406 811c0 -53 -39 -87 -96 -87s-96 34 -96 87s39 87 96 87s96 -34 96 -87z" />
    <glyph glyph-name="macron.cap" 
d="M112 855h176c43 0 60 -27 60 -60v-2c0 -33 -17 -60 -60 -60h-176c-43 0 -60 27 -60 60v2c0 33 17 60 60 60z" />
    <glyph glyph-name="acute.cap" 
d="M130 794l8 26c12 41 38 60 81 60h75c59 0 76 -52 34 -90l-27 -24c-35 -31 -69 -44 -104 -44h-10c-43 0 -70 28 -57 72z" />
    <glyph glyph-name="circumflex.cap" 
d="M200 771l-8 -8c-29 -29 -52 -42 -79 -42h-2c-54 0 -79 58 -35 106l9 10c27 30 67 47 108 47h14c41 0 81 -17 108 -47l9 -10c44 -48 19 -106 -35 -106h-2c-27 0 -50 13 -79 42z" />
    <glyph glyph-name="caron.cap" 
d="M192 843l8 -8l8 8c29 29 52 42 79 42h2c54 0 79 -58 35 -106l-9 -10c-27 -30 -67 -47 -108 -47h-14c-41 0 -81 17 -108 47l-9 10c-44 48 -19 106 35 106h2c27 0 50 -13 79 -42z" />
    <glyph glyph-name="breve.cap" 
d="M200 725c-89 0 -149 48 -157 101c-5 32 13 57 47 57h3c19 0 34 -11 50 -22c15 -11 32 -22 57 -22s42 11 57 22c16 11 31 22 50 22h3c34 0 52 -25 47 -57c-8 -53 -68 -101 -157 -101z" />
    <glyph glyph-name="dotaccent.cap" 
d="M306 817c0 -55 -43 -90 -106 -90s-106 35 -106 90s43 92 106 92s106 -37 106 -92z" />
    <glyph glyph-name="ring.cap" 
d="M309 827c0 -63 -51 -103 -109 -103s-109 40 -109 103s51 104 109 104s109 -41 109 -104zM170 827c0 -19 12 -32 30 -32c19 0 31 13 31 32c0 20 -12 33 -31 33c-18 0 -30 -13 -30 -33z" />
    <glyph glyph-name="tilde.cap" 
d="M261 724c-48 0 -89 24 -113 24c-18 0 -30 -8 -41 -17c-11 -8 -21 -16 -36 -16h-2c-31 0 -54 23 -45 76c10 57 53 92 110 92c48 0 89 -24 112 -24c19 0 31 8 42 16s21 16 36 16h2c30 0 53 -22 45 -75c-10 -57 -53 -92 -110 -92z" />
    <glyph glyph-name="hungarumlaut.cap" 
d="M247 790l6 27c9 42 36 61 80 61h45c53 0 71 -42 34 -88l-17 -21c-29 -35 -55 -49 -93 -49h-4c-37 0 -61 23 -51 70zM46 790l7 27c11 42 36 61 80 61h45c52 0 71 -42 33 -88l-17 -21c-29 -35 -54 -49 -92 -49h-4c-37 0 -64 23 -52 70z" />
    <glyph glyph-name="uni2009" unicode="&#x2009;" horiz-adv-x="74" 
 />
    </font>
</defs>
</svg>
