<?xml version="1.0" standalone="no"?>
<!DOCTYPE svg PUBLIC "-//W3C//DTD SVG 1.1//EN" "http://www.w3.org/Graphics/SVG/1.1/DTD/svg11.dtd" >
<svg xmlns="http://www.w3.org/2000/svg">
<metadata>
This is a custom SVG webfont generated by Font Squirrel.
Copyright   : 2009 Christian Schwartz under exclusive license to Schwartzco IncCommercial Type All rights reserved
Designer    : Ross Milne and Christian Schwartz
Foundry     : Commercial Type
Foundry URL : httpcommercialtypecom
</metadata>
<defs>
<font id="StagSansRoundSemibold" horiz-adv-x="1234" >
<font-face units-per-em="2048" ascent="1716" descent="-332" />
<missing-glyph horiz-adv-x="315" />
<glyph unicode=" "  horiz-adv-x="315" />
<glyph unicode="&#x09;" horiz-adv-x="315" />
<glyph unicode="&#xa0;" horiz-adv-x="315" />
<glyph unicode="!" horiz-adv-x="620" d="M115 1268q0 166 157 166h74q160 0 160 -166l-62 -697q-6 -61 -41.5 -93t-87.5 -32h-10q-51 0 -87 32t-42 93q-61 609 -61 697zM117 172q0 78 56 132t136 54t136.5 -54t56.5 -132t-56.5 -132t-136.5 -54t-136 54t-56 132z" />
<glyph unicode="&#x22;" horiz-adv-x="833" d="M51 1321q0 113 113 113h102q57 0 83 -27t26 -86l-35 -279q-20 -117 -125 -116h-4q-47 0 -81 29.5t-42 86.5q-37 185 -37 279zM459 1321q0 113 110 113h103q111 0 110 -113l-34 -279q-20 -117 -125 -116h-5q-106 0 -124 116q-35 185 -35 279z" />
<glyph unicode="#" horiz-adv-x="1134" d="M37 510v12q0 123 125 123h67l27 193h-39q-115 0 -115 118v13q0 123 125 123h66l35 235q18 117 121 117h4q59 0 90 -35q24 -27 24 -73q0 -12 -2 -25l-33 -219h173l34 235q16 117 121 117h2q59 0 90 -35q24 -27 25 -73q0 -12 -2 -25l-31 -219h39q115 0 115 -117v-12 q0 -125 -125 -125h-68l-26 -193h39q115 0 114 -117v-12q0 -125 -125 -125h-65l-41 -285q-18 -117 -121 -116h-4q-59 0 -90 35q-24 27 -25 72q0 12 2 26l39 268h-172l-41 -285q-16 -117 -121 -116h-2q-59 0 -90 35q-24 27 -24 72q0 12 2 26l36 268h-38q-115 0 -115 119z M469 645h170l27 193h-170z" />
<glyph unicode="$" horiz-adv-x="1138" d="M37 1014q0 188 118.5 296.5t321.5 131.5v45q0 88 90 88h8q88 0 89 -88v-41q129 -10 223 -45q119 -43 119 -164v-31q0 -53 -28 -80.5t-71 -27.5q-39 0 -111.5 40t-131.5 50v-318q238 -66 332 -156.5t94 -277.5q0 -190 -118 -305t-339 -137v-125q0 -88 -88 -88h-8 q-90 0 -91 88v121q-168 6 -278 55q-119 49 -119 166v35q0 119 111 119q39 0 122 -53.5t164 -63.5v334q-209 59 -309 152.5t-100 279.5zM358 1051q0 -82 119 -125v254q-119 -31 -119 -129zM633 258q111 33 110 133q0 55 -26.5 85t-83.5 50v-268z" />
<glyph unicode="%" horiz-adv-x="1775" d="M37 1065q0 188 110.5 287.5t272.5 99.5t272.5 -99.5t110.5 -287.5t-111.5 -289.5t-271.5 -101.5t-271.5 101.5t-111.5 289.5zM309 1061q0 -197 110.5 -197t110.5 197q0 199 -110.5 199t-110.5 -199zM344 -28q-9 20 -9 41q0 36 25 77l863 1333q53 80 108 80h4q66 0 90 -53 q9 -20 10 -41q0 -36 -26 -76l-862 -1333q-49 -80 -109 -80h-4q-65 0 -90 52zM975 375q0 186 110.5 285.5t272.5 99.5q160 0 270.5 -99.5t110.5 -285.5q0 -188 -111.5 -290.5t-269.5 -102.5q-160 0 -271.5 102.5t-111.5 290.5zM1245 370.5q0 -198.5 113 -198.5 q111 0 110.5 198.5t-110.5 198.5q-113 0 -113 -198.5z" />
<glyph unicode="&#x26;" horiz-adv-x="1462" d="M43 410q0 139 82 240.5t215 162.5q-68 113 -68 244q0 180 130 287.5t366 107.5q131 0 225 -35q61 -23 88 -62.5t27 -107.5v-20q0 -51 -28.5 -82t-75.5 -31q-33 0 -97.5 33t-120.5 33q-63 0 -101 -34t-38 -91q0 -45 22.5 -84t80.5 -103l260 -295q12 31 53 164 q25 78 61.5 109t106.5 31h14q128 0 128 -107q0 -37 -15 -86q-47 -172 -150 -338l117 -131q37 -44 37 -89q0 -26 -12 -53q-35 -73 -115 -73h-82q-57 0 -91 15.5t-79 68.5l-14 16q-164 -117 -391 -116q-260 0 -397.5 113.5t-137.5 312.5zM410 453q0 -94 58 -152.5t169 -58.5 q84 0 158 53l-306 340q-79 -73 -79 -182z" />
<glyph unicode="'" horiz-adv-x="425" d="M51 1321q0 113 113 113h102q57 0 83 -27t26 -86l-35 -279q-20 -117 -125 -116h-4q-47 0 -81 29.5t-42 86.5q-37 185 -37 279z" />
<glyph unicode="(" horiz-adv-x="724" d="M59 717q0 272 99.5 462.5t269.5 293.5q82 47 154 47q59 0 91 -31t32 -82q0 -57 -43 -107q-12 -16 -56.5 -60t-71 -81t-60.5 -98.5t-51 -148.5t-17 -195q0 -113 17 -202t51 -152.5t60.5 -101.5t70.5 -83t57 -61q43 -49 43 -107q0 -51 -31 -81.5t-90 -30.5q-72 0 -154 47 q-170 102 -270.5 295.5t-100.5 476.5z" />
<glyph unicode=")" horiz-adv-x="724" d="M20 10q0 55 41 107q12 14 57.5 61t71 83t60.5 100.5t51 153.5t16 202q0 109 -16 195.5t-51 149t-60.5 98.5t-70.5 81t-58 59q-41 51 -41 107q0 51 32 82t91 31q70 0 152 -47q170 -102 270.5 -293t100.5 -463q0 -283 -100.5 -476.5t-272.5 -295.5q-78 -47 -152 -47 q-121 -1 -121 112z" />
<glyph unicode="*" horiz-adv-x="827" d="M59 1178l4 14q14 51 53 72q22 12 47 12q18 0 38 -6q51 -16 149 -109q-57 115 -57 174q0 49 29.5 78t85.5 29h16q55 0 85 -29t30 -78q0 -59 -58 -174q94 90 148 109q20 6 38 6q25 0 48 -11q39 -19 53 -73l4 -14q6 -23 7 -44q0 -25 -10 -47q-17 -39 -64 -53q-28 -8 -70 -7 q-47 0 -113 9q119 -61 150 -102q23 -29 23 -64q0 -9 -2 -17q-7 -44 -50 -75l-14 -10q-40 -29 -75 -29q-44 0 -79 47q-37 49 -59 170q-20 -115 -60 -170q-37 -49 -81 -48q-34 0 -72 28l-17 12q-43 31 -50 75q-1 9 -1 17q0 34 23 64q29 39 149 104q-68 -11 -117 -11 q-39 0 -65 7q-45 14 -63 52q-10 21 -9 47q0 21 6 45z" />
<glyph unicode="+" horiz-adv-x="1097" d="M41 696v25q0 57 31.5 93t99.5 36h225v244q0 68 38 100.5t97 32.5h35q61 0 98 -33t37 -100v-244h226q66 0 97.5 -36t31.5 -93v-25q0 -131 -129 -131h-226v-243q0 -68 -36.5 -101t-98.5 -33h-35q-59 0 -97 33t-38 101v243h-225q-131 0 -131 131z" />
<glyph unicode="," horiz-adv-x="485" d="M41 -150q0 31 15.5 48.5t58.5 31.5q72 29 71 66q0 6 -1 10t-5 9l-7 10q-3 4 -10 9l-11 8l-15 10l-16 11q-72 49 -72 134q0 70 53.5 115.5t133.5 45.5q86 0 144 -58t58 -165q0 -152 -78.5 -245t-222.5 -109q-11 -1 -21 -1q-75 0 -75 66v4z" />
<glyph unicode="-" horiz-adv-x="630" d="M55 592v16q0 55 36 93t97 38h254q61 0 97 -37.5t36 -93.5v-16q0 -57 -35.5 -95t-97.5 -38h-254q-61 0 -97 38t-36 95z" />
<glyph unicode="." horiz-adv-x="485" d="M49 172q0 78 56.5 132t136.5 54t136 -54t56 -132t-56 -132t-136 -54t-136.5 54t-56.5 132z" />
<glyph unicode="/" horiz-adv-x="757" d="M35 66l409 1335q39 125 142 125h22q70 0 100.5 -50.5t8.5 -123.5l-410 -1336q-39 -125 -141 -125h-23q-70 0 -100.5 50.5t-7.5 124.5z" />
<glyph unicode="0" horiz-adv-x="1400" d="M57 717q0 352 184.5 543.5t459 191.5t458.5 -191.5t184 -543.5t-182 -543.5t-460.5 -191.5t-461 190.5t-182.5 544.5zM453 709q0 -246 61 -353.5t186 -107.5q123 0 185.5 108.5t62.5 352.5q0 248 -62.5 356.5t-185.5 108.5q-125 0 -186 -108.5t-61 -356.5z" />
<glyph unicode="1" horiz-adv-x="819" d="M39 1055v78q0 63 27.5 99t91.5 68q272 141 364 142h27q123 0 123 -133v-1149q0 -76 -45 -118t-113 -42h-76q-70 0 -114.5 42t-44.5 118v874l-43 -28q-74 -49 -115 -50q-37 0 -59.5 26t-22.5 73z" />
<glyph unicode="2" horiz-adv-x="1128" d="M43 141v27q0 76 24.5 126t92.5 114l280 264q125 117 176.5 192.5t51.5 147.5q0 70 -45 108.5t-129 38.5q-88 0 -175.5 -49t-128.5 -49q-49 0 -80.5 33.5t-31.5 89.5v30q0 61 28.5 102.5t104.5 74.5q143 61 328 61q526 0 526 -420q0 -141 -81 -257t-261 -273l-236 -207 h449q68 0 100.5 -37t32.5 -98v-25q0 -61 -32.5 -98t-100.5 -37h-758q-135 0 -135 141z" />
<glyph unicode="3" horiz-adv-x="1107" d="M31 188v33q0 53 31.5 89t87.5 36q39 0 115.5 -46t164.5 -46q104 0 169 46t65 130q0 76 -47.5 115t-157.5 49l-21 2q-127 12 -127 117v22q0 106 115 119l20 2q109 12 160 47t51 111q0 156 -178 155q-88 0 -171 -42t-120 -42q-49 0 -79.5 31t-30.5 84v29q0 61 27.5 99 t95.5 65q147 59 325 59q238 0 372 -95t134 -290q0 -252 -268 -326v-8q293 -47 293 -325q0 -203 -161 -314.5t-431 -111.5q-199 0 -311 47q-63 27 -93 62.5t-30 96.5z" />
<glyph unicode="4" horiz-adv-x="1243" d="M35 438v35q0 66 22.5 120t87.5 140l435 561q61 80 113 112t136 32h66q68 0 111 -39t43 -115v-729h61q109 0 109 -109v-36q0 -111 -109 -111h-61v-141q0 -78 -43 -118t-113 -40h-72q-72 0 -114.5 40t-42.5 118v141h-488q-68 0 -104.5 38t-36.5 101zM319 555h351v459h-8 l-343 -451v-8z" />
<glyph unicode="5" horiz-adv-x="1130" d="M41 197v22q0 59 31.5 94t87.5 35q37 0 118.5 -46t165.5 -46q113 0 178.5 54.5t65.5 154.5q0 96 -50 145t-134 49q-63 0 -148.5 -39.5t-142.5 -39.5q-125 0 -125 125v561q0 82 47 125t121 43h616q68 0 102 -38t34 -98v-24q0 -59 -34 -97t-102 -38h-507v-293h6 q92 74 262 74q201 0 323.5 -114t122.5 -337q0 -227 -165.5 -357t-446.5 -130q-170 0 -274 36q-152 52 -152 179z" />
<glyph unicode="6" horiz-adv-x="1277" d="M57 686q0 367 193.5 566.5t544.5 199.5q152 0 245 -37q106 -41 107 -147v-33q0 -63 -30 -96t-79 -33q-33 0 -104.5 31.5t-145.5 31.5q-154 0 -233.5 -88t-99.5 -268q123 98 325.5 98t325.5 -113.5t123 -322.5q0 -223 -152.5 -358t-412.5 -135q-279 0 -443 177t-164 527z M449 608q4 -205 55 -292t151 -87q190 0 191 230q0 207 -191 207q-114 -1 -206 -58z" />
<glyph unicode="7" horiz-adv-x="1095" d="M37 1266v32q0 61 32.5 98.5t100.5 37.5h727q66 0 104.5 -37t38.5 -105v-43q0 -139 -59 -280l-332 -807q-72 -170 -209 -170h-94q-86 0 -120 61q-14 26 -14 57q0 44 28 99l491 913v8h-561q-68 0 -100.5 38.5t-32.5 97.5z" />
<glyph unicode="8" horiz-adv-x="1261" d="M45 408q0 266 274 354v8q-217 74 -217 299q0 176 146.5 279.5t382 103.5t382 -103.5t146.5 -279.5q0 -227 -215 -299v-8q272 -88 273 -354q0 -201 -153 -313.5t-433.5 -112.5t-433 112.5t-152.5 313.5zM420 436q0 -92 54 -149.5t156.5 -57.5t157 57.5t54.5 149.5 t-54.5 149.5t-157 57.5t-156.5 -57.5t-54 -149.5zM463 1036q0 -78 44 -120t124 -42q78 0 123 43.5t45 119t-45 119.5t-123 44q-80 0 -124 -43t-44 -121z" />
<glyph unicode="9" horiz-adv-x="1277" d="M49 954q0 223 153.5 360.5t411.5 137.5q279 0 444 -177t165 -530q0 -369 -189.5 -566t-554.5 -197q-129 0 -219 22q-143 39 -143 168v29q0 57 32.5 90t88.5 33q29 0 102.5 -32t142.5 -32q172 0 247 84t93 264q-127 -90 -317 -90q-209 0 -333 113.5t-124 322.5zM432 967 q0 -201 191 -201q115 0 206 55q-6 209 -56 294t-150 85q-191 0 -191 -233z" />
<glyph unicode=":" horiz-adv-x="487" d="M51 172q0 78 55.5 132t137.5 54q80 0 136 -54t56 -132t-56 -132t-136 -54q-82 0 -137.5 54t-55.5 132zM51 751.5q0 77.5 55.5 133t137.5 55.5q80 0 136 -55.5t56 -132.5q0 -76 -56 -130.5t-136 -54.5q-82 0 -137.5 53.5t-55.5 131z" />
<glyph unicode=";" horiz-adv-x="487" d="M39 -154v4q0 31 15.5 48.5t58.5 31.5q72 29 71 66q0 6 -2 12t-5 10.5t-10 10.5l-12 10q-5 4 -16.5 12l-17.5 12q-72 47 -72 134q0 70 52.5 115.5t131.5 45.5q86 0 144.5 -58t58.5 -165q0 -152 -78.5 -245t-222.5 -109q-11 -1 -21 -1q-75 -1 -75 66zM51 751.5 q0 77.5 55.5 133t137.5 55.5q80 0 136 -55.5t56 -132.5q0 -76 -56 -130.5t-136 -54.5q-82 0 -137.5 53.5t-55.5 131z" />
<glyph unicode="&#x3c;" horiz-adv-x="968" d="M41 668v16q0 57 26.5 96t92.5 70l569 276q43 20 80 21q29 0 54 -13q56 -30 57 -106v-20q0 -53 -29 -90t-100 -70l-363 -168v-6l363 -170q129 -59 129 -160v-22q0 -78 -57 -108q-25 -13 -54 -13q-37 0 -80 20l-569 277q-119 57 -119 170z" />
<glyph unicode="=" horiz-adv-x="1036" d="M47 848v12q0 57 32 93t99 36h682q66 0 97.5 -35.5t31.5 -93.5v-12q0 -131 -129 -131h-682q-131 0 -131 131zM47 418v12q0 57 32 93t99 36h682q66 0 97.5 -36t31.5 -93v-12q0 -131 -129 -131h-682q-131 0 -131 131z" />
<glyph unicode="&#x3e;" horiz-adv-x="968" d="M49 315v23q0 100 129 160l363 170v6l-363 168q-129 57 -129 159v21q0 78 57 107q26 13 55 14q36 0 79 -21l569 -276q119 -59 119 -168v-16q0 -111 -119 -168l-569 -279q-41 -19 -77 -19q-30 0 -57 14q-57 29 -57 105z" />
<glyph unicode="?" horiz-adv-x="954" d="M35 1206v31q0 115 117 166q115 49 278 49q227 0 350 -96t123 -277q0 -174 -143 -305q-12 -12 -54 -50t-62.5 -58.5t-49.5 -55.5t-45 -67q-29 -57 -62.5 -80t-95.5 -23h-26q-135 0 -136 127q0 123 138 258l26 26l28 27l23 23q18 18 23.5 24.5t18 23t16.5 26.5l10 24 q6 14 8 28.5t2 29.5q0 55 -36.5 86t-100.5 31q-61 0 -135 -42t-119 -42q-96 -1 -96 116zM186 172q0 78 56.5 132t136.5 54t136 -54t56 -132t-56 -132t-136 -54t-136.5 54t-56.5 132z" />
<glyph unicode="@" horiz-adv-x="1810" d="M45 492q0 205 82 374.5t214 276t291 165t320 58.5q348 0 580.5 -181t232.5 -497q0 -270 -152.5 -411.5t-377.5 -141.5q-219 0 -270 129q-115 -127 -269 -127q-115 0 -183.5 76t-68.5 217q0 197 126 351.5t325 154.5q125 0 207 -86q51 78 139 78h43q86 0 86 -70 q0 -15 -4 -33l-88 -389q-6 -27 -6 -47q0 -63 57 -63q94 0 156.5 92t62.5 270q0 231 -159.5 362.5t-436.5 131.5q-131 0 -250.5 -43t-216 -126t-154 -218.5t-57.5 -302.5q0 -293 175.5 -437.5t457.5 -144.5q121 0 215.5 21.5t139.5 45.5l88 47q43 22 71 21q84 0 84 -86v-4 q0 -78 -88 -123q-201 -106 -510 -106q-135 0 -259 27.5t-234.5 88t-192.5 148.5t-129 217t-47 285zM752 444q0 -98 77 -98q72 0 125 57l72 310q-33 12 -78 12q-86 0 -141 -84t-55 -197z" />
<glyph unicode="A" horiz-adv-x="1425" d="M72 186l372 1088q53 160 218 160h106q156 0 211 -164l371 -1071q14 -40 14 -74q0 -40 -21 -70q-37 -55 -110 -55h-88q-72 0 -115 34t-65 109l-58 183h-458l-56 -185q-43 -141 -160 -141h-55q-72 0 -104 51q-17 26 -17 62q0 32 15 73zM528 590h299l-149 483h-4z" />
<glyph unicode="B" horiz-adv-x="1288" d="M117 168v1098q0 78 46 123t122 45h368q268 0 400.5 -92.5t132.5 -282.5q0 -242 -258 -301v-8q311 -57 311 -334q0 -203 -149.5 -309.5t-425.5 -106.5h-379q-76 0 -122 45t-46 123zM502 254h145q197 0 197 184q0 182 -197 183h-145v-367zM502 860h133q176 0 176 160 q0 158 -174 158h-135v-318z" />
<glyph unicode="C" horiz-adv-x="1294" d="M57 709q0 348 201 545.5t537 197.5q188 0 311 -51q123 -53 123 -170v-29q0 -57 -33 -92t-86 -35q-41 0 -131 49.5t-184 49.5q-160 0 -248 -114t-88 -337q0 -242 82 -354.5t245 -112.5q88 0 150.5 31.5t105.5 62.5t82 31q55 0 87 -33t32 -86v-22q0 -125 -135 -191 q-139 -68 -346 -67q-326 0 -515.5 191.5t-189.5 535.5z" />
<glyph unicode="D" horiz-adv-x="1439" d="M117 168v1098q0 78 46 123t122 45h340q760 0 759 -709q0 -725 -772 -725h-327q-76 0 -122 45t-46 123zM510 264h96q195 0 286 104.5t91 346t-89 344t-288 102.5h-96v-897z" />
<glyph unicode="E" horiz-adv-x="1193" d="M117 168v1098q0 78 46 123t122 45h694q59 0 93 -33t34 -94v-19q0 -61 -34 -95t-93 -34h-471v-303h313q59 0 93 -31.5t34 -93.5v-10q0 -125 -127 -125h-313v-330h493q59 0 93 -31.5t34 -93.5v-14q0 -61 -33.5 -94t-93.5 -33h-716q-76 0 -122 45t-46 123z" />
<glyph unicode="F" horiz-adv-x="1173" d="M117 160v1106q0 78 46 123t122 45h700q59 0 93 -33t34 -94v-19q0 -61 -34 -95t-93 -34h-475v-336h338q59 0 92 -32.5t33 -94.5v-12q0 -129 -125 -129h-338v-395q0 -74 -44 -117t-116 -43h-74q-74 0 -116.5 43t-42.5 117z" />
<glyph unicode="G" horiz-adv-x="1400" d="M55 709q0 356 198 549.5t554 193.5q201 0 317 -47q115 -43 115 -160v-39q0 -61 -30.5 -93t-80.5 -32q-33 0 -123 44t-200 44q-170 0 -257 -106.5t-87 -345.5q0 -250 72.5 -361.5t226.5 -111.5q96 0 164 20v242h-84q-115 0 -115 121v16q0 121 123 121h289q76 0 117.5 -44 t41.5 -124v-358q0 -82 -39.5 -130.5t-126.5 -76.5q-152 -49 -368 -49q-348 0 -527.5 187.5t-179.5 539.5z" />
<glyph unicode="H" horiz-adv-x="1460" d="M117 160v1114q0 74 44 117t115 43h74q74 0 117 -43t43 -117v-406h440v406q0 74 43 117t115 43h76q72 0 115.5 -43t43.5 -117v-1114q0 -76 -43 -118t-116 -42h-76q-74 0 -116 42t-42 118v432h-440v-432q0 -76 -43 -118t-117 -42h-74q-74 0 -116.5 42t-42.5 118z" />
<glyph unicode="I" horiz-adv-x="641" d="M123 162v1112q0 72 43 116t117 44h75q76 0 118 -44t42 -116v-1112q0 -78 -45 -120t-115 -42h-75q-70 0 -115 42t-45 120z" />
<glyph unicode="J" horiz-adv-x="1007" d="M33 180v33q0 57 30.5 90t86.5 33q37 0 95 -36t109 -36q152 0 152 148v862q0 74 42 117t118 43h75q74 0 116 -43t42 -117v-862q0 -430 -514 -430q-131 0 -217 28q-70 23 -102.5 60.5t-32.5 109.5z" />
<glyph unicode="K" horiz-adv-x="1427" d="M117 162v1112q0 72 42 116t117 44h74q76 0 118 -44t42 -116v-432l410 487q51 61 93 83t97 22h55q82 0 107 -68q7 -20 7 -40q0 -48 -42 -97l-315 -361l378 -641q32 -52 32 -99q0 -29 -12 -56q-32 -72 -126 -72h-82q-63 0 -104 27.5t-86 101.5l-279 465l-133 -145v-287 q0 -78 -44 -120t-116 -42h-74q-72 0 -115.5 42t-43.5 120z" />
<glyph unicode="L" horiz-adv-x="1134" d="M117 168v1106q0 72 42 116t117 44h74q76 0 118 -44t42 -116v-1004h440q61 0 97 -35.5t36 -91.5v-16q0 -55 -35.5 -91t-97.5 -36h-665q-76 0 -122 45t-46 123z" />
<glyph unicode="M" horiz-adv-x="1808" d="M117 139v1127q0 78 45 123t123 45h200q145 0 195 -160l223 -692h6l224 692q51 160 194 160h197q78 0 123 -45.5t45 -122.5v-1108q0 -76 -43 -117t-115 -41h-70q-72 0 -114.5 41t-42.5 117v831h-7l-286 -878q-39 -121 -146 -121h-4q-106 0 -145 123l-283 876h-6v-850 q0 -68 -37 -103.5t-100 -35.5h-39q-63 0 -100 35.5t-37 103.5z" />
<glyph unicode="N" horiz-adv-x="1452" d="M117 141v1125q0 78 45 123t123 45h114q76 0 126 -34t96 -114l385 -682h6v688q0 70 40 106t103 36h41q61 0 100 -36t39 -106v-1142q0 -70 -43 -110t-112 -40h-76q-70 0 -114 28.5t-85 100.5l-461 811h-6v-799q0 -70 -38 -105.5t-101 -35.5h-43q-61 0 -100 36.5t-39 104.5z " />
<glyph unicode="O" horiz-adv-x="1523" d="M55 715q0 342 203 539.5t504 197.5t504.5 -197.5t203.5 -539.5t-201.5 -537.5t-506.5 -195.5t-506 195.5t-201 537.5zM455 711q0 -231 83 -346t224 -115t224 114.5t83 346.5q0 233 -83 349t-224 116t-224 -116t-83 -349z" />
<glyph unicode="P" horiz-adv-x="1271" d="M117 162v1104q0 78 46 123t122 45h358q586 0 586 -465t-600 -465h-119v-342q0 -78 -44 -120t-116 -42h-74q-72 0 -115.5 42t-43.5 120zM508 750h119q115 0 164 55t49 160q0 106 -47.5 155t-165.5 49h-119v-419z" />
<glyph unicode="Q" horiz-adv-x="1523" d="M55 721q0 338 204 534.5t503 196.5q303 0 505.5 -196.5t202.5 -538.5q0 -223 -100 -375t-276 -219v-6l288 -41q74 -10 105 -43t31 -105v-69q0 -51 -29 -79t-76 -28q-39 0 -102 19l-588 166q-332 90 -500 273t-168 511zM455 711q0 -238 83 -352.5t224 -114.5t224 114.5 t83 352.5q0 233 -83 349t-224 116t-224 -116t-83 -349z" />
<glyph unicode="R" horiz-adv-x="1351" d="M117 160v1106q0 78 46 123t122 45h370q573 0 574 -439q0 -262 -213 -383l217 -395q27 -51 27 -94q0 -31 -14 -58q-34 -65 -120 -65h-77q-61 0 -104.5 31.5t-82.5 105.5l-207 389h-145v-366q0 -78 -44 -119t-116 -41h-74q-72 0 -115.5 41t-43.5 119zM506 782h125 q209 0 209 192.5t-209 192.5h-125v-385z" />
<glyph unicode="S" horiz-adv-x="1138" d="M43 209v29q0 59 29.5 94t85.5 35q39 0 80 -28t104 -56.5t156 -28.5q227 0 227 141q0 23 -6 40.5t-13.5 30.5t-26 25.5t-31.5 19.5t-41.5 17.5t-45 14.5t-54.5 14t-56 14q-209 57 -305.5 154.5t-96.5 290.5q0 213 146.5 324.5t392.5 111.5q186 0 309 -47q121 -45 121 -160 v-26q0 -55 -28.5 -88t-78.5 -33q-31 0 -123 41t-196 41q-199 0 -199 -133q0 -63 53.5 -94t184.5 -64q256 -61 356 -158.5t100 -296.5q0 -217 -147 -334.5t-428 -117.5q-219 0 -352 59q-117 53 -117 168z" />
<glyph unicode="T" d="M43 1286v23q0 125 127 125h893q61 0 95 -32t34 -93v-23q0 -61 -34 -93t-95 -32h-250v-999q0 -78 -44 -120t-114 -42h-75q-72 0 -116 42t-44 120v999h-250q-127 0 -127 125z" />
<glyph unicode="U" horiz-adv-x="1423" d="M111 545v729q0 74 43 117t116 43h76q74 0 116 -43t42 -117v-727q0 -156 60.5 -217.5t187.5 -61.5q121 0 177 61.5t56 217.5v745q0 68 38 105t101 37h47q63 0 101.5 -37t38.5 -105v-747q0 -561 -584 -561q-303 0 -459.5 144.5t-156.5 416.5z" />
<glyph unicode="V" horiz-adv-x="1402" d="M76 1223q-14 40 -14 74q0 42 21 76q38 60 124 61h88q119 0 166 -148l262 -835h4l268 849q41 133 158 134h61q82 0 115 -56q17 -29 18 -67q0 -33 -14 -72l-364 -1063q-35 -98 -85 -137t-130 -39h-105q-82 0 -133 39t-86 137z" />
<glyph unicode="W" horiz-adv-x="1935" d="M68 1233q-9 34 -9 63q0 47 22 81q36 56 118 57h82q141 0 172 -154l159 -786h4l185 790q35 158 178 158h31q135 0 174 -160l190 -788h4l158 796q27 143 158 144h55q76 0 109 -51q22 -33 21 -81q0 -24 -5 -51l-258 -1073q-45 -178 -209 -178h-80q-166 0 -207 178l-155 664 h-4l-156 -666q-39 -176 -207 -176h-72q-166 0 -207 176z" />
<glyph unicode="X" horiz-adv-x="1390" d="M80 69q-11 25 -11 51q0 45 31 93l330 528l-307 463q-35 51 -35 100q0 29 12 56q33 74 129 74h88q100 0 179 -119l231 -350l207 346q41 70 79 96.5t99 26.5h43q88 0 117 -68q11 -25 10 -51q0 -45 -31 -92l-301 -486l326 -506q34 -52 34 -100q0 -29 -13 -57 q-34 -74 -128 -74h-84q-102 0 -180 119l-254 395l-233 -391q-41 -70 -79 -96.5t-99 -26.5h-43q-88 0 -117 69z" />
<glyph unicode="Y" horiz-adv-x="1300" d="M70 1369q35 65 125 65h73q63 0 106.5 -35t84.5 -113l223 -412h4l223 429q68 131 172 131h56q82 0 109 -62q11 -25 11 -51q0 -39 -24 -82l-375 -696v-381q0 -78 -44 -120t-116 -42h-73q-72 0 -116 42t-44 120v373l-387 692q-24 43 -24 82q0 31 16 60z" />
<glyph unicode="Z" horiz-adv-x="1175" d="M55 135v29q0 70 18.5 120t73.5 124l545 745v8h-467q-59 0 -93 35t-34 92v21q0 57 34 91t93 34h750q66 0 102.5 -36t36.5 -98v-38q0 -72 -16.5 -118t-67.5 -116l-553 -752v-8h512q61 0 94 -33.5t33 -89.5v-18q0 -57 -32.5 -92t-94.5 -35h-796q-57 0 -97.5 38t-40.5 97z " />
<glyph unicode="[" horiz-adv-x="706" d="M129 68v1282q0 82 46 125t120 43h250q117 0 117 -117v-8q0 -111 -113 -111h-88v-1147h88q113 0 113 -110v-9q0 -117 -117 -116h-250q-74 0 -120 43t-46 125z" />
<glyph unicode="\" horiz-adv-x="757" d="M41 1352q-10 31 -10 58q0 37 18 66q31 50 101 50h22q102 0 141 -125l410 -1335q10 -31 9 -59q0 -37 -17 -65q-31 -50 -103 -51h-20q-106 0 -141 125z" />
<glyph unicode="]" horiz-adv-x="706" d="M47 16v9q0 111 111 110h88v1147h-88q-111 0 -111 111v8q0 117 115 117h250q74 0 121 -43t47 -125v-1282q0 -82 -47.5 -125t-120.5 -43h-250q-115 -1 -115 116z" />
<glyph unicode="^" horiz-adv-x="909" d="M88 973q-12 24 -12 52q0 46 33 101l129 193q86 129 211 129h10q125 0 211 -129q129 -190 129 -193q33 -56 33 -101q0 -28 -13 -52q-33 -63 -108 -64h-6q-80 0 -160 113l-88 127h-6l-86 -127q-76 -113 -160 -113h-6q-78 1 -111 64z" />
<glyph unicode="_" horiz-adv-x="782" d="M-14 -219q0 111 110 110h590q111 0 111 -110v-4q0 -47 -28 -78t-83 -31h-590q-55 0 -82.5 31t-27.5 78v4z" />
<glyph unicode="`" horiz-adv-x="819" d="M132 1393q22 57 95 57h113q127 0 160 -119l18 -65q6 -22 6 -40q0 -32 -18 -56q-29 -36 -86 -35h-12q-84 0 -166 75l-76 72q-40 38 -40 79q0 16 6 32z" />
<glyph unicode="a" horiz-adv-x="1136" d="M43 309q0 164 114.5 249t309.5 85q119 0 207 -20v75q0 70 -42 103t-140 33q-84 0 -162 -36t-109 -36q-43 0 -71.5 30.5t-28.5 79.5v21q0 115 119 156q131 47 323 47q246 0 362.5 -88t116.5 -285v-567q0 -156 -141 -156h-63q-102 0 -142 104q-111 -119 -309 -118 q-152 0 -248 83.5t-96 239.5zM393 332q0 -131 137 -131q74 0 144 59v191q-61 10 -121 10q-160 0 -160 -129z" />
<glyph unicode="b" horiz-adv-x="1247" d="M100 156v1122q0 156 148 156h55q90 0 128 -50.5t38 -175.5v-237q135 125 322 125q174 0 290.5 -127t116.5 -408q0 -291 -128 -434t-329 -143q-203 0 -315 116q-51 -100 -137 -100h-49q-140 0 -140 156zM469 270q63 -45 149 -45q94 0 150.5 64.5t56.5 238.5 q0 168 -53 231.5t-149 63.5q-66 0 -154 -37v-516z" />
<glyph unicode="c" horiz-adv-x="1044" d="M45 537q0 260 164 409.5t432 149.5q137 0 233 -33q119 -39 119 -154v-24q0 -57 -26.5 -86t-71.5 -29q-29 0 -98.5 33t-139.5 33q-111 0 -175 -77t-64 -227q0 -295 231 -294q78 0 148.5 36.5t95.5 36.5q98 0 98 -112v-19q0 -111 -119 -160q-94 -37 -253 -36 q-272 0 -423 143.5t-151 409.5z" />
<glyph unicode="d" horiz-adv-x="1247" d="M49 524q0 154 39 268.5t105.5 178t142.5 94.5t162 31q174 0 280 -103v285q0 156 148 156h59q88 0 125 -50.5t37 -175.5v-1052q0 -156 -148 -156h-63q-106 0 -139 115q-119 -133 -316 -133q-195 0 -313.5 138t-118.5 404zM422 532q0 -164 46 -235.5t140 -71.5q90 0 170 66 v493q-61 39 -145 39q-211 0 -211 -291z" />
<glyph unicode="e" horiz-adv-x="1144" d="M45 532q0 258 151.5 411t397.5 153q252 0 380 -134.5t128 -365.5q0 -137 -146 -137h-540q12 -131 73.5 -180.5t180.5 -49.5q100 0 185 39t110 39q98 0 98 -106v-17q0 -92 -100 -141q-125 -59 -351 -59q-276 0 -421.5 144t-145.5 404zM418 651h336q-4 121 -43 170t-115 49 q-153 0 -178 -219z" />
<glyph unicode="f" horiz-adv-x="747" d="M20 952v17q0 111 105 110h27v66q0 311 366 311q72 0 119 -10q86 -18 86 -109v-16q0 -45 -23.5 -67.5t-78.5 -30.5q-51 -8 -76 -28.5t-25 -61.5v-54h84q106 0 107 -110v-17q0 -111 -107 -110h-84v-688q0 -74 -42 -114t-109 -40h-66q-68 0 -109.5 40t-41.5 114v688h-27 q-105 -1 -105 110z" />
<glyph unicode="g" horiz-adv-x="1247" d="M49 553q0 281 134 412t329 131q180 0 297 -121q47 106 147 106h50q141 0 141 -153v-846q0 -211 -156.5 -320.5t-439.5 -109.5q-215 0 -342 49q-109 41 -109 141v21q0 53 29 85t80 32q29 0 108.5 -36t186.5 -36q141 0 207.5 44t66.5 140v55q-111 -94 -289 -94 q-197 0 -318.5 121t-121.5 379zM422 563q0 -160 46 -218t148 -58q82 0 162 55v438q-61 43 -149 43q-207 0 -207 -260z" />
<glyph unicode="h" horiz-adv-x="1236" d="M100 154v1124q0 156 148 156h55q88 0 127 -50.5t39 -175.5v-254q172 141 381 142q293 0 293 -305v-637q0 -74 -42 -114t-110 -40h-63q-70 0 -112 40t-42 114v540q0 68 -28.5 93.5t-98 25.5t-178.5 -35v-624q0 -74 -42 -114t-110 -40h-65q-68 0 -110 40t-42 114z" />
<glyph unicode="i" horiz-adv-x="573" d="M96 1317q0 76 54.5 125t136.5 49t136 -49t54 -125t-53 -124t-137 -48q-82 0 -136.5 48t-54.5 124zM102 154v772q0 154 148 153h55q86 0 125 -51t39 -166v-708q0 -74 -41 -114t-111 -40h-63q-68 0 -110 40t-42 114z" />
<glyph unicode="j" horiz-adv-x="573" d="M-88 -217q0 82 80 98q68 12 89 37t21 90v918q0 154 148 153h55q88 0 126 -51t38 -166v-876q0 -174 -89 -253t-269 -79q-68 0 -109 10q-90 20 -90 109v10zM96 1317q0 76 54.5 125t136.5 49t136 -49t54 -125t-53 -124t-137 -48q-82 0 -136.5 48t-54.5 124z" />
<glyph unicode="k" horiz-adv-x="1183" d="M100 154v1124q0 156 148 156h55q88 0 127 -50.5t39 -175.5v-538l272 317q80 92 164 92h53q78 0 101 -67q6 -17 6 -35q0 -51 -49 -107l-197 -217l277 -452q26 -44 26 -84q0 -29 -14 -55q-33 -62 -113 -62h-75q-55 0 -95.5 26.5t-83.5 98.5l-180 297l-92 -103v-165 q0 -74 -42 -114t-110 -40h-65q-68 0 -110 40t-42 114z" />
<glyph unicode="l" horiz-adv-x="577" d="M104 154v1124q0 156 148 156h55q88 0 127 -52.5t39 -173.5v-1054q0 -74 -42 -114t-109 -40h-66q-68 0 -110 40t-42 114z" />
<glyph unicode="m" horiz-adv-x="1865" d="M100 154v772q0 154 148 153h63q121 0 148 -137q164 154 375 154q207 0 264 -154q170 154 387 154q287 0 287 -305v-637q0 -74 -42 -114t-110 -40h-66q-68 0 -109.5 40t-41.5 114v540q0 66 -27.5 92.5t-93.5 26.5q-72 0 -162 -33v-626q0 -74 -42 -114t-109 -40h-66 q-68 0 -109.5 40t-41.5 114v540q0 66 -28 92.5t-93 26.5q-61 0 -162 -31v-628q0 -74 -42 -114t-110 -40h-65q-68 0 -110 40t-42 114z" />
<glyph unicode="n" horiz-adv-x="1236" d="M100 154v772q0 154 148 153h57q61 0 98 -29.5t54 -105.5q178 152 393 152q293 0 293 -305v-637q0 -74 -42 -114t-110 -40h-63q-70 0 -112 40t-42 114v540q0 68 -28.5 93.5t-98 25.5t-178.5 -35v-624q0 -74 -42 -114t-110 -40h-65q-68 0 -110 40t-42 114z" />
<glyph unicode="o" d="M45 535q0 254 162 407.5t411 153.5q248 0 411 -154t163 -407q0 -252 -162 -401.5t-411.5 -149.5t-411.5 149.5t-162 401.5zM416 530q0 -154 54 -229.5t148 -75.5q201 0 201 305q0 158 -53 237t-147.5 79t-148.5 -80t-54 -236z" />
<glyph unicode="p" horiz-adv-x="1247" d="M100 -180v1106q0 154 148 153h63q57 0 92 -26.5t52 -91.5q139 135 336 135q82 0 151.5 -28t128.5 -87t93 -164.5t34 -247.5q0 -150 -38 -260t-105.5 -173.5t-147.5 -94.5t-174 -31q-166 0 -264 76v-266q0 -74 -42 -113t-110 -39h-65q-68 0 -110 39t-42 113zM469 291 q61 -43 149 -43q96 0 151.5 62.5t55.5 226.5q0 162 -53 224t-147 62q-68 0 -156 -37v-495z" />
<glyph unicode="q" horiz-adv-x="1247" d="M49 535q0 152 39 264t106.5 174.5t147.5 92.5t170 30q182 0 297 -125q41 109 147 108h50q141 0 141 -153v-1106q0 -74 -42 -113t-110 -39h-65q-68 0 -110 39t-42 113v284q-111 -94 -289 -94q-193 0 -316.5 131.5t-123.5 393.5zM422 547q0 -168 45 -232.5t149 -64.5 q82 0 162 55v475q-61 43 -149 43q-207 0 -207 -276z" />
<glyph unicode="r" horiz-adv-x="856" d="M100 154v772q0 154 148 153h63q119 0 146 -151q53 72 127.5 117t138.5 45q106 0 106 -119v-62q0 -127 -131 -135q-141 -12 -229 -41v-579q0 -74 -42 -114t-110 -40h-65q-68 0 -110 40t-42 114z" />
<glyph unicode="s" horiz-adv-x="964" d="M47 741q0 172 122 262.5t331 90.5q160 0 256 -33q117 -37 116 -137v-29q0 -51 -26.5 -80t-69.5 -29q-29 0 -108.5 32t-155.5 32q-143 0 -143 -78q0 -35 40 -53.5t142 -30.5q199 -25 286 -97.5t87 -238.5q0 -176 -120 -271t-362 -95q-170 0 -272 39q-121 45 -121 153v17 q0 53 26.5 84.5t76.5 31.5q27 0 105.5 -39t170.5 -39q162 0 162 78q0 43 -38 61.5t-151 35.5q-180 23 -267 97t-87 236z" />
<glyph unicode="t" horiz-adv-x="763" d="M20 952v17q0 51 28 80.5t77 29.5h24v131q0 72 42 112t112 40h66q70 0 109.5 -40t39.5 -112v-131h100q109 0 109 -110v-17q0 -111 -109 -110h-100v-492q0 -70 23.5 -96.5t85.5 -30.5q51 -4 74.5 -23.5t25.5 -68.5v-25q0 -96 -102 -116q-47 -8 -125 -8q-350 0 -350 313v547 h-25q-105 -1 -105 110z" />
<glyph unicode="u" horiz-adv-x="1253" d="M102 293v635q0 72 41 111.5t111 39.5h65q70 0 111 -40t41 -111v-551q0 -70 32 -96.5t107 -26.5q63 0 168 35v639q0 72 40 111.5t112 39.5h63q72 0 112 -40t40 -111v-772q0 -156 -146 -156h-63q-115 0 -143 127q-176 -143 -375 -143q-316 0 -316 309z" />
<glyph unicode="v" horiz-adv-x="1177" d="M80 870q-16 47 -16.5 85t16.5 67q33 57 113 57h83q104 0 158 -151l180 -522h7l170 534q25 74 57.5 106.5t89.5 32.5h61q80 0 109 -57q14 -28 14 -60q0 -35 -16 -75l-272 -735q-55 -152 -205 -152h-68q-150 0 -207 152z" />
<glyph unicode="w" horiz-adv-x="1675" d="M68 883q-12 39 -12 71q0 41 19 71q34 54 113 54h68q131 0 170 -151l119 -467h6l143 477q43 145 168 145h15q121 0 161 -147l136 -475h6l129 485q35 133 153 133h49q68 0 97 -50q16 -28 16 -63q0 -28 -10 -61l-230 -753q-25 -84 -68.5 -118t-113.5 -34h-51 q-135 0 -180 152l-131 438h-6l-138 -440q-27 -84 -68.5 -117t-111.5 -33h-49q-70 0 -113 34t-67 118z" />
<glyph unicode="x" horiz-adv-x="1161" d="M69 60q-10 21 -10 45q0 44 33 96l242 350l-213 317q-34 51 -34 97q0 25 10 49q30 66 118 65h74q53 0 93 -26.5t85 -91.5l141 -213l135 219q37 61 74 86.5t90 25.5h27q88 0 118 -65q11 -23 10 -49q0 -45 -34 -97l-194 -297l227 -356q33 -53 33 -100q0 -25 -10 -48 q-28 -67 -107 -67h-86q-102 0 -176 119l-156 248l-164 -252q-41 -61 -75.5 -88t-88.5 -27h-59q-75 0 -103 60z" />
<glyph unicode="y" horiz-adv-x="1161" d="M67 1021q32 58 109 58h78q115 0 170 -147l180 -465h6l174 475q27 74 62 105.5t92 31.5h49q84 0 114 -56q14 -26 13 -58q0 -38 -18 -84l-443 -1080q-53 -133 -174 -133h-65q-74 0 -105 52q-14 24 -14 54q0 36 20 81l99 204l-344 818q-18 45 -19 82q1 34 16 62z" />
<glyph unicode="z" horiz-adv-x="1030" d="M41 133v10q0 98 88 197l422 485h-361q-57 0 -88.5 33t-31.5 88v10q0 55 31.5 89t88.5 34h654q66 0 102.5 -33.5t36.5 -95.5v-14q0 -98 -88 -199l-426 -487h381q55 0 88 -33t33 -86v-10q0 -53 -33 -87t-88 -34h-670q-66 0 -102.5 35t-36.5 98z" />
<glyph unicode="{" horiz-adv-x="774" d="M18 700v37q0 49 17.5 73t60.5 32l10 2q53 10 74 38.5t21 88.5v268q0 279 317 279h111q119 0 119 -111v-29q0 -111 -119 -110h-13q-82 0 -81 -105v-217q0 -88 -43 -142t-148 -83q104 -29 147.5 -84t43.5 -143v-240q0 -104 81 -104h13q119 0 119 -111v-29q0 -111 -119 -110 h-115q-313 0 -313 280v289q0 59 -21.5 87t-73.5 38l-10 2q-78 14 -78 104z" />
<glyph unicode="|" horiz-adv-x="409" d="M68 20v1379q0 61 36.5 95t94.5 34h16q55 0 91 -34t36 -95v-1379q0 -63 -37 -97t-94 -34h-14q-57 0 -93 34t-36 97z" />
<glyph unicode="}" horiz-adv-x="774" d="M25 10v29q0 111 118 111h13q82 0 82 104v240q0 88 43 143t147 84q-104 29 -147 83t-43 142v217q0 104 -82 105h-13q-119 0 -118 110v29q0 111 118 111h111q317 0 317 -279v-268q0 -59 20.5 -88t74.5 -39l10 -2q43 -8 60.5 -32t17.5 -73v-37q0 -90 -78 -104l-10 -2 q-51 -10 -73 -38t-22 -87v-289q0 -281 -313 -280h-115q-118 -1 -118 110z" />
<glyph unicode="~" horiz-adv-x="835" d="M41 582q18 86 80.5 136t157.5 50q59 0 142 -31.5t107 -31.5q45 0 92.5 39.5t81.5 39.5h5q53 0 79 -44q16 -26 16 -64q0 -27 -7 -60q-20 -86 -82 -136t-156 -50q-61 0 -143 32t-107 32q-45 0 -92 -40t-82 -40h-4q-53 0 -80 44q-16 26 -16 64q0 27 8 60z" />
<glyph unicode="&#xa1;" horiz-adv-x="620" d="M115 18q0 39 15 215l30 332l16 158q6 61 42 93t87 32h10q51 0 87 -32t42 -93q61 -616 62 -705q0 -166 -160 -165h-74q-157 -1 -157 165zM117 1122q0 78 56 132.5t136 54.5t136.5 -54.5t56.5 -132.5t-56.5 -132t-136.5 -54t-136 54t-56 132z" />
<glyph unicode="&#xa2;" horiz-adv-x="1069" d="M43 537q0 238 143.5 385t378.5 170v53q0 88 90 88h9q88 0 88 -88v-55q72 -6 129 -25q70 -23 95 -58.5t25 -99.5v-24q0 -111 -94 -111q-25 0 -48 8t-54 22.5t-53 22.5v-579q33 8 81 34.5t74 26.5q94 0 94 -110v-21q0 -109 -120 -156q-45 -18 -129 -28v-123q0 -88 -88 -88 h-9q-90 0 -90 88v117q-246 16 -384 158.5t-138 392.5zM416 532q0 -238 149 -286v575q-149 -58 -149 -289z" />
<glyph unicode="&#xa3;" horiz-adv-x="1110" d="M39 125v8q0 39 16.5 69.5t40 54.5l47 50.5t40 73.5t16.5 108q0 37 -9 103h-34q-59 0 -88 32.5t-29 84.5v4q0 104 96 116q-25 102 -24 189q0 207 147.5 320.5t388.5 113.5q160 0 283 -45q66 -27 92.5 -64.5t26.5 -103.5v-37q0 -121 -107 -121q-37 0 -110.5 39t-149.5 39 q-82 0 -135 -40t-53 -124q0 -82 12 -164h225q59 0 88 -33.5t29 -84.5v-4q0 -51 -28.5 -84t-88.5 -33h-194q4 -57 4 -86q0 -125 -78 -211h475q68 0 100.5 -37t32.5 -98v-25q0 -61 -32.5 -98t-100.5 -37h-776q-57 0 -90 33t-33 92z" />
<glyph unicode="&#xa5;" horiz-adv-x="1245" d="M94 403v5q0 94 96 94h250v96h-250q-96 0 -96 96v4q0 94 96 95h148l-234 428q-23 43 -23 82q0 34 17 64q37 67 123 67h70q61 0 102 -34t78 -112l180 -366h6l179 383q61 129 172 129h53q78 0 104 -63q11 -25 11 -52q0 -39 -23 -82l-233 -444h151q96 0 96 -95v-4 q0 -96 -96 -96h-244v-96h244q96 0 96 -94v-5q0 -94 -96 -94h-244v-147q0 -78 -44 -120t-113 -42h-72q-70 0 -114 42t-44 120v147h-250q-96 0 -96 94z" />
<glyph unicode="&#xa6;" horiz-adv-x="409" d="M68 920v479q0 66 35.5 97.5t93.5 31.5h16q57 0 94 -32t37 -97v-479q0 -66 -37 -99t-94 -33h-16q-57 0 -93 33t-36 99zM68 27v483q0 66 35.5 98.5t93.5 32.5h16q57 0 94 -33t37 -98v-485q0 -127 -131 -127h-16q-57 0 -93 31.5t-36 97.5z" />
<glyph unicode="&#xa7;" horiz-adv-x="1130" d="M41 561q0 197 190 277q-100 80 -100 252q0 166 123 264t332 98q154 0 252 -31q70 -23 96.5 -56.5t26.5 -88.5v-33q0 -98 -93 -98q-29 0 -108.5 32.5t-161.5 32.5q-158 0 -158 -88q0 -39 44 -67.5t159 -57.5q236 -59 338 -138t102 -245q0 -195 -188 -276q106 -84 106 -238 q0 -172 -122.5 -273t-364.5 -101q-174 0 -285 41q-117 43 -116 155v21q0 106 100 106q27 0 112 -40t181 -40q162 0 162 90q0 45 -44 69t-180 60q-217 59 -310 141t-93 232zM340 635q0 -51 40 -83t148 -63q94 -27 164 -49q82 35 82 109q0 55 -45 88t-156 61q-72 16 -141 41 q-92 -26 -92 -104z" />
<glyph unicode="&#xa8;" horiz-adv-x="819" d="M27 1309q0 72 49 118t124.5 46t124 -46.5t48.5 -118t-48.5 -116.5t-124 -45t-124.5 46t-49 116zM446 1308.5q0 71.5 48.5 118t124 46.5t125 -46.5t49.5 -117.5q0 -70 -49.5 -116t-125 -46t-124 45t-48.5 116.5z" />
<glyph unicode="&#xa9;" horiz-adv-x="1603" d="M61 717q0 340 216.5 536.5t525.5 196.5t525 -196.5t216 -536.5t-216 -536.5t-525 -196.5t-525.5 196.5t-216.5 536.5zM199 716.5q0 -284.5 173 -451.5t431 -167t430 166t172 453t-172 452.5t-430 165.5t-431 -167t-173 -451.5zM403 717q0 190 121 301.5t318 111.5 q90 0 159 -22q96 -33 97 -121v-26q0 -37 -20.5 -58.5t-53.5 -21.5q-20 0 -70.5 24.5t-99.5 24.5q-78 0 -122 -54.5t-44 -160.5q0 -209 162 -209q59 0 111.5 24.5t70.5 24.5q68 0 68 -76v-16q0 -78 -76 -115q-82 -39 -199 -39q-199 0 -310.5 106.5t-111.5 301.5z" />
<glyph unicode="&#xaa;" horiz-adv-x="958" d="M41 786q0 139 95 211t259 72q102 0 172 -14v53q0 55 -34.5 80.5t-114.5 28.5q-63 0 -130 -30t-91 -30q-39 0 -63.5 26.5t-24.5 69.5v15q0 55 22.5 86.5t77.5 52.5q117 43 274 43q213 0 311.5 -75t98.5 -247v-489q0 -111 -111 -111h-65q-59 0 -89 19.5t-44 66.5 q-90 -98 -256 -98q-125 0 -206 70.5t-81 199.5zM348 807q0 -100 109 -100q55 0 110 45v151q-57 8 -94 8q-125 0 -125 -104z" />
<glyph unicode="&#xab;" horiz-adv-x="1077" d="M49 532.5q0 57.5 45 131.5l129 208q70 119 172 119h23q74 0 102 -55q12 -23 12 -48q0 -34 -22 -71l-164 -280v-5l164 -282q21 -37 21 -71q0 -25 -12 -49q-28 -54 -101 -54h-23q-102 0 -172 117l-129 208q-45 74 -45 131.5zM506 532.5q0 57.5 45 131.5l129 208 q70 119 172 119h22q74 0 103 -55q12 -23 12 -48q0 -34 -22 -71l-164 -280v-5l164 -282q21 -37 21 -71q0 -25 -12 -49q-28 -54 -102 -54h-22q-102 0 -172 117l-129 208q-45 74 -45 131.5z" />
<glyph unicode="&#xad;" horiz-adv-x="630" d="M55 592v16q0 55 36 93t97 38h254q61 0 97 -37.5t36 -93.5v-16q0 -57 -35.5 -95t-97.5 -38h-254q-61 0 -97 38t-36 95z" />
<glyph unicode="&#xae;" horiz-adv-x="790" d="M16 1083q0 168 111 267.5t268 99.5q156 0 267.5 -99.5t111.5 -267.5q0 -166 -111.5 -266t-267 -100t-267.5 99t-112 267zM111 1083.5q0 -137.5 79.5 -212t204.5 -74.5t205 74.5t80 212t-80 212t-205 74.5t-204.5 -74.5t-79.5 -212zM240 958v240q0 80 82 80h86 q158 0 157 -127q0 -59 -53 -96l47 -84q9 -16 9 -31q0 -11 -5 -21q-12 -24 -45 -24h-10q-49 0 -78 61l-35 70h-28v-68q0 -61 -62 -61h-2q-63 0 -63 61zM365 1106h30q45 0 45 47q0 45 -45 45h-30v-92z" />
<glyph unicode="&#xaf;" horiz-adv-x="819" d="M123 1294v4q0 109 110 109h353q111 0 110 -109v-4q0 -109 -110 -108h-353q-110 -1 -110 108z" />
<glyph unicode="&#xb0;" horiz-adv-x="720" d="M51 1151q0 131 90 213t219 82t220.5 -82t91.5 -213t-91.5 -214t-220.5 -83t-219 83t-90 214zM233 1150.5q0 -63.5 35 -102t92 -38.5q59 0 95.5 38.5t36.5 102t-36 101.5t-96 38q-57 0 -92 -38t-35 -101.5z" />
<glyph unicode="&#xb2;" horiz-adv-x="716" d="M47 737v4q0 49 16.5 83t71.5 83l135 121q106 94 107 148q0 66 -82 65q-43 0 -87 -24.5t-73 -24.5q-35 0 -54.5 21.5t-19.5 60.5v14q0 90 89 127q80 33 192 33q319 0 320 -242q0 -82 -43.5 -140t-143.5 -140l-115 -95h203q98 0 99 -98v-4q0 -98 -99 -98h-418 q-45 0 -71.5 27.5t-26.5 78.5z" />
<glyph unicode="&#xb3;" horiz-adv-x="706" d="M41 760v10q0 78 72 78q23 0 67.5 -22.5t91.5 -22.5q115 0 115 76q0 57 -90 67l-18 2q-86 8 -86 80v10q0 72 86 80l18 2q86 10 86 66q0 68 -92 67q-39 0 -85 -21.5t-71 -21.5q-72 0 -72 80v15q0 74 74 106q80 37 201 37q139 0 222 -55.5t83 -163.5q0 -143 -164 -182v-7 q178 -25 178 -184q0 -115 -93 -176.5t-261 -61.5q-109 0 -176 27q-86 35 -86 115z" />
<glyph unicode="&#xb4;" horiz-adv-x="819" d="M301 1266l18 65q33 119 160 119h113q74 0 95.5 -57.5t-34.5 -110.5l-75 -72q-82 -76 -166 -75h-13q-55 0 -84.5 37t-13.5 94z" />
<glyph unicode="&#xb6;" horiz-adv-x="1212" d="M45 1024q0 410 520 410h363q74 0 121 -43t47 -125v-1348q0 -115 -115 -115h-4q-115 0 -115 115v1282h-131v-1282q0 -59 -31.5 -87t-83.5 -28h-4q-115 0 -114 115v696q-209 0 -331 100.5t-122 309.5z" />
<glyph unicode="&#xb7;" horiz-adv-x="485" d="M49 602q0 78 56.5 132t136.5 54t136 -54t56 -132t-56 -131t-136 -53t-136.5 53t-56.5 131z" />
<glyph unicode="&#xb8;" horiz-adv-x="819" d="M240 -258q0 59 51 59q16 0 40.5 -12t45.5 -12q47 0 47 35q0 33 -59 32h-5q-45 0 -45 43v113h156v-49q166 -8 166 -150q0 -74 -58.5 -116.5t-170.5 -42.5q-63 0 -109 14q-59 20 -59 78v8z" />
<glyph unicode="&#xb9;" horiz-adv-x="567" d="M41 1198v27q0 59 23.5 94t85.5 61q115 53 194 54h10q119 0 119 -113v-563q0 -129 -127 -129h-29q-129 0 -129 129v416l-18 -17q-35 -33 -70 -33q-59 0 -59 74z" />
<glyph unicode="&#xba;" horiz-adv-x="1073" d="M49 977q0 215 137.5 344t350.5 129t350 -129t137 -344q0 -213 -136 -338t-351 -125q-213 0 -350.5 125t-137.5 338zM379 975q0 -248 157.5 -248t157.5 248q0 254 -157.5 254t-157.5 -254z" />
<glyph unicode="&#xbb;" horiz-adv-x="1077" d="M100 936q29 55 103 55h22q100 0 174 -119l127 -208q47 -78 47 -131.5t-47 -131.5l-127 -208q-72 -117 -174 -117h-22q-74 0 -102 54q-12 23 -11 49q0 34 21 71l165 282v5l-165 280q-22 37 -23 71q0 25 12 48zM557 936q29 55 102 55h23q100 0 174 -119l127 -208 q47 -78 47 -131.5t-47 -131.5l-127 -208q-72 -117 -174 -117h-23q-74 0 -101 54q-12 23 -12 49q0 34 21 71l166 282v5l-166 280q-22 37 -22 71q0 25 12 48z" />
<glyph unicode="&#xbc;" horiz-adv-x="1587" d="M43 1198v27q0 59 23.5 94t85.5 61q115 53 194 54h10q119 0 119 -113v-563q0 -129 -127 -129h-29q-129 0 -129 129v416l-18 -17q-35 -33 -70 -33q-59 0 -59 74zM233 -31q-8 17 -8 38q0 36 27 81l852 1321q63 94 119 94h4q63 0 86 -49q8 -17 8 -37q0 -36 -27 -82 l-852 -1321q-61 -94 -120 -94h-3q-63 0 -86 49zM842 268v4q0 78 78 172l206 258q47 59 89 83t106 24h22q123 0 123 -127v-352h21q74 0 74 -74v-18q0 -76 -74 -76h-21v-51q0 -119 -123 -119h-24q-123 0 -123 119v51h-256q-45 0 -71.5 27.5t-26.5 78.5zM1034 328h170v213h-4 l-166 -209v-4z" />
<glyph unicode="&#xbd;" horiz-adv-x="1671" d="M43 1198v27q0 59 23.5 94t85.5 61q115 53 194 54h10q119 0 119 -113v-563q0 -129 -127 -129h-29q-129 0 -129 129v416l-18 -17q-35 -33 -70 -33q-59 0 -59 74zM231 -31q-8 17 -8 38q0 36 27 81l852 1321q59 94 119 94h4q63 0 86 -49q8 -17 8 -37q0 -36 -27 -82 l-854 -1321q-57 -94 -119 -94h-2q-63 0 -86 49zM1001 106v5q0 49 16.5 81.5t72.5 83.5l135 121q106 94 106 148q0 66 -82 65q-43 0 -87 -24.5t-72 -24.5q-35 0 -54.5 21.5t-19.5 60.5v14q0 90 88 127q80 33 192 33q319 0 320 -242q0 -82 -43 -140t-143 -140l-115 -94h203 q98 0 98 -99v-4q0 -98 -98 -98h-418q-45 0 -72 27.5t-27 78.5z" />
<glyph unicode="&#xbe;" horiz-adv-x="1665" d="M49 760v10q0 78 72 78q23 0 67.5 -22.5t94.5 -22.5q113 0 112 76q0 57 -90 67l-18 2q-86 8 -86 80v10q0 72 86 80l18 2q86 10 86 66q0 68 -92 67q-39 0 -85 -21.5t-71 -21.5q-72 0 -71 80v15q0 74 73 106q80 37 201 37q139 0 222 -55.5t83 -163.5q0 -143 -164 -182v-7 q178 -25 179 -184q0 -115 -93.5 -176.5t-261.5 -61.5q-109 0 -176 27q-86 35 -86 115zM330 -31q-8 17 -8 38q0 36 26 81l852 1321q63 94 119 94h4q63 0 86 -49q8 -17 8 -37q0 -36 -26 -82l-852 -1321q-61 -94 -119 -94h-4q-63 0 -86 49zM920 268v4q0 78 77 172l207 258 q47 59 90 83t107 24h20q123 0 123 -127v-352h21q76 0 75 -74v-18q0 -76 -75 -76h-21v-51q0 -119 -123 -119h-24q-123 0 -123 119v51h-256q-45 0 -71.5 27.5t-26.5 78.5zM1112 328h172v213h-6l-166 -209v-4z" />
<glyph unicode="&#xbf;" horiz-adv-x="954" d="M53 215q0 174 144 305q12 12 54 50t62.5 58.5t49 55.5t45.5 68q29 57 62.5 79.5t94.5 22.5h27q135 0 135 -127q0 -123 -137 -258l-27 -26l-27 -26l-24 -24q-18 -18 -23.5 -24.5t-17.5 -22.5t-16 -27l-11 -24q-6 -14 -8 -28.5t-2 -28.5q0 -55 37 -86t100 -31q61 0 135 42 t119 42q96 0 97 -117v-31q0 -115 -117 -166q-113 -49 -279 -49q-227 0 -350 96.5t-123 276.5zM385 1122q0 78 56.5 132.5t136 54.5t136 -54.5t56.5 -132.5t-56.5 -132t-136 -54t-136 54t-56.5 132z" />
<glyph unicode="&#xc0;" horiz-adv-x="1425" d="M72 186l372 1088q53 160 218 160h106q156 0 211 -164l371 -1071q14 -40 14 -74q0 -40 -21 -70q-37 -55 -110 -55h-88q-72 0 -115 34t-65 109l-58 183h-458l-56 -185q-43 -141 -160 -141h-55q-72 0 -104 51q-17 26 -17 62q0 32 15 73zM431 1726q19 57 104 58h102 q131 0 164 -111l18 -61q7 -22 7 -41q0 -30 -18 -52q-30 -36 -85 -36h-14q-86 0 -168 73l-68 60q-47 40 -47 83q0 13 5 27zM528 590h299l-149 483h-4z" />
<glyph unicode="&#xc1;" horiz-adv-x="1425" d="M72 186l372 1088q53 160 218 160h106q156 0 211 -164l371 -1071q14 -40 14 -74q0 -40 -21 -70q-37 -55 -110 -55h-88q-72 0 -115 34t-65 109l-58 183h-458l-56 -185q-43 -141 -160 -141h-55q-72 0 -104 51q-17 26 -17 62q0 32 15 73zM528 590h299l-149 483h-4zM592 1612 l18 61q33 111 166 111h101q84 0 103 -58q5 -14 5 -27q0 -43 -47 -83l-68 -60q-82 -74 -168 -73h-16q-55 0 -83 36q-17 23 -17 53q0 19 6 40z" />
<glyph unicode="&#xc2;" horiz-adv-x="1425" d="M72 186l372 1088q53 160 218 160h106q156 0 211 -164l371 -1071q14 -40 14 -74q0 -40 -21 -70q-37 -55 -110 -55h-88q-72 0 -115 34t-65 109l-58 183h-458l-56 -185q-43 -141 -160 -141h-55q-72 0 -104 51q-17 26 -17 62q0 32 15 73zM436 1544q-6 17 -6 35q0 48 47 96 l23 23q94 94 196 94h19q102 0 196 -94l23 -23q46 -48 46 -95q0 -18 -6 -36q-24 -66 -95 -65h-5q-57 0 -143 80l-26 24l-25 -24q-82 -80 -143 -80h-7q-71 -1 -94 65zM528 590h299l-149 483h-4z" />
<glyph unicode="&#xc3;" horiz-adv-x="1425" d="M72 186l372 1088q53 160 218 160h106q156 0 211 -164l371 -1071q14 -40 14 -74q0 -40 -21 -70q-37 -55 -110 -55h-88q-72 0 -115 34t-65 109l-58 183h-458l-56 -185q-43 -141 -160 -141h-55q-72 0 -104 51q-17 26 -17 62q0 32 15 73zM369 1620q16 74 72.5 118t138.5 44 q51 0 127.5 -29t95.5 -29q43 0 82 35q43 35 69 35h7q47 0 69 -38q14 -23 14 -59q0 -23 -6 -50q-18 -74 -73.5 -117t-137.5 -43q-51 0 -127.5 28.5t-97.5 28.5q-41 0 -80 -34.5t-71 -34.5h-5q-47 0 -70 37q-14 22 -14 56q0 23 7 52zM528 590h299l-149 483h-4z" />
<glyph unicode="&#xc4;" horiz-adv-x="1425" d="M72 186l372 1088q53 160 218 160h106q156 0 211 -164l371 -1071q14 -40 14 -74q0 -40 -21 -70q-37 -55 -110 -55h-88q-72 0 -115 34t-65 109l-58 183h-458l-56 -185q-43 -141 -160 -141h-55q-72 0 -104 51q-17 26 -17 62q0 32 15 73zM326 1653q0 70 49 116t124.5 46 t124 -46.5t48.5 -115.5q0 -72 -48.5 -118t-124 -46t-124.5 46t-49 118zM528 590h299l-149 483h-4zM745 1653q0 70 48.5 116t124 46t125 -46.5t49.5 -115.5q0 -72 -49.5 -118t-125 -46t-124 46t-48.5 118z" />
<glyph unicode="&#xc5;" horiz-adv-x="1425" d="M72 186l372 1088q53 160 218 160h106q156 0 211 -164l371 -1071q14 -40 14 -74q0 -40 -21 -70q-37 -55 -110 -55h-88q-72 0 -115 34t-65 109l-58 183h-458l-56 -185q-43 -141 -160 -141h-55q-72 0 -104 51q-17 26 -17 62q0 32 15 73zM485 1696q0 94 63.5 151.5t156 57.5 t156 -57.5t63.5 -151.5q0 -92 -63.5 -149.5t-156 -57.5t-156 57.5t-63.5 149.5zM528 590h299l-149 483h-4zM637 1696q0 -33 18.5 -52.5t49.5 -19.5q33 0 51 19.5t18 52.5q0 35 -18.5 54t-50.5 19q-31 0 -49.5 -20t-18.5 -53z" />
<glyph unicode="&#xc6;" horiz-adv-x="1976" d="M59 56q-11 23 -10 51q0 40 23 90l526 1087q72 150 240 150h923q61 0 94 -35t33 -92v-19q0 -59 -32.5 -94t-94.5 -35h-471v-305h309q59 0 91 -33t32 -90v-10q0 -57 -31.5 -91t-91.5 -34h-309v-330h492q127 0 127 -125v-14q0 -127 -127 -127h-715q-72 0 -119 44t-49 124 v170h-418l-92 -201q-35 -76 -74 -106.5t-102 -30.5h-51q-76 0 -103 56zM602 602h297v557h-41z" />
<glyph unicode="&#xc7;" horiz-adv-x="1294" d="M57 709q0 348 201 545.5t537 197.5q188 0 311 -51q123 -53 123 -170v-29q0 -57 -33 -92t-86 -35q-41 0 -131 49.5t-184 49.5q-160 0 -248 -114t-88 -337q0 -242 82 -354.5t245 -112.5q88 0 150.5 31.5t105.5 62.5t82 31q55 0 87 -33t32 -86v-22q0 -125 -135 -191 q-123 -61 -317 -67v-31q166 -8 165 -150q0 -74 -58 -116.5t-171 -42.5q-63 0 -109 14q-59 20 -59 78v8q0 59 51 59q16 0 41 -12t45 -12q47 0 47 35q0 33 -59 32h-4q-45 0 -45 43v103q-270 35 -424 222.5t-154 496.5z" />
<glyph unicode="&#xc8;" horiz-adv-x="1193" d="M117 168v1098q0 78 46 123t122 45h694q59 0 93 -33t34 -94v-19q0 -61 -34 -95t-93 -34h-471v-303h313q59 0 93 -31.5t34 -93.5v-10q0 -125 -127 -125h-313v-330h493q59 0 93 -31.5t34 -93.5v-14q0 -61 -33.5 -94t-93.5 -33h-716q-76 0 -122 45t-46 123zM359 1726 q19 57 104 58h102q131 0 164 -111l19 -61q7 -22 7 -41q0 -30 -19 -52q-30 -36 -85 -36h-14q-86 0 -168 73l-68 60q-47 40 -46 83q-1 13 4 27z" />
<glyph unicode="&#xc9;" horiz-adv-x="1193" d="M117 168v1098q0 78 46 123t122 45h694q59 0 93 -33t34 -94v-19q0 -61 -34 -95t-93 -34h-471v-303h313q59 0 93 -31.5t34 -93.5v-10q0 -125 -127 -125h-313v-330h493q59 0 93 -31.5t34 -93.5v-14q0 -61 -33.5 -94t-93.5 -33h-716q-76 0 -122 45t-46 123zM520 1612l19 61 q33 111 166 111h100q84 0 103 -58q5 -14 5 -27q0 -43 -47 -83l-67 -60q-82 -74 -168 -73h-17q-55 0 -83 36q-17 23 -17 53q0 19 6 40z" />
<glyph unicode="&#xca;" horiz-adv-x="1193" d="M117 168v1098q0 78 46 123t122 45h694q59 0 93 -33t34 -94v-19q0 -61 -34 -95t-93 -34h-471v-303h313q59 0 93 -31.5t34 -93.5v-10q0 -125 -127 -125h-313v-330h493q59 0 93 -31.5t34 -93.5v-14q0 -61 -33.5 -94t-93.5 -33h-716q-76 0 -122 45t-46 123zM348 1544 q-6 17 -6 35q0 48 47 96l23 23q94 94 196 94h19q102 0 196 -94l23 -23q46 -48 46 -95q0 -18 -6 -36q-24 -66 -95 -65h-5q-57 0 -143 80l-27 24l-24 -24q-82 -80 -143 -80h-7q-71 -1 -94 65z" />
<glyph unicode="&#xcb;" horiz-adv-x="1193" d="M117 168v1098q0 78 46 123t122 45h694q59 0 93 -33t34 -94v-19q0 -61 -34 -95t-93 -34h-471v-303h313q59 0 93 -31.5t34 -93.5v-10q0 -125 -127 -125h-313v-330h493q59 0 93 -31.5t34 -93.5v-14q0 -61 -33.5 -94t-93.5 -33h-716q-76 0 -122 45t-46 123zM240 1651 q0 70 49 115.5t124.5 45.5t124 -46t48.5 -115q0 -72 -48.5 -118t-124 -46t-124.5 46t-49 118zM659 1651q0 70 48.5 115.5t124 45.5t125 -46t49.5 -115q0 -72 -49.5 -118t-125 -46t-124 46t-48.5 118z" />
<glyph unicode="&#xcc;" horiz-adv-x="641" d="M46 1726q19 57 104 58h102q131 0 164 -111l18 -61q7 -22 7 -41q0 -30 -18 -52q-30 -36 -85 -36h-14q-86 0 -168 73l-68 60q-47 40 -47 83q0 13 5 27zM123 162v1112q0 72 43 116t117 44h75q76 0 118 -44t42 -116v-1112q0 -78 -45 -120t-115 -42h-75q-70 0 -115 42t-45 120 z" />
<glyph unicode="&#xcd;" horiz-adv-x="641" d="M123 162v1112q0 72 43 116t117 44h75q76 0 118 -44t42 -116v-1112q0 -78 -45 -120t-115 -42h-75q-70 0 -115 42t-45 120zM213 1612l18 61q33 111 166 111h101q84 0 103 -58q5 -14 5 -27q0 -43 -47 -83l-67 -60q-82 -74 -168 -73h-17q-55 0 -83 36q-17 23 -17 53 q0 19 6 40z" />
<glyph unicode="&#xce;" horiz-adv-x="641" d="M51 1544q-6 17 -6 35q0 48 47 96l23 23q94 94 196 94h19q102 0 196 -94l23 -23q46 -48 46 -95q0 -18 -6 -36q-24 -66 -95 -65h-5q-57 0 -143 80l-27 24l-24 -24q-82 -80 -143 -80h-7q-71 -1 -94 65zM123 162v1112q0 72 43 116t117 44h75q76 0 118 -44t42 -116v-1112 q0 -78 -45 -120t-115 -42h-75q-70 0 -115 42t-45 120z" />
<glyph unicode="&#xcf;" horiz-adv-x="641" d="M-61 1651q0 70 49 115.5t124.5 45.5t124 -46t48.5 -115q0 -72 -48.5 -118t-124 -46t-124.5 46t-49 118zM123 162v1112q0 72 43 116t117 44h75q76 0 118 -44t42 -116v-1112q0 -78 -45 -120t-115 -42h-75q-70 0 -115 42t-45 120zM358 1651q0 70 48.5 115.5t124 45.5 t125 -46t49.5 -115q0 -72 -49.5 -118t-125 -46t-124 46t-48.5 118z" />
<glyph unicode="&#xd0;" horiz-adv-x="1447" d="M0 713v6q0 55 30.5 89t94.5 34h2v424q0 78 46 123t122 45h340q760 0 760 -709q0 -725 -772 -725h-328q-76 0 -122 45t-46 123v422h-2q-63 0 -94 34t-31 89zM520 264h96q195 0 286 104.5t91 346t-89 344t-288 102.5h-96v-319h142q63 0 92.5 -34t29.5 -89v-6 q0 -55 -29.5 -89t-92.5 -34h-142v-326z" />
<glyph unicode="&#xd1;" horiz-adv-x="1452" d="M117 141v1125q0 78 45 123t123 45h114q76 0 126 -34t96 -114l385 -682h6v688q0 70 40 106t103 36h41q61 0 100 -36t39 -106v-1142q0 -70 -43 -110t-112 -40h-76q-70 0 -114 28.5t-85 100.5l-461 811h-6v-799q0 -70 -37.5 -105.5t-101.5 -35.5h-43q-61 0 -100 36.5 t-39 104.5zM426 1620q16 74 72.5 118t138.5 44q51 0 128 -29t95 -29q43 0 82 35q43 35 70 35h6q47 0 69 -38q14 -23 14 -59q0 -23 -5 -50q-18 -74 -73.5 -117t-137.5 -43q-51 0 -128 28.5t-98 28.5q-41 0 -79.5 -34.5t-71.5 -34.5h-4q-47 0 -71 37q-14 22 -14 56q0 23 7 52z " />
<glyph unicode="&#xd2;" horiz-adv-x="1523" d="M55 715q0 342 203 539.5t504 197.5t504.5 -197.5t203.5 -539.5t-201.5 -537.5t-506.5 -195.5t-506 195.5t-201 537.5zM455 711q0 -231 83 -346t224 -115t224 114.5t83 346.5q0 233 -83 349t-224 116t-224 -116t-83 -349zM486 1726q19 57 104 58h102q131 0 164 -111 l18 -61q7 -22 8 -41q0 -30 -19 -52q-30 -36 -85 -36h-14q-86 0 -168 73l-68 60q-47 40 -46 83q-1 13 4 27z" />
<glyph unicode="&#xd3;" horiz-adv-x="1523" d="M55 715q0 342 203 539.5t504 197.5t504.5 -197.5t203.5 -539.5t-201.5 -537.5t-506.5 -195.5t-506 195.5t-201 537.5zM455 711q0 -231 83 -346t224 -115t224 114.5t83 346.5q0 233 -83 349t-224 116t-224 -116t-83 -349zM655 1612l19 61q33 111 166 111h100q84 0 103 -58 q5 -14 5 -27q0 -43 -47 -83l-67 -60q-82 -74 -168 -73h-16q-55 0 -83 36q-17 23 -18 53q0 19 6 40z" />
<glyph unicode="&#xd4;" horiz-adv-x="1523" d="M55 715q0 342 203 539.5t504 197.5t504.5 -197.5t203.5 -539.5t-201.5 -537.5t-506.5 -195.5t-506 195.5t-201 537.5zM455 711q0 -231 83 -346t224 -115t224 114.5t83 346.5q0 233 -83 349t-224 116t-224 -116t-83 -349zM492 1544q-6 17 -6 35q0 48 46 96l23 23 q94 94 197 94h18q102 0 197 -94l22 -23q46 -48 46 -95q0 -18 -6 -36q-24 -66 -95 -65h-4q-57 0 -144 80l-26 24l-25 -24q-82 -80 -143 -80h-6q-71 -1 -94 65z" />
<glyph unicode="&#xd5;" horiz-adv-x="1523" d="M55 715q0 342 203 539.5t504 197.5t504.5 -197.5t203.5 -539.5t-201.5 -537.5t-506.5 -195.5t-506 195.5t-201 537.5zM426 1620q16 74 72.5 118t138.5 44q51 0 128 -29t95 -29q43 0 82 35q43 35 70 35h6q47 0 69 -38q14 -23 14 -59q0 -23 -5 -50q-18 -74 -73.5 -117 t-137.5 -43q-51 0 -128 28.5t-98 28.5q-41 0 -79.5 -34.5t-71.5 -34.5h-4q-47 0 -71 37q-14 22 -14 56q0 23 7 52zM455 711q0 -231 83 -346t224 -115t224 114.5t83 346.5q0 233 -83 349t-224 116t-224 -116t-83 -349z" />
<glyph unicode="&#xd6;" horiz-adv-x="1523" d="M55 715q0 342 203 539.5t504 197.5t504.5 -197.5t203.5 -539.5t-201.5 -537.5t-506.5 -195.5t-506 195.5t-201 537.5zM379 1651q0 70 49 115.5t125 45.5t124 -46t48 -115q0 -72 -48 -118t-124 -46t-125 46t-49 118zM455 711q0 -231 83 -346t224 -115t224 114.5t83 346.5 q0 233 -83 349t-224 116t-224 -116t-83 -349zM799 1651q0 70 48 115.5t124 45.5t125 -46t49 -115q0 -72 -49 -118t-125 -46t-124 46t-48 118z" />
<glyph unicode="&#xd7;" horiz-adv-x="1079" d="M100 405q0 44 41 87l205 204l-205 205q-41 43 -41 87v4q2 46 41 85l17 17q39 39 85 41h4q44 0 89 -41l205 -205l207 205q44 42 91 42h3q49 -1 84 -42l14 -17q41 -48 41 -92t-41 -84l-205 -205l205 -202q41 -45 41 -89v-5q-2 -46 -41 -85l-14 -16q-35 -39 -84 -41h-5 q-47 0 -89 41l-207 205l-207 -205q-45 -41 -88 -41h-4q-45 2 -84 41l-17 16q-41 42 -41 90z" />
<glyph unicode="&#xd8;" horiz-adv-x="1523" d="M55 715q0 342 203 539.5t504 197.5q236 0 412 -121l65 76q53 61 100 61h4q63 0 87 -50q7 -16 7 -33q0 -35 -32 -72l-94 -109q160 -201 159 -489q0 -342 -201.5 -537.5t-506.5 -195.5q-225 0 -402 112l-71 -84q-53 -61 -101 -61h-4q-63 0 -85 50q-7 16 -7 33q0 35 31 72 l96 113q-164 193 -164 498zM449 711q0 -117 18 -203l504 586q-80 86 -209 86q-145 0 -229 -116.5t-84 -352.5zM557 326q78 -80 205 -80q143 0 229 115.5t86 349.5q0 104 -20 196z" />
<glyph unicode="&#xd9;" horiz-adv-x="1423" d="M111 545v729q0 74 43 117t116 43h76q74 0 116 -43t42 -117v-727q0 -156 60.5 -217.5t187.5 -61.5q121 0 177 61.5t56 217.5v745q0 68 38 105t101 37h47q63 0 101.5 -37t38.5 -105v-747q0 -561 -584 -561q-303 0 -459.5 144.5t-156.5 416.5zM466 1726q19 57 103 58h103 q131 0 164 -111l18 -61q7 -22 7 -41q0 -30 -18 -52q-30 -36 -85 -36h-15q-86 0 -168 73l-67 60q-47 40 -47 83q0 13 5 27z" />
<glyph unicode="&#xda;" horiz-adv-x="1423" d="M111 545v729q0 74 43 117t116 43h76q74 0 116 -43t42 -117v-727q0 -156 60.5 -217.5t187.5 -61.5q121 0 177 61.5t56 217.5v745q0 68 38 105t101 37h47q63 0 101.5 -37t38.5 -105v-747q0 -561 -584 -561q-303 0 -459.5 144.5t-156.5 416.5zM635 1612l18 61 q33 111 166 111h101q84 0 103 -58q5 -14 5 -27q0 -43 -47 -83l-68 -60q-82 -74 -168 -73h-16q-55 0 -83 36q-17 23 -17 53q0 19 6 40z" />
<glyph unicode="&#xdb;" horiz-adv-x="1423" d="M111 545v729q0 74 43 117t116 43h76q74 0 116 -43t42 -117v-727q0 -156 60.5 -217.5t187.5 -61.5q121 0 177 61.5t56 217.5v745q0 68 38 105t101 37h47q63 0 101.5 -37t38.5 -105v-747q0 -561 -584 -561q-303 0 -459.5 144.5t-156.5 416.5zM469 1544q-6 17 -6 35 q0 48 47 96l22 23q94 94 197 94h19q102 0 196 -94l23 -23q46 -48 46 -95q0 -18 -6 -36q-24 -66 -96 -65h-4q-57 0 -143 80l-27 24l-24 -24q-82 -80 -144 -80h-6q-71 -1 -94 65z" />
<glyph unicode="&#xdc;" horiz-adv-x="1423" d="M111 545v729q0 74 43 117t116 43h76q74 0 116 -43t42 -117v-727q0 -156 60.5 -217.5t187.5 -61.5q121 0 177 61.5t56 217.5v745q0 68 38 105t101 37h47q63 0 101.5 -37t38.5 -105v-747q0 -561 -584 -561q-303 0 -459.5 144.5t-156.5 416.5zM358 1651q0 70 49.5 115.5 t125 45.5t124 -46t48.5 -115q0 -72 -48.5 -118t-124 -46t-125 46t-49.5 118zM778 1651q0 70 48 115.5t124 45.5t125 -46t49 -115q0 -72 -49 -118t-125 -46t-124 46t-48 118z" />
<glyph unicode="&#xdd;" horiz-adv-x="1300" d="M70 1369q35 65 125 65h73q63 0 106.5 -35t84.5 -113l223 -412h4l223 429q68 131 172 131h56q82 0 109 -62q11 -25 11 -51q0 -39 -24 -82l-375 -696v-381q0 -78 -44 -120t-116 -42h-73q-72 0 -116 42t-44 120v373l-387 692q-24 43 -24 82q0 31 16 60zM567 1612l19 61 q33 111 166 111h100q84 0 103 -58q5 -14 5 -27q0 -43 -47 -83l-67 -60q-82 -74 -168 -73h-16q-55 0 -83 36q-17 23 -18 53q0 19 6 40z" />
<glyph unicode="&#xde;" horiz-adv-x="1271" d="M117 162v1112q0 72 42 116t117 44h74q76 0 118 -44t42 -116v-90h133q586 0 586 -457q0 -453 -600 -453h-119v-112q0 -78 -44 -120t-116 -42h-74q-72 0 -115.5 42t-43.5 120zM508 520h119q115 0 164 51.5t49 153.5t-46 148.5t-167 46.5h-119v-400z" />
<glyph unicode="&#xdf;" horiz-adv-x="1339" d="M100 145v875q0 209 145.5 322.5t430.5 113.5q240 0 369 -80t129 -237q0 -129 -164 -252q-66 -49 -87.5 -74t-21.5 -51q0 -25 24.5 -43.5t98.5 -48.5q145 -59 210.5 -134t65.5 -212q0 -156 -111.5 -248t-326.5 -92q-111 0 -188 26q-61 20 -86 55t-25 97v28q0 98 96 99 q29 0 91.5 -30t113.5 -30q102 0 103 66q0 33 -31 51.5t-131 56.5q-229 84 -230 283q0 55 20.5 104.5t44.5 78t73 81.5q6 6 23.5 25.5l22.5 25t16 19.5t15.5 21.5t9.5 18.5t7 21.5t2 22.5q0 45 -37 72.5t-106 27.5q-197 0 -197 -192v-867q0 -76 -42 -114.5t-112 -38.5h-65 q-70 0 -110 37.5t-40 115.5z" />
<glyph unicode="&#xe0;" horiz-adv-x="1136" d="M43 309q0 164 114.5 249t309.5 85q119 0 207 -20v75q0 70 -42 103t-140 33q-84 0 -162 -36t-109 -36q-43 0 -71.5 30.5t-28.5 79.5v21q0 115 119 156q131 47 323 47q246 0 362.5 -88t116.5 -285v-567q0 -156 -141 -156h-63q-102 0 -142 104q-111 -119 -309 -118 q-152 0 -248 83.5t-96 239.5zM300 1395q22 57 95 57h113q127 0 160 -119l18 -65q6 -22 6 -40q0 -32 -18 -56q-29 -36 -86 -35h-13q-84 0 -165 75l-76 72q-40 38 -40 79q0 16 6 32zM393 332q0 -131 137 -131q74 0 144 59v191q-61 10 -121 10q-160 0 -160 -129z" />
<glyph unicode="&#xe1;" horiz-adv-x="1136" d="M43 309q0 164 114.5 249t309.5 85q119 0 207 -20v75q0 70 -42 103t-140 33q-84 0 -162 -36t-109 -36q-43 0 -71.5 30.5t-28.5 79.5v21q0 115 119 156q131 47 323 47q246 0 362.5 -88t116.5 -285v-567q0 -156 -141 -156h-63q-102 0 -142 104q-111 -119 -309 -118 q-152 0 -248 83.5t-96 239.5zM393 332q0 -131 137 -131q74 0 144 59v191q-61 10 -121 10q-160 0 -160 -129zM461 1268l18 65q33 119 160 119h113q74 0 95 -57q6 -16 6 -32q0 -40 -40 -79l-76 -72q-82 -76 -166 -75h-12q-55 0 -85 37q-19 24 -19 56q0 18 6 38z" />
<glyph unicode="&#xe2;" horiz-adv-x="1136" d="M43 309q0 164 114.5 249t309.5 85q119 0 207 -20v75q0 70 -42 103t-140 33q-84 0 -162 -36t-109 -36q-43 0 -71.5 30.5t-28.5 79.5v21q0 115 119 156q131 47 323 47q246 0 362.5 -88t116.5 -285v-567q0 -156 -141 -156h-63q-102 0 -142 104q-111 -119 -309 -118 q-152 0 -248 83.5t-96 239.5zM311 1252q6 52 58 104l18 18q86 86 188 86h13q102 0 188 -86l19 -18q59 -64 59 -120q0 -16 -5 -31q-22 -69 -95 -68h-6q-66 0 -142 77l-24 29l-25 -29q-76 -78 -141 -77h-6q-47 0 -76 31q-24 26 -24 67q0 8 1 17zM393 332q0 -131 137 -131 q74 0 144 59v191q-61 10 -121 10q-160 0 -160 -129z" />
<glyph unicode="&#xe3;" horiz-adv-x="1136" d="M43 309q0 164 114.5 249t309.5 85q119 0 207 -20v75q0 70 -42 103t-140 33q-84 0 -162 -36t-109 -36q-43 0 -71.5 30.5t-28.5 79.5v21q0 115 119 156q131 47 323 47q246 0 362.5 -88t116.5 -285v-567q0 -156 -141 -156h-63q-102 0 -142 104q-111 -119 -309 -118 q-152 0 -248 83.5t-96 239.5zM254 1284q16 74 72.5 118t138.5 44q51 0 128 -28.5t95 -28.5q41 0 82 36q43 35 70 35h4q49 0 71 -38q14 -23 14 -59q0 -23 -5 -50q-18 -76 -73.5 -119t-137.5 -43q-51 0 -128 28.5t-98 28.5q-39 0 -79 -37q-43 -35 -70 -34h-6q-47 0 -70 38 q-14 23 -14 58q0 23 6 51zM393 332q0 -131 137 -131q74 0 144 59v191q-61 10 -121 10q-160 0 -160 -129z" />
<glyph unicode="&#xe4;" horiz-adv-x="1136" d="M43 309q0 164 114.5 249t309.5 85q119 0 207 -20v75q0 70 -42 103t-140 33q-84 0 -162 -36t-109 -36q-43 0 -71.5 30.5t-28.5 79.5v21q0 115 119 156q131 47 323 47q246 0 362.5 -88t116.5 -285v-567q0 -156 -141 -156h-63q-102 0 -142 104q-111 -119 -309 -118 q-152 0 -248 83.5t-96 239.5zM195 1309q0 72 49 118t124.5 46t124 -46.5t48.5 -118t-48.5 -116.5t-124 -45t-124.5 46t-49 116zM393 332q0 -131 137 -131q74 0 144 59v191q-61 10 -121 10q-160 0 -160 -129zM614 1308.5q0 71.5 48.5 118t124 46.5t125 -46.5t49.5 -117.5 q0 -70 -49.5 -116t-125 -46t-124 45t-48.5 116.5z" />
<glyph unicode="&#xe5;" horiz-adv-x="1136" d="M43 309q0 164 114.5 249t309.5 85q119 0 207 -20v75q0 70 -42 103t-140 33q-84 0 -162 -36t-109 -36q-43 0 -71.5 30.5t-28.5 79.5v21q0 115 119 156q131 47 323 47q246 0 362.5 -88t116.5 -285v-567q0 -156 -141 -156h-63q-102 0 -142 104q-111 -119 -309 -118 q-152 0 -248 83.5t-96 239.5zM371 1360q0 92 63.5 150.5t155.5 58.5t155.5 -58.5t63.5 -150.5q0 -94 -63.5 -151.5t-155.5 -57.5t-155.5 57.5t-63.5 151.5zM393 332q0 -131 137 -131q74 0 144 59v191q-61 10 -121 10q-160 0 -160 -129zM522 1360q0 -33 18.5 -53.5 t49.5 -20.5q33 0 51 19.5t18 54.5t-18 54.5t-51 19.5q-31 0 -49.5 -20.5t-18.5 -53.5z" />
<glyph unicode="&#xe6;" horiz-adv-x="1771" d="M43 311q0 164 118 250t326 86h187v51q0 70 -42 103t-140 33q-84 0 -162 -36t-109 -36q-43 0 -71.5 30.5t-28.5 79.5v21q0 115 119 156q131 47 323 47q227 0 324 -97q141 96 334 97q252 0 378.5 -134.5t126.5 -365.5q0 -137 -145 -137h-539q12 -131 74 -180.5t178 -49.5 q102 0 187.5 39t109.5 39q45 0 72 -27.5t27 -78.5v-17q0 -96 -101 -141q-129 -59 -350 -59q-297 0 -442 163q-141 -162 -381 -161q-172 0 -272.5 81.5t-100.5 243.5zM393 332q0 -66 36 -98.5t95 -32.5q104 0 189 84q-33 84 -41 174h-123q-156 0 -156 -127zM1044 651h336 q-6 121 -44 170t-113 49q-154 0 -179 -219z" />
<glyph unicode="&#xe7;" horiz-adv-x="1044" d="M45 537q0 260 164 409.5t432 149.5q137 0 233 -33q119 -39 119 -154v-24q0 -57 -26.5 -86t-71.5 -29q-29 0 -98.5 33t-139.5 33q-111 0 -175 -77t-64 -227q0 -295 231 -294q78 0 148.5 36.5t95.5 36.5q98 0 98 -112v-19q0 -111 -119 -160q-94 -37 -249 -36v-33 q166 -8 165 -150q0 -74 -58 -116.5t-171 -42.5q-63 0 -108 14q-59 20 -60 78v8q0 59 51 59q16 0 41 -12t45 -12q47 0 47 35q0 33 -59 32h-4q-45 0 -45 43v111q-203 35 -312.5 174.5t-109.5 364.5z" />
<glyph unicode="&#xe8;" horiz-adv-x="1144" d="M45 532q0 258 151.5 411t397.5 153q252 0 380 -134.5t128 -365.5q0 -137 -146 -137h-540q12 -131 73.5 -180.5t180.5 -49.5q100 0 185 39t110 39q98 0 98 -106v-17q0 -92 -100 -141q-125 -59 -351 -59q-276 0 -421.5 144t-145.5 404zM304 1395q22 57 95 57h113 q127 0 160 -119l18 -65q6 -22 6 -40q0 -32 -18 -56q-29 -36 -86 -35h-12q-84 0 -166 75l-76 72q-40 38 -40 79q0 16 6 32zM418 651h336q-4 121 -43 170t-115 49q-153 0 -178 -219z" />
<glyph unicode="&#xe9;" horiz-adv-x="1144" d="M45 532q0 258 151.5 411t397.5 153q252 0 380 -134.5t128 -365.5q0 -137 -146 -137h-540q12 -131 73.5 -180.5t180.5 -49.5q100 0 185 39t110 39q98 0 98 -106v-17q0 -92 -100 -141q-125 -59 -351 -59q-276 0 -421.5 144t-145.5 404zM418 651h336q-4 121 -43 170t-115 49 q-153 0 -178 -219zM489 1268l19 65q33 119 160 119h112q74 0 96 -57q6 -16 6 -32q0 -40 -40 -79l-76 -72q-82 -76 -166 -75h-12q-55 0 -85 37q-19 24 -19 56q-1 18 5 38z" />
<glyph unicode="&#xea;" horiz-adv-x="1144" d="M45 532q0 258 151.5 411t397.5 153q252 0 380 -134.5t128 -365.5q0 -137 -146 -137h-540q12 -131 73.5 -180.5t180.5 -49.5q100 0 185 39t110 39q98 0 98 -106v-17q0 -92 -100 -141q-125 -59 -351 -59q-276 0 -421.5 144t-145.5 404zM319 1252q6 52 58 104l18 18 q86 86 189 86h12q102 0 188 -86l19 -18q59 -64 59 -120q0 -16 -5 -31q-22 -69 -95 -68h-6q-66 0 -142 77l-24 29l-25 -29q-76 -78 -141 -77h-6q-47 0 -76 31q-24 26 -24 67q0 8 1 17zM418 651h336q-4 121 -43 170t-115 49q-153 0 -178 -219z" />
<glyph unicode="&#xeb;" horiz-adv-x="1144" d="M45 532q0 258 151.5 411t397.5 153q252 0 380 -134.5t128 -365.5q0 -137 -146 -137h-540q12 -131 73.5 -180.5t180.5 -49.5q100 0 185 39t110 39q98 0 98 -106v-17q0 -92 -100 -141q-125 -59 -351 -59q-276 0 -421.5 144t-145.5 404zM203 1309q0 72 49 118t125 46 t124 -46.5t48 -118t-48 -116.5t-124 -45t-125 46t-49 116zM418 651h336q-4 121 -43 170t-115 49q-153 0 -178 -219zM623 1308.5q0 71.5 48 118t123.5 46.5t125 -46.5t49.5 -117.5q0 -70 -49.5 -116t-125 -46t-123.5 45t-48 116.5z" />
<glyph unicode="&#xec;" horiz-adv-x="573" d="M13 1395q22 57 96 57h112q127 0 160 -119l18 -65q6 -22 6 -40q0 -32 -18 -56q-29 -36 -86 -35h-12q-84 0 -166 75l-76 72q-40 38 -40 79q0 16 6 32zM102 154v772q0 154 148 153h55q86 0 125 -51t39 -166v-708q0 -74 -41 -114t-111 -40h-63q-68 0 -110 40t-42 114z" />
<glyph unicode="&#xed;" horiz-adv-x="573" d="M102 154v772q0 154 148 153h55q86 0 125 -51t39 -166v-708q0 -74 -41 -114t-111 -40h-63q-68 0 -110 40t-42 114zM168 1268l18 65q33 119 160 119h113q74 0 95 -57q6 -16 6 -32q0 -40 -40 -79l-76 -72q-82 -76 -165 -75h-13q-55 0 -85 37q-19 24 -19 56q0 18 6 38z" />
<glyph unicode="&#xee;" horiz-adv-x="573" d="M18 1252q6 52 58 104l18 18q86 86 189 86h12q102 0 188 -86l19 -18q59 -64 59 -120q0 -16 -5 -31q-22 -69 -95 -68h-6q-66 0 -142 77l-24 29l-25 -29q-76 -78 -141 -77h-6q-47 0 -76 31q-24 26 -24 67q0 8 1 17zM102 154v772q0 154 148 153h55q86 0 125 -51t39 -166v-708 q0 -74 -41 -114t-111 -40h-63q-68 0 -110 40t-42 114z" />
<glyph unicode="&#xef;" horiz-adv-x="573" d="M-86 1308.5q0 71.5 48 118t124 46.5t125 -46.5t49 -117.5q0 -70 -49 -116t-125 -46t-124 45t-48 116.5zM102 154v772q0 154 148 153h55q86 0 125 -51t39 -166v-708q0 -74 -41 -114t-111 -40h-63q-68 0 -110 40t-42 114zM313 1308.5q0 71.5 48.5 118t124 46.5t123.5 -46.5 t48 -118t-48 -116.5t-123.5 -45t-124 45t-48.5 116.5z" />
<glyph unicode="&#xf0;" d="M45 514q0 240 135 377t332 137q94 0 149.5 -24.5t108.5 -75.5q-51 123 -176 196l-25 -18q-61 -49 -100 -49h-2q-59 0 -80 50q-7 16 -7 32q0 32 30 61q-59 16 -86 44t-27 77v8q0 103 122 103q26 0 58 -5q82 -10 176 -38l27 20q61 49 100 49h4q61 -2 79 -56q5 -14 5 -28 q0 -38 -37 -67q172 -104 266.5 -287.5t94.5 -431.5q0 -301 -160 -452.5t-424 -151.5q-252 0 -407.5 142t-155.5 388zM416 510q0 -141 56 -213t153 -72q195 0 194 285q0 289 -194 289q-96 0 -152.5 -73t-56.5 -216z" />
<glyph unicode="&#xf1;" horiz-adv-x="1236" d="M100 154v772q0 154 148 153h57q61 0 98 -29.5t54 -105.5q178 152 393 152q293 0 293 -305v-637q0 -74 -42 -114t-110 -40h-63q-70 0 -112 40t-42 114v540q0 68 -28.5 93.5t-98 25.5t-178.5 -35v-624q0 -74 -42 -114t-110 -40h-65q-68 0 -110 40t-42 114zM313 1284 q16 74 72.5 118t138.5 44q51 0 128 -28.5t96 -28.5q41 0 81 36q43 35 70 35h4q49 0 72 -38q14 -23 14 -59q0 -23 -6 -50q-18 -76 -73.5 -119t-137.5 -43q-51 0 -128 28.5t-97 28.5q-39 0 -80 -37q-43 -35 -70 -34h-6q-47 0 -69 38q-14 23 -14 58q-1 23 5 51z" />
<glyph unicode="&#xf2;" d="M45 535q0 254 162 407.5t411 153.5q248 0 411 -154t163 -407q0 -252 -162 -401.5t-411.5 -149.5t-411.5 149.5t-162 401.5zM329 1395q22 57 95 57h113q127 0 159 -119l19 -65q6 -22 6 -40q0 -32 -19 -56q-29 -36 -86 -35h-12q-84 0 -166 75l-76 72q-40 38 -39 79 q0 16 6 32zM416 530q0 -154 54 -229.5t148 -75.5q201 0 201 305q0 158 -53 237t-147.5 79t-148.5 -80t-54 -236z" />
<glyph unicode="&#xf3;" d="M45 535q0 254 162 407.5t411 153.5q248 0 411 -154t163 -407q0 -252 -162 -401.5t-411.5 -149.5t-411.5 149.5t-162 401.5zM416 530q0 -154 54 -229.5t148 -75.5q201 0 201 305q0 158 -53 237t-147.5 79t-148.5 -80t-54 -236zM522 1268l19 65q33 119 159 119h113 q74 0 95 -57q6 -16 6 -32q0 -40 -40 -79l-75 -72q-82 -76 -166 -75h-12q-55 0 -85 37q-19 24 -20 56q0 18 6 38z" />
<glyph unicode="&#xf4;" d="M45 535q0 254 162 407.5t411 153.5q248 0 411 -154t163 -407q0 -252 -162 -401.5t-411.5 -149.5t-411.5 149.5t-162 401.5zM346 1252q6 52 57 104l19 18q86 86 188 86h13q102 0 188 -86l18 -18q59 -64 59 -120q0 -16 -4 -31q-22 -69 -96 -68h-6q-66 0 -141 77l-25 29 l-24 -29q-76 -78 -141 -77h-7q-47 0 -75 31q-24 26 -24 67q0 8 1 17zM416 530q0 -154 54 -229.5t148 -75.5q201 0 201 305q0 158 -53 237t-147.5 79t-148.5 -80t-54 -236z" />
<glyph unicode="&#xf5;" d="M45 535q0 254 162 407.5t411 153.5q248 0 411 -154t163 -407q0 -252 -162 -401.5t-411.5 -149.5t-411.5 149.5t-162 401.5zM285 1284q16 74 72.5 118t138.5 44q51 0 127.5 -28.5t95.5 -28.5q41 0 82 36q43 35 69 35h4q49 0 72 -38q14 -23 14 -59q0 -23 -6 -50 q-18 -76 -73.5 -119t-137.5 -43q-51 0 -127.5 28.5t-97.5 28.5q-39 0 -80 -37q-43 -35 -69 -34h-7q-47 0 -69 38q-14 23 -14 58q0 23 6 51zM416 530q0 -154 54 -229.5t148 -75.5q201 0 201 305q0 158 -53 237t-147.5 79t-148.5 -80t-54 -236z" />
<glyph unicode="&#xf6;" d="M45 535q0 254 162 407.5t411 153.5q248 0 411 -154t163 -407q0 -252 -162 -401.5t-411.5 -149.5t-411.5 149.5t-162 401.5zM236 1309q0 72 49 118t124.5 46t124 -46.5t48.5 -118t-48.5 -116.5t-124 -45t-124.5 46t-49 116zM416 530q0 -154 54 -229.5t148 -75.5 q201 0 201 305q0 158 -53 237t-147.5 79t-148.5 -80t-54 -236zM655 1308.5q0 71.5 48.5 118t124 46.5t124.5 -46.5t49 -117.5q0 -70 -49 -116t-124.5 -46t-124 45t-48.5 116.5z" />
<glyph unicode="&#xf7;" horiz-adv-x="1097" d="M41 696v25q0 57 31.5 93t99.5 36h756q66 0 97.5 -36t31.5 -93v-25q0 -131 -129 -131h-756q-131 0 -131 131zM358 311q0 78 55.5 132.5t137.5 54.5q78 0 133 -54.5t55 -132.5q0 -76 -55 -129t-133 -53q-82 0 -137.5 52t-55.5 130zM358 1102q0 78 55.5 131t137.5 53 q78 0 133 -54t55 -130q0 -78 -55 -131t-133 -53q-82 0 -137.5 53t-55.5 131z" />
<glyph unicode="&#xf8;" d="M45 535q0 254 162 407.5t411 153.5q174 0 314 -82l47 55q47 55 90 55h2q57 0 75 -43q5 -13 5 -26q0 -31 -29 -66l-65 -76q135 -156 135 -378q0 -252 -162 -401.5t-412 -149.5q-172 0 -309 73l-55 -63q-49 -57 -88 -57h-4q-55 0 -74 44q-6 14 -6 27q0 31 29 66l71 82 q-137 150 -137 379zM406 530q0 -68 8 -110l334 385q-49 47 -130 47q-98 0 -155 -81t-57 -241zM485 260q53 -47 133 -47q96 0 152.5 81t56.5 236q0 70 -8 113z" />
<glyph unicode="&#xf9;" horiz-adv-x="1253" d="M102 293v635q0 72 41 111.5t111 39.5h65q70 0 111 -40t41 -111v-551q0 -70 32 -96.5t107 -26.5q63 0 168 35v639q0 72 40 111.5t112 39.5h63q72 0 112 -40t40 -111v-772q0 -156 -146 -156h-63q-115 0 -143 127q-176 -143 -375 -143q-316 0 -316 309zM339 1395 q22 57 95 57h113q127 0 160 -119l18 -65q6 -22 6 -40q0 -32 -18 -56q-29 -36 -86 -35h-13q-84 0 -165 75l-76 72q-40 38 -40 79q0 16 6 32z" />
<glyph unicode="&#xfa;" horiz-adv-x="1253" d="M102 293v635q0 72 41 111.5t111 39.5h65q70 0 111 -40t41 -111v-551q0 -70 32 -96.5t107 -26.5q63 0 168 35v639q0 72 40 111.5t112 39.5h63q72 0 112 -40t40 -111v-772q0 -156 -146 -156h-63q-115 0 -143 127q-176 -143 -375 -143q-316 0 -316 309zM530 1268l19 65 q33 119 160 119h112q74 0 95 -57q6 -16 7 -32q0 -40 -40 -79l-76 -72q-82 -76 -166 -75h-12q-55 0 -85 37q-19 24 -19 56q-1 18 5 38z" />
<glyph unicode="&#xfb;" horiz-adv-x="1253" d="M102 293v635q0 72 41 111.5t111 39.5h65q70 0 111 -40t41 -111v-551q0 -70 32 -96.5t107 -26.5q63 0 168 35v639q0 72 40 111.5t112 39.5h63q72 0 112 -40t40 -111v-772q0 -156 -146 -156h-63q-115 0 -143 127q-176 -143 -375 -143q-316 0 -316 309zM362 1252 q6 52 58 104l18 18q86 86 189 86h12q102 0 188 -86l19 -18q59 -64 59 -120q0 -16 -5 -31q-22 -69 -95 -68h-6q-66 0 -142 77l-24 29l-25 -29q-76 -78 -141 -77h-6q-47 0 -76 31q-24 26 -24 67q0 8 1 17z" />
<glyph unicode="&#xfc;" horiz-adv-x="1253" d="M102 293v635q0 72 41 111.5t111 39.5h65q70 0 111 -40t41 -111v-551q0 -70 32 -96.5t107 -26.5q63 0 168 35v639q0 72 40 111.5t112 39.5h63q72 0 112 -40t40 -111v-772q0 -156 -146 -156h-63q-115 0 -143 127q-176 -143 -375 -143q-316 0 -316 309zM246 1309 q0 72 49 118t125 46t124 -46.5t48 -118t-48 -116.5t-124 -45t-125 46t-49 116zM666 1308.5q0 71.5 48 118t123.5 46.5t125 -46.5t49.5 -117.5q0 -70 -49.5 -116t-125 -46t-123.5 45t-48 116.5z" />
<glyph unicode="&#xfd;" horiz-adv-x="1161" d="M67 1021q32 58 109 58h78q115 0 170 -147l180 -465h6l174 475q27 74 62 105.5t92 31.5h49q84 0 114 -56q14 -26 13 -58q0 -38 -18 -84l-443 -1080q-53 -133 -174 -133h-65q-74 0 -105 52q-14 24 -14 54q0 36 20 81l99 204l-344 818q-18 45 -19 82q1 34 16 62zM512 1268 l18 65q33 119 160 119h113q74 0 95 -57q6 -16 6 -32q0 -40 -40 -79l-76 -72q-82 -76 -165 -75h-13q-55 0 -85 37q-19 24 -19 56q0 18 6 38z" />
<glyph unicode="&#xfe;" horiz-adv-x="1243" d="M100 -172v1450q0 156 148 156h55q88 0 127 -52.5t39 -173.5v-233q131 121 322 121q172 0 289.5 -129t117.5 -400q0 -287 -128 -426t-331 -139q-166 0 -270 80v-254q0 -74 -42 -113t-110 -39h-65q-68 0 -110 39t-42 113zM469 287q61 -43 149 -43q96 0 151.5 63.5 t55.5 229.5q0 162 -53 224t-147 62q-68 0 -156 -37v-499z" />
<glyph unicode="&#xff;" horiz-adv-x="1161" d="M67 1021q32 58 109 58h78q115 0 170 -147l180 -465h6l174 475q27 74 62 105.5t92 31.5h49q84 0 114 -56q14 -26 13 -58q0 -38 -18 -84l-443 -1080q-53 -133 -174 -133h-65q-74 0 -105 52q-14 24 -14 54q0 36 20 81l99 204l-344 818q-18 45 -19 82q1 34 16 62zM223 1309 q0 72 49.5 118t125 46t123.5 -46.5t48 -118t-48 -116.5t-123.5 -45t-125 46t-49.5 116zM643 1308.5q0 71.5 48 118t124 46.5t125 -46.5t49 -117.5q0 -70 -49 -116t-125 -46t-124 45t-48 116.5z" />
<glyph unicode="&#x152;" horiz-adv-x="1986" d="M55 709q0 725 770 725h947q61 0 93.5 -35t32.5 -92v-19q0 -59 -32.5 -94t-93.5 -35h-459v-305h297q59 0 91 -33t32 -90v-10q0 -57 -32 -91t-91 -34h-297v-330h481q125 0 125 -125v-14q0 -127 -125 -127h-979q-760 0 -760 709zM455 719q0 -242 89 -346.5t287 -104.5h91 v897h-91q-197 0 -286.5 -102t-89.5 -344z" />
<glyph unicode="&#x153;" horiz-adv-x="1916" d="M45 535q0 254 160 407.5t405 153.5q240 0 387 -158q139 158 377 158q246 0 373 -134.5t127 -365.5q0 -137 -145 -137h-541q12 -131 73.5 -180.5t180.5 -49.5q100 0 185 39t110 39q45 0 71.5 -27.5t26.5 -78.5v-17q0 -92 -100 -141q-131 -59 -342 -59q-264 0 -400 147 q-143 -147 -381 -147q-248 0 -407.5 149.5t-159.5 401.5zM416 530q0 -154 54 -230.5t148.5 -76.5t147.5 76t53 231.5t-53 233.5t-147.5 78t-148.5 -78t-54 -234zM1190 651h336q-4 121 -43 170t-115 49q-153 0 -178 -219z" />
<glyph unicode="&#x178;" horiz-adv-x="1300" d="M70 1369q35 65 125 65h73q63 0 106.5 -35t84.5 -113l223 -412h4l223 429q68 131 172 131h56q82 0 109 -62q11 -25 11 -51q0 -39 -24 -82l-375 -696v-381q0 -78 -44 -120t-116 -42h-73q-72 0 -116 42t-44 120v373l-387 692q-24 43 -24 82q0 31 16 60zM299 1651 q0 70 49 115.5t125 45.5t124 -46t48 -115q0 -72 -48 -118t-124 -46t-125 46t-49 118zM719 1651q0 70 48 115.5t124 45.5t125 -46t49 -115q0 -72 -49 -118t-125 -46t-124 46t-48 118z" />
<glyph unicode="&#x2c6;" horiz-adv-x="819" d="M139 1250q6 52 58 104l18 18q86 86 188 86h13q102 0 188 -86l19 -18q59 -64 59 -120q0 -16 -5 -31q-22 -69 -95 -68h-7q-66 0 -141 77l-24 29l-25 -29q-76 -78 -141 -77h-6q-47 0 -76 31q-24 26 -24 67q0 8 1 17z" />
<glyph unicode="&#x2dc;" horiz-adv-x="819" d="M63 1284q16 74 73 118t138 44q51 0 128 -28.5t96 -28.5q41 0 82 36q43 35 69 35h4q49 0 72 -38q14 -23 14 -59q0 -23 -6 -50q-18 -76 -73.5 -119t-137.5 -43q-51 0 -128 28.5t-97 28.5q-39 0 -80 -37q-43 -35 -70 -34h-6q-47 0 -69 38q-14 23 -14 58q-1 23 5 51z" />
<glyph unicode="&#x2013;" horiz-adv-x="919" d="M74 571v15q0 55 33.5 91t95.5 36h514q61 0 95 -36t34 -91v-15q0 -57 -34 -93t-95 -36h-514q-61 0 -95 36t-34 93z" />
<glyph unicode="&#x2014;" horiz-adv-x="1536" d="M74 569v17q0 55 33.5 91t95.5 36h1130q61 0 95 -36t34 -91v-17q0 -55 -33.5 -91t-95.5 -36h-1130q-61 0 -95 36t-34 91z" />
<glyph unicode="&#x2018;" horiz-adv-x="477" d="M53 1098q0 137 77 228t204 110q13 3 24 2q26 0 45 -13q29 -18 29 -51v-2q0 -53 -72 -86q-68 -31 -67 -61q0 -29 59 -66q72 -47 72 -127q0 -68 -49 -110.5t-125 -42.5q-84 0 -140.5 55t-56.5 164z" />
<glyph unicode="&#x2019;" horiz-adv-x="477" d="M47 946v4q0 53 70 86q68 29 67 62q0 29 -59 65q-72 47 -72 127q0 68 49.5 111t126.5 43q82 0 138.5 -56.5t56.5 -162.5q0 -139 -77 -229.5t-204 -110.5q-41 -6 -68.5 11t-27.5 50z" />
<glyph unicode="&#x201a;" horiz-adv-x="477" d="M47 -131q0 29 15.5 47t54.5 37q68 31 67 61q0 29 -59 66q-72 43 -72 127q0 68 49.5 110.5t126.5 42.5q82 0 138.5 -55t56.5 -164q0 -133 -74 -220t-207 -116q-13 -3 -24 -2q-26 0 -44 13q-28 18 -28 51v2z" />
<glyph unicode="&#x201c;" horiz-adv-x="917" d="M53 1098q0 137 77 228t204 110q13 3 24 2q26 0 45 -13q29 -18 29 -51v-2q0 -53 -72 -86q-68 -31 -67 -61q0 -29 59 -66q72 -47 72 -127q0 -68 -49 -110.5t-125 -42.5q-84 0 -140.5 55t-56.5 164zM494 1098q0 137 76.5 228t203.5 110q13 3 24 2q26 0 45 -13q28 -18 27 -51 v-2q0 -53 -69 -86q-68 -31 -68 -61q0 -29 60 -66q72 -47 71 -127q0 -68 -49 -110.5t-127 -42.5q-84 0 -139 55t-55 164z" />
<glyph unicode="&#x201d;" horiz-adv-x="917" d="M47 946v4q0 53 70 86q68 29 67 62q0 29 -59 65q-72 47 -72 127q0 68 49.5 111t126.5 43q82 0 138.5 -56.5t56.5 -162.5q0 -139 -77 -229.5t-204 -110.5q-11 -2 -20 -2q-28 0 -48 13q-28 17 -28 50zM485 946v4q0 53 72 86q68 29 68 62q0 29 -60 65q-72 47 -71 127 q0 68 49 111t125 43q84 0 140 -55.5t56 -163.5q0 -139 -76.5 -229.5t-203.5 -110.5q-11 -2 -21 -2q-28 0 -49 13q-29 17 -29 50z" />
<glyph unicode="&#x201e;" horiz-adv-x="917" d="M47 -131q0 29 15.5 47t54.5 37q68 31 67 61q0 29 -59 66q-72 43 -72 127q0 68 49.5 110.5t126.5 42.5q82 0 138.5 -55t56.5 -164q0 -133 -74 -220t-207 -116q-13 -3 -24 -2q-26 0 -44 13q-28 18 -28 51v2zM485 -131q0 51 72 84q68 31 68 61q0 29 -60 66q-72 43 -71 127 q0 68 49 110.5t125 42.5q84 0 140 -55t56 -164q0 -133 -73.5 -220t-206.5 -116q-13 -3 -24 -2q-26 0 -46 13q-29 18 -29 51v2z" />
<glyph unicode="&#x2022;" horiz-adv-x="735" d="M63 571q0 137 88.5 219t217.5 82q131 0 217 -81.5t86 -219.5q0 -135 -86 -215t-217 -80t-218.5 80t-87.5 215z" />
<glyph unicode="&#x2026;" horiz-adv-x="1476" d="M49 172q0 78 56.5 132t136.5 54t136 -54t56 -132t-56 -132t-136 -54t-136.5 54t-56.5 132zM547 172q0 78 55 132t137 54q80 0 136.5 -54t56.5 -132t-56.5 -132t-136.5 -54q-82 0 -137 54t-55 132zM1042 172q0 78 56.5 132t136.5 54t136 -54t56 -132t-56 -132t-136 -54 t-136.5 54t-56.5 132z" />
<glyph unicode="&#x2039;" horiz-adv-x="620" d="M49 532.5q0 57.5 45 131.5l129 208q70 119 172 119h33q74 0 97 -55q9 -21 9 -43q0 -36 -24 -76l-164 -280v-5l164 -282q24 -41 24 -77q0 -22 -9 -43q-24 -54 -97 -54h-33q-96 0 -172 119l-129 206q-45 74 -45 131.5z" />
<glyph unicode="&#x203a;" horiz-adv-x="620" d="M97 130q-9 20 -9 43q0 36 25 77l163 282v5l-163 280q-24 40 -25 76q0 22 9 43q24 55 98 55h32q102 0 172 -119l129 -208q45 -74 45 -131.5t-45 -131.5l-129 -206q-76 -119 -172 -119h-32q-74 0 -98 54z" />
<glyph unicode="&#x20ac;" horiz-adv-x="1261" d="M33 571v4q0 92 92 93h14v96h-14q-92 0 -92 94v4q0 92 92 92h41q55 244 225 371t424 127q158 0 262 -37q125 -43 125 -168v-33q0 -53 -30.5 -84.5t-81.5 -31.5q-33 0 -109 38t-150 38q-213 0 -266 -220h256q94 0 94 -92v-4q0 -94 -94 -94h-278v-96h225q92 0 92 -93v-4 q0 -94 -92 -94h-207q25 -115 86.5 -167t169.5 -52q98 0 177 48t112 48q51 0 78.5 -28.5t27.5 -75.5v-29q0 -123 -127 -184q-115 -55 -301 -55q-242 0 -405.5 125.5t-216.5 369.5h-37q-92 0 -92 94z" />
<glyph unicode="&#x2122;" horiz-adv-x="1454" d="M47 1360v4q0 70 70 70h393q70 0 70 -70v-4q0 -70 -70 -70h-98v-344q0 -96 -97 -96h-4q-98 0 -98 96v344h-96q-70 0 -70 70zM649 928v379q0 70 34 100.5t103 30.5h11q74 0 110.5 -27t57.5 -98l47 -164h2l49 166q20 72 55 97.5t109 25.5h16q137 0 137 -131v-371 q0 -84 -88 -84h-18q-88 0 -88 84v319h-2l-99 -329q-23 -76 -84 -76h-4q-66 0 -86 76l-98 329h-2v-327q0 -78 -78 -78h-4q-80 0 -80 78z" />
<glyph unicode="&#xe000;" horiz-adv-x="1080" d="M0 1080h1080v-1080h-1080v1080z" />
<glyph unicode="&#xfb01;" horiz-adv-x="1273" d="M20 952v17q0 111 105 110h27v66q0 311 366 311q59 0 105 -10q86 -18 86 -109v-16q0 -45 -23.5 -67.5t-79.5 -30.5q-49 -8 -67.5 -27.5t-18.5 -62.5v-54h78q106 0 107 -110v-17q0 -111 -107 -110h-78v-688q0 -74 -42 -114t-109 -40h-66q-68 0 -109.5 40t-41.5 114v688h-27 q-105 -1 -105 110zM799 1317q0 76 54 125t136 49t135.5 -49t53.5 -125t-53.5 -124t-135.5 -48q-84 0 -137 48t-53 124zM803 154v772q0 154 147 153h58q86 0 124.5 -51t38.5 -166v-708q0 -74 -42 -114t-109 -40h-66q-68 0 -109.5 40t-41.5 114z" />
<glyph unicode="&#xfb02;" horiz-adv-x="1271" d="M20 952v17q0 111 105 110h27v66q0 311 362 311q59 0 104 -10q90 -18 91 -107v-16q0 -45 -25 -68.5t-78 -31.5q-49 -8 -67.5 -27.5t-18.5 -62.5v-54h78q106 0 107 -110v-17q0 -111 -107 -110h-78v-688q0 -74 -42 -114t-109 -40h-66q-68 0 -109.5 40t-41.5 114v688h-27 q-105 -1 -105 110zM803 154v1124q0 156 147 156h58q86 0 124.5 -52.5t38.5 -173.5v-1054q0 -74 -42 -114t-109 -40h-66q-68 0 -109.5 40t-41.5 114z" />
<glyph unicode="&#xfb03;" horiz-adv-x="2068" d="M20 952v17q0 111 105 110h27v66q0 311 366 311q72 0 119 -10q86 -18 86 -109v-16q0 -45 -23.5 -67.5t-78.5 -30.5q-51 -8 -76 -28.5t-25 -61.5v-54h84q106 0 107 -110v-17q0 -111 -107 -110h-84v-688q0 -74 -42 -114t-109 -40h-66q-68 0 -109.5 40t-41.5 114v688h-27 q-105 -1 -105 110zM768 952v17q0 111 104 110h27v66q0 311 367 311q72 0 118 -10q86 -18 86 -109v-16q0 -45 -23.5 -67.5t-78.5 -30.5q-51 -8 -75.5 -28.5t-24.5 -61.5v-54h84q106 0 106 -110v-17q0 -111 -106 -110h-84v-688q0 -74 -42 -114t-110 -40h-65q-68 0 -110 40 t-42 114v688h-27q-104 -1 -104 110zM1591 1317q0 76 54.5 125t136.5 49t136 -49t54 -125t-53 -124t-137 -48q-82 0 -136.5 48t-54.5 124zM1597 154v772q0 154 148 153h55q86 0 125 -51t39 -166v-708q0 -74 -41 -114t-111 -40h-63q-68 0 -110 40t-42 114z" />
<glyph unicode="&#xfb04;" horiz-adv-x="2072" d="M20 952v17q0 111 105 110h27v66q0 311 366 311q72 0 119 -10q86 -18 86 -109v-16q0 -45 -23.5 -67.5t-78.5 -30.5q-51 -8 -76 -28.5t-25 -61.5v-54h84q106 0 107 -110v-17q0 -111 -107 -110h-84v-688q0 -74 -42 -114t-109 -40h-66q-68 0 -109.5 40t-41.5 114v688h-27 q-105 -1 -105 110zM768 952v17q0 111 104 110h27v66q0 311 367 311q72 0 118 -10q86 -18 86 -109v-16q0 -45 -23.5 -67.5t-78.5 -30.5q-51 -8 -75.5 -28.5t-24.5 -61.5v-54h84q106 0 106 -110v-17q0 -111 -106 -110h-84v-688q0 -74 -42 -114t-110 -40h-65q-68 0 -110 40 t-42 114v688h-27q-104 -1 -104 110zM1599 154v1124q0 156 148 156h55q88 0 127 -52.5t39 -173.5v-1054q0 -74 -42 -114t-109 -40h-66q-68 0 -110 40t-42 114z" />
</font>
</defs>
</svg>
